<svg xmlns="http://www.w3.org/2000/svg" viewBox="0 0 501.72 451.85"><defs><style>.cls-1{isolation:isolate;}.cls-2{fill:#19191e;}</style></defs><title>1-quote</title><g id="Layer_2" data-name="Layer 2"><g id="_49-text.svg" data-name=" 49-text.svg"><g class="cls-1"><path class="cls-2" d="M8.75,224.6c-3.4,0-7.4-2.5-7.4-8.75,0-5.35,4.7-15,14-15,3.4,0,7.4,2.55,7.4,8.8C22.75,215,18.15,224.6,8.75,224.6Zm5.85-22.9c-5.25,0-8.55,9.2-8.55,15.1,0,4.6,1.5,6.85,3.45,6.85,5.6,0,8.55-9.15,8.55-15.1C18.05,203.95,16.4,201.7,14.6,201.7Z"/><path class="cls-2" d="M47.47,193.5c-1,0-2.8-.55-2.8-2.2,0-.7.6-1.65.75-2.7-.25-.75-.55-.85-1.1-.85-3.2,0-5.6,3.35-7.55,10.4l-1,3.5h6.3l-.55,1.65h-6.2c-1.6,6.15-3.5,14-5.2,19.4-1.2,3.85-3,7.6-6.05,10.1-2.6,2.2-4.55,2.9-7,2.9-4,0-5-2-5-4a2.63,2.63,0,0,1,2.6-2.6,2.5,2.5,0,0,1,2.7,2.4,3.63,3.63,0,0,1-1,2.35,1,1,0,0,0,1,.9c3.7,0,5.9-3.3,8.15-10.65,2.45-8.05,4.15-15.55,5.5-20.8h-5.3l.5-1.65h5.3l.55-2a19.51,19.51,0,0,1,5.85-10.15,10,10,0,0,1,7.1-2.75c3.45,0,5.1,2.2,5.1,4.25A2.67,2.67,0,0,1,47.47,193.5Z"/><path class="cls-2" d="M70.67,217.5a20.84,20.84,0,0,0-.8,3.7c0,1.65.7,2,1.65,2,2.35,0,3.8-2.35,5.45-6.6l1,.3c-1.8,4.45-3.6,7.55-7.15,7.55-3,0-4.55-1.25-4.55-4.55l-.2,0c-2,2.75-4.55,4.75-7.4,4.75-3.35,0-7-1.65-7-7.9,0-5.15,5-15.85,14.05-15.85a4.83,4.83,0,0,1,4.7,3.2h.15l3.2-10.6a12.92,12.92,0,0,0,.75-3.35c0-1.1-.9-1.45-2-1.6s-2.25-.15-3.5-.2v-1l11.35-.5Zm-5.1-15.6c-5.2,0-9.2,9.9-9.2,15.85,0,4.6,1.75,5.15,3,5.15,2.85,0,5.3-2.2,6.85-4.8L70,205.8C69.17,203,67.92,201.9,65.57,201.9Z"/><path class="cls-2" d="M86.71,224.45c-2.15,0-5.2-.85-5.2-3.9a12,12,0,0,1,1-4.15l3.35-8.5a18.08,18.08,0,0,0,1.15-4c0-1.45-.7-1.9-1.65-1.9-2.35,0-3.75,2.5-5.4,6.75l-1-.35c1.8-4.4,3.5-7.6,7.1-7.6,2.15,0,5,1.3,5,4.25a19.19,19.19,0,0,1-1.55,5l-2.85,7.35a13.81,13.81,0,0,0-1.15,4c0,1.6.9,1.75,1.8,1.75,2.4,0,3.9-2.35,5.55-6.6l.9.3C92,221.35,90.21,224.45,86.71,224.45Zm4.5-29.65a2.5,2.5,0,0,1-2.5-2.8,3.34,3.34,0,0,1,3.4-3.5,2.54,2.54,0,0,1,2.3,2.75A3.25,3.25,0,0,1,91.21,194.8Z"/><path class="cls-2" d="M118.09,205.55c-1.6,0-1.85-1-1.85-3.1a4.89,4.89,0,0,0-3.1.85v.3a6.6,6.6,0,0,1,1,3.4c0,5-4.6,8.4-9.35,8.4h-3.15c-1,.5-2.1,1.1-2.1,2.45,0,1.85,1.65,2.05,5.35,2.45,1.5.15,4.55.5,5.55.65a5.57,5.57,0,0,1,4.9,5.6c0,4.9-4.9,9.05-14.25,9.05-6.1,0-9.15-2.3-9.15-5.5s3-5.75,8.45-6.5v-.35C98.13,222.8,96,222,96,219.8c0-3,3.45-4.3,5.05-4.8v-.25c-2.4-1.1-3.8-3-3.8-5.2,0-5,4.4-8.7,9.75-8.7,3.35,0,5.75,1.45,6.4,1.45,1.75-.85,2.6-1.45,4.7-1.45a2.37,2.37,0,0,1,2.3,2.35A2.25,2.25,0,0,1,118.09,205.55Zm-8.6,19.25a44.38,44.38,0,0,0-8.05-.8c-3.4.85-5.2,2.9-5.2,5.9,0,2,1.55,4.7,6.1,4.7,5.55,0,9-2.6,9-7C111.34,226.7,110.73,225.1,109.48,224.8Zm-2.8-23.15c-3.9,0-5.05,5.65-5.05,8.3,0,2.35,1.2,4.65,3.05,4.65,3.75,0,5.25-5.85,5.25-8.9C109.94,203.6,108.84,201.65,106.69,201.65Z"/><path class="cls-2" d="M127.84,224.45c-2.15,0-5.2-.85-5.2-3.9a12,12,0,0,1,1-4.15l3.35-8.5a18.08,18.08,0,0,0,1.15-4c0-1.45-.7-1.9-1.65-1.9-2.35,0-3.75,2.5-5.4,6.75l-1-.35c1.8-4.4,3.5-7.6,7.1-7.6,2.15,0,5,1.3,5,4.25a19.19,19.19,0,0,1-1.55,5l-2.85,7.35a13.81,13.81,0,0,0-1.15,4c0,1.6.9,1.75,1.8,1.75,2.4,0,3.9-2.35,5.55-6.6l.9.3C133.15,221.35,131.34,224.45,127.84,224.45Zm4.5-29.65a2.5,2.5,0,0,1-2.5-2.8,3.34,3.34,0,0,1,3.4-3.5,2.54,2.54,0,0,1,2.3,2.75A3.25,3.25,0,0,1,132.34,194.8Z"/><path class="cls-2" d="M152.94,203.3h-6.35c-1.35,4.55-3.75,12.55-4.2,14.3a24.2,24.2,0,0,0-1,3.8c0,1.6,1,1.8,1.85,1.8,2.4,0,4.2-2.45,5.85-6.7l1,.3c-1.8,4.45-4,7.65-7.45,7.65-2.15,0-5.2-.8-5.2-3.85a11.35,11.35,0,0,1,.5-2.9c.6-2.25,4-13.25,4.3-14.4h-4.8l.55-1.65h4.85l2.2-7.75h4.35l-2.3,7.75h6.4Z"/><path class="cls-2" d="M171.36,224.45c-3,0-4.7-1.3-4.7-4.65l-.2,0c-1.9,2.75-4.15,4.85-7,4.85-3.35,0-6.85-1.65-6.85-7.9,0-5.15,4.9-15.85,13.9-15.85a4.28,4.28,0,0,1,4.5,3.65h.15l1.15-3.35h4.5l-5.65,16.35a14.55,14.55,0,0,0-.8,3.7c0,1.65.75,2,1.7,2,2.35,0,3.8-2.35,5.45-6.6l1,.3C176.72,221.35,174.91,224.45,171.36,224.45Zm-5-22.55c-5.15,0-9.05,9.9-9.05,15.85,0,4.6,1.6,5.15,2.9,5.15,2.85,0,5-2.3,6.55-4.9l3.8-11.65C170,203.3,168.76,201.9,166.36,201.9Z"/><path class="cls-2" d="M185.41,217.6a16.49,16.49,0,0,0-1,3.8c0,1.6.85,1.8,1.75,1.8,2.4,0,4-2.35,5.6-6.6l.9.3c-1.8,4.45-3.6,7.55-7.15,7.55-2.15,0-5.1-.8-5.1-3.85a16.3,16.3,0,0,1,.9-4.2l7.25-23a11.39,11.39,0,0,0,.7-3.35c0-1.1-.9-1.45-2-1.6-1.25-.15-1.8-.15-3-.2v-1l11-.5Z"/><path class="cls-2" d="M199.69,217.6a16.49,16.49,0,0,0-1,3.8c0,1.6.85,1.8,1.75,1.8,2.4,0,4-2.35,5.6-6.6l.9.3c-1.8,4.45-3.6,7.55-7.15,7.55-2.15,0-5.1-.8-5.1-3.85a16.3,16.3,0,0,1,.9-4.2l7.25-23a11.39,11.39,0,0,0,.7-3.35c0-1.1-.9-1.45-2-1.6-1.25-.15-1.8-.15-3-.2v-1l11-.5Z"/><path class="cls-2" d="M228.83,218.6c-3.8,12.25-10.35,17.25-17.35,17.25-5.8,0-6.6-3.3-6.6-4.7a3.1,3.1,0,0,1,3.3-3.45,2.29,2.29,0,0,1,2.3,2.1c0,3.9-2.8,1.6-3.15,3.35.15,1.9,2.7,1.75,3.85,1.75,4.75,0,9.55-4.35,12.9-14.65l-.2,0c-1.75,2.25-4.25,4.3-7.1,4.3a5.7,5.7,0,0,1-5.8-5.6,13.15,13.15,0,0,1,1-3.75l2.85-7.25a13.75,13.75,0,0,0,1.1-4.15c0-1.45-.5-1.7-1.45-1.7-2.35,0-3.8,2.5-5.45,6.75l-.9-.35c1.75-4.4,3.5-7.6,7.05-7.6,2.15,0,5,1.1,5,3.9A13,13,0,0,1,219,209l-3.1,7.7a12.32,12.32,0,0,0-1,3.65c0,2.15,1.2,2.5,2.5,2.5,2.75,0,5.4-2.35,7-4.65l5.15-16.6h4.45Z"/><path class="cls-2" d="M281.13,224.45c-2.1,0-5.35-.85-5.35-3.9a13.16,13.16,0,0,1,1.1-4.15l3-7.8a13.32,13.32,0,0,0,1-3.75c0-2.1-1.3-2.4-2.6-2.4-2.7,0-4.75,2.4-6.35,4.75l-5.45,16.7h-4.55l5.3-16a10.38,10.38,0,0,0,.65-3c0-2.1-1.35-2.4-2.65-2.4-2.7,0-5.65,3.35-7.05,6.2l-5,15.25h-4.5l5.4-16a22.61,22.61,0,0,0,.95-4c0-1.45-.45-1.8-1.4-1.8-2.35,0-3.75,2.5-5.4,6.75l-1-.35c1.8-4.4,3.55-7.6,7.1-7.6,2.15,0,4.6.75,4.6,4.55l.2,0c1.85-2.55,4.25-4.6,7.1-4.6,3.6,0,5.5,2.4,5.65,4.6h.2c1.7-2.25,4.1-4.6,7-4.6a5.76,5.76,0,0,1,5.9,5.6,15.45,15.45,0,0,1-1,3.7l-2.8,7.35a14.35,14.35,0,0,0-1.1,3.9c0,1.6.9,1.8,1.85,1.8,2.35,0,3.85-2.35,5.5-6.6l1,.3C286.48,221.35,284.68,224.45,281.13,224.45Z"/><path class="cls-2" d="M309.08,224.45c-3,0-4.7-1.3-4.7-4.65l-.2,0c-1.9,2.75-4.15,4.85-7,4.85-3.35,0-6.85-1.65-6.85-7.9,0-5.15,4.9-15.85,13.9-15.85a4.28,4.28,0,0,1,4.5,3.65h.15l1.15-3.35h4.5l-5.65,16.35a14.55,14.55,0,0,0-.8,3.7c0,1.65.75,2,1.7,2,2.35,0,3.8-2.35,5.45-6.6l1,.3C314.43,221.35,312.63,224.45,309.08,224.45Zm-5-22.55c-5.15,0-9.05,9.9-9.05,15.85,0,4.6,1.6,5.15,2.9,5.15,2.85,0,5-2.3,6.55-4.9l3.8-11.65C307.68,203.3,306.48,201.9,304.08,201.9Z"/><path class="cls-2" d="M334.13,203.3h-6.35c-1.35,4.55-3.75,12.55-4.2,14.3a24.2,24.2,0,0,0-1,3.8c0,1.6,1,1.8,1.85,1.8,2.4,0,4.2-2.45,5.85-6.7l1,.3c-1.8,4.45-4,7.65-7.45,7.65-2.15,0-5.2-.8-5.2-3.85a11.35,11.35,0,0,1,.5-2.9c.6-2.25,4-13.25,4.3-14.4h-4.8l.55-1.65H324l2.2-7.75h4.35l-2.3,7.75h6.4Z"/><path class="cls-2" d="M355.14,224.45c-2.8,0-4.75-1.1-4.75-4.65l-.2,0c-1.75,2.5-4.45,4.8-7.3,4.8a5.7,5.7,0,0,1-5.8-5.6,13.32,13.32,0,0,1,1-3.7l2.85-7.35a12.86,12.86,0,0,0,1.05-4c0-1.45-.55-1.8-1.5-1.8-2.35,0-3.75,2.5-5.4,6.75l-.9-.35c1.75-4.4,3.45-7.5,7-7.5,2.15,0,5,1.1,5,3.9a12.26,12.26,0,0,1-1,4.15l-3.05,7.8a12.06,12.06,0,0,0-1,3.6c0,2.15,1.15,2.55,2.45,2.55,2.75,0,5.45-2.6,7-5.35l5-16h4.6L355,217.5a21.77,21.77,0,0,0-.8,3.6c0,1.65.7,2.1,1.65,2.1,2.35,0,3.8-2.35,5.45-6.6l1,.3C360.49,221.35,358.69,224.45,355.14,224.45Z"/><path class="cls-2" d="M382.06,207c-1.75,0-2.45-1-2.45-2.1s1.15-1.7,1.15-2.15,0-.65-.75-.65c-1.75,0-4.05,3.8-5.5,6.45l-4.7,15.3h-4.45l5-16a24.1,24.1,0,0,0,.95-4c0-1.45-.45-1.8-1.4-1.8-2.35,0-3.8,2.65-5.4,6.75l-1-.35c1.8-4.4,3.55-7.6,7.1-7.6,2.15,0,4.25,1.4,4.25,5.05l.2,0c1.65-2.55,3.15-5.1,6.35-5.1a3.05,3.05,0,0,1,3.25,3.05C384.66,205.45,383.81,207,382.06,207Z"/><path class="cls-2" d="M389.44,213.2a24.6,24.6,0,0,0-.75,4.7c0,3.4,1.1,5,3.7,5,3.65,0,6-2.9,8.1-6.7l.9.45c-3.1,5.9-6.5,7.9-9.75,7.9-3.55,0-7.65-1.65-7.65-8,0-5.15,5-15.75,14.3-15.75,2.25,0,4.25,1.1,4.25,3.35C402.54,209.6,394.34,212.45,389.44,213.2Zm7.45-11.35c-2.9,0-5.85,5.3-7.2,10.3,7-1.25,9.4-5.35,9.4-7.65C399.09,202.9,398.49,201.85,396.89,201.85Z"/><path class="cls-2" d="M17.15,280.7a2.42,2.42,0,0,1-2.65-2.25c0-1,1-2.15,2.55-3-.25-1.3-1.1-1.8-2.9-1.8-4.35,0-8.3,10.05-8.3,16.05,0,3.35,1,5.2,3.6,5.2,3.65,0,6.15-2.9,8.2-6.7l1,.45c-3.2,5.9-6.7,7.9-10,7.9-3.5,0-7.5-1.55-7.5-7.9,0-5.15,5-15.85,13.45-15.85a4.77,4.77,0,0,1,5.1,4.5C19.7,279,18.85,280.7,17.15,280.7Z"/><path class="cls-2" d="M28.8,296.6c-3.4,0-7.4-2.5-7.4-8.75,0-5.35,4.7-15,14-15,3.4,0,7.4,2.55,7.4,8.8C42.8,287,38.2,296.6,28.8,296.6Zm5.85-22.9c-5.25,0-8.55,9.2-8.55,15.1,0,4.6,1.5,6.85,3.45,6.85,5.6,0,8.55-9.15,8.55-15.1C38.1,275.95,36.45,273.7,34.65,273.7Z"/><path class="cls-2" d="M79.18,296.45c-2.1,0-5.35-.85-5.35-3.9a13.16,13.16,0,0,1,1.1-4.15l3-7.8a13.32,13.32,0,0,0,1-3.75c0-2.1-1.3-2.4-2.6-2.4-2.7,0-4.75,2.4-6.35,4.75l-5.45,16.7H59.88l5.3-16a10.38,10.38,0,0,0,.65-3c0-2.1-1.35-2.4-2.65-2.4-2.7,0-5.65,3.35-7.05,6.2l-5,15.25h-4.5l5.4-16a22.61,22.61,0,0,0,.95-4c0-1.45-.45-1.8-1.4-1.8-2.35,0-3.75,2.5-5.4,6.75l-1-.35c1.8-4.4,3.55-7.6,7.1-7.6,2.15,0,4.6.75,4.6,4.55l.2,0c1.85-2.55,4.25-4.6,7.1-4.6,3.6,0,5.5,2.4,5.65,4.6H70c1.7-2.25,4.1-4.6,7-4.6a5.76,5.76,0,0,1,5.9,5.6,15.45,15.45,0,0,1-1,3.7l-2.8,7.35a14.35,14.35,0,0,0-1.1,3.9c0,1.6.9,1.8,1.85,1.8,2.35,0,3.85-2.35,5.5-6.6l1,.3C84.53,293.35,82.73,296.45,79.18,296.45Z"/><path class="cls-2" d="M99.34,296.55a4.91,4.91,0,0,1-4.75-3.2h-.2l-2.5,8.1a14.58,14.58,0,0,0-.7,3.35c0,1.1.9,1.45,2,1.6a26.51,26.51,0,0,0,2.75.2v1H81.89v-1c2.3,0,3.15-.4,3.75-1.1a12.69,12.69,0,0,0,1.9-4.2l6.75-21.45a21.81,21.81,0,0,0,.85-3.7c0-1.65-.4-2.15-1.35-2.15-2.2,0-3.75,2.5-5.4,6.75l-1-.35c1.8-4.4,3.55-7.6,7.1-7.6,2.3,0,4.35,1.3,4.35,4.6l.2,0c2-2.55,4.35-4.65,7.25-4.65,3.35,0,7.1,1.6,7.1,7.85C113.39,285.9,108.34,296.55,99.34,296.55Zm6.15-22c-2.8,0-5.1,2.3-6.65,4.75L95,291.65c.7,2.75,2.15,3.8,4.55,3.8,5.2,0,9.15-9.85,9.15-15.75C108.69,275.1,106.79,274.55,105.49,274.55Z"/><path class="cls-2" d="M134.19,296.45c-3,0-4.7-1.3-4.7-4.65l-.2,0c-1.9,2.75-4.15,4.85-7,4.85-3.35,0-6.85-1.65-6.85-7.9,0-5.15,4.9-15.85,13.9-15.85a4.28,4.28,0,0,1,4.5,3.65H134l1.15-3.35h4.5L134,289.5a14.55,14.55,0,0,0-.8,3.7c0,1.65.75,2,1.7,2,2.35,0,3.8-2.35,5.45-6.6l1,.3C139.55,293.35,137.74,296.45,134.19,296.45Zm-5-22.55c-5.15,0-9.05,9.9-9.05,15.85,0,4.6,1.6,5.15,2.9,5.15,2.85,0,5-2.3,6.55-4.9l3.8-11.65C132.79,275.3,131.59,273.9,129.19,273.9Z"/><path class="cls-2" d="M163.67,296.45c-2.1,0-5.35-.85-5.35-3.9a12.21,12.21,0,0,1,1.1-4.15l3-7.8a13.32,13.32,0,0,0,1-3.75c0-2.1-1.15-2.4-2.45-2.4-2.7,0-5.55,2.85-7.25,6.2l-5,15.25h-4.5l5.4-16a22.54,22.54,0,0,0,1-4c0-1.4-.45-1.8-1.4-1.8-2.35,0-3.75,2.5-5.4,6.75l-1-.35c1.8-4.4,3.55-7.6,7.1-7.6,2.15,0,4.6.8,4.6,4.55l.2,0c1.75-2.4,4.2-4.6,7.1-4.6a5.63,5.63,0,0,1,5.75,5.6,15.45,15.45,0,0,1-1,3.7l-2.8,7.35a14.82,14.82,0,0,0-1.1,3.9c0,1.6.9,1.8,1.85,1.8,2.35,0,3.85-2.35,5.5-6.6l1,.3C169,293.35,167.23,296.45,163.67,296.45Z"/><path class="cls-2" d="M179.49,296.45c-2.15,0-5.2-.85-5.2-3.9a12,12,0,0,1,1-4.15l3.35-8.5a18.08,18.08,0,0,0,1.15-4c0-1.45-.7-1.9-1.65-1.9-2.35,0-3.75,2.5-5.4,6.75l-1-.35c1.8-4.4,3.5-7.6,7.1-7.6,2.15,0,5,1.3,5,4.25a19.19,19.19,0,0,1-1.55,5l-2.85,7.35a13.81,13.81,0,0,0-1.15,4c0,1.6.9,1.75,1.8,1.75,2.4,0,3.9-2.35,5.55-6.6l.9.3C184.79,293.35,183,296.45,179.49,296.45ZM184,266.8a2.5,2.5,0,0,1-2.5-2.8,3.34,3.34,0,0,1,3.4-3.5,2.54,2.54,0,0,1,2.3,2.75A3.25,3.25,0,0,1,184,266.8Z"/><path class="cls-2" d="M194.17,285.2a24.6,24.6,0,0,0-.75,4.7c0,3.4,1.1,5,3.7,5,3.65,0,6-2.9,8.1-6.7l.9.45c-3.1,5.9-6.5,7.9-9.75,7.9-3.55,0-7.65-1.65-7.65-8,0-5.15,5-15.75,14.3-15.75,2.25,0,4.25,1.1,4.25,3.35C207.27,281.6,199.07,284.45,194.17,285.2Zm7.45-11.35c-2.9,0-5.85,5.3-7.2,10.3,7-1.25,9.4-5.35,9.4-7.65C203.82,274.9,203.23,273.85,201.62,273.85Z"/><path class="cls-2" d="M223.61,281.25c-1.25,0-2.45-.6-2.45-2,0-2,2.6-2.6,2.8-3.15-.1-.65-.9-2.2-4.25-2.2a4.08,4.08,0,0,0-4,4.15c0,4.85,8.25,5.15,8.25,11.55,0,3.6-4.15,7.05-8.6,7.05-5.5,0-7.45-3.4-7.45-5.8,0-1.85,1.35-3.45,2.75-3.45,2.2,0,2.65,1.4,2.65,2.2a2.08,2.08,0,0,1-2.2,2.2c-.9,0-1.35,0-1.35.7,0,1.55,2.5,3.1,5,3.1,2.9,0,5.55-1.25,5.55-4,0-5.7-8.35-5.7-8.35-12,0-3.2,3.7-6.8,7.75-6.8,5.45,0,6.2,4,6.2,5.25C226,279.95,225.06,281.25,223.61,281.25Z"/><path class="cls-2" d="M260.66,296.6a6.08,6.08,0,0,1-5.3-3.85c-2.3,2.35-4.85,3.8-6.55,3.8-3.35,0-5.85-2.2-5.85-6.75,0-5,3.35-9.15,8.65-14l-.25-.25c-2.5,1.5-4.25,2.4-6.1,2.4a5.45,5.45,0,0,1-2.85-.55l-1.55,4.45-1-.3,3-8.65h.7c.9,1.8,3.2,2.45,4.6,2.45,2.35,0,3.9-.7,6.15-2.7l.75.75c-3.55,3.5-7.55,9.15-7.55,16.6,0,3.5,1.3,4.7,2.85,4.7,1.2,0,3.2-1.25,4.55-3a20.69,20.69,0,0,1-.45-4c0-5,5.45-14.85,8.8-14.85,1.65,0,2.1,1.8,2.1,4,0,3.3-3.2,8.7-6.7,13,.75,3.75,3.2,4.35,4.3,4.35,4.5,0,8.9-5.9,8.9-12.1,0-3.8-2.65-3.4-2.65-6.9a2.3,2.3,0,0,1,2.4-2.35c2.35,0,2.65,2.05,2.65,4.3C274.27,287,268.06,296.6,260.66,296.6Zm1.55-20.85a2.8,2.8,0,0,0-2.25.85c-1.35,1.8-1.65,5.25-1.65,9.8,0,.6,0,2,.1,2.3,3-3.65,5.65-8.6,5.65-11.2A1.73,1.73,0,0,0,262.21,275.75Z"/><path class="cls-2" d="M281.58,285.2a24.6,24.6,0,0,0-.75,4.7c0,3.4,1.1,5,3.7,5,3.65,0,6-2.9,8.1-6.7l.9.45c-3.1,5.9-6.5,7.9-9.75,7.9-3.55,0-7.65-1.65-7.65-8,0-5.15,5-15.75,14.3-15.75,2.25,0,4.25,1.1,4.25,3.35C294.68,281.6,286.48,284.45,281.58,285.2ZM289,273.85c-2.9,0-5.85,5.3-7.2,10.3,7-1.25,9.4-5.35,9.4-7.65C291.23,274.9,290.63,273.85,289,273.85Z"/><path class="cls-2" d="M314.71,279c-1.75,0-2.45-1-2.45-2.1s1.15-1.7,1.15-2.15,0-.65-.75-.65c-1.75,0-4.05,3.8-5.5,6.45l-4.7,15.3H298l5-16a24,24,0,0,0,1-4c0-1.45-.45-1.8-1.4-1.8-2.35,0-3.8,2.65-5.4,6.75l-1-.35c1.8-4.4,3.55-7.6,7.1-7.6,2.15,0,4.25,1.4,4.25,5.05l.2,0c1.65-2.55,3.15-5.1,6.35-5.1a3.05,3.05,0,0,1,3.25,3.05C317.31,277.45,316.46,279,314.71,279Z"/><path class="cls-2" d="M322.09,285.2a24.6,24.6,0,0,0-.75,4.7c0,3.4,1.1,5,3.7,5,3.65,0,6-2.9,8.1-6.7l.9.45c-3.1,5.9-6.5,7.9-9.75,7.9-3.55,0-7.65-1.65-7.65-8,0-5.15,5-15.75,14.3-15.75,2.25,0,4.25,1.1,4.25,3.35C335.19,281.6,327,284.45,322.09,285.2Zm7.45-11.35c-2.9,0-5.85,5.3-7.2,10.3,7-1.25,9.4-5.35,9.4-7.65C331.74,274.9,331.14,273.85,329.54,273.85Z"/><path class="cls-2" d="M367,279c-1.75,0-2.45-1-2.45-2.1s1.15-1.7,1.15-2.15,0-.65-.75-.65c-1.75,0-4.05,3.8-5.5,6.45l-4.7,15.3h-4.45l5-16a24.1,24.1,0,0,0,.95-4c0-1.45-.45-1.8-1.4-1.8-2.35,0-3.8,2.65-5.4,6.75l-1-.35c1.8-4.4,3.55-7.6,7.1-7.6,2.15,0,4.25,1.4,4.25,5.05l.2,0c1.65-2.55,3.15-5.1,6.35-5.1a3.05,3.05,0,0,1,3.25,3.05C369.64,277.45,368.79,279,367,279Z"/><path class="cls-2" d="M387.72,296.45c-3,0-4.7-1.3-4.7-4.65l-.2,0c-1.9,2.75-4.15,4.85-7,4.85-3.35,0-6.85-1.65-6.85-7.9,0-5.15,4.9-15.85,13.9-15.85a4.28,4.28,0,0,1,4.5,3.65h.15l1.15-3.35h4.5l-5.65,16.35a14.55,14.55,0,0,0-.8,3.7c0,1.65.75,2,1.7,2,2.35,0,3.8-2.35,5.45-6.6l1,.3C393.07,293.35,391.27,296.45,387.72,296.45Zm-5-22.55c-5.15,0-9.05,9.9-9.05,15.85,0,4.6,1.6,5.15,2.9,5.15,2.85,0,5-2.3,6.55-4.9l3.8-11.65C386.32,275.3,385.12,273.9,382.72,273.9Z"/><path class="cls-2" d="M417.2,296.45c-2.1,0-5.35-.85-5.35-3.9a12.21,12.21,0,0,1,1.1-4.15l3-7.8a13.32,13.32,0,0,0,1-3.75c0-2.1-1.15-2.4-2.45-2.4-2.7,0-5.55,2.85-7.25,6.2l-5,15.25h-4.5l5.4-16a22.54,22.54,0,0,0,1-4c0-1.4-.45-1.8-1.4-1.8-2.35,0-3.75,2.5-5.4,6.75l-1-.35c1.8-4.4,3.55-7.6,7.1-7.6,2.15,0,4.6.8,4.6,4.55l.2,0c1.75-2.4,4.2-4.6,7.1-4.6a5.63,5.63,0,0,1,5.75,5.6,15.45,15.45,0,0,1-1,3.7l-2.8,7.35a14.82,14.82,0,0,0-1.1,3.9c0,1.6.9,1.8,1.85,1.8,2.35,0,3.85-2.35,5.5-6.6l1,.3C422.55,293.35,420.75,296.45,417.2,296.45Z"/><path class="cls-2" d="M449.08,279.55c-1,0-2.15-.7-2.15-1.65,0-2.7,1.65-2,1.9-3.35-.25-.75-.6-1-1.5-1-2.8,0-2.65,7.15-8.8,9,1.85.7,4.2,1.6,4.2,4.65,0,2.7-.85,4.5-.85,6.15s.8,1.8,1.7,1.8c2.4,0,4-2.35,5.6-6.6l1,.3c-1.8,4.45-3.7,7.55-7.2,7.55-2.7,0-5.35-.85-5.35-3.9,0-2.25,1-5,1-6.45,0-2-1.5-3-3.6-3-.55,0-1,0-1.55.1l-4.05,12.65H425l9.65-30.45a11.39,11.39,0,0,0,.7-3.35c0-1.1-.85-1.45-2-1.6-1.3-.15-1.8-.15-3-.2v-1l10.9-.5-7.55,23.4c.75.05,1.3.05,2.2.05,6.4,0,5.5-9.4,11.85-9.4,3.25,0,4.15,1.45,4.15,3.55A3.08,3.08,0,0,1,449.08,279.55Z"/><path class="cls-2" d="M458.64,285.2a24.6,24.6,0,0,0-.75,4.7c0,3.4,1.1,5,3.7,5,3.65,0,6-2.9,8.1-6.7l.9.45c-3.1,5.9-6.5,7.9-9.75,7.9-3.55,0-7.65-1.65-7.65-8,0-5.15,5-15.75,14.3-15.75,2.25,0,4.25,1.1,4.25,3.35C471.74,281.6,463.54,284.45,458.64,285.2Zm7.45-11.35c-2.9,0-5.85,5.3-7.2,10.3,7-1.25,9.4-5.35,9.4-7.65C468.29,274.9,467.69,273.85,466.09,273.85Z"/><path class="cls-2" d="M492.07,289.5a20.84,20.84,0,0,0-.8,3.7c0,1.65.7,2,1.65,2,2.35,0,3.8-2.35,5.45-6.6l1,.3c-1.8,4.45-3.6,7.55-7.15,7.55-3,0-4.55-1.25-4.55-4.55l-.2,0c-2,2.75-4.55,4.75-7.4,4.75-3.35,0-7-1.65-7-7.9,0-5.15,5-15.85,14.05-15.85a4.83,4.83,0,0,1,4.7,3.2H492l3.2-10.6a12.93,12.93,0,0,0,.75-3.35c0-1.1-.9-1.45-2.05-1.6s-2.25-.15-3.5-.2v-1l11.35-.5ZM487,273.9c-5.2,0-9.2,9.9-9.2,15.85,0,4.6,1.75,5.15,3,5.15,2.85,0,5.3-2.2,6.85-4.8l3.75-12.3C490.57,275,489.32,273.9,487,273.9Z"/><path class="cls-2" d="M19.9,368.45c-3,0-4.7-1.3-4.7-4.65l-.2,0c-1.9,2.75-4.15,4.85-7,4.85-3.35,0-6.85-1.65-6.85-7.9,0-5.15,4.9-15.85,13.9-15.85a4.28,4.28,0,0,1,4.5,3.65h.15l1.15-3.35h4.5L19.7,361.5a14.55,14.55,0,0,0-.8,3.7c0,1.65.75,2,1.7,2,2.35,0,3.8-2.35,5.45-6.6l1,.3C25.25,365.35,23.45,368.45,19.9,368.45Zm-5-22.55c-5.15,0-9.05,9.9-9.05,15.85,0,4.6,1.6,5.15,2.9,5.15,2.85,0,5-2.3,6.55-4.9l3.8-11.65C18.5,347.3,17.3,345.9,14.9,345.9Z"/><path class="cls-2" d="M44.18,353.25c-1.25,0-2.45-.6-2.45-2,0-2,2.6-2.6,2.8-3.15-.1-.65-.9-2.2-4.25-2.2a4.08,4.08,0,0,0-4,4.15c0,4.85,8.25,5.15,8.25,11.55,0,3.6-4.15,7.05-8.6,7.05-5.5,0-7.45-3.4-7.45-5.8,0-1.85,1.35-3.45,2.75-3.45,2.2,0,2.65,1.4,2.65,2.2a2.08,2.08,0,0,1-2.2,2.2c-.9,0-1.35,0-1.35.7,0,1.55,2.5,3.1,5,3.1,2.9,0,5.55-1.25,5.55-4,0-5.7-8.35-5.7-8.35-12,0-3.2,3.7-6.8,7.75-6.8,5.45,0,6.2,4,6.2,5.25C46.53,351.95,45.63,353.25,44.18,353.25Z"/><path class="cls-2" d="M67.62,338.5h.9c2,0,3.1,1.15,3.1,2.6a3.12,3.12,0,0,1-3.2,3c-2.1,0-3.25-1.3-3.25-3.65,0-4,2.85-6.75,7.75-9.3l.45,1.1C70.32,333.9,68.12,335.65,67.62,338.5Zm8.45,0H77c2,0,3.1,1.15,3.1,2.6a3.12,3.12,0,0,1-3.2,3c-2.1,0-3.25-1.3-3.25-3.65,0-4,2.85-6.75,7.75-9.3l.45,1.1C78.78,333.9,76.58,335.65,76.08,338.5Z"/><path class="cls-2" d="M114,368.45c-2.1,0-5.35-.85-5.35-3.9a13.16,13.16,0,0,1,1.1-4.15l3-7.8a13.32,13.32,0,0,0,1-3.75c0-2.1-1.3-2.4-2.6-2.4-2.7,0-4.75,2.4-6.35,4.75L99.2,367.9H94.65l5.3-16a10.38,10.38,0,0,0,.65-3c0-2.1-1.35-2.4-2.65-2.4-2.7,0-5.65,3.35-7.05,6.2l-5,15.25h-4.5l5.4-16a22.54,22.54,0,0,0,1-4c0-1.45-.45-1.8-1.4-1.8-2.35,0-3.75,2.5-5.4,6.75l-1-.35c1.8-4.4,3.55-7.6,7.1-7.6,2.15,0,4.6.75,4.6,4.55l.2,0c1.85-2.55,4.25-4.6,7.1-4.6,3.6,0,5.5,2.4,5.65,4.6h.2c1.7-2.25,4.1-4.6,7-4.6a5.76,5.76,0,0,1,5.9,5.6,15.45,15.45,0,0,1-1,3.7l-2.8,7.35a14.35,14.35,0,0,0-1.1,3.9c0,1.6.9,1.8,1.85,1.8,2.35,0,3.85-2.35,5.5-6.6l1,.3C119.3,365.35,117.5,368.45,114,368.45Z"/><path class="cls-2" d="M141.9,368.45c-3,0-4.7-1.3-4.7-4.65l-.2,0c-1.9,2.75-4.15,4.85-7,4.85-3.35,0-6.85-1.65-6.85-7.9,0-5.15,4.9-15.85,13.9-15.85a4.28,4.28,0,0,1,4.5,3.65h.15l1.15-3.35h4.5L141.7,361.5a14.55,14.55,0,0,0-.8,3.7c0,1.65.75,2,1.7,2,2.35,0,3.8-2.35,5.45-6.6l1,.3C147.25,365.35,145.45,368.45,141.9,368.45Zm-5-22.55c-5.15,0-9.05,9.9-9.05,15.85,0,4.6,1.6,5.15,2.9,5.15,2.85,0,5-2.3,6.55-4.9l3.8-11.65C140.5,347.3,139.3,345.9,136.9,345.9Z"/><path class="cls-2" d="M168.88,351c-1.75,0-2.45-1-2.45-2.1s1.15-1.7,1.15-2.15,0-.65-.75-.65c-1.75,0-4.05,3.8-5.5,6.45l-4.7,15.3h-4.45l5-16a24,24,0,0,0,1-4c0-1.45-.45-1.8-1.4-1.8-2.35,0-3.8,2.65-5.4,6.75l-1-.35c1.8-4.4,3.55-7.6,7.1-7.6,2.15,0,4.25,1.4,4.25,5.05l.2,0c1.65-2.55,3.15-5.1,6.35-5.1a3.05,3.05,0,0,1,3.25,3.05C171.48,349.45,170.63,351,168.88,351Z"/><path class="cls-2" d="M193.94,351.55c-1,0-2.15-.7-2.15-1.65,0-2.7,1.65-2,1.9-3.35-.25-.75-.6-1-1.5-1-2.8,0-2.65,7.15-8.8,9,1.85.7,4.2,1.6,4.2,4.65,0,2.7-.85,4.5-.85,6.15s.8,1.8,1.7,1.8c2.4,0,4-2.35,5.6-6.6l1,.3c-1.8,4.45-3.7,7.55-7.2,7.55-2.7,0-5.35-.85-5.35-3.9,0-2.25,1-5,1-6.45,0-2-1.5-3-3.6-3-.55,0-1,0-1.55.1l-4.05,12.65h-4.4l9.65-30.45a11.39,11.39,0,0,0,.7-3.35c0-1.1-.85-1.45-2-1.6-1.3-.15-1.8-.15-3-.2v-1l10.9-.5-7.55,23.4c.75.05,1.3.05,2.2.05,6.4,0,5.5-9.4,11.85-9.4,3.25,0,4.15,1.45,4.15,3.55A3.08,3.08,0,0,1,193.94,351.55Z"/><path class="cls-2" d="M203.5,357.2a24.6,24.6,0,0,0-.75,4.7c0,3.4,1.1,5,3.7,5,3.65,0,6-2.9,8.1-6.7l.9.45c-3.1,5.9-6.5,7.9-9.75,7.9-3.55,0-7.65-1.65-7.65-8,0-5.15,5-15.75,14.3-15.75,2.25,0,4.25,1.1,4.25,3.35C216.6,353.6,208.4,356.45,203.5,357.2ZM211,345.85c-2.9,0-5.85,5.3-7.2,10.3,7-1.25,9.4-5.35,9.4-7.65C213.15,346.9,212.55,345.85,211,345.85Z"/><path class="cls-2" d="M234.38,347.3H228c-1.35,4.55-3.75,12.55-4.2,14.3a24.2,24.2,0,0,0-1,3.8c0,1.6,1,1.8,1.85,1.8,2.4,0,4.2-2.45,5.85-6.7l1,.3c-1.8,4.45-4,7.65-7.45,7.65-2.15,0-5.2-.8-5.2-3.85a11.35,11.35,0,0,1,.5-2.9c.6-2.25,4-13.25,4.3-14.4h-4.8l.55-1.65h4.85l2.2-7.75h4.35l-2.3,7.75h6.4Z"/><path class="cls-2" d="M252,361.6a16.49,16.49,0,0,0-1,3.8c0,1.6.85,1.8,1.75,1.8,2.4,0,4-2.35,5.6-6.6l.9.3c-1.8,4.45-3.6,7.55-7.15,7.55-2.15,0-5.1-.8-5.1-3.85a16.3,16.3,0,0,1,.9-4.2l7.25-23a11.39,11.39,0,0,0,.7-3.35c0-1.1-.9-1.45-2-1.6-1.25-.15-1.8-.15-3-.2v-1l11-.5Z"/><path class="cls-2" d="M266.72,357.2a24.6,24.6,0,0,0-.75,4.7c0,3.4,1.1,5,3.7,5,3.65,0,6-2.9,8.1-6.7l.9.45c-3.1,5.9-6.5,7.9-9.75,7.9-3.55,0-7.65-1.65-7.65-8,0-5.15,5-15.75,14.3-15.75,2.25,0,4.25,1.1,4.25,3.35C279.82,353.6,271.62,356.45,266.72,357.2Zm7.45-11.35c-2.9,0-5.85,5.3-7.2,10.3,7-1.25,9.4-5.35,9.4-7.65C276.37,346.9,275.77,345.85,274.17,345.85Z"/><path class="cls-2" d="M300,368.45c-3,0-4.7-1.3-4.7-4.65l-.2,0c-1.9,2.75-4.15,4.85-7,4.85-3.35,0-6.85-1.65-6.85-7.9,0-5.15,4.9-15.85,13.9-15.85a4.28,4.28,0,0,1,4.5,3.65h.15l1.15-3.35h4.5l-5.65,16.35a14.55,14.55,0,0,0-.8,3.7c0,1.65.75,2,1.7,2,2.35,0,3.8-2.35,5.45-6.6l1,.3C305.4,365.35,303.6,368.45,300,368.45Zm-5-22.55c-5.15,0-9.05,9.9-9.05,15.85,0,4.6,1.6,5.15,2.9,5.15,2.85,0,5-2.3,6.55-4.9l3.8-11.65C298.65,347.3,297.45,345.9,295,345.9Z"/><path class="cls-2" d="M328.1,361.5a20.84,20.84,0,0,0-.8,3.7c0,1.65.7,2,1.65,2,2.35,0,3.8-2.35,5.45-6.6l1,.3c-1.8,4.45-3.6,7.55-7.15,7.55-3,0-4.55-1.25-4.55-4.55l-.2,0c-2,2.75-4.55,4.75-7.4,4.75-3.35,0-7-1.65-7-7.9,0-5.15,5-15.85,14.05-15.85a4.83,4.83,0,0,1,4.7,3.2H328l3.2-10.6a12.93,12.93,0,0,0,.75-3.35c0-1.1-.9-1.45-2.05-1.6s-2.25-.15-3.5-.2v-1l11.35-.5ZM323,345.9c-5.2,0-9.2,9.9-9.2,15.85,0,4.6,1.75,5.15,3,5.15,2.85,0,5.3-2.2,6.85-4.8l3.75-12.3C326.6,347,325.35,345.9,323,345.9Z"/><path class="cls-2" d="M342.82,357.2a24.6,24.6,0,0,0-.75,4.7c0,3.4,1.1,5,3.7,5,3.65,0,6-2.9,8.1-6.7l.9.45c-3.1,5.9-6.5,7.9-9.75,7.9-3.55,0-7.65-1.65-7.65-8,0-5.15,5-15.75,14.3-15.75,2.25,0,4.25,1.1,4.25,3.35C355.92,353.6,347.72,356.45,342.82,357.2Zm7.45-11.35c-2.9,0-5.85,5.3-7.2,10.3,7-1.25,9.4-5.35,9.4-7.65C352.47,346.9,351.87,345.85,350.27,345.85Z"/><path class="cls-2" d="M376,351c-1.75,0-2.45-1-2.45-2.1s1.15-1.7,1.15-2.15,0-.65-.75-.65c-1.75,0-4.05,3.8-5.5,6.45l-4.7,15.3h-4.45l5-16a24,24,0,0,0,1-4c0-1.45-.45-1.8-1.4-1.8-2.35,0-3.8,2.65-5.4,6.75l-1-.35c1.8-4.4,3.55-7.6,7.1-7.6,2.15,0,4.25,1.4,4.25,5.05l.2,0c1.65-2.55,3.15-5.1,6.35-5.1a3.05,3.05,0,0,1,3.25,3.05C378.55,349.45,377.7,351,376,351Z"/><path class="cls-2" d="M392.55,353.25c-1.25,0-2.45-.6-2.45-2,0-2,2.6-2.6,2.8-3.15-.1-.65-.9-2.2-4.25-2.2a4.08,4.08,0,0,0-4,4.15c0,4.85,8.25,5.15,8.25,11.55,0,3.6-4.15,7.05-8.6,7.05-5.5,0-7.45-3.4-7.45-5.8,0-1.85,1.35-3.45,2.75-3.45,2.2,0,2.65,1.4,2.65,2.2a2.08,2.08,0,0,1-2.2,2.2c-.9,0-1.35,0-1.35.7,0,1.55,2.5,3.1,5,3.1,2.9,0,5.55-1.25,5.55-4,0-5.7-8.35-5.7-8.35-12,0-3.2,3.7-6.8,7.75-6.8,5.45,0,6.2,4,6.2,5.25C394.9,351.95,394,353.25,392.55,353.25Z"/><path class="cls-2" d="M399.24,344l-.45-1.1c3-1.65,5.25-3.4,5.75-6.25h-.9c-2,0-3.1-1.15-3.1-2.6a3.12,3.12,0,0,1,3.2-3c2.1,0,3.25,1.3,3.25,3.65C407,338.7,404.14,341.45,399.24,344Zm8.45,0-.45-1.1c3.05-1.65,5.25-3.4,5.75-6.25h-.9c-2,0-3.1-1.15-3.1-2.6a3.12,3.12,0,0,1,3.2-3c2.1,0,3.25,1.3,3.25,3.65C415.44,338.7,412.59,341.45,407.69,344Z"/><path class="cls-2" d="M8.65,440.45c-2.15,0-5.2-.85-5.2-3.9a12,12,0,0,1,1-4.15l3.35-8.5a18.08,18.08,0,0,0,1.15-4c0-1.45-.7-1.9-1.65-1.9-2.35,0-3.75,2.5-5.4,6.75l-1-.35c1.8-4.4,3.5-7.6,7.1-7.6,2.15,0,5,1.3,5,4.25a19.19,19.19,0,0,1-1.55,5L8.65,433.5a13.81,13.81,0,0,0-1.15,4c0,1.6.9,1.75,1.8,1.75,2.4,0,3.9-2.35,5.55-6.6l.9.3C14,437.35,12.15,440.45,8.65,440.45Zm4.5-29.65a2.5,2.5,0,0,1-2.5-2.8,3.34,3.34,0,0,1,3.4-3.5,2.54,2.54,0,0,1,2.3,2.75A3.25,3.25,0,0,1,13.15,410.8Z"/><path class="cls-2" d="M38.29,440.45c-2.1,0-5.35-.85-5.35-3.9A12.21,12.21,0,0,1,34,432.4l3-7.8a13.32,13.32,0,0,0,1-3.75c0-2.1-1.15-2.4-2.45-2.4-2.7,0-5.55,2.85-7.25,6.2l-5,15.25h-4.5l5.4-16a22.54,22.54,0,0,0,1-4c0-1.4-.45-1.8-1.4-1.8-2.35,0-3.75,2.5-5.4,6.75l-1-.35c1.8-4.4,3.55-7.6,7.1-7.6,2.15,0,4.6.8,4.6,4.55l.2,0c1.75-2.4,4.2-4.6,7.1-4.6a5.63,5.63,0,0,1,5.75,5.6,15.45,15.45,0,0,1-1,3.7l-2.8,7.35a14.82,14.82,0,0,0-1.1,3.9c0,1.6.9,1.8,1.85,1.8,2.35,0,3.85-2.35,5.5-6.6l1,.3C43.64,437.35,41.84,440.45,38.29,440.45Z"/><path class="cls-2" d="M71.09,440.55a4.91,4.91,0,0,1-4.75-3.2h-.2l-2.5,8.1a14.58,14.58,0,0,0-.7,3.35c0,1.1.9,1.45,2,1.6a26.51,26.51,0,0,0,2.75.2v1H53.64v-1c2.3,0,3.15-.4,3.75-1.1a12.69,12.69,0,0,0,1.9-4.2L66,423.9a21.81,21.81,0,0,0,.85-3.7c0-1.65-.4-2.15-1.35-2.15-2.2,0-3.75,2.5-5.4,6.75l-1-.35c1.8-4.4,3.55-7.6,7.1-7.6,2.3,0,4.35,1.3,4.35,4.6l.2,0c2-2.55,4.35-4.65,7.25-4.65,3.35,0,7.1,1.6,7.1,7.85C85.14,429.9,80.09,440.55,71.09,440.55Zm6.15-22c-2.8,0-5.1,2.3-6.65,4.75l-3.85,12.35c.7,2.75,2.15,3.8,4.55,3.8,5.2,0,9.15-9.85,9.15-15.75C80.44,419.1,78.54,418.55,77.24,418.55Z"/><path class="cls-2" d="M105.9,423c-1.75,0-2.45-1-2.45-2.1s1.15-1.7,1.15-2.15,0-.65-.75-.65c-1.75,0-4.05,3.8-5.5,6.45l-4.7,15.3H89.19l5-16a24.1,24.1,0,0,0,.95-4c0-1.45-.45-1.8-1.4-1.8-2.35,0-3.8,2.65-5.4,6.75l-1-.35c1.8-4.4,3.55-7.6,7.1-7.6,2.15,0,4.25,1.4,4.25,5.05l.2,0c1.65-2.55,3.15-5.1,6.35-5.1a3.05,3.05,0,0,1,3.25,3.05C108.5,421.45,107.65,423,105.9,423Z"/><path class="cls-2" d="M115.32,440.6c-3.4,0-7.4-2.5-7.4-8.75,0-5.35,4.7-15,14-15,3.4,0,7.4,2.55,7.4,8.8C129.32,431,124.72,440.6,115.32,440.6Zm5.85-22.9c-5.25,0-8.55,9.2-8.55,15.1,0,4.6,1.5,6.85,3.45,6.85,5.6,0,8.55-9.15,8.55-15.1C124.62,419.95,123,417.7,121.17,417.7Z"/><path class="cls-2" d="M154,409.5c-1,0-2.8-.55-2.8-2.2,0-.7.6-1.65.75-2.7-.25-.75-.55-.85-1.1-.85-3.2,0-5.6,3.35-7.55,10.4l-1,3.5h6.3l-.55,1.65h-6.2c-1.6,6.15-3.5,14-5.2,19.4-1.2,3.85-3,7.6-6.05,10.1-2.6,2.2-4.55,2.9-7,2.9-4,0-5-2-5-4a2.63,2.63,0,0,1,2.6-2.6,2.5,2.5,0,0,1,2.7,2.4,3.63,3.63,0,0,1-1,2.35,1,1,0,0,0,1,.9c3.7,0,5.9-3.3,8.15-10.65,2.45-8.05,4.15-15.55,5.5-20.8h-5.3l.5-1.65H138l.55-2a19.51,19.51,0,0,1,5.85-10.15,10,10,0,0,1,7.1-2.75c3.45,0,5.1,2.2,5.1,4.25A2.67,2.67,0,0,1,154,409.5Z"/><path class="cls-2" d="M155.36,440.45c-2.15,0-5.2-.85-5.2-3.9a12,12,0,0,1,1-4.15l3.35-8.5a18.08,18.08,0,0,0,1.15-4c0-1.45-.7-1.9-1.65-1.9-2.35,0-3.75,2.5-5.4,6.75l-1-.35c1.8-4.4,3.5-7.6,7.1-7.6,2.15,0,5,1.3,5,4.25a19.19,19.19,0,0,1-1.55,5l-2.85,7.35a13.81,13.81,0,0,0-1.15,4c0,1.6.9,1.75,1.8,1.75,2.4,0,3.9-2.35,5.55-6.6l.9.3C160.66,437.35,158.86,440.45,155.36,440.45Zm4.5-29.65a2.5,2.5,0,0,1-2.5-2.8,3.34,3.34,0,0,1,3.4-3.5,2.54,2.54,0,0,1,2.3,2.75A3.25,3.25,0,0,1,159.86,410.8Z"/><path class="cls-2" d="M180.45,419.3H174.1c-1.35,4.55-3.75,12.55-4.2,14.3a24.2,24.2,0,0,0-1,3.8c0,1.6,1,1.8,1.85,1.8,2.4,0,4.2-2.45,5.85-6.7l1,.3c-1.8,4.45-4,7.65-7.45,7.65-2.15,0-5.2-.8-5.2-3.85a11.35,11.35,0,0,1,.5-2.9c.6-2.25,4-13.25,4.3-14.4H165l.55-1.65h4.85l2.2-7.75h4.35l-2.3,7.75H181Z"/><path class="cls-2" d="M198.88,440.45c-3,0-4.7-1.3-4.7-4.65l-.2,0c-1.9,2.75-4.15,4.85-7,4.85-3.35,0-6.85-1.65-6.85-7.9,0-5.15,4.9-15.85,13.9-15.85a4.28,4.28,0,0,1,4.5,3.65h.15l1.15-3.35h4.5l-5.65,16.35a14.55,14.55,0,0,0-.8,3.7c0,1.65.75,2,1.7,2,2.35,0,3.8-2.35,5.45-6.6l1,.3C204.23,437.35,202.43,440.45,198.88,440.45Zm-5-22.55c-5.15,0-9.05,9.9-9.05,15.85,0,4.6,1.6,5.15,2.9,5.15,2.85,0,5-2.3,6.55-4.9l3.8-11.65C197.48,419.3,196.28,417.9,193.88,417.9Z"/><path class="cls-2" d="M216.27,440.65c-3.8,0-7.8-1.75-7.8-6.35a12.4,12.4,0,0,1,.75-4.35l6.55-20.5a11.71,11.71,0,0,0,.75-3.35c0-1.1-.9-1.45-2-1.6-1.25-.15-1.8-.15-3-.2v-1l10.9-.5-5.9,18,.15,0c1.45-1.7,3.85-4,6.7-4,3.35,0,7.25,1.6,7.25,7.85C230.62,429.9,225.27,440.65,216.27,440.65Zm6.35-22.1c-3,0-5.2,2.25-6.8,4.6l-3.55,11.1c0,4.6,2.45,5.3,4.15,5.3,5.2,0,9.5-10,9.5-15.85C225.92,419.1,223.92,418.55,222.62,418.55Z"/><path class="cls-2" d="M240.43,440.45c-2.15,0-5.2-.85-5.2-3.9a12,12,0,0,1,1-4.15l3.35-8.5a18.08,18.08,0,0,0,1.15-4c0-1.45-.7-1.9-1.65-1.9-2.35,0-3.75,2.5-5.4,6.75l-1-.35c1.8-4.4,3.5-7.6,7.1-7.6,2.15,0,5,1.3,5,4.25a19.19,19.19,0,0,1-1.55,5l-2.85,7.35a13.81,13.81,0,0,0-1.15,4c0,1.6.9,1.75,1.8,1.75,2.4,0,3.9-2.35,5.55-6.6l.9.3C245.73,437.35,243.93,440.45,240.43,440.45Zm4.5-29.65a2.5,2.5,0,0,1-2.5-2.8,3.34,3.34,0,0,1,3.4-3.5,2.54,2.54,0,0,1,2.3,2.75A3.25,3.25,0,0,1,244.93,410.8Z"/><path class="cls-2" d="M254.63,433.6a16.49,16.49,0,0,0-1,3.8c0,1.6.85,1.8,1.75,1.8,2.4,0,4-2.35,5.6-6.6l.9.3c-1.8,4.45-3.6,7.55-7.15,7.55-2.15,0-5.1-.8-5.1-3.85a16.3,16.3,0,0,1,.9-4.2l7.25-23a11.39,11.39,0,0,0,.7-3.35c0-1.1-.9-1.45-2-1.6-1.25-.15-1.8-.15-3-.2v-1l11-.5Z"/><path class="cls-2" d="M270.8,440.45c-2.15,0-5.2-.85-5.2-3.9a12,12,0,0,1,1-4.15l3.35-8.5a18.08,18.08,0,0,0,1.15-4c0-1.45-.7-1.9-1.65-1.9-2.35,0-3.75,2.5-5.4,6.75l-1-.35c1.8-4.4,3.5-7.6,7.1-7.6,2.15,0,5,1.3,5,4.25a19.19,19.19,0,0,1-1.55,5l-2.85,7.35a13.81,13.81,0,0,0-1.15,4c0,1.6.9,1.75,1.8,1.75,2.4,0,3.9-2.35,5.55-6.6l.9.3C276.1,437.35,274.3,440.45,270.8,440.45Zm4.5-29.65a2.5,2.5,0,0,1-2.5-2.8,3.34,3.34,0,0,1,3.4-3.5,2.54,2.54,0,0,1,2.3,2.75A3.25,3.25,0,0,1,275.3,410.8Z"/><path class="cls-2" d="M295.89,419.3h-6.35c-1.35,4.55-3.75,12.55-4.2,14.3a24.2,24.2,0,0,0-1,3.8c0,1.6,1,1.8,1.85,1.8,2.4,0,4.2-2.45,5.85-6.7l1,.3c-1.8,4.45-4,7.65-7.45,7.65-2.15,0-5.2-.8-5.2-3.85a11.35,11.35,0,0,1,.5-2.9c.6-2.25,4-13.25,4.3-14.4h-4.8l.55-1.65h4.85l2.2-7.75h4.35l-2.3,7.75h6.4Z"/><path class="cls-2" d="M316.67,434.6c-3.8,12.25-10.35,17.25-17.35,17.25-5.8,0-6.6-3.3-6.6-4.7a3.1,3.1,0,0,1,3.3-3.45,2.29,2.29,0,0,1,2.3,2.1c0,3.9-2.8,1.6-3.15,3.35.15,1.9,2.7,1.75,3.85,1.75,4.75,0,9.55-4.35,12.9-14.65l-.2,0c-1.75,2.25-4.25,4.3-7.1,4.3a5.7,5.7,0,0,1-5.8-5.6,13.15,13.15,0,0,1,1-3.75l2.85-7.25a13.75,13.75,0,0,0,1.1-4.15c0-1.45-.5-1.7-1.45-1.7-2.35,0-3.8,2.5-5.45,6.75l-.9-.35c1.75-4.4,3.5-7.6,7.05-7.6,2.15,0,5,1.1,5,3.9a13,13,0,0,1-1.1,4.25l-3.1,7.7a12.32,12.32,0,0,0-1,3.65c0,2.15,1.2,2.5,2.5,2.5,2.75,0,5.4-2.35,7-4.65l5.15-16.6h4.45Z"/><path class="cls-2" d="M324.79,440.35a3.2,3.2,0,0,1-3.25-3.2,3.25,3.25,0,0,1,6.5,0A3.2,3.2,0,0,1,324.79,440.35Z"/></g><g class="cls-1"><path class="cls-2" d="M76.32,122.22,64.44,156.05H48.78l11.34-33.12c-9.54-1.62-20-7.2-33.66-7.2-1.8,0-3.42.18-5.4.36-3.78,3.24-10.8,7.92-13.5,7.92C4,124,0,122.4,0,118.44c0-4.68,5.76-6.12,9.72-6.12,2.88,0,6.66,0,10.26.18C36.9,97.38,52.74,58.32,66.06,12.6H86C72.72,53.64,51.3,94.32,23.94,113A108.77,108.77,0,0,1,36.36,112c11.34,0,19.08,2.34,26.46,3.06L78.66,71.1h16.2l-16,43.56c8.28-1.08,15.66-4,22-11.52l2.16,2C96.48,114.66,85.86,120.06,76.32,122.22Z"/><path class="cls-2" d="M177.65,64.62v.72c9.72,5.4,18.54,12.78,18.54,23.94,0,24.66-24.12,37.8-45.9,37.8-21.24,0-37.08-11.52-37.08-27,0-15.12,16-28.44,31.5-31.86V67.5c-8.64-5.58-14.94-11.34-14.94-22.14,0-17.82,19.44-34,41.76-34,17.82,0,32.58,10.08,32.58,23.94C204.11,48.42,192.05,60.48,177.65,64.62ZM149.94,70.2c-14.4,5.76-23.4,18.36-23.4,31.86,0,10.44,7.92,20.34,24.12,20.34,14.22,0,28.44-9.9,28.44-25.38C179.09,83.88,166,76.14,149.94,70.2ZM171.17,16C156.6,16,146.7,27.36,146.7,38.34c0,11.52,8.28,17.64,26.46,24.3,13.86-5.22,19.44-18,19.44-28.8C192.59,22.32,183.23,16,171.17,16Z"/><path class="cls-2" d="M225,141.83l-4.5-3.24L340,0l4.86,3.24ZM245.15,70.2c-13.14,0-23.94-8.64-23.94-22.14,0-18.36,17.46-35.28,35.64-35.28,13.86,0,24.3,8.82,24.3,22.5C281.15,55.62,261.89,70.2,245.15,70.2Zm11.7-53.1c-12.24,0-22,19.26-22,34.74,0,7.92,2.88,13.86,10.8,13.86,11,0,21.78-15.84,21.78-34.38C267.47,22.32,264.05,17.1,256.85,17.1Zm52.74,109.44c-13.14,0-23.94-8.64-23.94-22.14,0-18.36,17.46-35.28,35.64-35.28,13.86,0,24.3,8.82,24.3,22.5C345.59,112,326.33,126.53,309.59,126.53Zm11.7-53.1c-12.24,0-22,19.26-22,34.74,0,7.92,2.88,13.86,10.8,13.86,11,0,21.78-15.84,21.78-34.38C331.91,78.66,328.49,73.44,321.29,73.44Z"/></g></g></g></svg>