<svg xmlns="http://www.w3.org/2000/svg" viewBox="0 0 705.52 322.41"><defs><style>.cls-1{fill:#4f4f56;}.cls-2{fill:#19191e;}</style></defs><title>2-quote</title><g id="Layer_2" data-name="Layer 2"><g id="_49-text.svg" data-name=" 49-text.svg"><path class="cls-1" d="M.17,15.86l1.92-2.29a8.43,8.43,0,0,0,5.75,2.37c2,0,3.22-.94,3.22-2.29V13.6c0-1.3-.73-2-4.11-2.78C3.08,9.88.9,8.74.9,5.38V5.33C.9,2.21,3.5.05,7.11.05a10.09,10.09,0,0,1,6.6,2.29L12,4.76A8.27,8.27,0,0,0,7.06,2.89c-1.87,0-3,1-3,2.16V5.1c0,1.4.83,2,4.34,2.86,3.85.94,5.82,2.31,5.82,5.33v.05c0,3.41-2.68,5.43-6.5,5.43A11.21,11.21,0,0,1,.17,15.86Z"/><path class="cls-1" d="M20.08,9.46V9.41A9.33,9.33,0,0,1,29.62,0a9.24,9.24,0,0,1,9.49,9.36v.05a9.33,9.33,0,0,1-9.54,9.41A9.24,9.24,0,0,1,20.08,9.46Zm15.68,0V9.41A6.21,6.21,0,0,0,29.57,3a6.13,6.13,0,0,0-6.14,6.4v.05a6.21,6.21,0,0,0,6.19,6.45A6.13,6.13,0,0,0,35.75,9.46Z"/><path class="cls-1" d="M46.14.31h3.41l5.54,8.61L60.63.31H64v18.2h-3.2V5.46L55.09,14H55L49.29,5.51v13H46.14Z"/><path class="cls-1" d="M72,.31H85.48V3.17H75.19V7.9h9.13v2.89H75.19v4.86H85.61v2.86H72Z"/><path class="cls-1" d="M107.9,3.28h-5.8v-3h14.79v3h-5.8V18.51h-3.2Z"/><path class="cls-1" d="M123.06.31h3.2V7.88h8.68V.31h3.2v18.2h-3.2V10.84h-8.68v7.67h-3.2Z"/><path class="cls-1" d="M146.16.31h3.2v18.2h-3.2Z"/><path class="cls-1" d="M157.35.31h3l9.75,12.58V.31h3.15v18.2h-2.68l-10-12.95V18.51h-3.15Z"/><path class="cls-1" d="M180.23,9.46V9.41A9.27,9.27,0,0,1,189.62,0a9.83,9.83,0,0,1,7,2.47l-2,2.42A7.23,7.23,0,0,0,189.49,3a6.13,6.13,0,0,0-5.9,6.4v.05c0,3.74,2.47,6.5,6.19,6.5a7.43,7.43,0,0,0,4.39-1.38V11.15h-4.65V8.35h7.75V16a11.6,11.6,0,0,1-7.59,2.83A9,9,0,0,1,180.23,9.46Z"/><path class="cls-1" d="M203.25,15.86l1.92-2.29a8.43,8.43,0,0,0,5.75,2.37c2,0,3.22-.94,3.22-2.29V13.6c0-1.3-.73-2-4.11-2.78C206.16,9.88,204,8.74,204,5.38V5.33c0-3.12,2.6-5.28,6.21-5.28a10.09,10.09,0,0,1,6.6,2.29l-1.72,2.42a8.27,8.27,0,0,0-4.94-1.87c-1.87,0-3,1-3,2.16V5.1c0,1.4.83,2,4.34,2.86,3.85.94,5.82,2.31,5.82,5.33v.05c0,3.41-2.68,5.43-6.5,5.43A11.21,11.21,0,0,1,203.25,15.86Z"/><path class="cls-1" d="M235.15.31h3l9.75,12.58V.31H251v18.2h-2.68l-10-12.95V18.51h-3.15Z"/><path class="cls-1" d="M259,.31h13.49V3.17h-10.3V7.9h9.13v2.89h-9.13v4.86h10.43v2.86H259Z"/><path class="cls-1" d="M278.15.31h3.54l5.49,14,5.46-14h3.46l-7.54,18.33h-2.86Z"/><path class="cls-1" d="M302.17.31h13.49V3.17h-10.3V7.9h9.13v2.89h-9.13v4.86h10.43v2.86H302.17Z"/><path class="cls-1" d="M322.83.31h8.11a7.33,7.33,0,0,1,5.25,1.82,5.5,5.5,0,0,1,1.51,3.93v.05a5.46,5.46,0,0,1-4.32,5.51l4.91,6.89h-3.8L330,12.17h-4v6.34h-3.2Zm7.88,9c2.29,0,3.74-1.2,3.74-3V6.24c0-2-1.4-3-3.77-3H326V9.33Z"/><path class="cls-1" d="M354.86,9.46V9.41A9.2,9.2,0,0,1,364.22,0a9.51,9.51,0,0,1,7.15,2.83L369.32,5.2A7.27,7.27,0,0,0,364.19,3a6.1,6.1,0,0,0-6,6.4v.05a6.13,6.13,0,0,0,6,6.45,7.11,7.11,0,0,0,5.23-2.34l2.05,2.08a9.39,9.39,0,0,1-7.38,3.22A9.14,9.14,0,0,1,354.86,9.46Z"/><path class="cls-1" d="M377.84.31H381V7.88h8.68V.31h3.2v18.2h-3.2V10.84H381v7.67h-3.2Z"/><path class="cls-1" d="M407,.18h3l8,18.33h-3.38l-1.85-4.39h-8.61l-1.87,4.39H399Zm4.58,11.1L408.43,4l-3.12,7.28Z"/><path class="cls-1" d="M424,.31h3l9.75,12.58V.31h3.15v18.2h-2.68l-10-12.95V18.51H424Z"/><path class="cls-1" d="M446.93,9.46V9.41A9.27,9.27,0,0,1,456.32,0a9.83,9.83,0,0,1,7,2.47l-2,2.42A7.23,7.23,0,0,0,456.19,3a6.13,6.13,0,0,0-5.9,6.4v.05c0,3.74,2.47,6.5,6.19,6.5a7.43,7.43,0,0,0,4.39-1.38V11.15h-4.65V8.35H464V16a11.6,11.6,0,0,1-7.59,2.83A9,9,0,0,1,446.93,9.46Z"/><path class="cls-1" d="M471.44.31h13.5V3.17h-10.3V7.9h9.13v2.89h-9.13v4.86h10.43v2.86H471.44Z"/><path class="cls-1" d="M491.65,4.78h3.46V8.35h-3.46Zm0,10.14h3.46v3.59h-3.46Z"/><path class="cls-1" d="M.74,313.28H11.09v2H.74Z"/><path class="cls-1" d="M29.39,303.9h6.32c5.72,0,9.67,3.93,9.67,9V313c0,5.12-4,9.1-9.67,9.1H29.39Zm2.05,1.9V320.2h4.26c4.6,0,7.54-3.12,7.54-7.15V313c0-4-2.94-7.2-7.54-7.2Z"/><path class="cls-1" d="M58.29,303.77h1.92l8.29,18.33H66.3l-2.13-4.81H54.26L52.1,322.1H50Zm5.07,11.67-4.13-9.28-4.16,9.28Z"/><path class="cls-1" d="M71.38,303.9h2.29l6.47,15.68,6.5-15.68h2.21L81,322.23H79.2Z"/><path class="cls-1" d="M95.47,303.9h2.05v18.2H95.47Z"/><path class="cls-1" d="M106,303.9h6.32c5.72,0,9.67,3.93,9.67,9V313c0,5.12-4,9.1-9.67,9.1H106Zm2.05,1.9V320.2h4.26c4.6,0,7.54-3.12,7.54-7.15V313c0-4-2.94-7.2-7.54-7.2Z"/><path class="cls-1" d="M139.54,313V313a9.28,9.28,0,1,1,18.56-.05V313a9.28,9.28,0,1,1-18.56.05ZM156,313V313a7.24,7.24,0,0,0-7.18-7.51,7.15,7.15,0,0,0-7.12,7.46V313a7.24,7.24,0,0,0,7.18,7.51A7.15,7.15,0,0,0,156,313Z"/><path class="cls-1" d="M164.61,313V313a9.13,9.13,0,0,1,9.13-9.41,9.59,9.59,0,0,1,6.79,2.42l-1.33,1.56a7.74,7.74,0,0,0-5.54-2.08c-4,0-6.92,3.41-6.92,7.46V313c0,4.34,2.78,7.57,7.2,7.57a8.57,8.57,0,0,0,5.25-1.82v-4.52h-5.54v-1.85h7.51v7.25a11,11,0,0,1-7.31,2.78C168.15,322.41,164.61,318.25,164.61,313Z"/><path class="cls-1" d="M189.21,303.9h2.05v18.2h-2.05Z"/><path class="cls-1" d="M199.71,303.9h2.05v16.3H212v1.9h-12.3Z"/><path class="cls-1" d="M214.33,303.9h2.29l6.47,15.68,6.5-15.68h2.21L224,322.23h-1.82Z"/><path class="cls-1" d="M245,314.9l-7.57-11h2.5l6.14,9.1,6.19-9.1h2.39l-7.57,11v7.23H245Z"/><path class="cls-2" d="M7.25,70.16h.9c2,0,3.1,1.15,3.1,2.6a3.12,3.12,0,0,1-3.2,3c-2.1,0-3.25-1.3-3.25-3.65,0-4,2.85-6.75,7.75-9.3l.45,1.1C10,65.56,7.75,67.31,7.25,70.16Zm8.45,0h.9c2,0,3.1,1.15,3.1,2.6a3.12,3.12,0,0,1-3.2,3c-2.1,0-3.25-1.3-3.25-3.65,0-4,2.85-6.75,7.75-9.3l.45,1.1C18.4,65.56,16.2,67.31,15.7,70.16Z"/><path class="cls-2" d="M40.82,99.56H26.22l.3-1.05a17,17,0,0,0,4-.65,2.52,2.52,0,0,0,1.6-2.6v-9.2H20.76c-1.7,2.35-4,5.55-5,7.05-.9,1.35-1.8,2.5-1.8,3,0,1.5,3.4,2.25,5,2.35l-.3,1.05H4.81l.3-1.05a13.58,13.58,0,0,0,3.5-1,14.13,14.13,0,0,0,4.4-3.9c6.9-8.6,15.1-19.1,22.5-28.75h1.4V95.11c0,1.4.15,2.25,1.15,2.75a8.5,8.5,0,0,0,3,.65Zm-8.75-27.8-10,12.8h10Z"/><path class="cls-2" d="M61.92,93.16a20.82,20.82,0,0,0-.8,3.7c0,1.65.7,2,1.65,2,2.35,0,3.8-2.35,5.45-6.6l1,.3c-1.8,4.45-3.6,7.55-7.15,7.55-3,0-4.55-1.25-4.55-4.55l-.2,0c-2,2.75-4.55,4.75-7.4,4.75-3.35,0-7-1.65-7-7.9,0-5.15,5-15.85,14.05-15.85a4.83,4.83,0,0,1,4.7,3.2h.15L65,69.11a12.92,12.92,0,0,0,.75-3.35c0-1.1-.9-1.45-2-1.6s-2.25-.15-3.5-.2V63l11.35-.5Zm-5.1-15.6c-5.2,0-9.2,9.9-9.2,15.85,0,4.6,1.75,5.15,3,5.15,2.85,0,5.3-2.2,6.85-4.8l3.75-12.3C60.42,78.66,59.17,77.56,56.81,77.56Z"/><path class="cls-2" d="M80.06,100.26a6.36,6.36,0,0,1-6.6-6.65c0-5,3.55-9.3,9-14.1l-.3-.25c-2.45,1.5-4.5,2.4-6.35,2.4a5.32,5.32,0,0,1-2.85-.55l-1.7,4.7-1-.3,3-8.9H74c.9,1.8,3.15,2.45,4.55,2.45a9.28,9.28,0,0,0,6.6-2.7l.8.75c-3.6,3.5-7.9,9.85-7.9,16.55,0,3.6,2.2,4.6,4,4.6,3.7,0,10-4.6,10-12.6,0-4-2.6-3.65-2.6-6.8A2.51,2.51,0,0,1,92,76.51c2.35,0,2.65,2.1,2.65,4C94.66,90.41,88.46,100.26,80.06,100.26Z"/><path class="cls-2" d="M101.87,88.86a24.61,24.61,0,0,0-.75,4.7c0,3.4,1.1,5.05,3.7,5.05,3.65,0,6-2.9,8.1-6.7l.9.45c-3.1,5.9-6.5,7.9-9.75,7.9-3.55,0-7.65-1.65-7.65-8,0-5.15,5-15.75,14.3-15.75,2.25,0,4.25,1.1,4.25,3.35C115,85.26,106.77,88.11,101.87,88.86Zm7.45-11.35c-2.9,0-5.85,5.3-7.2,10.3,7-1.25,9.4-5.35,9.4-7.65C111.52,78.56,110.92,77.51,109.32,77.51Z"/><path class="cls-2" d="M135,82.71c-1.75,0-2.45-1-2.45-2.1s1.15-1.7,1.15-2.15,0-.65-.75-.65c-1.75,0-4.05,3.8-5.5,6.45l-4.7,15.3H118.3l5-16a24.11,24.11,0,0,0,.95-4.05c0-1.45-.45-1.8-1.4-1.8-2.35,0-3.8,2.65-5.4,6.75l-1-.35c1.8-4.4,3.55-7.6,7.1-7.6,2.15,0,4.25,1.4,4.25,5.05l.2,0c1.65-2.55,3.15-5.1,6.35-5.1a3.05,3.05,0,0,1,3.25,3C137.6,81.11,136.75,82.71,135,82.71Z"/><path class="cls-2" d="M154.63,79h-6.35c-1.35,4.55-3.75,12.55-4.2,14.3a24.19,24.19,0,0,0-1,3.8c0,1.6,1,1.8,1.85,1.8,2.4,0,4.2-2.45,5.85-6.7l1,.3c-1.8,4.45-4,7.65-7.45,7.65-2.15,0-5.2-.8-5.2-3.85a11.35,11.35,0,0,1,.5-2.9c.6-2.25,4-13.25,4.3-14.4h-4.8l.55-1.65h4.85l2.2-7.75h4.35l-2.3,7.75h6.4Z"/><path class="cls-2" d="M162.34,100.11c-2.15,0-5.2-.85-5.2-3.9a12,12,0,0,1,1-4.15l3.35-8.5a18.07,18.07,0,0,0,1.15-4c0-1.45-.7-1.9-1.65-1.9-2.35,0-3.75,2.5-5.4,6.75l-1-.35c1.8-4.4,3.5-7.6,7.1-7.6,2.15,0,5,1.3,5,4.25a19.17,19.17,0,0,1-1.55,5.05l-2.85,7.35a13.81,13.81,0,0,0-1.15,4c0,1.6.9,1.75,1.8,1.75,2.4,0,3.9-2.35,5.55-6.6l.9.3C167.64,97,165.84,100.11,162.34,100.11Zm4.5-29.65a2.5,2.5,0,0,1-2.5-2.8,3.34,3.34,0,0,1,3.4-3.5,2.54,2.54,0,0,1,2.3,2.75A3.25,3.25,0,0,1,166.84,70.46Z"/><path class="cls-2" d="M186.77,84.91c-1.25,0-2.45-.6-2.45-2.05,0-2,2.6-2.6,2.8-3.15-.1-.65-.9-2.2-4.25-2.2a4.08,4.08,0,0,0-4,4.15c0,4.85,8.25,5.15,8.25,11.55,0,3.6-4.15,7.05-8.6,7.05-5.5,0-7.45-3.4-7.45-5.8,0-1.85,1.35-3.45,2.75-3.45,2.2,0,2.65,1.4,2.65,2.2a2.08,2.08,0,0,1-2.2,2.2c-.9,0-1.35,0-1.35.7,0,1.55,2.5,3.1,5,3.1,2.9,0,5.55-1.25,5.55-4,0-5.7-8.35-5.7-8.35-12,0-3.2,3.7-6.8,7.75-6.8,5.45,0,6.2,4,6.2,5.25C189.12,83.61,188.22,84.91,186.77,84.91Z"/><path class="cls-2" d="M196.41,88.86a24.61,24.61,0,0,0-.75,4.7c0,3.4,1.1,5.05,3.7,5.05,3.65,0,6-2.9,8.1-6.7l.9.45c-3.1,5.9-6.5,7.9-9.75,7.9-3.55,0-7.65-1.65-7.65-8,0-5.15,5-15.75,14.3-15.75,2.25,0,4.25,1.1,4.25,3.35C209.51,85.26,201.31,88.11,196.41,88.86Zm7.45-11.35c-2.9,0-5.85,5.3-7.2,10.3,7-1.25,9.4-5.35,9.4-7.65C206.06,78.56,205.46,77.51,203.86,77.51Z"/><path class="cls-2" d="M229.54,82.71c-1.75,0-2.45-1-2.45-2.1s1.15-1.7,1.15-2.15,0-.65-.75-.65c-1.75,0-4.05,3.8-5.5,6.45l-4.7,15.3h-4.45l5-16a24,24,0,0,0,1-4.05c0-1.45-.45-1.8-1.4-1.8-2.35,0-3.8,2.65-5.4,6.75l-1-.35c1.8-4.4,3.55-7.6,7.1-7.6,2.15,0,4.25,1.4,4.25,5.05l.2,0c1.65-2.55,3.15-5.1,6.35-5.1a3.05,3.05,0,0,1,3.25,3C232.14,81.11,231.29,82.71,229.54,82.71Z"/><path class="cls-2" d="M246.13,84.91c-1.25,0-2.45-.6-2.45-2.05,0-2,2.6-2.6,2.8-3.15-.1-.65-.9-2.2-4.25-2.2a4.08,4.08,0,0,0-4,4.15c0,4.85,8.25,5.15,8.25,11.55,0,3.6-4.15,7.05-8.6,7.05-5.5,0-7.45-3.4-7.45-5.8,0-1.85,1.35-3.45,2.75-3.45,2.2,0,2.65,1.4,2.65,2.2a2.08,2.08,0,0,1-2.2,2.2c-.9,0-1.35,0-1.35.7,0,1.55,2.5,3.1,5,3.1,2.9,0,5.55-1.25,5.55-4,0-5.7-8.35-5.7-8.35-12,0-3.2,3.7-6.8,7.75-6.8,5.45,0,6.2,4,6.2,5.25C248.48,83.61,247.58,84.91,246.13,84.91Z"/><path class="cls-2" d="M283.18,100.26a6.08,6.08,0,0,1-5.3-3.85c-2.3,2.35-4.85,3.8-6.55,3.8-3.35,0-5.85-2.2-5.85-6.75,0-5,3.35-9.15,8.65-14l-.25-.25c-2.5,1.5-4.25,2.4-6.1,2.4a5.45,5.45,0,0,1-2.85-.55l-1.55,4.45-1-.3,3-8.65h.7c.9,1.8,3.2,2.45,4.6,2.45,2.35,0,3.9-.7,6.15-2.7l.75.75C274,80.61,270,86.26,270,93.71c0,3.5,1.3,4.7,2.85,4.7,1.2,0,3.2-1.25,4.55-3a20.69,20.69,0,0,1-.45-4.05c0-5,5.45-14.85,8.8-14.85,1.65,0,2.1,1.8,2.1,4,0,3.3-3.2,8.7-6.7,13,.75,3.75,3.2,4.35,4.3,4.35,4.5,0,8.9-5.9,8.9-12.1,0-3.8-2.65-3.4-2.65-6.9a2.3,2.3,0,0,1,2.4-2.35c2.35,0,2.65,2,2.65,4.3C296.78,90.71,290.58,100.26,283.18,100.26Zm1.55-20.85a2.8,2.8,0,0,0-2.25.85c-1.35,1.8-1.65,5.25-1.65,9.8,0,.6,0,2,.1,2.3,3-3.65,5.65-8.6,5.65-11.2A1.73,1.73,0,0,0,284.73,79.41Z"/><path class="cls-2" d="M317.24,100.11c-2.15,0-5.35-.85-5.35-3.9a12.38,12.38,0,0,1,1-4.15l3-7.8a12.22,12.22,0,0,0,1-3.65c0-2.1-1.15-2.5-2.5-2.5-2.7,0-5.25,2-7.55,6.2L302,99.56h-4.4l9.6-30.45a11.1,11.1,0,0,0,.7-3.35c0-1.1-.85-1.45-1.95-1.6-1.3-.15-1.8-.15-3-.2V63l10.9-.5-6,18.1.2,0c1.9-2.4,4.15-4.1,7-4.1a5.63,5.63,0,0,1,5.75,5.6,14.81,14.81,0,0,1-1,3.7l-2.75,7.35a15.26,15.26,0,0,0-1.1,4c0,1.6,1,1.7,1.85,1.7,2.4,0,3.85-2.35,5.5-6.6l.9.3C322.49,97,320.74,100.11,317.24,100.11Z"/><path class="cls-2" d="M333.8,100.26c-3.4,0-7.4-2.5-7.4-8.75,0-5.35,4.7-15,14-15,3.4,0,7.4,2.55,7.4,8.8C347.8,90.66,343.2,100.26,333.8,100.26Zm5.85-22.9c-5.25,0-8.55,9.2-8.55,15.1,0,4.6,1.5,6.85,3.45,6.85,5.6,0,8.55-9.15,8.55-15.1C343.1,79.61,341.45,77.36,339.65,77.36Z"/><path class="cls-2" d="M369.69,100.11c-2.15,0-5.2-.85-5.2-3.9a12,12,0,0,1,1-4.15l3.35-8.5a18.07,18.07,0,0,0,1.15-4c0-1.45-.7-1.9-1.65-1.9-2.35,0-3.75,2.5-5.4,6.75l-1-.35c1.8-4.4,3.5-7.6,7.1-7.6,2.15,0,5,1.3,5,4.25a19.17,19.17,0,0,1-1.55,5.05l-2.85,7.35a13.81,13.81,0,0,0-1.15,4c0,1.6.9,1.75,1.8,1.75,2.4,0,3.9-2.35,5.55-6.6l.9.3C375,97,373.19,100.11,369.69,100.11Zm4.5-29.65a2.5,2.5,0,0,1-2.5-2.8,3.34,3.34,0,0,1,3.4-3.5,2.54,2.54,0,0,1,2.3,2.75A3.25,3.25,0,0,1,374.19,70.46Z"/><path class="cls-2" d="M401.07,81.21c-1.6,0-1.85-1.05-1.85-3.1a4.89,4.89,0,0,0-3.1.85v.3a6.6,6.6,0,0,1,1,3.4c0,5-4.6,8.4-9.35,8.4h-3.15c-1,.5-2.1,1.1-2.1,2.45,0,1.85,1.65,2,5.35,2.45,1.5.15,4.55.5,5.55.65a5.57,5.57,0,0,1,4.9,5.6c0,4.9-4.9,9.05-14.25,9.05-6.1,0-9.15-2.3-9.15-5.5s3-5.75,8.45-6.5v-.35c-2.25-.45-4.4-1.25-4.4-3.45,0-3.05,3.45-4.3,5.05-4.8v-.25c-2.4-1.1-3.8-3-3.8-5.2,0-5,4.4-8.7,9.75-8.7,3.35,0,5.75,1.45,6.4,1.45,1.75-.85,2.6-1.45,4.7-1.45a2.37,2.37,0,0,1,2.3,2.35A2.25,2.25,0,0,1,401.07,81.21Zm-8.6,19.25a44.38,44.38,0,0,0-8.05-.8c-3.4.85-5.2,2.9-5.2,5.9,0,2,1.55,4.7,6.1,4.7,5.55,0,9-2.6,9-7C394.32,102.36,393.71,100.76,392.46,100.46Zm-2.8-23.15c-3.9,0-5.05,5.65-5.05,8.3,0,2.35,1.2,4.65,3.05,4.65,3.75,0,5.25-5.85,5.25-8.9C392.92,79.26,391.82,77.31,389.67,77.31Z"/><path class="cls-2" d="M424.27,100.11c-2.1,0-5.35-.85-5.35-3.9a12.22,12.22,0,0,1,1.1-4.15l3-7.8a13.31,13.31,0,0,0,1-3.75c0-2.1-1.15-2.4-2.45-2.4-2.7,0-5.55,2.85-7.25,6.2l-5,15.25h-4.5l5.4-16a22.61,22.61,0,0,0,.95-4.05c0-1.4-.45-1.8-1.4-1.8-2.35,0-3.75,2.5-5.4,6.75l-1-.35c1.8-4.4,3.55-7.6,7.1-7.6,2.15,0,4.6.8,4.6,4.55l.2,0c1.75-2.4,4.2-4.6,7.1-4.6a5.63,5.63,0,0,1,5.75,5.6,15.45,15.45,0,0,1-1,3.7l-2.8,7.35a14.82,14.82,0,0,0-1.1,3.9c0,1.6.9,1.8,1.85,1.8,2.35,0,3.85-2.35,5.5-6.6l1,.3C429.62,97,427.82,100.11,424.27,100.11Z"/><path class="cls-2" d="M440.93,100.26c-3.4,0-7.4-2.5-7.4-8.75,0-5.35,4.7-15,14-15,3.4,0,7.4,2.55,7.4,8.8C454.93,90.66,450.33,100.26,440.93,100.26Zm5.85-22.9c-5.25,0-8.55,9.2-8.55,15.1,0,4.6,1.5,6.85,3.45,6.85,5.6,0,8.55-9.15,8.55-15.1C450.23,79.61,448.58,77.36,446.78,77.36Z"/><path class="cls-2" d="M475.81,82.71c-1.75,0-2.45-1-2.45-2.1s1.15-1.7,1.15-2.15,0-.65-.75-.65c-1.75,0-4.05,3.8-5.5,6.45l-4.7,15.3h-4.45l5-16a24,24,0,0,0,1-4.05c0-1.45-.45-1.8-1.4-1.8-2.35,0-3.8,2.65-5.4,6.75l-1-.35c1.8-4.4,3.55-7.6,7.1-7.6,2.15,0,4.25,1.4,4.25,5.05l.2,0c1.65-2.55,3.15-5.1,6.35-5.1a3.05,3.05,0,0,1,3.25,3C478.41,81.11,477.56,82.71,475.81,82.71Z"/><path class="cls-2" d="M483.19,88.86a24.61,24.61,0,0,0-.75,4.7c0,3.4,1.1,5.05,3.7,5.05,3.65,0,6-2.9,8.1-6.7l.9.45c-3.1,5.9-6.5,7.9-9.75,7.9-3.55,0-7.65-1.65-7.65-8,0-5.15,5-15.75,14.3-15.75,2.25,0,4.25,1.1,4.25,3.35C496.29,85.26,488.09,88.11,483.19,88.86Zm7.45-11.35c-2.9,0-5.85,5.3-7.2,10.3,7-1.25,9.4-5.35,9.4-7.65C492.84,78.56,492.24,77.51,490.64,77.51Z"/><path class="cls-2" d="M528.14,82.71c-1.75,0-2.45-1-2.45-2.1s1.15-1.7,1.15-2.15,0-.65-.75-.65c-1.75,0-4.05,3.8-5.5,6.45l-4.7,15.3h-4.45l5-16a24,24,0,0,0,1-4.05c0-1.45-.45-1.8-1.4-1.8-2.35,0-3.8,2.65-5.4,6.75l-1-.35c1.8-4.4,3.55-7.6,7.1-7.6,2.15,0,4.25,1.4,4.25,5.05l.2,0c1.65-2.55,3.15-5.1,6.35-5.1a3.05,3.05,0,0,1,3.25,3C530.74,81.11,529.89,82.71,528.14,82.71Z"/><path class="cls-2" d="M535.52,88.86a24.61,24.61,0,0,0-.75,4.7c0,3.4,1.1,5.05,3.7,5.05,3.65,0,6-2.9,8.1-6.7l.9.45c-3.1,5.9-6.5,7.9-9.75,7.9-3.55,0-7.65-1.65-7.65-8,0-5.15,5-15.75,14.3-15.75,2.25,0,4.25,1.1,4.25,3.35C548.62,85.26,540.42,88.11,535.52,88.86ZM543,77.51c-2.9,0-5.85,5.3-7.2,10.3,7-1.25,9.4-5.35,9.4-7.65C545.17,78.56,544.57,77.51,543,77.51Z"/><path class="cls-2" d="M565,84.91c-1.25,0-2.45-.6-2.45-2.05,0-2,2.6-2.6,2.8-3.15-.1-.65-.9-2.2-4.25-2.2a4.08,4.08,0,0,0-4,4.15c0,4.85,8.25,5.15,8.25,11.55,0,3.6-4.15,7.05-8.6,7.05-5.5,0-7.45-3.4-7.45-5.8,0-1.85,1.35-3.45,2.75-3.45,2.2,0,2.65,1.4,2.65,2.2a2.08,2.08,0,0,1-2.2,2.2c-.9,0-1.35,0-1.35.7,0,1.55,2.5,3.1,5,3.1,2.9,0,5.55-1.25,5.55-4,0-5.7-8.35-5.7-8.35-12,0-3.2,3.7-6.8,7.75-6.8,5.45,0,6.2,4,6.2,5.25C567.31,83.61,566.41,84.91,565,84.91Z"/><path class="cls-2" d="M574.59,88.86a24.61,24.61,0,0,0-.75,4.7c0,3.4,1.1,5.05,3.7,5.05,3.65,0,6-2.9,8.1-6.7l.9.45c-3.1,5.9-6.5,7.9-9.75,7.9-3.55,0-7.65-1.65-7.65-8,0-5.15,5-15.75,14.3-15.75,2.25,0,4.25,1.1,4.25,3.35C587.69,85.26,579.49,88.11,574.59,88.86ZM582,77.51c-2.9,0-5.85,5.3-7.2,10.3,7-1.25,9.4-5.35,9.4-7.65C584.24,78.56,583.64,77.51,582,77.51Z"/><path class="cls-2" d="M607.92,100.11c-3,0-4.7-1.3-4.7-4.65l-.2-.05c-1.9,2.75-4.15,4.85-7,4.85-3.35,0-6.85-1.65-6.85-7.9,0-5.15,4.9-15.85,13.9-15.85a4.28,4.28,0,0,1,4.5,3.65h.15l1.15-3.35h4.5l-5.65,16.35a14.54,14.54,0,0,0-.8,3.7c0,1.65.75,2,1.7,2,2.35,0,3.8-2.35,5.45-6.6l1,.3C613.27,97,611.47,100.11,607.92,100.11Zm-5-22.55c-5.15,0-9.05,9.9-9.05,15.85,0,4.6,1.6,5.15,2.9,5.15,2.85,0,5-2.3,6.55-4.9L607.12,82C606.52,79,605.32,77.56,602.92,77.56Z"/><path class="cls-2" d="M634.9,82.71c-1.75,0-2.45-1-2.45-2.1s1.15-1.7,1.15-2.15,0-.65-.75-.65c-1.75,0-4.05,3.8-5.5,6.45l-4.7,15.3H618.2l5-16a24,24,0,0,0,1-4.05c0-1.45-.45-1.8-1.4-1.8-2.35,0-3.8,2.65-5.4,6.75l-1-.35c1.8-4.4,3.55-7.6,7.1-7.6,2.15,0,4.25,1.4,4.25,5.05l.2,0c1.65-2.55,3.15-5.1,6.35-5.1a3.05,3.05,0,0,1,3.25,3C637.5,81.11,636.65,82.71,634.9,82.71Z"/><path class="cls-2" d="M652.83,84.36a2.42,2.42,0,0,1-2.65-2.25c0-1,1-2.15,2.55-3-.25-1.3-1.1-1.8-2.9-1.8-4.35,0-8.3,10.05-8.3,16.05,0,3.35,1,5.2,3.6,5.2,3.65,0,6.15-2.9,8.2-6.7l1,.45c-3.2,5.9-6.7,7.9-10,7.9-3.5,0-7.5-1.55-7.5-7.9,0-5.15,5-15.85,13.45-15.85a4.77,4.77,0,0,1,5.1,4.5C655.38,82.71,654.53,84.36,652.83,84.36Z"/><path class="cls-2" d="M675.43,100.11c-2.15,0-5.35-.85-5.35-3.9a12.38,12.38,0,0,1,1-4.15l3-7.8a12.22,12.22,0,0,0,1-3.65c0-2.1-1.15-2.5-2.5-2.5-2.7,0-5.25,2-7.55,6.2l-4.75,15.25h-4.4l9.6-30.45a11.1,11.1,0,0,0,.7-3.35c0-1.1-.85-1.45-1.95-1.6-1.3-.15-1.8-.15-3-.2V63l10.9-.5-6,18.1.2,0c1.9-2.4,4.15-4.1,7-4.1a5.63,5.63,0,0,1,5.75,5.6,14.81,14.81,0,0,1-1,3.7l-2.75,7.35a15.26,15.26,0,0,0-1.1,4c0,1.6,1,1.7,1.85,1.7,2.4,0,3.85-2.35,5.5-6.6l.9.3C680.68,97,678.93,100.11,675.43,100.11Z"/><path class="cls-2" d="M19,172.11c-3,0-4.7-1.3-4.7-4.65l-.2-.05c-1.9,2.75-4.15,4.85-7,4.85-3.35,0-6.85-1.65-6.85-7.9,0-5.15,4.9-15.85,13.9-15.85a4.28,4.28,0,0,1,4.5,3.65h.15l1.15-3.35h4.5l-5.65,16.35a14.54,14.54,0,0,0-.8,3.7c0,1.65.75,2,1.7,2,2.35,0,3.8-2.35,5.45-6.6l1,.3C24.3,169,22.5,172.11,19,172.11Zm-5-22.55c-5.15,0-9.05,9.9-9.05,15.85,0,4.6,1.6,5.15,2.9,5.15,2.85,0,5-2.3,6.55-4.9L18.15,154C17.55,151,16.35,149.56,14,149.56Z"/><path class="cls-2" d="M45.93,154.71c-1.75,0-2.45-1-2.45-2.1s1.15-1.7,1.15-2.15,0-.65-.75-.65c-1.75,0-4.05,3.8-5.5,6.45l-4.7,15.3H29.23l5-16a24.11,24.11,0,0,0,.95-4.05c0-1.45-.45-1.8-1.4-1.8-2.35,0-3.8,2.65-5.4,6.75l-1-.35c1.8-4.4,3.55-7.6,7.1-7.6,2.15,0,4.25,1.4,4.25,5.05l.2,0c1.65-2.55,3.15-5.1,6.35-5.1a3.05,3.05,0,0,1,3.25,3C48.53,153.11,47.68,154.71,45.93,154.71Z"/><path class="cls-2" d="M53.31,160.86a24.61,24.61,0,0,0-.75,4.7c0,3.4,1.1,5.05,3.7,5.05,3.65,0,6-2.9,8.1-6.7l.9.45c-3.1,5.9-6.5,7.9-9.75,7.9-3.55,0-7.65-1.65-7.65-8,0-5.15,5-15.75,14.3-15.75,2.25,0,4.25,1.1,4.25,3.35C66.41,157.26,58.21,160.11,53.31,160.86Zm7.45-11.35c-2.9,0-5.85,5.3-7.2,10.3,7-1.25,9.4-5.35,9.4-7.65C63,150.56,62.36,149.51,60.76,149.51Z"/><path class="cls-2" d="M98.46,172.11c-3,0-4.7-1.3-4.7-4.65l-.2-.05c-1.9,2.75-4.15,4.85-7,4.85-3.35,0-6.85-1.65-6.85-7.9,0-5.15,4.9-15.85,13.9-15.85a4.28,4.28,0,0,1,4.5,3.65h.15l1.15-3.35h4.5l-5.65,16.35a14.54,14.54,0,0,0-.8,3.7c0,1.65.75,2,1.7,2,2.35,0,3.8-2.35,5.45-6.6l1,.3C103.81,169,102,172.11,98.46,172.11Zm-5-22.55c-5.15,0-9.05,9.9-9.05,15.85,0,4.6,1.6,5.15,2.9,5.15,2.85,0,5-2.3,6.55-4.9L97.66,154C97.06,151,95.86,149.56,93.46,149.56Z"/><path class="cls-2" d="M122.73,156.91c-1.25,0-2.45-.6-2.45-2.05,0-2,2.6-2.6,2.8-3.15-.1-.65-.9-2.2-4.25-2.2a4.08,4.08,0,0,0-4,4.15c0,4.85,8.25,5.15,8.25,11.55,0,3.6-4.15,7.05-8.6,7.05-5.5,0-7.45-3.4-7.45-5.8,0-1.85,1.35-3.45,2.75-3.45,2.2,0,2.65,1.4,2.65,2.2a2.08,2.08,0,0,1-2.2,2.2c-.9,0-1.35,0-1.35.7,0,1.55,2.5,3.1,5,3.1,2.9,0,5.55-1.25,5.55-4,0-5.7-8.35-5.7-8.35-12,0-3.2,3.7-6.8,7.75-6.8,5.45,0,6.2,4,6.2,5.25C125.08,155.61,124.18,156.91,122.73,156.91Z"/><path class="cls-2" d="M158.13,165.16a20.82,20.82,0,0,0-.8,3.7c0,1.65.7,2,1.65,2,2.35,0,3.8-2.35,5.45-6.6l1,.3c-1.8,4.45-3.6,7.55-7.15,7.55-3,0-4.55-1.25-4.55-4.55l-.2,0c-2,2.75-4.55,4.75-7.4,4.75-3.35,0-7-1.65-7-7.9,0-5.15,5-15.85,14.05-15.85a4.83,4.83,0,0,1,4.7,3.2H158l3.2-10.6a12.92,12.92,0,0,0,.75-3.35c0-1.1-.9-1.45-2-1.6s-2.25-.15-3.5-.2v-1l11.35-.5Zm-5.1-15.6c-5.2,0-9.2,9.9-9.2,15.85,0,4.6,1.75,5.15,3,5.15,2.85,0,5.3-2.2,6.85-4.8l3.75-12.3C156.63,150.66,155.38,149.56,153,149.56Z"/><path class="cls-2" d="M186.16,172.11c-3,0-4.7-1.3-4.7-4.65l-.2-.05c-1.9,2.75-4.15,4.85-7,4.85-3.35,0-6.85-1.65-6.85-7.9,0-5.15,4.9-15.85,13.9-15.85a4.28,4.28,0,0,1,4.5,3.65H186l1.15-3.35h4.5L186,165.16a14.54,14.54,0,0,0-.8,3.7c0,1.65.75,2,1.7,2,2.35,0,3.8-2.35,5.45-6.6l1,.3C191.51,169,189.71,172.11,186.16,172.11Zm-5-22.55c-5.15,0-9.05,9.9-9.05,15.85,0,4.6,1.6,5.15,2.9,5.15,2.85,0,5-2.3,6.55-4.9l3.8-11.65C184.76,151,183.56,149.56,181.16,149.56Z"/><path class="cls-2" d="M215.64,172.11c-2.1,0-5.35-.85-5.35-3.9a12.22,12.22,0,0,1,1.1-4.15l3-7.8a13.31,13.31,0,0,0,1-3.75c0-2.1-1.15-2.4-2.45-2.4-2.7,0-5.55,2.85-7.25,6.2l-5,15.25H196l5.4-16a22.61,22.61,0,0,0,.95-4.05c0-1.4-.45-1.8-1.4-1.8-2.35,0-3.75,2.5-5.4,6.75l-1-.35c1.8-4.4,3.55-7.6,7.1-7.6,2.15,0,4.6.8,4.6,4.55l.2,0c1.75-2.4,4.2-4.6,7.1-4.6a5.63,5.63,0,0,1,5.75,5.6,15.45,15.45,0,0,1-1,3.7l-2.8,7.35a14.82,14.82,0,0,0-1.1,3.9c0,1.6.9,1.8,1.85,1.8,2.35,0,3.85-2.35,5.5-6.6l1,.3C221,169,219.19,172.11,215.64,172.11Z"/><path class="cls-2" d="M246.95,153.21c-1.6,0-1.85-1.05-1.85-3.1a4.89,4.89,0,0,0-3.1.85v.3a6.6,6.6,0,0,1,1,3.4c0,5-4.6,8.4-9.35,8.4H230.5c-1,.5-2.1,1.1-2.1,2.45,0,1.85,1.65,2,5.35,2.45,1.5.15,4.55.5,5.55.65a5.57,5.57,0,0,1,4.9,5.6c0,4.9-4.9,9.05-14.25,9.05-6.1,0-9.15-2.3-9.15-5.5s3-5.75,8.45-6.5v-.35c-2.25-.45-4.4-1.25-4.4-3.45,0-3.05,3.45-4.3,5.05-4.8v-.25c-2.4-1.1-3.8-3-3.8-5.2,0-5,4.4-8.7,9.75-8.7,3.35,0,5.75,1.45,6.4,1.45,1.75-.85,2.6-1.45,4.7-1.45a2.37,2.37,0,0,1,2.3,2.35A2.25,2.25,0,0,1,246.95,153.21Zm-8.6,19.25a44.38,44.38,0,0,0-8.05-.8c-3.4.85-5.2,2.9-5.2,5.9,0,2,1.55,4.7,6.1,4.7,5.55,0,9-2.6,9-7C240.2,174.36,239.6,172.76,238.35,172.46Zm-2.8-23.15c-3.9,0-5.05,5.65-5.05,8.3,0,2.35,1.2,4.65,3.05,4.65,3.75,0,5.25-5.85,5.25-8.9C238.8,151.26,237.7,149.31,235.55,149.31Z"/><path class="cls-2" d="M252.77,160.86a24.61,24.61,0,0,0-.75,4.7c0,3.4,1.1,5.05,3.7,5.05,3.65,0,6-2.9,8.1-6.7l.9.45c-3.1,5.9-6.5,7.9-9.75,7.9-3.55,0-7.65-1.65-7.65-8,0-5.15,5-15.75,14.3-15.75,2.25,0,4.25,1.1,4.25,3.35C265.87,157.26,257.67,160.11,252.77,160.86Zm7.45-11.35c-2.9,0-5.85,5.3-7.2,10.3,7-1.25,9.4-5.35,9.4-7.65C262.42,150.56,261.82,149.51,260.22,149.51Z"/><path class="cls-2" d="M285.9,154.71c-1.75,0-2.45-1-2.45-2.1s1.15-1.7,1.15-2.15,0-.65-.75-.65c-1.75,0-4.05,3.8-5.5,6.45l-4.7,15.3H269.2l5-16a24.11,24.11,0,0,0,.95-4.05c0-1.45-.45-1.8-1.4-1.8-2.35,0-3.8,2.65-5.4,6.75l-1-.35c1.8-4.4,3.55-7.6,7.1-7.6,2.15,0,4.25,1.4,4.25,5.05l.2,0c1.65-2.55,3.15-5.1,6.35-5.1a3.05,3.05,0,0,1,3.25,3C288.5,153.11,287.65,154.71,285.9,154.71Z"/><path class="cls-2" d="M295.32,172.26c-3.4,0-7.4-2.5-7.4-8.75,0-5.35,4.7-15,14-15,3.4,0,7.4,2.55,7.4,8.8C309.32,162.66,304.72,172.26,295.32,172.26Zm5.85-22.9c-5.25,0-8.55,9.2-8.55,15.1,0,4.6,1.5,6.85,3.45,6.85,5.6,0,8.55-9.15,8.55-15.1C304.62,151.61,303,149.36,301.17,149.36Z"/><path class="cls-2" d="M332.5,172.11c-2.8,0-4.75-1.1-4.75-4.65l-.2-.05c-1.75,2.5-4.45,4.8-7.3,4.8a5.7,5.7,0,0,1-5.8-5.6,13.32,13.32,0,0,1,1-3.7l2.85-7.35a12.86,12.86,0,0,0,1.05-4.05c0-1.45-.55-1.8-1.5-1.8-2.35,0-3.75,2.5-5.4,6.75l-.9-.35c1.75-4.4,3.45-7.5,7-7.5,2.15,0,5,1.1,5,3.9a12.26,12.26,0,0,1-1,4.15l-3.05,7.8a12.06,12.06,0,0,0-1,3.6c0,2.15,1.15,2.55,2.45,2.55,2.75,0,5.45-2.6,7-5.35l5-16h4.6l-5.25,15.9a21.78,21.78,0,0,0-.8,3.6c0,1.65.7,2.1,1.65,2.1,2.35,0,3.8-2.35,5.45-6.6l1,.3C337.85,169,336.05,172.11,332.5,172.11Z"/><path class="cls-2" d="M356.85,156.91c-1.25,0-2.45-.6-2.45-2.05,0-2,2.6-2.6,2.8-3.15-.1-.65-.9-2.2-4.25-2.2a4.08,4.08,0,0,0-4,4.15c0,4.85,8.25,5.15,8.25,11.55,0,3.6-4.15,7.05-8.6,7.05-5.5,0-7.45-3.4-7.45-5.8,0-1.85,1.35-3.45,2.75-3.45,2.2,0,2.65,1.4,2.65,2.2a2.08,2.08,0,0,1-2.2,2.2c-.9,0-1.35,0-1.35.7,0,1.55,2.5,3.1,5,3.1,2.9,0,5.55-1.25,5.55-4,0-5.7-8.35-5.7-8.35-12,0-3.2,3.7-6.8,7.75-6.8,5.45,0,6.2,4,6.2,5.25C359.2,155.61,358.3,156.91,356.85,156.91Z"/><path class="cls-2" d="M392,172.11c-3,0-4.7-1.3-4.7-4.65l-.2-.05c-1.9,2.75-4.15,4.85-7,4.85-3.35,0-6.85-1.65-6.85-7.9,0-5.15,4.9-15.85,13.9-15.85a4.28,4.28,0,0,1,4.5,3.65h.15l1.15-3.35h4.5l-5.65,16.35a14.54,14.54,0,0,0-.8,3.7c0,1.65.75,2,1.7,2,2.35,0,3.8-2.35,5.45-6.6l1,.3C397.35,169,395.55,172.11,392,172.11Zm-5-22.55c-5.15,0-9.05,9.9-9.05,15.85,0,4.6,1.6,5.15,2.9,5.15,2.85,0,5-2.3,6.55-4.9L391.2,154C390.6,151,389.4,149.56,387,149.56Z"/><path class="cls-2" d="M416.27,156.91c-1.25,0-2.45-.6-2.45-2.05,0-2,2.6-2.6,2.8-3.15-.1-.65-.9-2.2-4.25-2.2a4.08,4.08,0,0,0-4,4.15c0,4.85,8.25,5.15,8.25,11.55,0,3.6-4.15,7.05-8.6,7.05-5.5,0-7.45-3.4-7.45-5.8,0-1.85,1.35-3.45,2.75-3.45,2.2,0,2.65,1.4,2.65,2.2a2.08,2.08,0,0,1-2.2,2.2c-.9,0-1.35,0-1.35.7,0,1.55,2.5,3.1,5,3.1,2.9,0,5.55-1.25,5.55-4,0-5.7-8.35-5.7-8.35-12,0-3.2,3.7-6.8,7.75-6.8,5.45,0,6.2,4,6.2,5.25C418.62,155.61,417.72,156.91,416.27,156.91Z"/><path class="cls-2" d="M455.42,153.21c-1.6,0-1.85-1.05-1.85-3.1a4.89,4.89,0,0,0-3.1.85v.3a6.6,6.6,0,0,1,1,3.4c0,5-4.6,8.4-9.35,8.4H439c-1,.5-2.1,1.1-2.1,2.45,0,1.85,1.65,2,5.35,2.45,1.5.15,4.55.5,5.55.65a5.57,5.57,0,0,1,4.9,5.6c0,4.9-4.9,9.05-14.25,9.05-6.1,0-9.15-2.3-9.15-5.5s3-5.75,8.45-6.5v-.35c-2.25-.45-4.4-1.25-4.4-3.45,0-3.05,3.45-4.3,5.05-4.8v-.25c-2.4-1.1-3.8-3-3.8-5.2,0-5,4.4-8.7,9.75-8.7,3.35,0,5.75,1.45,6.4,1.45,1.75-.85,2.6-1.45,4.7-1.45a2.37,2.37,0,0,1,2.3,2.35A2.25,2.25,0,0,1,455.42,153.21Zm-8.6,19.25a44.38,44.38,0,0,0-8.05-.8c-3.4.85-5.2,2.9-5.2,5.9,0,2,1.55,4.7,6.1,4.7,5.55,0,9-2.6,9-7C448.67,174.36,448.07,172.76,446.82,172.46ZM444,149.31c-3.9,0-5.05,5.65-5.05,8.3,0,2.35,1.2,4.65,3.05,4.65,3.75,0,5.25-5.85,5.25-8.9C447.27,151.26,446.17,149.31,444,149.31Z"/><path class="cls-2" d="M461.24,160.86a24.61,24.61,0,0,0-.75,4.7c0,3.4,1.1,5.05,3.7,5.05,3.65,0,6-2.9,8.1-6.7l.9.45c-3.1,5.9-6.5,7.9-9.75,7.9-3.55,0-7.65-1.65-7.65-8,0-5.15,5-15.75,14.3-15.75,2.25,0,4.25,1.1,4.25,3.35C474.34,157.26,466.14,160.11,461.24,160.86Zm7.45-11.35c-2.9,0-5.85,5.3-7.2,10.3,7-1.25,9.4-5.35,9.4-7.65C470.89,150.56,470.29,149.51,468.69,149.51Z"/><path class="cls-2" d="M496.87,172.11c-2.1,0-5.35-.85-5.35-3.9a12.22,12.22,0,0,1,1.1-4.15l3-7.8a13.31,13.31,0,0,0,1-3.75c0-2.1-1.15-2.4-2.45-2.4-2.7,0-5.55,2.85-7.25,6.2l-5,15.25h-4.5l5.4-16a22.54,22.54,0,0,0,1-4.05c0-1.4-.45-1.8-1.4-1.8-2.35,0-3.75,2.5-5.4,6.75l-1-.35c1.8-4.4,3.55-7.6,7.1-7.6,2.15,0,4.6.8,4.6,4.55l.2,0c1.75-2.4,4.2-4.6,7.1-4.6a5.63,5.63,0,0,1,5.75,5.6,15.45,15.45,0,0,1-1,3.7l-2.8,7.35a14.82,14.82,0,0,0-1.1,3.9c0,1.6.9,1.8,1.85,1.8,2.35,0,3.85-2.35,5.5-6.6l1,.3C502.22,169,500.42,172.11,496.87,172.11Z"/><path class="cls-2" d="M511.49,160.86a24.61,24.61,0,0,0-.75,4.7c0,3.4,1.1,5.05,3.7,5.05,3.65,0,6-2.9,8.1-6.7l.9.45c-3.1,5.9-6.5,7.9-9.75,7.9-3.55,0-7.65-1.65-7.65-8,0-5.15,5-15.75,14.3-15.75,2.25,0,4.25,1.1,4.25,3.35C524.59,157.26,516.39,160.11,511.49,160.86Zm7.45-11.35c-2.9,0-5.85,5.3-7.2,10.3,7-1.25,9.4-5.35,9.4-7.65C521.14,150.56,520.54,149.51,518.94,149.51Z"/><path class="cls-2" d="M544.62,154.71c-1.75,0-2.45-1-2.45-2.1s1.15-1.7,1.15-2.15,0-.65-.75-.65c-1.75,0-4.05,3.8-5.5,6.45l-4.7,15.3h-4.45l5-16a24.11,24.11,0,0,0,.95-4.05c0-1.45-.45-1.8-1.4-1.8-2.35,0-3.8,2.65-5.4,6.75l-1-.35c1.8-4.4,3.55-7.6,7.1-7.6,2.15,0,4.25,1.4,4.25,5.05l.2,0c1.65-2.55,3.15-5.1,6.35-5.1a3.05,3.05,0,0,1,3.25,3C547.22,153.11,546.37,154.71,544.62,154.71Z"/><path class="cls-2" d="M565.3,172.11c-3,0-4.7-1.3-4.7-4.65l-.2-.05c-1.9,2.75-4.15,4.85-7,4.85-3.35,0-6.85-1.65-6.85-7.9,0-5.15,4.9-15.85,13.9-15.85a4.28,4.28,0,0,1,4.5,3.65h.15l1.15-3.35h4.5l-5.65,16.35a14.54,14.54,0,0,0-.8,3.7c0,1.65.75,2,1.7,2,2.35,0,3.8-2.35,5.45-6.6l1,.3C570.65,169,568.85,172.11,565.3,172.11Zm-5-22.55c-5.15,0-9.05,9.9-9.05,15.85,0,4.6,1.6,5.15,2.9,5.15,2.85,0,5-2.3,6.55-4.9L564.5,154C563.9,151,562.7,149.56,560.3,149.56Z"/><path class="cls-2" d="M579.34,165.26a16.49,16.49,0,0,0-1,3.8c0,1.6.85,1.8,1.75,1.8,2.4,0,4-2.35,5.6-6.6l.9.3c-1.8,4.45-3.6,7.55-7.15,7.55-2.15,0-5.1-.8-5.1-3.85a16.3,16.3,0,0,1,.9-4.2l7.25-23a11.39,11.39,0,0,0,.7-3.35c0-1.1-.9-1.45-2-1.6-1.25-.15-1.8-.15-3-.2v-1l11-.5Z"/><path class="cls-2" d="M603.86,156.91c-1.25,0-2.45-.6-2.45-2.05,0-2,2.6-2.6,2.8-3.15-.1-.65-.9-2.2-4.25-2.2a4.08,4.08,0,0,0-4,4.15c0,4.85,8.25,5.15,8.25,11.55,0,3.6-4.15,7.05-8.6,7.05-5.5,0-7.45-3.4-7.45-5.8,0-1.85,1.35-3.45,2.75-3.45,2.2,0,2.65,1.4,2.65,2.2a2.08,2.08,0,0,1-2.2,2.2c-.9,0-1.35,0-1.35.7,0,1.55,2.5,3.1,5,3.1,2.9,0,5.55-1.25,5.55-4,0-5.7-8.35-5.7-8.35-12,0-3.2,3.7-6.8,7.75-6.8,5.45,0,6.2,4,6.2,5.25C606.21,155.61,605.31,156.91,603.86,156.91Z"/><path class="cls-2" d="M640.91,172.26a6.08,6.08,0,0,1-5.3-3.85c-2.3,2.35-4.85,3.8-6.55,3.8-3.35,0-5.85-2.2-5.85-6.75,0-5,3.35-9.15,8.65-14l-.25-.25c-2.5,1.5-4.25,2.4-6.1,2.4a5.45,5.45,0,0,1-2.85-.55l-1.55,4.45-1-.3,3-8.65h.7c.9,1.8,3.2,2.45,4.6,2.45,2.35,0,3.9-.7,6.15-2.7l.75.75c-3.55,3.5-7.55,9.15-7.55,16.6,0,3.5,1.3,4.7,2.85,4.7,1.2,0,3.2-1.25,4.55-3a20.69,20.69,0,0,1-.45-4.05c0-5,5.45-14.85,8.8-14.85,1.65,0,2.1,1.8,2.1,4,0,3.3-3.2,8.7-6.7,13,.75,3.75,3.2,4.35,4.3,4.35,4.5,0,8.9-5.9,8.9-12.1,0-3.8-2.65-3.4-2.65-6.9a2.3,2.3,0,0,1,2.4-2.35c2.35,0,2.65,2,2.65,4.3C654.51,162.71,648.31,172.26,640.91,172.26Zm1.55-20.85a2.8,2.8,0,0,0-2.25.85c-1.35,1.8-1.65,5.25-1.65,9.8,0,.6,0,2,.1,2.3,3-3.65,5.65-8.6,5.65-11.2A1.73,1.73,0,0,0,642.46,151.41Z"/><path class="cls-2" d="M675,172.11c-2.15,0-5.35-.85-5.35-3.9a12.38,12.38,0,0,1,1-4.15l3-7.8a12.22,12.22,0,0,0,1-3.65c0-2.1-1.15-2.5-2.5-2.5-2.7,0-5.25,2-7.55,6.2l-4.75,15.25h-4.4l9.6-30.45a11.1,11.1,0,0,0,.7-3.35c0-1.1-.85-1.45-1.95-1.6-1.3-.15-1.8-.15-3-.2v-1l10.9-.5-6,18.1.2,0c1.9-2.4,4.15-4.1,7-4.1a5.63,5.63,0,0,1,5.75,5.6,14.81,14.81,0,0,1-1,3.7l-2.75,7.35a15.26,15.26,0,0,0-1.1,4c0,1.6,1,1.7,1.85,1.7,2.4,0,3.85-2.35,5.5-6.6l.9.3C680.21,169,678.46,172.11,675,172.11Z"/><path class="cls-2" d="M691.52,172.26c-3.4,0-7.4-2.5-7.4-8.75,0-5.35,4.7-15,14-15,3.4,0,7.4,2.55,7.4,8.8C705.52,162.66,700.92,172.26,691.52,172.26Zm5.85-22.9c-5.25,0-8.55,9.2-8.55,15.1,0,4.6,1.5,6.85,3.45,6.85,5.6,0,8.55-9.15,8.55-15.1C700.82,151.61,699.17,149.36,697.37,149.36Z"/><path class="cls-2" d="M7.7,244.11c-2.15,0-5.2-.85-5.2-3.9a12,12,0,0,1,1-4.15l3.35-8.5a18.08,18.08,0,0,0,1.15-4c0-1.45-.7-1.9-1.65-1.9-2.35,0-3.75,2.5-5.4,6.75l-1-.35c1.8-4.4,3.5-7.6,7.1-7.6,2.15,0,5,1.3,5,4.25a19.19,19.19,0,0,1-1.55,5L7.7,237.16a13.81,13.81,0,0,0-1.15,4c0,1.6.9,1.75,1.8,1.75,2.4,0,3.9-2.35,5.55-6.6l.9.3C13,241,11.2,244.11,7.7,244.11Zm4.5-29.65a2.5,2.5,0,0,1-2.5-2.8,3.34,3.34,0,0,1,3.4-3.5,2.54,2.54,0,0,1,2.3,2.75A3.25,3.25,0,0,1,12.2,214.46Z"/><path class="cls-2" d="M39.07,225.21c-1.6,0-1.85-1-1.85-3.1a4.89,4.89,0,0,0-3.1.85v.3a6.6,6.6,0,0,1,1,3.4c0,5-4.6,8.4-9.35,8.4H22.62c-1,.5-2.1,1.1-2.1,2.45,0,1.85,1.65,2.05,5.35,2.45,1.5.15,4.55.5,5.55.65a5.57,5.57,0,0,1,4.9,5.6c0,4.9-4.9,9.05-14.25,9.05-6.1,0-9.15-2.3-9.15-5.5s3-5.75,8.45-6.5v-.35c-2.25-.45-4.4-1.25-4.4-3.45,0-3,3.45-4.3,5.05-4.8v-.25c-2.4-1.1-3.8-3-3.8-5.2,0-5,4.4-8.7,9.75-8.7,3.35,0,5.75,1.45,6.4,1.45,1.75-.85,2.6-1.45,4.7-1.45a2.37,2.37,0,0,1,2.3,2.35A2.25,2.25,0,0,1,39.07,225.21Zm-8.6,19.25a44.38,44.38,0,0,0-8.05-.8c-3.4.85-5.2,2.9-5.2,5.9,0,2,1.55,4.7,6.1,4.7,5.55,0,9-2.6,9-7C32.32,246.36,31.72,244.76,30.47,244.46Zm-2.8-23.15c-3.9,0-5.05,5.65-5.05,8.3,0,2.35,1.2,4.65,3.05,4.65,3.75,0,5.25-5.85,5.25-8.9C30.92,223.26,29.82,221.31,27.67,221.31Z"/><path class="cls-2" d="M62.28,244.11c-2.1,0-5.35-.85-5.35-3.9a12.21,12.21,0,0,1,1.1-4.15l3-7.8a13.32,13.32,0,0,0,1-3.75c0-2.1-1.15-2.4-2.45-2.4-2.7,0-5.55,2.85-7.25,6.2l-5,15.25h-4.5l5.4-16a22.61,22.61,0,0,0,.95-4c0-1.4-.45-1.8-1.4-1.8-2.35,0-3.75,2.5-5.4,6.75l-1-.35c1.8-4.4,3.55-7.6,7.1-7.6,2.15,0,4.6.8,4.6,4.55l.2,0c1.75-2.4,4.2-4.6,7.1-4.6a5.63,5.63,0,0,1,5.75,5.6,15.45,15.45,0,0,1-1,3.7l-2.8,7.35a14.82,14.82,0,0,0-1.1,3.9c0,1.6.9,1.8,1.85,1.8,2.35,0,3.85-2.35,5.5-6.6l1,.3C67.63,241,65.83,244.11,62.28,244.11Z"/><path class="cls-2" d="M78.94,244.26c-3.4,0-7.4-2.5-7.4-8.75,0-5.35,4.7-15,14-15,3.4,0,7.4,2.55,7.4,8.8C92.94,234.66,88.34,244.26,78.94,244.26Zm5.85-22.9c-5.25,0-8.55,9.2-8.55,15.1,0,4.6,1.5,6.85,3.45,6.85,5.6,0,8.55-9.15,8.55-15.1C88.24,223.61,86.59,221.36,84.79,221.36Z"/><path class="cls-2" d="M113.82,226.71c-1.75,0-2.45-1-2.45-2.1s1.15-1.7,1.15-2.15,0-.65-.75-.65c-1.75,0-4.05,3.8-5.5,6.45l-4.7,15.3H97.11l5-16a24,24,0,0,0,1-4c0-1.45-.45-1.8-1.4-1.8-2.35,0-3.8,2.65-5.4,6.75l-1-.35c1.8-4.4,3.55-7.6,7.1-7.6,2.15,0,4.25,1.4,4.25,5.05l.2,0c1.65-2.55,3.15-5.1,6.35-5.1a3.05,3.05,0,0,1,3.25,3.05C116.42,225.11,115.57,226.71,113.82,226.71Z"/><path class="cls-2" d="M121.19,232.86a24.6,24.6,0,0,0-.75,4.7c0,3.4,1.1,5,3.7,5,3.65,0,6-2.9,8.1-6.7l.9.45c-3.1,5.9-6.5,7.9-9.75,7.9-3.55,0-7.65-1.65-7.65-8,0-5.15,5-15.75,14.3-15.75,2.25,0,4.25,1.1,4.25,3.35C134.29,229.26,126.09,232.11,121.19,232.86Zm7.45-11.35c-2.9,0-5.85,5.3-7.2,10.3,7-1.25,9.4-5.35,9.4-7.65C130.84,222.56,130.25,221.51,128.64,221.51Z"/><path class="cls-2" d="M164.14,223h-6.35c-1.35,4.55-3.75,12.55-4.2,14.3a24.22,24.22,0,0,0-1,3.8c0,1.6,1,1.8,1.85,1.8,2.4,0,4.2-2.45,5.85-6.7l1,.3c-1.8,4.45-4,7.65-7.45,7.65-2.15,0-5.2-.8-5.2-3.85a11.35,11.35,0,0,1,.5-2.9c.6-2.25,4-13.25,4.3-14.4h-4.8l.55-1.65H154l2.2-7.75h4.35l-2.3,7.75h6.4Z"/><path class="cls-2" d="M182.12,244.11c-2.15,0-5.35-.85-5.35-3.9a12.38,12.38,0,0,1,1-4.15l3-7.8a12.22,12.22,0,0,0,1-3.65c0-2.1-1.15-2.5-2.5-2.5-2.7,0-5.25,2-7.55,6.2l-4.75,15.25h-4.4l9.6-30.45a11.1,11.1,0,0,0,.7-3.35c0-1.1-.85-1.45-1.95-1.6-1.3-.15-1.8-.15-3-.2v-1l10.9-.5-6,18.1.2,0c1.9-2.4,4.15-4.1,7-4.1a5.63,5.63,0,0,1,5.75,5.6,14.81,14.81,0,0,1-1,3.7L182,237.16a15.26,15.26,0,0,0-1.1,4c0,1.6,1,1.7,1.85,1.7,2.4,0,3.85-2.35,5.5-6.6l.9.3C187.37,241,185.62,244.11,182.12,244.11Z"/><path class="cls-2" d="M196.64,232.86a24.6,24.6,0,0,0-.75,4.7c0,3.4,1.1,5,3.7,5,3.65,0,6-2.9,8.1-6.7l.9.45c-3.1,5.9-6.5,7.9-9.75,7.9-3.55,0-7.65-1.65-7.65-8,0-5.15,5-15.75,14.3-15.75,2.25,0,4.25,1.1,4.25,3.35C209.74,229.26,201.54,232.11,196.64,232.86Zm7.45-11.35c-2.9,0-5.85,5.3-7.2,10.3,7-1.25,9.4-5.35,9.4-7.65C206.29,222.56,205.69,221.51,204.09,221.51Z"/><path class="cls-2" d="M237.84,228.91c-1.25,0-2.45-.6-2.45-2,0-2,2.6-2.6,2.8-3.15-.1-.65-.9-2.2-4.25-2.2a4.08,4.08,0,0,0-4,4.15c0,4.85,8.25,5.15,8.25,11.55,0,3.6-4.15,7.05-8.6,7.05-5.5,0-7.45-3.4-7.45-5.8,0-1.85,1.35-3.45,2.75-3.45,2.2,0,2.65,1.4,2.65,2.2a2.08,2.08,0,0,1-2.2,2.2c-.9,0-1.35,0-1.35.7,0,1.55,2.5,3.1,5,3.1,2.9,0,5.55-1.25,5.55-4,0-5.7-8.35-5.7-8.35-12,0-3.2,3.7-6.8,7.75-6.8,5.45,0,6.2,4,6.2,5.25C240.19,227.61,239.29,228.91,237.84,228.91Z"/><path class="cls-2" d="M249.83,244.11c-2.15,0-5.2-.85-5.2-3.9a12,12,0,0,1,1-4.15l3.35-8.5a18.08,18.08,0,0,0,1.15-4c0-1.45-.7-1.9-1.65-1.9-2.35,0-3.75,2.5-5.4,6.75l-1-.35c1.8-4.4,3.5-7.6,7.1-7.6,2.15,0,5,1.3,5,4.25a19.19,19.19,0,0,1-1.55,5l-2.85,7.35a13.81,13.81,0,0,0-1.15,4c0,1.6.9,1.75,1.8,1.75,2.4,0,3.9-2.35,5.55-6.6l.9.3C255.13,241,253.33,244.11,249.83,244.11Zm4.5-29.65a2.5,2.5,0,0,1-2.5-2.8,3.34,3.34,0,0,1,3.4-3.5,2.54,2.54,0,0,1,2.3,2.75A3.25,3.25,0,0,1,254.33,214.46Z"/><path class="cls-2" d="M281.2,225.21c-1.6,0-1.85-1-1.85-3.1a4.89,4.89,0,0,0-3.1.85v.3a6.6,6.6,0,0,1,1,3.4c0,5-4.6,8.4-9.35,8.4h-3.15c-1,.5-2.1,1.1-2.1,2.45,0,1.85,1.65,2.05,5.35,2.45,1.5.15,4.55.5,5.55.65a5.57,5.57,0,0,1,4.9,5.6c0,4.9-4.9,9.05-14.25,9.05-6.1,0-9.15-2.3-9.15-5.5s3-5.75,8.45-6.5v-.35c-2.25-.45-4.4-1.25-4.4-3.45,0-3,3.45-4.3,5.05-4.8v-.25c-2.4-1.1-3.8-3-3.8-5.2,0-5,4.4-8.7,9.75-8.7,3.35,0,5.75,1.45,6.4,1.45,1.75-.85,2.6-1.45,4.7-1.45a2.37,2.37,0,0,1,2.3,2.35A2.25,2.25,0,0,1,281.2,225.21Zm-8.6,19.25a44.38,44.38,0,0,0-8.05-.8c-3.4.85-5.2,2.9-5.2,5.9,0,2,1.55,4.7,6.1,4.7,5.55,0,9-2.6,9-7C274.45,246.36,273.85,244.76,272.6,244.46Zm-2.8-23.15c-3.9,0-5.05,5.65-5.05,8.3,0,2.35,1.2,4.65,3.05,4.65,3.75,0,5.25-5.85,5.25-8.9C273,223.26,271.95,221.31,269.8,221.31Z"/><path class="cls-2" d="M304.4,244.11c-2.1,0-5.35-.85-5.35-3.9a12.21,12.21,0,0,1,1.1-4.15l3-7.8a13.32,13.32,0,0,0,1-3.75c0-2.1-1.15-2.4-2.45-2.4-2.7,0-5.55,2.85-7.25,6.2l-5,15.25h-4.5l5.4-16a22.54,22.54,0,0,0,1-4c0-1.4-.45-1.8-1.4-1.8-2.35,0-3.75,2.5-5.4,6.75l-1-.35c1.8-4.4,3.55-7.6,7.1-7.6,2.15,0,4.6.8,4.6,4.55l.2,0c1.75-2.4,4.2-4.6,7.1-4.6a5.63,5.63,0,0,1,5.75,5.6,15.45,15.45,0,0,1-1,3.7l-2.8,7.35a14.82,14.82,0,0,0-1.1,3.9c0,1.6.9,1.8,1.85,1.8,2.35,0,3.85-2.35,5.5-6.6l1,.3C309.75,241,308,244.11,304.4,244.11Z"/><path class="cls-2" d="M328.77,228.91c-1.25,0-2.45-.6-2.45-2,0-2,2.6-2.6,2.8-3.15-.1-.65-.9-2.2-4.25-2.2a4.08,4.08,0,0,0-4,4.15c0,4.85,8.25,5.15,8.25,11.55,0,3.6-4.15,7.05-8.6,7.05-5.5,0-7.45-3.4-7.45-5.8,0-1.85,1.35-3.45,2.75-3.45,2.2,0,2.65,1.4,2.65,2.2a2.08,2.08,0,0,1-2.2,2.2c-.9,0-1.35,0-1.35.7,0,1.55,2.5,3.1,5,3.1,2.9,0,5.55-1.25,5.55-4,0-5.7-8.35-5.7-8.35-12,0-3.2,3.7-6.8,7.75-6.8,5.45,0,6.2,4,6.2,5.25C331.12,227.61,330.22,228.91,328.77,228.91Z"/><path class="cls-2" d="M352.77,244.26c-3.4,0-7.4-2.5-7.4-8.75,0-5.35,4.7-15,14-15,3.4,0,7.4,2.55,7.4,8.8C366.77,234.66,362.17,244.26,352.77,244.26Zm5.85-22.9c-5.25,0-8.55,9.2-8.55,15.1,0,4.6,1.5,6.85,3.45,6.85,5.6,0,8.55-9.15,8.55-15.1C362.07,223.61,360.42,221.36,358.62,221.36Z"/><path class="cls-2" d="M391.49,213.16c-1,0-2.8-.55-2.8-2.2,0-.7.6-1.65.75-2.7-.25-.75-.55-.85-1.1-.85-3.2,0-5.6,3.35-7.55,10.4l-1,3.5h6.3l-.55,1.65h-6.2c-1.6,6.15-3.5,14-5.2,19.4-1.2,3.85-3,7.6-6.05,10.1-2.6,2.2-4.55,2.9-7,2.9-4,0-5.05-2-5.05-4a2.64,2.64,0,0,1,2.6-2.6,2.5,2.5,0,0,1,2.7,2.4,3.63,3.63,0,0,1-1,2.35,1,1,0,0,0,1,.9c3.7,0,5.9-3.3,8.15-10.65,2.45-8.05,4.15-15.55,5.5-20.8h-5.3l.5-1.65h5.3l.55-2a19.51,19.51,0,0,1,5.85-10.15,10,10,0,0,1,7.1-2.75c3.45,0,5.1,2.2,5.1,4.25A2.67,2.67,0,0,1,391.49,213.16Z"/><path class="cls-2" d="M412.24,223h-6.35c-1.35,4.55-3.75,12.55-4.2,14.3a24.22,24.22,0,0,0-1,3.8c0,1.6,1,1.8,1.85,1.8,2.4,0,4.2-2.45,5.85-6.7l1,.3c-1.8,4.45-4,7.65-7.45,7.65-2.15,0-5.2-.8-5.2-3.85a11.35,11.35,0,0,1,.5-2.9c.6-2.25,4-13.25,4.3-14.4h-4.8l.55-1.65h4.85l2.2-7.75h4.35l-2.3,7.75h6.4Z"/><path class="cls-2" d="M430.22,244.11c-2.15,0-5.35-.85-5.35-3.9a12.38,12.38,0,0,1,1-4.15l3-7.8a12.22,12.22,0,0,0,1-3.65c0-2.1-1.15-2.5-2.5-2.5-2.7,0-5.25,2-7.55,6.2L415,243.56h-4.4l9.6-30.45a11.1,11.1,0,0,0,.7-3.35c0-1.1-.85-1.45-1.95-1.6-1.3-.15-1.8-.15-3-.2v-1l10.9-.5-6,18.1.2,0c1.9-2.4,4.15-4.1,7-4.1a5.63,5.63,0,0,1,5.75,5.6,14.81,14.81,0,0,1-1,3.7l-2.75,7.35a15.26,15.26,0,0,0-1.1,4c0,1.6,1,1.7,1.85,1.7,2.4,0,3.85-2.35,5.5-6.6l.9.3C435.47,241,433.72,244.11,430.22,244.11Z"/><path class="cls-2" d="M444.74,232.86a24.6,24.6,0,0,0-.75,4.7c0,3.4,1.1,5,3.7,5,3.65,0,6-2.9,8.1-6.7l.9.45c-3.1,5.9-6.5,7.9-9.75,7.9-3.55,0-7.65-1.65-7.65-8,0-5.15,5-15.75,14.3-15.75,2.25,0,4.25,1.1,4.25,3.35C457.84,229.26,449.64,232.11,444.74,232.86Zm7.45-11.35c-2.9,0-5.85,5.3-7.2,10.3,7-1.25,9.4-5.35,9.4-7.65C454.39,222.56,453.79,221.51,452.19,221.51Z"/><path class="cls-2" d="M476.59,232.86a24.6,24.6,0,0,0-.75,4.7c0,3.4,1.1,5,3.7,5,3.65,0,6-2.9,8.1-6.7l.9.45c-3.1,5.9-6.5,7.9-9.75,7.9-3.55,0-7.65-1.65-7.65-8,0-5.15,5-15.75,14.3-15.75,2.25,0,4.25,1.1,4.25,3.35C489.69,229.26,481.49,232.11,476.59,232.86ZM484,221.51c-2.9,0-5.85,5.3-7.2,10.3,7-1.25,9.4-5.35,9.4-7.65C486.24,222.56,485.64,221.51,484,221.51Z"/><path class="cls-2" d="M512.22,244.11c-2.1,0-5.35-.85-5.35-3.9a12.21,12.21,0,0,1,1.1-4.15l3-7.8a13.32,13.32,0,0,0,1-3.75c0-2.1-1.15-2.4-2.45-2.4-2.7,0-5.55,2.85-7.25,6.2l-5,15.25h-4.5l5.4-16a22.54,22.54,0,0,0,1-4c0-1.4-.45-1.8-1.4-1.8-2.35,0-3.75,2.5-5.4,6.75l-1-.35c1.8-4.4,3.55-7.6,7.1-7.6,2.15,0,4.6.8,4.6,4.55l.2,0c1.75-2.4,4.2-4.6,7.1-4.6a5.63,5.63,0,0,1,5.75,5.6,15.45,15.45,0,0,1-1,3.7l-2.8,7.35a14.82,14.82,0,0,0-1.1,3.9c0,1.6.9,1.8,1.85,1.8,2.35,0,3.85-2.35,5.5-6.6l1,.3C517.57,241,515.77,244.11,512.22,244.11Z"/><path class="cls-2" d="M526.83,232.86a24.6,24.6,0,0,0-.75,4.7c0,3.4,1.1,5,3.7,5,3.65,0,6-2.9,8.1-6.7l.9.45c-3.1,5.9-6.5,7.9-9.75,7.9-3.55,0-7.65-1.65-7.65-8,0-5.15,5-15.75,14.3-15.75,2.25,0,4.25,1.1,4.25,3.35C539.94,229.26,531.74,232.11,526.83,232.86Zm7.45-11.35c-2.9,0-5.85,5.3-7.2,10.3,7-1.25,9.4-5.35,9.4-7.65C536.49,222.56,535.89,221.51,534.29,221.51Z"/><path class="cls-2" d="M575.47,244.11c-2.1,0-5.35-.85-5.35-3.9a13.16,13.16,0,0,1,1.1-4.15l3-7.8a13.32,13.32,0,0,0,1-3.75c0-2.1-1.3-2.4-2.6-2.4-2.7,0-4.75,2.4-6.35,4.75l-5.45,16.7h-4.55l5.3-16a10.38,10.38,0,0,0,.65-3c0-2.1-1.35-2.4-2.65-2.4-2.7,0-5.65,3.35-7.05,6.2l-5,15.25h-4.5l5.4-16a22.54,22.54,0,0,0,1-4c0-1.45-.45-1.8-1.4-1.8-2.35,0-3.75,2.5-5.4,6.75l-1-.35c1.8-4.4,3.55-7.6,7.1-7.6,2.15,0,4.6.75,4.6,4.55l.2,0c1.85-2.55,4.25-4.6,7.1-4.6,3.6,0,5.5,2.4,5.65,4.6h.2c1.7-2.25,4.1-4.6,7-4.6a5.76,5.76,0,0,1,5.9,5.6,15.45,15.45,0,0,1-1,3.7l-2.8,7.35a14.35,14.35,0,0,0-1.1,3.9c0,1.6.9,1.8,1.85,1.8,2.35,0,3.85-2.35,5.5-6.6l1,.3C580.82,241,579,244.11,575.47,244.11Z"/><path class="cls-2" d="M604.31,238.26c-3.8,12.25-10.35,17.25-17.35,17.25-5.8,0-6.6-3.3-6.6-4.7a3.1,3.1,0,0,1,3.3-3.45,2.29,2.29,0,0,1,2.3,2.1c0,3.9-2.8,1.6-3.15,3.35.15,1.9,2.7,1.75,3.85,1.75,4.75,0,9.55-4.35,12.9-14.65l-.2,0c-1.75,2.25-4.25,4.3-7.1,4.3a5.7,5.7,0,0,1-5.8-5.6,13.15,13.15,0,0,1,1-3.75l2.85-7.25a13.75,13.75,0,0,0,1.1-4.15c0-1.45-.5-1.7-1.45-1.7-2.35,0-3.8,2.5-5.45,6.75l-.9-.35c1.75-4.4,3.5-7.6,7.05-7.6,2.15,0,5,1.1,5,3.9a13,13,0,0,1-1.1,4.25l-3.1,7.7a12.32,12.32,0,0,0-1,3.65c0,2.15,1.2,2.5,2.5,2.5,2.75,0,5.4-2.35,7-4.65l5.15-16.6h4.45Z"/><path class="cls-2" d="M612.43,244a3.2,3.2,0,0,1-3.25-3.2,3.25,3.25,0,0,1,6.5,0A3.2,3.2,0,0,1,612.43,244Z"/><path class="cls-2" d="M622,219.66l-.45-1.1c3-1.65,5.25-3.4,5.75-6.25h-.9c-2,0-3.1-1.15-3.1-2.6a3.12,3.12,0,0,1,3.2-3c2.1,0,3.25,1.3,3.25,3.65C629.76,214.36,626.91,217.11,622,219.66Zm8.45,0-.45-1.1c3.05-1.65,5.25-3.4,5.75-6.25h-.9c-2,0-3.1-1.15-3.1-2.6a3.12,3.12,0,0,1,3.2-3c2.1,0,3.25,1.3,3.25,3.65C638.21,214.36,635.36,217.11,630.46,219.66Z"/></g></g></svg>