<svg xmlns="http://www.w3.org/2000/svg" viewBox="0 0 360.57 743.28"><defs><style>.cls-1{isolation:isolate;}.cls-2{fill:#19191e;}.cls-3{fill:#4f4f56;}</style></defs><title>3-quote</title><g id="Layer_2" data-name="Layer 2"><g id="_49-text.svg" data-name=" 49-text.svg"><g class="cls-1"><path class="cls-2" d="M29.4,299.88c-3,0-4.7-1.3-4.7-4.65l-.2,0c-1.9,2.75-4.15,4.85-7,4.85-3.35,0-6.85-1.65-6.85-7.9,0-5.15,4.9-15.85,13.9-15.85a4.28,4.28,0,0,1,4.5,3.65h.15l1.15-3.35h4.5L29.2,292.93a14.55,14.55,0,0,0-.8,3.7c0,1.65.75,2,1.7,2,2.35,0,3.8-2.35,5.45-6.6l1,.3C34.75,296.78,33,299.88,29.4,299.88Zm-5-22.55c-5.15,0-9.05,9.9-9.05,15.85,0,4.6,1.6,5.15,2.9,5.15,2.85,0,5-2.3,6.55-4.9l3.8-11.65C28,278.73,26.8,277.33,24.4,277.33Z"/><path class="cls-2" d="M53.68,284.68c-1.25,0-2.45-.6-2.45-2,0-2,2.6-2.6,2.8-3.15-.1-.65-.9-2.2-4.25-2.2a4.08,4.08,0,0,0-4,4.15c0,4.85,8.25,5.15,8.25,11.55,0,3.6-4.15,7.05-8.6,7.05-5.5,0-7.45-3.4-7.45-5.8,0-1.85,1.35-3.45,2.75-3.45,2.2,0,2.65,1.4,2.65,2.2a2.08,2.08,0,0,1-2.2,2.2c-.9,0-1.35,0-1.35.7,0,1.55,2.5,3.1,5,3.1,2.9,0,5.55-1.25,5.55-4,0-5.7-8.35-5.7-8.35-12,0-3.2,3.7-6.8,7.75-6.8,5.45,0,6.2,4,6.2,5.25C56,283.38,55.13,284.68,53.68,284.68Z"/><path class="cls-2" d="M75.62,293a16.49,16.49,0,0,0-1,3.8c0,1.6.85,1.8,1.75,1.8,2.4,0,4-2.35,5.6-6.6l.9.3c-1.8,4.45-3.6,7.55-7.15,7.55-2.15,0-5.1-.8-5.1-3.85a16.3,16.3,0,0,1,.9-4.2l7.25-23a11.39,11.39,0,0,0,.7-3.35c0-1.1-.9-1.45-2-1.6-1.25-.15-1.8-.15-3-.2v-1l11-.5Z"/><path class="cls-2" d="M91.79,299.88c-2.15,0-5.2-.85-5.2-3.9a12,12,0,0,1,1-4.15l3.35-8.5a18.08,18.08,0,0,0,1.15-4c0-1.45-.7-1.9-1.65-1.9-2.35,0-3.75,2.5-5.4,6.75l-1-.35c1.8-4.4,3.5-7.6,7.1-7.6,2.15,0,5,1.3,5,4.25a19.19,19.19,0,0,1-1.55,5l-2.85,7.35a13.81,13.81,0,0,0-1.15,4c0,1.6.9,1.75,1.8,1.75,2.4,0,3.9-2.35,5.55-6.6l.9.3C97.09,296.78,95.29,299.88,91.79,299.88Zm4.5-29.65a2.5,2.5,0,0,1-2.5-2.8,3.34,3.34,0,0,1,3.4-3.5,2.54,2.54,0,0,1,2.3,2.75A3.25,3.25,0,0,1,96.29,270.23Z"/><path class="cls-2" d="M123.74,283c-1,0-2.15-.7-2.15-1.65,0-2.7,1.65-2,1.9-3.35-.25-.75-.6-1-1.5-1-2.8,0-2.65,7.15-8.8,9,1.85.7,4.2,1.6,4.2,4.65,0,2.7-.85,4.5-.85,6.15s.8,1.8,1.7,1.8c2.4,0,4-2.35,5.6-6.6l1,.3c-1.8,4.45-3.7,7.55-7.2,7.55-2.7,0-5.35-.85-5.35-3.9,0-2.25,1-5,1-6.45,0-2-1.5-3-3.6-3-.55,0-1,0-1.55.1L104,299.33h-4.4l9.65-30.45a11.39,11.39,0,0,0,.7-3.35c0-1.1-.85-1.45-2-1.6-1.3-.15-1.8-.15-3-.2v-1l10.9-.5-7.55,23.4c.75.05,1.3.05,2.2.05,6.4,0,5.5-9.4,11.85-9.4,3.25,0,4.15,1.45,4.15,3.55A3.08,3.08,0,0,1,123.74,283Z"/><path class="cls-2" d="M133.29,288.63a24.6,24.6,0,0,0-.75,4.7c0,3.4,1.1,5,3.7,5,3.65,0,6-2.9,8.1-6.7l.9.45c-3.1,5.9-6.5,7.9-9.75,7.9-3.55,0-7.65-1.65-7.65-8,0-5.15,5-15.75,14.3-15.75,2.25,0,4.25,1.1,4.25,3.35C146.4,285,138.19,287.88,133.29,288.63Zm7.45-11.35c-2.9,0-5.85,5.3-7.2,10.3,7-1.25,9.4-5.35,9.4-7.65C142.94,278.33,142.35,277.28,140.74,277.28Z"/><path class="cls-2" d="M152.95,293a16.49,16.49,0,0,0-1,3.8c0,1.6.85,1.8,1.75,1.8,2.4,0,4-2.35,5.6-6.6l.9.3c-1.8,4.45-3.6,7.55-7.15,7.55-2.15,0-5.1-.8-5.1-3.85a16.3,16.3,0,0,1,.9-4.2l7.25-23a11.39,11.39,0,0,0,.7-3.35c0-1.1-.9-1.45-2-1.6-1.25-.15-1.8-.15-3-.2v-1l11-.5Z"/><path class="cls-2" d="M182.09,294c-3.8,12.25-10.35,17.25-17.35,17.25-5.8,0-6.6-3.3-6.6-4.7a3.1,3.1,0,0,1,3.3-3.45,2.29,2.29,0,0,1,2.3,2.1c0,3.9-2.8,1.6-3.15,3.35.15,1.9,2.7,1.75,3.85,1.75,4.75,0,9.55-4.35,12.9-14.65l-.2,0c-1.75,2.25-4.25,4.3-7.1,4.3a5.7,5.7,0,0,1-5.8-5.6,13.15,13.15,0,0,1,1-3.75l2.85-7.25a13.75,13.75,0,0,0,1.1-4.15c0-1.45-.5-1.7-1.45-1.7-2.35,0-3.8,2.5-5.45,6.75l-.9-.35c1.75-4.4,3.5-7.6,7.05-7.6,2.15,0,5,1.1,5,3.9a13,13,0,0,1-1.1,4.25l-3.1,7.7a12.32,12.32,0,0,0-1,3.65c0,2.15,1.2,2.5,2.5,2.5,2.75,0,5.4-2.35,7-4.65L182.9,277h4.45Z"/><path class="cls-2" d="M219.09,299.88c-3,0-4.7-1.3-4.7-4.65l-.2,0c-1.9,2.75-4.15,4.85-7,4.85-3.35,0-6.85-1.65-6.85-7.9,0-5.15,4.9-15.85,13.9-15.85a4.28,4.28,0,0,1,4.5,3.65h.15l1.15-3.35h4.5l-5.65,16.35a14.55,14.55,0,0,0-.8,3.7c0,1.65.75,2,1.7,2,2.35,0,3.8-2.35,5.45-6.6l1,.3C224.44,296.78,222.64,299.88,219.09,299.88Zm-5-22.55c-5.15,0-9.05,9.9-9.05,15.85,0,4.6,1.6,5.15,2.9,5.15,2.85,0,5-2.3,6.55-4.9l3.8-11.65C217.69,278.73,216.49,277.33,214.09,277.33Z"/><path class="cls-2" d="M243.37,284.68c-1.25,0-2.45-.6-2.45-2,0-2,2.6-2.6,2.8-3.15-.1-.65-.9-2.2-4.25-2.2a4.08,4.08,0,0,0-4,4.15c0,4.85,8.25,5.15,8.25,11.55,0,3.6-4.15,7.05-8.6,7.05-5.5,0-7.45-3.4-7.45-5.8,0-1.85,1.35-3.45,2.75-3.45,2.2,0,2.65,1.4,2.65,2.2a2.08,2.08,0,0,1-2.2,2.2c-.9,0-1.35,0-1.35.7,0,1.55,2.5,3.1,5,3.1,2.9,0,5.55-1.25,5.55-4,0-5.7-8.35-5.7-8.35-12,0-3.2,3.7-6.8,7.75-6.8,5.45,0,6.2,4,6.2,5.25C245.72,283.38,244.82,284.68,243.37,284.68Z"/><path class="cls-2" d="M276.32,278.73H270c-1.35,4.55-3.75,12.55-4.2,14.3a24.2,24.2,0,0,0-1,3.8c0,1.6,1,1.8,1.85,1.8,2.4,0,4.2-2.45,5.85-6.7l1,.3c-1.8,4.45-4,7.65-7.45,7.65-2.15,0-5.2-.8-5.2-3.85a11.35,11.35,0,0,1,.5-2.9c.6-2.25,4-13.25,4.3-14.4h-4.8l.55-1.65h4.85l2.2-7.75h4.35l-2.3,7.75h6.4Z"/><path class="cls-2" d="M294.3,299.88c-2.15,0-5.35-.85-5.35-3.9a12.38,12.38,0,0,1,1-4.15l3-7.8a12.22,12.22,0,0,0,1-3.65c0-2.1-1.15-2.5-2.5-2.5-2.7,0-5.25,2-7.55,6.2l-4.75,15.25h-4.4l9.6-30.45a11.09,11.09,0,0,0,.7-3.35c0-1.1-.85-1.45-1.95-1.6-1.3-.15-1.8-.15-3-.2v-1l10.9-.5-6,18.1.2,0c1.9-2.4,4.15-4.1,7-4.1a5.63,5.63,0,0,1,5.75,5.6,14.81,14.81,0,0,1-1,3.7l-2.75,7.35a15.26,15.26,0,0,0-1.1,4c0,1.6,1,1.7,1.85,1.7,2.4,0,3.85-2.35,5.5-6.6l.9.3C299.55,296.78,297.8,299.88,294.3,299.88Z"/><path class="cls-2" d="M308.82,288.63a24.6,24.6,0,0,0-.75,4.7c0,3.4,1.1,5,3.7,5,3.65,0,6-2.9,8.1-6.7l.9.45c-3.1,5.9-6.5,7.9-9.75,7.9-3.55,0-7.65-1.65-7.65-8,0-5.15,5-15.75,14.3-15.75,2.25,0,4.25,1.1,4.25,3.35C321.92,285,313.72,287.88,308.82,288.63Zm7.45-11.35c-2.9,0-5.85,5.3-7.2,10.3,7-1.25,9.4-5.35,9.4-7.65C318.47,278.33,317.87,277.28,316.27,277.28Z"/><path class="cls-2" d="M331,299.88c-2.15,0-5.2-.85-5.2-3.9a12,12,0,0,1,1-4.15l3.35-8.5a18.08,18.08,0,0,0,1.15-4c0-1.45-.7-1.9-1.65-1.9-2.35,0-3.75,2.5-5.4,6.75l-1-.35c1.8-4.4,3.5-7.6,7.1-7.6,2.15,0,5,1.3,5,4.25a19.19,19.19,0,0,1-1.55,5L331,292.93a13.81,13.81,0,0,0-1.15,4c0,1.6.9,1.75,1.8,1.75,2.4,0,3.9-2.35,5.55-6.6l.9.3C336.31,296.78,334.51,299.88,331,299.88Zm4.5-29.65a2.5,2.5,0,0,1-2.5-2.8,3.34,3.34,0,0,1,3.4-3.5,2.54,2.54,0,0,1,2.3,2.75A3.25,3.25,0,0,1,335.51,270.23Z"/><path class="cls-2" d="M358,282.48c-1.75,0-2.45-1-2.45-2.1s1.15-1.7,1.15-2.15,0-.65-.75-.65c-1.75,0-4.05,3.8-5.5,6.45l-4.7,15.3h-4.45l5-16a24.1,24.1,0,0,0,.95-4c0-1.45-.45-1.8-1.4-1.8-2.35,0-3.8,2.65-5.4,6.75l-1-.35c1.8-4.4,3.55-7.6,7.1-7.6,2.15,0,4.25,1.4,4.25,5.05l.2,0c1.65-2.55,3.15-5.1,6.35-5.1a3.05,3.05,0,0,1,3.25,3.05C360.57,280.88,359.72,282.48,358,282.48Z"/><path class="cls-2" d="M18.15,371.88C16,371.88,13,371,13,368a12,12,0,0,1,1-4.15l3.35-8.5a18.08,18.08,0,0,0,1.15-4c0-1.45-.7-1.9-1.65-1.9-2.35,0-3.75,2.5-5.4,6.75l-1-.35c1.8-4.4,3.5-7.6,7.1-7.6,2.15,0,5,1.3,5,4.25a19.19,19.19,0,0,1-1.55,5l-2.85,7.35a13.81,13.81,0,0,0-1.15,4c0,1.6.9,1.75,1.8,1.75,2.4,0,3.9-2.35,5.55-6.6l.9.3C23.45,368.78,21.65,371.88,18.15,371.88Zm4.5-29.65a2.5,2.5,0,0,1-2.5-2.8,3.34,3.34,0,0,1,3.4-3.5,2.54,2.54,0,0,1,2.3,2.75A3.25,3.25,0,0,1,22.65,342.23Z"/><path class="cls-2" d="M60.79,371.88c-2.1,0-5.35-.85-5.35-3.9a13.16,13.16,0,0,1,1.1-4.15l3-7.8a13.32,13.32,0,0,0,1-3.75c0-2.1-1.3-2.4-2.6-2.4-2.7,0-4.75,2.4-6.35,4.75L46,371.33H41.49l5.3-16a10.38,10.38,0,0,0,.65-3c0-2.1-1.35-2.4-2.65-2.4-2.7,0-5.65,3.35-7.05,6.2l-5,15.25h-4.5l5.4-16a22.54,22.54,0,0,0,1-4c0-1.45-.45-1.8-1.4-1.8-2.35,0-3.75,2.5-5.4,6.75l-1-.35c1.8-4.4,3.55-7.6,7.1-7.6,2.15,0,4.6.75,4.6,4.55l.2,0c1.85-2.55,4.25-4.6,7.1-4.6,3.6,0,5.5,2.4,5.65,4.6h.2c1.7-2.25,4.1-4.6,7-4.6a5.76,5.76,0,0,1,5.9,5.6,15.45,15.45,0,0,1-1,3.7l-2.8,7.35a14.35,14.35,0,0,0-1.1,3.9c0,1.6.9,1.8,1.85,1.8,2.35,0,3.85-2.35,5.5-6.6l1,.3C66.14,368.78,64.34,371.88,60.79,371.88Z"/><path class="cls-2" d="M103.26,371.88c-2.1,0-5.35-.85-5.35-3.9a13.16,13.16,0,0,1,1.1-4.15l3-7.8a13.32,13.32,0,0,0,1-3.75c0-2.1-1.3-2.4-2.6-2.4-2.7,0-4.75,2.4-6.35,4.75l-5.45,16.7H84l5.3-16a10.38,10.38,0,0,0,.65-3c0-2.1-1.35-2.4-2.65-2.4-2.7,0-5.65,3.35-7.05,6.2l-5,15.25h-4.5l5.4-16a22.54,22.54,0,0,0,1-4c0-1.45-.45-1.8-1.4-1.8-2.35,0-3.75,2.5-5.4,6.75l-1-.35c1.8-4.4,3.55-7.6,7.1-7.6,2.15,0,4.6.75,4.6,4.55l.2,0c1.85-2.55,4.25-4.6,7.1-4.6,3.6,0,5.5,2.4,5.65,4.6h.2c1.7-2.25,4.1-4.6,7-4.6a5.76,5.76,0,0,1,5.9,5.6,15.45,15.45,0,0,1-1,3.7l-2.8,7.35a14.35,14.35,0,0,0-1.1,3.9c0,1.6.9,1.8,1.85,1.8,2.35,0,3.85-2.35,5.5-6.6l1,.3C108.61,368.78,106.81,371.88,103.26,371.88Z"/><path class="cls-2" d="M131.21,371.88c-3,0-4.7-1.3-4.7-4.65l-.2,0c-1.9,2.75-4.15,4.85-7,4.85-3.35,0-6.85-1.65-6.85-7.9,0-5.15,4.9-15.85,13.9-15.85a4.28,4.28,0,0,1,4.5,3.65H131l1.15-3.35h4.5L131,364.93a14.55,14.55,0,0,0-.8,3.7c0,1.65.75,2,1.7,2,2.35,0,3.8-2.35,5.45-6.6l1,.3C136.56,368.78,134.76,371.88,131.21,371.88Zm-5-22.55c-5.15,0-9.05,9.9-9.05,15.85,0,4.6,1.6,5.15,2.9,5.15,2.85,0,5-2.3,6.55-4.9l3.8-11.65C129.81,350.73,128.61,349.33,126.21,349.33Z"/><path class="cls-2" d="M156.25,350.73H149.9c-1.35,4.55-3.75,12.55-4.2,14.3a24.2,24.2,0,0,0-1,3.8c0,1.6,1,1.8,1.85,1.8,2.4,0,4.2-2.45,5.85-6.7l1,.3c-1.8,4.45-4,7.65-7.45,7.65-2.15,0-5.2-.8-5.2-3.85a11.35,11.35,0,0,1,.5-2.9c.6-2.25,4-13.25,4.3-14.4h-4.8l.55-1.65h4.85l2.2-7.75h4.35l-2.3,7.75h6.4Z"/><path class="cls-2" d="M177.27,371.88c-2.8,0-4.75-1.1-4.75-4.65l-.2,0c-1.75,2.5-4.45,4.8-7.3,4.8a5.7,5.7,0,0,1-5.8-5.6,13.32,13.32,0,0,1,1-3.7l2.85-7.35a12.86,12.86,0,0,0,1.05-4c0-1.45-.55-1.8-1.5-1.8-2.35,0-3.75,2.5-5.4,6.75l-.9-.35c1.75-4.4,3.45-7.5,7-7.5,2.15,0,5,1.1,5,3.9a12.26,12.26,0,0,1-1,4.15l-3.05,7.8a12.06,12.06,0,0,0-1,3.6c0,2.15,1.15,2.55,2.45,2.55,2.75,0,5.45-2.6,7-5.35l5-16h4.6l-5.25,15.9a21.77,21.77,0,0,0-.8,3.6c0,1.65.7,2.1,1.65,2.1,2.35,0,3.8-2.35,5.45-6.6l1,.3C182.62,368.78,180.82,371.88,177.27,371.88Z"/><path class="cls-2" d="M204.18,354.48c-1.75,0-2.45-1-2.45-2.1s1.15-1.7,1.15-2.15,0-.65-.75-.65c-1.75,0-4.05,3.8-5.5,6.45l-4.7,15.3h-4.45l5-16a24,24,0,0,0,1-4c0-1.45-.45-1.8-1.4-1.8-2.35,0-3.8,2.65-5.4,6.75l-1-.35c1.8-4.4,3.55-7.6,7.1-7.6,2.15,0,4.25,1.4,4.25,5.05l.2,0c1.65-2.55,3.15-5.1,6.35-5.1a3.05,3.05,0,0,1,3.25,3.05C206.78,352.88,205.93,354.48,204.18,354.48Z"/><path class="cls-2" d="M211.56,360.63a24.6,24.6,0,0,0-.75,4.7c0,3.4,1.1,5,3.7,5,3.65,0,6-2.9,8.1-6.7l.9.45c-3.1,5.9-6.5,7.9-9.75,7.9-3.55,0-7.65-1.65-7.65-8,0-5.15,5-15.75,14.3-15.75,2.25,0,4.25,1.1,4.25,3.35C224.66,357,216.46,359.88,211.56,360.63ZM219,349.28c-2.9,0-5.85,5.3-7.2,10.3,7-1.25,9.4-5.35,9.4-7.65C221.21,350.33,220.61,349.28,219,349.28Z"/><path class="cls-2" d="M26.65,428.13A2.42,2.42,0,0,1,24,425.88c0-1,1-2.15,2.55-3-.25-1.3-1.1-1.8-2.9-1.8-4.35,0-8.3,10.05-8.3,16.05,0,3.35,1,5.2,3.6,5.2,3.65,0,6.15-2.9,8.2-6.7l1,.45c-3.2,5.9-6.7,7.9-10,7.9-3.5,0-7.5-1.55-7.5-7.9,0-5.15,5-15.85,13.45-15.85a4.77,4.77,0,0,1,5.1,4.5C29.2,426.48,28.35,428.13,26.65,428.13Z"/><path class="cls-2" d="M38.3,444c-3.4,0-7.4-2.5-7.4-8.75,0-5.35,4.7-15,14-15,3.4,0,7.4,2.55,7.4,8.8C52.3,434.43,47.7,444,38.3,444Zm5.85-22.9c-5.25,0-8.55,9.2-8.55,15.1,0,4.6,1.5,6.85,3.45,6.85,5.6,0,8.55-9.15,8.55-15.1C47.6,423.38,46,421.13,44.15,421.13Z"/><path class="cls-2" d="M75.48,443.88c-2.8,0-4.75-1.1-4.75-4.65l-.2,0c-1.75,2.5-4.45,4.8-7.3,4.8a5.7,5.7,0,0,1-5.8-5.6,13.32,13.32,0,0,1,1-3.7l2.85-7.35a12.86,12.86,0,0,0,1.05-4c0-1.45-.55-1.8-1.5-1.8-2.35,0-3.75,2.5-5.4,6.75l-.9-.35c1.75-4.4,3.45-7.5,7-7.5,2.15,0,5,1.1,5,3.9a12.26,12.26,0,0,1-1,4.15l-3.05,7.8a12.06,12.06,0,0,0-1,3.6c0,2.15,1.15,2.55,2.45,2.55,2.75,0,5.45-2.6,7-5.35l5-16h4.6l-5.25,15.9a21.77,21.77,0,0,0-.8,3.6c0,1.65.7,2.1,1.65,2.1,2.35,0,3.8-2.35,5.45-6.6l1,.3C80.83,440.78,79,443.88,75.48,443.88Z"/><path class="cls-2" d="M105.06,443.88c-2.1,0-5.35-.85-5.35-3.9a12.21,12.21,0,0,1,1.1-4.15l3-7.8a13.32,13.32,0,0,0,1-3.75c0-2.1-1.15-2.4-2.45-2.4-2.7,0-5.55,2.85-7.25,6.2l-5,15.25h-4.5l5.4-16a22.61,22.61,0,0,0,.95-4c0-1.4-.45-1.8-1.4-1.8-2.35,0-3.75,2.5-5.4,6.75l-1-.35c1.8-4.4,3.55-7.6,7.1-7.6,2.15,0,4.6.8,4.6,4.55l.2,0c1.75-2.4,4.2-4.6,7.1-4.6a5.63,5.63,0,0,1,5.75,5.6,15.45,15.45,0,0,1-1,3.7l-2.8,7.35a14.82,14.82,0,0,0-1.1,3.9c0,1.6.9,1.8,1.85,1.8,2.35,0,3.85-2.35,5.5-6.6l1,.3C110.41,440.78,108.61,443.88,105.06,443.88Z"/><path class="cls-2" d="M130,422.73h-6.35c-1.35,4.55-3.75,12.55-4.2,14.3a24.2,24.2,0,0,0-1,3.8c0,1.6,1,1.8,1.85,1.8,2.4,0,4.2-2.45,5.85-6.7l1,.3c-1.8,4.45-4,7.65-7.45,7.65-2.15,0-5.2-.8-5.2-3.85a11.35,11.35,0,0,1,.5-2.9c.6-2.25,4-13.25,4.3-14.4h-4.8l.55-1.65h4.85l2.2-7.75h4.35l-2.3,7.75h6.4Z"/><path class="cls-2" d="M135.09,432.63a24.6,24.6,0,0,0-.75,4.7c0,3.4,1.1,5,3.7,5,3.65,0,6-2.9,8.1-6.7l.9.45c-3.1,5.9-6.5,7.9-9.75,7.9-3.55,0-7.65-1.65-7.65-8,0-5.15,5-15.75,14.3-15.75,2.25,0,4.25,1.1,4.25,3.35C148.19,429,140,431.88,135.09,432.63Zm7.45-11.35c-2.9,0-5.85,5.3-7.2,10.3,7-1.25,9.4-5.35,9.4-7.65C144.74,422.33,144.14,421.28,142.54,421.28Z"/><path class="cls-2" d="M168.22,426.48c-1.75,0-2.45-1-2.45-2.1s1.15-1.7,1.15-2.15,0-.65-.75-.65c-1.75,0-4.05,3.8-5.5,6.45l-4.7,15.3h-4.45l5-16a24,24,0,0,0,1-4c0-1.45-.45-1.8-1.4-1.8-2.35,0-3.8,2.65-5.4,6.75l-1-.35c1.8-4.4,3.55-7.6,7.1-7.6,2.15,0,4.25,1.4,4.25,5.05l.2,0c1.65-2.55,3.15-5.1,6.35-5.1a3.05,3.05,0,0,1,3.25,3.05C170.82,424.88,170,426.48,168.22,426.48Z"/><path class="cls-2" d="M183.19,444a4.91,4.91,0,0,1-4.75-3.2h-.2l-2.5,8.1a14.58,14.58,0,0,0-.7,3.35c0,1.1.9,1.45,2,1.6a26.51,26.51,0,0,0,2.75.2v1h-14.1v-1c2.3,0,3.15-.4,3.75-1.1a12.69,12.69,0,0,0,1.9-4.2l6.75-21.45a21.81,21.81,0,0,0,.85-3.7c0-1.65-.4-2.15-1.35-2.15-2.2,0-3.75,2.5-5.4,6.75l-1-.35c1.8-4.4,3.55-7.6,7.1-7.6,2.3,0,4.35,1.3,4.35,4.6l.2,0c2-2.55,4.35-4.65,7.25-4.65,3.35,0,7.1,1.6,7.1,7.85C197.24,433.33,192.19,444,183.19,444Zm6.15-22c-2.8,0-5.1,2.3-6.65,4.75l-3.85,12.35c.7,2.75,2.15,3.8,4.55,3.8,5.2,0,9.15-9.85,9.15-15.75C192.54,422.53,190.64,422,189.34,422Z"/><path class="cls-2" d="M218,443.88c-3,0-4.7-1.3-4.7-4.65l-.2,0c-1.9,2.75-4.15,4.85-7,4.85-3.35,0-6.85-1.65-6.85-7.9,0-5.15,4.9-15.85,13.9-15.85a4.28,4.28,0,0,1,4.5,3.65h.15l1.15-3.35h4.5l-5.65,16.35a14.55,14.55,0,0,0-.8,3.7c0,1.65.75,2,1.7,2,2.35,0,3.8-2.35,5.45-6.6l1,.3C223.4,440.78,221.6,443.88,218,443.88Zm-5-22.55c-5.15,0-9.05,9.9-9.05,15.85,0,4.6,1.6,5.15,2.9,5.15,2.85,0,5-2.3,6.55-4.9l3.8-11.65C216.65,422.73,215.45,421.33,213,421.33Z"/><path class="cls-2" d="M245,426.48c-1.75,0-2.45-1-2.45-2.1s1.15-1.7,1.15-2.15,0-.65-.75-.65c-1.75,0-4.05,3.8-5.5,6.45l-4.7,15.3h-4.45l5-16a24,24,0,0,0,1-4c0-1.45-.45-1.8-1.4-1.8-2.35,0-3.8,2.65-5.4,6.75l-1-.35c1.8-4.4,3.55-7.6,7.1-7.6,2.15,0,4.25,1.4,4.25,5.05l.2,0c1.65-2.55,3.15-5.1,6.35-5.1a3.05,3.05,0,0,1,3.25,3.05C247.63,424.88,246.78,426.48,245,426.48Z"/><path class="cls-2" d="M264.65,422.73H258.3c-1.35,4.55-3.75,12.55-4.2,14.3a24.2,24.2,0,0,0-1,3.8c0,1.6,1,1.8,1.85,1.8,2.4,0,4.2-2.45,5.85-6.7l1,.3c-1.8,4.45-4,7.65-7.45,7.65-2.15,0-5.2-.8-5.2-3.85a11.35,11.35,0,0,1,.5-2.9c.6-2.25,4-13.25,4.3-14.4h-4.8l.55-1.65h4.85l2.2-7.75h4.35l-2.3,7.75h6.4Z"/><path class="cls-2" d="M279.5,428.68c-1.25,0-2.45-.6-2.45-2,0-2,2.6-2.6,2.8-3.15-.1-.65-.9-2.2-4.25-2.2a4.08,4.08,0,0,0-4,4.15c0,4.85,8.25,5.15,8.25,11.55,0,3.6-4.15,7.05-8.6,7.05-5.5,0-7.45-3.4-7.45-5.8,0-1.85,1.35-3.45,2.75-3.45,2.2,0,2.65,1.4,2.65,2.2a2.08,2.08,0,0,1-2.2,2.2c-.9,0-1.35,0-1.35.7,0,1.55,2.5,3.1,5,3.1,2.9,0,5.55-1.25,5.55-4,0-5.7-8.35-5.7-8.35-12,0-3.2,3.7-6.8,7.75-6.8,5.45,0,6.2,4,6.2,5.25C281.85,427.38,281,428.68,279.5,428.68Z"/><path class="cls-2" d="M27.2,494.73H20.85c-1.35,4.55-3.75,12.55-4.2,14.3a24.2,24.2,0,0,0-1,3.8c0,1.6,1,1.8,1.85,1.8,2.4,0,4.2-2.45,5.85-6.7l1,.3c-1.8,4.45-4,7.65-7.45,7.65-2.15,0-5.2-.8-5.2-3.85a11.35,11.35,0,0,1,.5-2.9c.6-2.25,4-13.25,4.3-14.4H11.7l.55-1.65H17.1l2.2-7.75h4.35l-2.3,7.75h6.4Z"/><path class="cls-2" d="M34.37,516c-3.4,0-7.4-2.5-7.4-8.75,0-5.35,4.7-15,14-15,3.4,0,7.4,2.55,7.4,8.8C48.37,506.43,43.77,516,34.37,516Zm5.85-22.9c-5.25,0-8.55,9.2-8.55,15.1,0,4.6,1.5,6.85,3.45,6.85,5.6,0,8.55-9.15,8.55-15.1C43.67,495.38,42,493.13,40.22,493.13Z"/><path class="cls-2" d="M77.57,500.68c-1.25,0-2.45-.6-2.45-2,0-2,2.6-2.6,2.8-3.15-.1-.65-.9-2.2-4.25-2.2a4.08,4.08,0,0,0-4,4.15c0,4.85,8.25,5.15,8.25,11.55,0,3.6-4.15,7.05-8.6,7.05-5.5,0-7.45-3.4-7.45-5.8,0-1.85,1.35-3.45,2.75-3.45,2.2,0,2.65,1.4,2.65,2.2a2.08,2.08,0,0,1-2.2,2.2c-.9,0-1.35,0-1.35.7,0,1.55,2.5,3.1,5,3.1,2.9,0,5.55-1.25,5.55-4,0-5.7-8.35-5.7-8.35-12,0-3.2,3.7-6.8,7.75-6.8,5.45,0,6.2,4,6.2,5.25C79.92,499.38,79,500.68,77.57,500.68Z"/><path class="cls-2" d="M87.2,504.63a24.6,24.6,0,0,0-.75,4.7c0,3.4,1.1,5,3.7,5,3.65,0,6-2.9,8.1-6.7l.9.45c-3.1,5.9-6.5,7.9-9.75,7.9-3.55,0-7.65-1.65-7.65-8,0-5.15,5-15.75,14.3-15.75,2.25,0,4.25,1.1,4.25,3.35C100.31,501,92.1,503.88,87.2,504.63Zm7.45-11.35c-2.9,0-5.85,5.3-7.2,10.3,7-1.25,9.4-5.35,9.4-7.65C96.85,494.33,96.26,493.28,94.65,493.28Z"/><path class="cls-2" d="M118.08,494.73h-6.35c-1.35,4.55-3.75,12.55-4.2,14.3a24.2,24.2,0,0,0-1,3.8c0,1.6,1,1.8,1.85,1.8,2.4,0,4.2-2.45,5.85-6.7l1,.3c-1.8,4.45-4,7.65-7.45,7.65-2.15,0-5.2-.8-5.2-3.85a11.35,11.35,0,0,1,.5-2.9c.6-2.25,4-13.25,4.3-14.4h-4.8l.55-1.65H108l2.2-7.75h4.35l-2.3,7.75h6.4Z"/><path class="cls-2" d="M149.13,508.93a20.84,20.84,0,0,0-.8,3.7c0,1.65.7,2,1.65,2,2.35,0,3.8-2.35,5.45-6.6l1,.3c-1.8,4.45-3.6,7.55-7.15,7.55-3,0-4.55-1.25-4.55-4.55l-.2,0c-2,2.75-4.55,4.75-7.4,4.75-3.35,0-7-1.65-7-7.9,0-5.15,5-15.85,14.05-15.85a4.83,4.83,0,0,1,4.7,3.2H149l3.2-10.6a12.93,12.93,0,0,0,.75-3.35c0-1.1-.9-1.45-2.05-1.6s-2.25-.15-3.5-.2v-1l11.35-.5Zm-5.1-15.6c-5.2,0-9.2,9.9-9.2,15.85,0,4.6,1.75,5.15,3,5.15,2.85,0,5.3-2.2,6.85-4.8l3.75-12.3C147.63,494.43,146.38,493.33,144,493.33Z"/><path class="cls-2" d="M165.17,515.88c-2.15,0-5.2-.85-5.2-3.9a12,12,0,0,1,1-4.15l3.35-8.5a18.08,18.08,0,0,0,1.15-4c0-1.45-.7-1.9-1.65-1.9-2.35,0-3.75,2.5-5.4,6.75l-1-.35c1.8-4.4,3.5-7.6,7.1-7.6,2.15,0,5,1.3,5,4.25a19.19,19.19,0,0,1-1.55,5l-2.85,7.35a13.81,13.81,0,0,0-1.15,4c0,1.6.9,1.75,1.8,1.75,2.4,0,3.9-2.35,5.55-6.6l.9.3C170.47,512.78,168.67,515.88,165.17,515.88Zm4.5-29.65a2.5,2.5,0,0,1-2.5-2.8,3.34,3.34,0,0,1,3.4-3.5,2.54,2.54,0,0,1,2.3,2.75A3.25,3.25,0,0,1,169.67,486.23Z"/><path class="cls-2" d="M196.54,497c-1.6,0-1.85-1-1.85-3.1a4.89,4.89,0,0,0-3.1.85v.3a6.6,6.6,0,0,1,1,3.4c0,5-4.6,8.4-9.35,8.4h-3.15c-1,.5-2.1,1.1-2.1,2.45,0,1.85,1.65,2.05,5.35,2.45,1.5.15,4.55.5,5.55.65a5.57,5.57,0,0,1,4.9,5.6c0,4.9-4.9,9.05-14.25,9.05-6.1,0-9.15-2.3-9.15-5.5s3-5.75,8.45-6.5v-.35c-2.25-.45-4.4-1.25-4.4-3.45,0-3,3.45-4.3,5.05-4.8v-.25c-2.4-1.1-3.8-3-3.8-5.2,0-5,4.4-8.7,9.75-8.7,3.35,0,5.75,1.45,6.4,1.45,1.75-.85,2.6-1.45,4.7-1.45a2.37,2.37,0,0,1,2.3,2.35A2.25,2.25,0,0,1,196.54,497Zm-8.6,19.25a44.38,44.38,0,0,0-8.05-.8c-3.4.85-5.2,2.9-5.2,5.9,0,2,1.55,4.7,6.1,4.7,5.55,0,9-2.6,9-7C189.79,518.13,189.19,516.53,187.94,516.23Zm-2.8-23.15c-3.9,0-5.05,5.65-5.05,8.3,0,2.35,1.2,4.65,3.05,4.65,3.75,0,5.25-5.85,5.25-8.9C188.39,495,187.29,493.08,185.14,493.08Z"/><path class="cls-2" d="M206.3,515.88c-2.15,0-5.2-.85-5.2-3.9a12,12,0,0,1,1-4.15l3.35-8.5a18.08,18.08,0,0,0,1.15-4c0-1.45-.7-1.9-1.65-1.9-2.35,0-3.75,2.5-5.4,6.75l-1-.35c1.8-4.4,3.5-7.6,7.1-7.6,2.15,0,5,1.3,5,4.25a19.19,19.19,0,0,1-1.55,5l-2.85,7.35a13.81,13.81,0,0,0-1.15,4c0,1.6.9,1.75,1.8,1.75,2.4,0,3.9-2.35,5.55-6.6l.9.3C211.6,512.78,209.8,515.88,206.3,515.88Zm4.5-29.65a2.5,2.5,0,0,1-2.5-2.8,3.34,3.34,0,0,1,3.4-3.5,2.54,2.54,0,0,1,2.3,2.75A3.25,3.25,0,0,1,210.8,486.23Z"/><path class="cls-2" d="M231.39,494.73H225c-1.35,4.55-3.75,12.55-4.2,14.3a24.2,24.2,0,0,0-1,3.8c0,1.6,1,1.8,1.85,1.8,2.4,0,4.2-2.45,5.85-6.7l1,.3c-1.8,4.45-4,7.65-7.45,7.65-2.15,0-5.2-.8-5.2-3.85a11.35,11.35,0,0,1,.5-2.9c.6-2.25,4-13.25,4.3-14.4h-4.8l.55-1.65h4.85l2.2-7.75h4.35l-2.3,7.75h6.4Z"/><path class="cls-2" d="M249.82,515.88c-3,0-4.7-1.3-4.7-4.65l-.2,0c-1.9,2.75-4.15,4.85-7,4.85-3.35,0-6.85-1.65-6.85-7.9,0-5.15,4.9-15.85,13.9-15.85a4.28,4.28,0,0,1,4.5,3.65h.15l1.15-3.35h4.5l-5.65,16.35a14.55,14.55,0,0,0-.8,3.7c0,1.65.75,2,1.7,2,2.35,0,3.8-2.35,5.45-6.6l1,.3C255.17,512.78,253.37,515.88,249.82,515.88Zm-5-22.55c-5.15,0-9.05,9.9-9.05,15.85,0,4.6,1.6,5.15,2.9,5.15,2.85,0,5-2.3,6.55-4.9l3.8-11.65C248.42,494.73,247.22,493.33,244.82,493.33Z"/><path class="cls-2" d="M263.87,509a16.49,16.49,0,0,0-1,3.8c0,1.6.85,1.8,1.75,1.8,2.4,0,4-2.35,5.6-6.6l.9.3c-1.8,4.45-3.6,7.55-7.15,7.55-2.15,0-5.1-.8-5.1-3.85a16.3,16.3,0,0,1,.9-4.2l7.25-23a11.39,11.39,0,0,0,.7-3.35c0-1.1-.9-1.45-2-1.6-1.25-.15-1.8-.15-3-.2v-1l11-.5Z"/><path class="cls-2" d="M27.2,566.73H20.85c-1.35,4.55-3.75,12.55-4.2,14.3a24.2,24.2,0,0,0-1,3.8c0,1.6,1,1.8,1.85,1.8,2.4,0,4.2-2.45,5.85-6.7l1,.3c-1.8,4.45-4,7.65-7.45,7.65-2.15,0-5.2-.8-5.2-3.85a11.35,11.35,0,0,1,.5-2.9c.6-2.25,4-13.25,4.3-14.4H11.7l.55-1.65H17.1l2.2-7.75h4.35l-2.3,7.75h6.4Z"/><path class="cls-2" d="M45.86,570.48c-1.75,0-2.45-1-2.45-2.1s1.15-1.7,1.15-2.15,0-.65-.75-.65c-1.75,0-4.05,3.8-5.5,6.45l-4.7,15.3H29.16l5-16a24.1,24.1,0,0,0,.95-4c0-1.45-.45-1.8-1.4-1.8-2.35,0-3.8,2.65-5.4,6.75l-1-.35c1.8-4.4,3.55-7.6,7.1-7.6,2.15,0,4.25,1.4,4.25,5.05l.2,0c1.65-2.55,3.15-5.1,6.35-5.1a3.05,3.05,0,0,1,3.25,3.05C48.46,568.88,47.61,570.48,45.86,570.48Z"/><path class="cls-2" d="M66.54,587.88c-3,0-4.7-1.3-4.7-4.65l-.2,0c-1.9,2.75-4.15,4.85-7,4.85-3.35,0-6.85-1.65-6.85-7.9,0-5.15,4.9-15.85,13.9-15.85a4.28,4.28,0,0,1,4.5,3.65h.15l1.15-3.35H72l-5.65,16.35a14.55,14.55,0,0,0-.8,3.7c0,1.65.75,2,1.7,2,2.35,0,3.8-2.35,5.45-6.6l1,.3C71.89,584.78,70.09,587.88,66.54,587.88Zm-5-22.55c-5.15,0-9.05,9.9-9.05,15.85,0,4.6,1.6,5.15,2.9,5.15,2.85,0,5-2.3,6.55-4.9l3.8-11.65C65.14,566.73,63.94,565.33,61.54,565.33Z"/><path class="cls-2" d="M96,587.88c-2.1,0-5.35-.85-5.35-3.9a12.21,12.21,0,0,1,1.1-4.15l3-7.8a13.32,13.32,0,0,0,1-3.75c0-2.1-1.15-2.4-2.45-2.4-2.7,0-5.55,2.85-7.25,6.2l-5,15.25h-4.5l5.4-16a22.61,22.61,0,0,0,.95-4c0-1.4-.45-1.8-1.4-1.8-2.35,0-3.75,2.5-5.4,6.75l-1-.35c1.8-4.4,3.55-7.6,7.1-7.6,2.15,0,4.6.8,4.6,4.55l.2,0c1.75-2.4,4.2-4.6,7.1-4.6a5.63,5.63,0,0,1,5.75,5.6,15.45,15.45,0,0,1-1,3.7L96,580.93a14.82,14.82,0,0,0-1.1,3.9c0,1.6.9,1.8,1.85,1.8,2.35,0,3.85-2.35,5.5-6.6l1,.3C101.37,584.78,99.57,587.88,96,587.88Z"/><path class="cls-2" d="M120.39,572.68c-1.25,0-2.45-.6-2.45-2,0-2,2.6-2.6,2.8-3.15-.1-.65-.9-2.2-4.25-2.2a4.08,4.08,0,0,0-4,4.15c0,4.85,8.25,5.15,8.25,11.55,0,3.6-4.15,7.05-8.6,7.05-5.5,0-7.45-3.4-7.45-5.8,0-1.85,1.35-3.45,2.75-3.45,2.2,0,2.65,1.4,2.65,2.2a2.08,2.08,0,0,1-2.2,2.2c-.9,0-1.35,0-1.35.7,0,1.55,2.5,3.1,5,3.1,2.9,0,5.55-1.25,5.55-4,0-5.7-8.35-5.7-8.35-12,0-3.2,3.7-6.8,7.75-6.8,5.45,0,6.2,4,6.2,5.25C122.74,571.38,121.84,572.68,120.39,572.68Z"/><path class="cls-2" d="M147.27,556.93c-1,0-2.8-.55-2.8-2.2,0-.7.6-1.65.75-2.7-.25-.75-.55-.85-1.1-.85-3.2,0-5.6,3.35-7.55,10.4l-1,3.5h6.3l-.55,1.65h-6.2c-1.6,6.15-3.5,14-5.2,19.4-1.2,3.85-3,7.6-6.05,10.1-2.6,2.2-4.55,2.9-7,2.9-4,0-5-2-5-4a2.63,2.63,0,0,1,2.6-2.6,2.5,2.5,0,0,1,2.7,2.4,3.63,3.63,0,0,1-1,2.35,1,1,0,0,0,1,.9c3.7,0,5.9-3.3,8.15-10.65,2.45-8.05,4.15-15.55,5.5-20.8h-5.3l.5-1.65h5.3l.55-2a19.51,19.51,0,0,1,5.85-10.15,10,10,0,0,1,7.1-2.75c3.45,0,5.1,2.2,5.1,4.25A2.67,2.67,0,0,1,147.27,556.93Z"/><path class="cls-2" d="M146.17,588c-3.4,0-7.4-2.5-7.4-8.75,0-5.35,4.7-15,14-15,3.4,0,7.4,2.55,7.4,8.8C160.17,578.43,155.57,588,146.17,588Zm5.85-22.9c-5.25,0-8.55,9.2-8.55,15.1,0,4.6,1.5,6.85,3.45,6.85,5.6,0,8.55-9.15,8.55-15.1C155.47,567.38,153.82,565.13,152,565.13Z"/><path class="cls-2" d="M181,570.48c-1.75,0-2.45-1-2.45-2.1s1.15-1.7,1.15-2.15,0-.65-.75-.65c-1.75,0-4.05,3.8-5.5,6.45l-4.7,15.3h-4.45l5-16a24.1,24.1,0,0,0,.95-4c0-1.45-.45-1.8-1.4-1.8-2.35,0-3.8,2.65-5.4,6.75l-1-.35c1.8-4.4,3.55-7.6,7.1-7.6,2.15,0,4.25,1.4,4.25,5.05l.2,0c1.65-2.55,3.15-5.1,6.35-5.1a3.05,3.05,0,0,1,3.25,3.05C183.65,568.88,182.79,570.48,181,570.48Z"/><path class="cls-2" d="M218.12,587.88c-2.1,0-5.35-.85-5.35-3.9a13.16,13.16,0,0,1,1.1-4.15l3-7.8a13.32,13.32,0,0,0,1-3.75c0-2.1-1.3-2.4-2.6-2.4-2.7,0-4.75,2.4-6.35,4.75l-5.45,16.7h-4.55l5.3-16a10.38,10.38,0,0,0,.65-3c0-2.1-1.35-2.4-2.65-2.4-2.7,0-5.65,3.35-7.05,6.2l-5,15.25h-4.5l5.4-16a22.61,22.61,0,0,0,.95-4c0-1.45-.45-1.8-1.4-1.8-2.35,0-3.75,2.5-5.4,6.75l-1-.35c1.8-4.4,3.55-7.6,7.1-7.6,2.15,0,4.6.75,4.6,4.55l.2,0c1.85-2.55,4.25-4.6,7.1-4.6,3.6,0,5.5,2.4,5.65,4.6h.2c1.7-2.25,4.1-4.6,7-4.6a5.76,5.76,0,0,1,5.9,5.6,15.45,15.45,0,0,1-1,3.7l-2.8,7.35a14.35,14.35,0,0,0-1.1,3.9c0,1.6.9,1.8,1.85,1.8,2.35,0,3.85-2.35,5.5-6.6l1,.3C223.47,584.78,221.67,587.88,218.12,587.88Z"/><path class="cls-2" d="M246.07,587.88c-3,0-4.7-1.3-4.7-4.65l-.2,0c-1.9,2.75-4.15,4.85-7,4.85-3.35,0-6.85-1.65-6.85-7.9,0-5.15,4.9-15.85,13.9-15.85a4.28,4.28,0,0,1,4.5,3.65h.15l1.15-3.35h4.5l-5.65,16.35a14.55,14.55,0,0,0-.8,3.7c0,1.65.75,2,1.7,2,2.35,0,3.8-2.35,5.45-6.6l1,.3C251.42,584.78,249.62,587.88,246.07,587.88Zm-5-22.55c-5.15,0-9.05,9.9-9.05,15.85,0,4.6,1.6,5.15,2.9,5.15,2.85,0,5-2.3,6.55-4.9l3.8-11.65C244.67,566.73,243.47,565.33,241.07,565.33Z"/><path class="cls-2" d="M271.11,566.73h-6.35c-1.35,4.55-3.75,12.55-4.2,14.3a24.2,24.2,0,0,0-1,3.8c0,1.6,1,1.8,1.85,1.8,2.4,0,4.2-2.45,5.85-6.7l1,.3c-1.8,4.45-4,7.65-7.45,7.65-2.15,0-5.2-.8-5.2-3.85a11.35,11.35,0,0,1,.5-2.9c.6-2.25,4-13.25,4.3-14.4h-4.8l.55-1.65H261l2.2-7.75h4.35l-2.3,7.75h6.4Z"/><path class="cls-2" d="M278.83,587.88c-2.15,0-5.2-.85-5.2-3.9a12,12,0,0,1,1-4.15l3.35-8.5a18.08,18.08,0,0,0,1.15-4c0-1.45-.7-1.9-1.65-1.9-2.35,0-3.75,2.5-5.4,6.75l-1-.35c1.8-4.4,3.5-7.6,7.1-7.6,2.15,0,5,1.3,5,4.25a19.19,19.19,0,0,1-1.55,5l-2.85,7.35a13.81,13.81,0,0,0-1.15,4c0,1.6.9,1.75,1.8,1.75,2.4,0,3.9-2.35,5.55-6.6l.9.3C284.13,584.78,282.33,587.88,278.83,587.88Zm4.5-29.65a2.5,2.5,0,0,1-2.5-2.8,3.34,3.34,0,0,1,3.4-3.5,2.54,2.54,0,0,1,2.3,2.75A3.25,3.25,0,0,1,283.33,558.23Z"/><path class="cls-2" d="M295.55,588c-3.4,0-7.4-2.5-7.4-8.75,0-5.35,4.7-15,14-15,3.4,0,7.4,2.55,7.4,8.8C309.55,578.43,305,588,295.55,588Zm5.85-22.9c-5.25,0-8.55,9.2-8.55,15.1,0,4.6,1.5,6.85,3.45,6.85,5.6,0,8.55-9.15,8.55-15.1C304.85,567.38,303.2,565.13,301.4,565.13Z"/><path class="cls-2" d="M332.93,587.88c-2.1,0-5.35-.85-5.35-3.9a12.21,12.21,0,0,1,1.1-4.15l3-7.8a13.32,13.32,0,0,0,1-3.75c0-2.1-1.15-2.4-2.45-2.4-2.7,0-5.55,2.85-7.25,6.2l-5,15.25h-4.5l5.4-16a22.61,22.61,0,0,0,.95-4c0-1.4-.45-1.8-1.4-1.8-2.35,0-3.75,2.5-5.4,6.75l-1-.35c1.8-4.4,3.55-7.6,7.1-7.6,2.15,0,4.6.8,4.6,4.55l.2,0c1.75-2.4,4.2-4.6,7.1-4.6a5.63,5.63,0,0,1,5.75,5.6,15.45,15.45,0,0,1-1,3.7l-2.8,7.35a14.82,14.82,0,0,0-1.1,3.9c0,1.6.9,1.8,1.85,1.8,2.35,0,3.85-2.35,5.5-6.6l1,.3C338.28,584.78,336.48,587.88,332.93,587.88Z"/><path class="cls-2" d="M27.2,638.73H20.85c-1.35,4.55-3.75,12.55-4.2,14.3a24.2,24.2,0,0,0-1,3.8c0,1.6,1,1.8,1.85,1.8,2.4,0,4.2-2.45,5.85-6.7l1,.3c-1.8,4.45-4,7.65-7.45,7.65-2.15,0-5.2-.8-5.2-3.85a11.35,11.35,0,0,1,.5-2.9c.6-2.25,4-13.25,4.3-14.4H11.7l.55-1.65H17.1l2.2-7.75h4.35l-2.3,7.75h6.4Z"/><path class="cls-2" d="M34.92,659.88c-2.15,0-5.2-.85-5.2-3.9a12,12,0,0,1,1-4.15l3.35-8.5a18.08,18.08,0,0,0,1.15-4c0-1.45-.7-1.9-1.65-1.9-2.35,0-3.75,2.5-5.4,6.75l-1-.35c1.8-4.4,3.5-7.6,7.1-7.6,2.15,0,5,1.3,5,4.25a19.19,19.19,0,0,1-1.55,5l-2.85,7.35a13.81,13.81,0,0,0-1.15,4c0,1.6.9,1.75,1.8,1.75,2.4,0,3.9-2.35,5.55-6.6l.9.3C40.22,656.78,38.42,659.88,34.92,659.88Zm4.5-29.65a2.5,2.5,0,0,1-2.5-2.8,3.34,3.34,0,0,1,3.4-3.5,2.54,2.54,0,0,1,2.3,2.75A3.25,3.25,0,0,1,39.42,630.23Z"/><path class="cls-2" d="M77.56,659.88c-2.1,0-5.35-.85-5.35-3.9a13.16,13.16,0,0,1,1.1-4.15l3-7.8a13.32,13.32,0,0,0,1-3.75c0-2.1-1.3-2.4-2.6-2.4-2.7,0-4.75,2.4-6.35,4.75l-5.45,16.7H58.26l5.3-16a10.38,10.38,0,0,0,.65-3c0-2.1-1.35-2.4-2.65-2.4-2.7,0-5.65,3.35-7.05,6.2l-5,15.25H45l5.4-16a22.61,22.61,0,0,0,.95-4c0-1.45-.45-1.8-1.4-1.8-2.35,0-3.75,2.5-5.4,6.75l-1-.35c1.8-4.4,3.55-7.6,7.1-7.6,2.15,0,4.6.75,4.6,4.55l.2,0c1.85-2.55,4.25-4.6,7.1-4.6,3.6,0,5.5,2.4,5.65,4.6h.2c1.7-2.25,4.1-4.6,7-4.6a5.76,5.76,0,0,1,5.9,5.6,15.45,15.45,0,0,1-1,3.7l-2.8,7.35a14.35,14.35,0,0,0-1.1,3.9c0,1.6.9,1.8,1.85,1.8,2.35,0,3.85-2.35,5.5-6.6l1,.3C82.91,656.78,81.11,659.88,77.56,659.88Z"/><path class="cls-2" d="M92.21,648.63a24.6,24.6,0,0,0-.75,4.7c0,3.4,1.1,5,3.7,5,3.65,0,6-2.9,8.1-6.7l.9.45c-3.1,5.9-6.5,7.9-9.75,7.9-3.55,0-7.65-1.65-7.65-8,0-5.15,5-15.75,14.3-15.75,2.25,0,4.25,1.1,4.25,3.35C105.31,645,97.11,647.88,92.21,648.63Zm7.45-11.35c-2.9,0-5.85,5.3-7.2,10.3,7-1.25,9.4-5.35,9.4-7.65C101.86,638.33,101.26,637.28,99.66,637.28Z"/><path class="cls-2" d="M129.52,628.93c-1,0-2.8-.55-2.8-2.2,0-.7.6-1.65.75-2.7-.25-.75-.55-.85-1.1-.85-3.2,0-5.6,3.35-7.55,10.4l-1,3.5h6.3l-.55,1.65h-6.2c-1.6,6.15-3.5,14-5.2,19.4-1.2,3.85-3,7.6-6.05,10.1-2.6,2.2-4.55,2.9-7,2.9-4,0-5-2-5-4a2.63,2.63,0,0,1,2.6-2.6,2.5,2.5,0,0,1,2.7,2.4,3.63,3.63,0,0,1-1,2.35,1,1,0,0,0,1,.9c3.7,0,5.9-3.3,8.15-10.65,2.45-8.05,4.15-15.55,5.5-20.8h-5.3l.5-1.65h5.3l.55-2a19.51,19.51,0,0,1,5.85-10.15,10,10,0,0,1,7.1-2.75c3.45,0,5.1,2.2,5.1,4.25A2.67,2.67,0,0,1,129.52,628.93Z"/><path class="cls-2" d="M141.34,642.48c-1.75,0-2.45-1-2.45-2.1s1.15-1.7,1.15-2.15,0-.65-.75-.65c-1.75,0-4.05,3.8-5.5,6.45l-4.7,15.3h-4.45l5-16a24.1,24.1,0,0,0,.95-4c0-1.45-.45-1.8-1.4-1.8-2.35,0-3.8,2.65-5.4,6.75l-1-.35c1.8-4.4,3.55-7.6,7.1-7.6,2.15,0,4.25,1.4,4.25,5.05l.2,0c1.65-2.55,3.15-5.1,6.35-5.1a3.05,3.05,0,0,1,3.25,3.05C143.94,640.88,143.09,642.48,141.34,642.48Z"/><path class="cls-2" d="M162,659.88c-3,0-4.7-1.3-4.7-4.65l-.2,0c-1.9,2.75-4.15,4.85-7,4.85-3.35,0-6.85-1.65-6.85-7.9,0-5.15,4.9-15.85,13.9-15.85a4.28,4.28,0,0,1,4.5,3.65h.15l1.15-3.35h4.5l-5.65,16.35a14.55,14.55,0,0,0-.8,3.7c0,1.65.75,2,1.7,2,2.35,0,3.8-2.35,5.45-6.6l1,.3C167.37,656.78,165.56,659.88,162,659.88Zm-5-22.55c-5.15,0-9.05,9.9-9.05,15.85,0,4.6,1.6,5.15,2.9,5.15,2.85,0,5-2.3,6.55-4.9l3.8-11.65C160.61,638.73,159.41,637.33,157,637.33Z"/><path class="cls-2" d="M204.5,659.88c-2.1,0-5.35-.85-5.35-3.9a13.16,13.16,0,0,1,1.1-4.15l3-7.8a13.32,13.32,0,0,0,1-3.75c0-2.1-1.3-2.4-2.6-2.4-2.7,0-4.75,2.4-6.35,4.75l-5.45,16.7h-4.55l5.3-16a10.38,10.38,0,0,0,.65-3c0-2.1-1.35-2.4-2.65-2.4-2.7,0-5.65,3.35-7.05,6.2l-5,15.25h-4.5l5.4-16a22.54,22.54,0,0,0,1-4c0-1.45-.45-1.8-1.4-1.8-2.35,0-3.75,2.5-5.4,6.75l-1-.35c1.8-4.4,3.55-7.6,7.1-7.6,2.15,0,4.6.75,4.6,4.55l.2,0c1.85-2.55,4.25-4.6,7.1-4.6,3.6,0,5.5,2.4,5.65,4.6h.2c1.7-2.25,4.1-4.6,7-4.6a5.76,5.76,0,0,1,5.9,5.6,15.45,15.45,0,0,1-1,3.7l-2.8,7.35a14.35,14.35,0,0,0-1.1,3.9c0,1.6.9,1.8,1.85,1.8,2.35,0,3.85-2.35,5.5-6.6l1,.3C209.85,656.78,208,659.88,204.5,659.88Z"/><path class="cls-2" d="M219.14,648.63a24.6,24.6,0,0,0-.75,4.7c0,3.4,1.1,5,3.7,5,3.65,0,6-2.9,8.1-6.7l.9.45c-3.1,5.9-6.5,7.9-9.75,7.9-3.55,0-7.65-1.65-7.65-8,0-5.15,5-15.75,14.3-15.75,2.25,0,4.25,1.1,4.25,3.35C232.24,645,224,647.88,219.14,648.63Zm7.45-11.35c-2.9,0-5.85,5.3-7.2,10.3,7-1.25,9.4-5.35,9.4-7.65C228.79,638.33,228.19,637.28,226.59,637.28Z"/><path class="cls-2" d="M248.58,644.68c-1.25,0-2.45-.6-2.45-2,0-2,2.6-2.6,2.8-3.15-.1-.65-.9-2.2-4.25-2.2a4.08,4.08,0,0,0-4,4.15c0,4.85,8.25,5.15,8.25,11.55,0,3.6-4.15,7.05-8.6,7.05-5.5,0-7.45-3.4-7.45-5.8,0-1.85,1.35-3.45,2.75-3.45,2.2,0,2.65,1.4,2.65,2.2a2.08,2.08,0,0,1-2.2,2.2c-.9,0-1.35,0-1.35.7,0,1.55,2.5,3.1,5,3.1,2.9,0,5.55-1.25,5.55-4,0-5.7-8.35-5.7-8.35-12,0-3.2,3.7-6.8,7.75-6.8,5.45,0,6.2,4,6.2,5.25C250.93,643.38,250,644.68,248.58,644.68Z"/><path class="cls-2" d="M272.58,660c-3.4,0-7.4-2.5-7.4-8.75,0-5.35,4.7-15,14-15,3.4,0,7.4,2.55,7.4,8.8C286.58,650.43,282,660,272.58,660Zm5.85-22.9c-5.25,0-8.55,9.2-8.55,15.1,0,4.6,1.5,6.85,3.45,6.85,5.6,0,8.55-9.15,8.55-15.1C281.88,639.38,280.23,637.13,278.43,637.13Z"/><path class="cls-2" d="M311.3,628.93c-1,0-2.8-.55-2.8-2.2,0-.7.6-1.65.75-2.7-.25-.75-.55-.85-1.1-.85-3.2,0-5.6,3.35-7.55,10.4l-1,3.5h6.3l-.55,1.65h-6.2c-1.6,6.15-3.5,14-5.2,19.4-1.2,3.85-3,7.6-6.05,10.1-2.6,2.2-4.55,2.9-7,2.9-4,0-5.05-2-5.05-4a2.64,2.64,0,0,1,2.6-2.6,2.5,2.5,0,0,1,2.7,2.4,3.63,3.63,0,0,1-1,2.35,1,1,0,0,0,1,.9c3.7,0,5.9-3.3,8.15-10.65,2.45-8.05,4.15-15.55,5.5-20.8h-5.3l.5-1.65h5.3l.55-2a19.51,19.51,0,0,1,5.85-10.15,10,10,0,0,1,7.1-2.75c3.45,0,5.1,2.2,5.1,4.25A2.67,2.67,0,0,1,311.3,628.93Z"/><path class="cls-2" d="M22,716.18c-1.3,5.05-2.2,8.5-3.85,14.05-1.2,3.9-3,7.55-6,10A10.12,10.12,0,0,1,5,743.13c-4,0-5-2.15-5-4.15a2.65,2.65,0,0,1,2.6-2.5c1.65,0,2.75.75,2.75,2.5a4.08,4.08,0,0,1-.95,2.2c0,.8.45,1,.75,1,3.75,0,5.95-3.2,8.15-10.55s3.2-11.2,4.85-17.7a11,11,0,0,0,.4-2.55c0-1.45-.6-1.9-1.55-1.9-2.35,0-3.75,2.5-5.4,6.75l-1-.35c1.75-4.4,3.5-7.6,7.1-7.6,2.25,0,4.9,1.25,4.9,4.2A23.58,23.58,0,0,1,22,716.18Zm.75-14a2.5,2.5,0,0,1-2.5-2.8,3.34,3.34,0,0,1,3.4-3.5,2.54,2.54,0,0,1,2.3,2.75A3.25,3.25,0,0,1,22.7,702.23Z"/><path class="cls-2" d="M45.61,731.88c-2.8,0-4.75-1.1-4.75-4.65l-.2,0c-1.75,2.5-4.45,4.8-7.3,4.8a5.7,5.7,0,0,1-5.8-5.6,13.32,13.32,0,0,1,1-3.7l2.85-7.35a12.86,12.86,0,0,0,1.05-4c0-1.45-.55-1.8-1.5-1.8-2.35,0-3.75,2.5-5.4,6.75l-.9-.35c1.75-4.4,3.45-7.5,7-7.5,2.15,0,5,1.1,5,3.9a12.26,12.26,0,0,1-1,4.15l-3.05,7.8a12.06,12.06,0,0,0-1,3.6c0,2.15,1.15,2.55,2.45,2.55,2.75,0,5.45-2.6,7-5.35l5-16h4.6l-5.25,15.9a21.77,21.77,0,0,0-.8,3.6c0,1.65.7,2.1,1.65,2.1,2.35,0,3.8-2.35,5.45-6.6l1,.3C51,728.78,49.16,731.88,45.61,731.88Z"/><path class="cls-2" d="M70,716.68c-1.25,0-2.45-.6-2.45-2,0-2,2.6-2.6,2.8-3.15-.1-.65-.9-2.2-4.25-2.2a4.08,4.08,0,0,0-4,4.15c0,4.85,8.25,5.15,8.25,11.55,0,3.6-4.15,7.05-8.6,7.05-5.5,0-7.45-3.4-7.45-5.8,0-1.85,1.35-3.45,2.75-3.45,2.2,0,2.65,1.4,2.65,2.2a2.08,2.08,0,0,1-2.2,2.2c-.9,0-1.35,0-1.35.7,0,1.55,2.5,3.1,5,3.1,2.9,0,5.55-1.25,5.55-4,0-5.7-8.35-5.7-8.35-12,0-3.2,3.7-6.8,7.75-6.8,5.45,0,6.2,4,6.2,5.25C72.31,715.38,71.41,716.68,70,716.68Z"/><path class="cls-2" d="M90.57,710.73H84.22c-1.35,4.55-3.75,12.55-4.2,14.3a24.2,24.2,0,0,0-1,3.8c0,1.6,1,1.8,1.85,1.8,2.4,0,4.2-2.45,5.85-6.7l1,.3c-1.8,4.45-4,7.65-7.45,7.65-2.15,0-5.2-.8-5.2-3.85a11.35,11.35,0,0,1,.5-2.9c.6-2.25,4-13.25,4.3-14.4h-4.8l.55-1.65h4.85l2.2-7.75H87l-2.3,7.75h6.4Z"/><path class="cls-2" d="M118.37,707.88,113,727.13a4.37,4.37,0,0,0-.15,1c0,.7.3,1,1,1.4a14.23,14.23,0,0,0,3.45.75l-.25,1H102l.25-1a22.57,22.57,0,0,0,3.75-.5,3.3,3.3,0,0,0,2.15-2.45l6.25-22.55a6.09,6.09,0,0,1-1.85.2c-1.6,0-3.4-.8-5.25-3l.65-.7a10.73,10.73,0,0,0,4.9,1.15,18.49,18.49,0,0,0,7.6-2.1h.65A55.75,55.75,0,0,0,118.37,707.88Z"/><path class="cls-2" d="M143.74,719.48h-20.6l.8-2.9h20.6Z"/><path class="cls-2" d="M152.77,726l-1.65,1.25H163c2.55,0,4.65-1.85,6.65-4.8l.85.3-4.6,8.55H145.12l.25-1.25a120.48,120.48,0,0,0,14.3-10.75c5.4-4.7,7.8-9,7.8-12.85,0-2.85-1.6-5-5-5-5,0-9.35,5-9.35,8.65,0,2.25,1,3.3,2.9,3.3s3-1,4.45-2.35l.45.6c-2.1,2.3-4.35,3.65-7.1,3.65s-4.75-1.4-4.75-4.35c0-4.65,6.45-10.7,14.15-10.7,5.45,0,9.15,2.6,9.15,6.85C172.42,714.28,165.52,719.53,152.77,726Z"/><path class="cls-2" d="M207.32,726c-3.8,12.25-10.35,17.25-17.35,17.25-5.8,0-6.6-3.3-6.6-4.7a3.1,3.1,0,0,1,3.3-3.45,2.29,2.29,0,0,1,2.3,2.1c0,3.9-2.8,1.6-3.15,3.35.15,1.9,2.7,1.75,3.85,1.75,4.75,0,9.55-4.35,12.9-14.65l-.2,0c-1.75,2.25-4.25,4.3-7.1,4.3a5.7,5.7,0,0,1-5.8-5.6,13.15,13.15,0,0,1,1-3.75l2.85-7.25a13.75,13.75,0,0,0,1.1-4.15c0-1.45-.5-1.7-1.45-1.7-2.35,0-3.8,2.5-5.45,6.75l-.9-.35c1.75-4.4,3.5-7.6,7.05-7.6,2.15,0,5,1.1,5,3.9a13,13,0,0,1-1.1,4.25l-3.1,7.7a12.32,12.32,0,0,0-1,3.65c0,2.15,1.2,2.5,2.5,2.5,2.75,0,5.4-2.35,7-4.65l5.15-16.6h4.45Z"/><path class="cls-2" d="M218.72,720.63a24.6,24.6,0,0,0-.75,4.7c0,3.4,1.1,5,3.7,5,3.65,0,6-2.9,8.1-6.7l.9.45c-3.1,5.9-6.5,7.9-9.75,7.9-3.55,0-7.65-1.65-7.65-8,0-5.15,5-15.75,14.3-15.75,2.25,0,4.25,1.1,4.25,3.35C231.82,717,223.62,719.88,218.72,720.63Zm7.45-11.35c-2.9,0-5.85,5.3-7.2,10.3,7-1.25,9.4-5.35,9.4-7.65C228.37,710.33,227.77,709.28,226.17,709.28Z"/><path class="cls-2" d="M252.05,731.88c-3,0-4.7-1.3-4.7-4.65l-.2,0c-1.9,2.75-4.15,4.85-7,4.85-3.35,0-6.85-1.65-6.85-7.9,0-5.15,4.9-15.85,13.9-15.85a4.28,4.28,0,0,1,4.5,3.65h.15l1.15-3.35h4.5l-5.65,16.35a14.55,14.55,0,0,0-.8,3.7c0,1.65.75,2,1.7,2,2.35,0,3.8-2.35,5.45-6.6l1,.3C257.4,728.78,255.6,731.88,252.05,731.88Zm-5-22.55c-5.15,0-9.05,9.9-9.05,15.85,0,4.6,1.6,5.15,2.9,5.15,2.85,0,5-2.3,6.55-4.9l3.8-11.65C250.65,710.73,249.45,709.33,247.05,709.33Z"/><path class="cls-2" d="M279,714.48c-1.75,0-2.45-1-2.45-2.1s1.15-1.7,1.15-2.15,0-.65-.75-.65c-1.75,0-4.05,3.8-5.5,6.45l-4.7,15.3h-4.45l5-16a24,24,0,0,0,1-4c0-1.45-.45-1.8-1.4-1.8-2.35,0-3.8,2.65-5.4,6.75l-1-.35c1.8-4.4,3.55-7.6,7.1-7.6,2.15,0,4.25,1.4,4.25,5.05l.2,0c1.65-2.55,3.15-5.1,6.35-5.1a3.05,3.05,0,0,1,3.25,3.05C281.63,712.88,280.78,714.48,279,714.48Z"/><path class="cls-2" d="M295.63,716.68c-1.25,0-2.45-.6-2.45-2,0-2,2.6-2.6,2.8-3.15-.1-.65-.9-2.2-4.25-2.2a4.08,4.08,0,0,0-4,4.15c0,4.85,8.25,5.15,8.25,11.55,0,3.6-4.15,7.05-8.6,7.05-5.5,0-7.45-3.4-7.45-5.8,0-1.85,1.35-3.45,2.75-3.45,2.2,0,2.65,1.4,2.65,2.2a2.08,2.08,0,0,1-2.2,2.2c-.9,0-1.35,0-1.35.7,0,1.55,2.5,3.1,5,3.1,2.9,0,5.55-1.25,5.55-4,0-5.7-8.35-5.7-8.35-12,0-3.2,3.7-6.8,7.75-6.8,5.45,0,6.2,4,6.2,5.25C298,715.38,297.08,716.68,295.63,716.68Z"/><path class="cls-2" d="M302.67,731.78a3.2,3.2,0,0,1-3.25-3.2,3.25,3.25,0,0,1,6.5,0A3.2,3.2,0,0,1,302.67,731.78Z"/></g><g class="cls-1"><path class="cls-2" d="M39.38,194.95l-5.94,4.5H76.1c9.18,0,16.74-6.66,23.94-17.28l3.06,1.08L86.54,214H11.84l.9-4.5c25-16.56,36.72-25.92,51.48-38.7,19.44-16.92,28.08-32.22,28.08-46.26,0-10.26-5.76-17.82-17.82-17.82-17.82,0-33.66,18.18-33.66,31.14,0,8.1,3.42,11.88,10.44,11.88,6.66,0,10.62-3.6,16-8.46l1.62,2.16c-7.56,8.28-15.66,13.14-25.56,13.14-9.54,0-17.1-5-17.1-15.66,0-16.74,23.22-38.52,50.94-38.52,19.62,0,32.94,9.36,32.94,24.66C110.12,152.65,85.28,171.55,39.38,194.95Z"/><path class="cls-2" d="M200.66,166.33l-2-2c2.34-4.14,5.4-15.12,5.4-23,0-4.5-.36-6.48-4.32-6.48-16.74,0-26.64,34.38-28.44,41-2,7.56-4.14,16.2-4.14,21.06,0,14.94,7.92,14.22,10.8,14.22,9,0,16.56-8.28,22.5-23.58l3.24,1.08c-6.3,16-15.3,27.54-28.08,27.54-8.1,0-22.5-.54-22.5-23.94h-1.08c-4.14,10.26-12.06,23.94-26.46,23.94-10.8,0-14.4-5-14.4-12.24,0-11,9.54-20.52,15.3-25.38l2.34,2.16a38.7,38.7,0,0,0-5,19.44c0,7.2,0,11.34,3.78,11.34,15.84,0,24.84-27.72,28.62-39.6,2.88-9.18,5.22-17.82,5.22-23.94,0-11.88-5.76-12.6-9-12.6-8.64,0-16.38,9-22.32,24.3l-3.42-1.26c6.48-15.84,14.94-27.36,27.72-27.36,7.74,0,20.52,1.26,20.52,22h.9c3.78-9.9,13.14-22,24.66-22,7,0,13.14,3.24,13.14,13.14S206.42,161.11,200.66,166.33Z"/></g><path class="cls-3" d="M12.92.13h3.41l5.54,8.61L27.4.13h3.41v18.2h-3.2V5.28l-5.75,8.58h-.1L16.07,5.33v13H12.92Z"/><path class="cls-3" d="M44.89,0h3l8,18.33H52.49l-1.85-4.39H42l-1.87,4.39H36.89Zm4.58,11.1L46.32,3.82,43.2,11.1Z"/><path class="cls-3" d="M64.1,3.09H58.3v-3H73.1v3H67.3V18.33H64.1Z"/><path class="cls-3" d="M79.13,10.61V.13h3.2V10.48c0,3.38,1.74,5.17,4.6,5.17s4.58-1.69,4.58-5V.13h3.2V10.45c0,5.43-3.07,8.16-7.83,8.16S79.13,15.89,79.13,10.61Z"/><path class="cls-3" d="M102.44.13h8.11A7.33,7.33,0,0,1,115.81,2a5.5,5.5,0,0,1,1.51,3.93v.05A5.47,5.47,0,0,1,113,11.44l4.91,6.89h-3.8L109.65,12h-4v6.34h-3.2Zm7.88,9c2.29,0,3.74-1.2,3.74-3V6.06c0-2-1.4-3-3.77-3h-4.65V9.15Z"/><path class="cls-3" d="M124.44.13h13.49V3h-10.3V7.72h9.13v2.89h-9.13v4.86h10.43v2.86H124.44Z"/><path class="cls-3" d="M12.11,49.28v-.05a9.33,9.33,0,0,1,9.54-9.41,9.24,9.24,0,0,1,9.49,9.36v.05a9.33,9.33,0,0,1-9.54,9.41A9.24,9.24,0,0,1,12.11,49.28Zm15.68,0v-.05a6.21,6.21,0,0,0-6.19-6.45,6.13,6.13,0,0,0-6.14,6.4v.05a6.21,6.21,0,0,0,6.19,6.45A6.13,6.13,0,0,0,27.79,49.28Z"/><path class="cls-3" d="M38.18,40.13h8.11A7.33,7.33,0,0,1,51.54,42a5.5,5.5,0,0,1,1.51,3.93v.05a5.47,5.47,0,0,1-4.32,5.51l4.91,6.89h-3.8L45.38,52h-4v6.34h-3.2Zm7.88,9c2.29,0,3.74-1.2,3.74-3v-.05c0-2-1.4-3-3.77-3H41.38v6.11Z"/><path class="cls-3" d="M59,49.28v-.05a9.27,9.27,0,0,1,9.39-9.41,9.83,9.83,0,0,1,7,2.47l-2,2.42a7.23,7.23,0,0,0-5.1-1.92,6.13,6.13,0,0,0-5.9,6.4v.05c0,3.74,2.47,6.5,6.19,6.5a7.43,7.43,0,0,0,4.39-1.38V51H68.29V48.16H76v7.64a11.61,11.61,0,0,1-7.59,2.83A9,9,0,0,1,59,49.28Z"/><path class="cls-3" d="M82,55.68l1.92-2.29a8.43,8.43,0,0,0,5.75,2.37c2,0,3.22-.94,3.22-2.29v-.05c0-1.3-.73-2-4.11-2.78-3.87-.94-6.06-2.08-6.06-5.43v-.05c0-3.12,2.6-5.28,6.21-5.28a10.09,10.09,0,0,1,6.6,2.29l-1.72,2.42a8.26,8.26,0,0,0-4.94-1.87c-1.87,0-3,1-3,2.16v.05c0,1.4.83,2,4.34,2.86,3.85.94,5.82,2.31,5.82,5.33v.05c0,3.41-2.68,5.43-6.5,5.43A11.21,11.21,0,0,1,82,55.68Z"/><path class="cls-3" d="M120.37,40h3l8,18.33H128l-1.85-4.39h-8.61l-1.87,4.39h-3.28Zm4.58,11.1-3.15-7.28-3.12,7.28Z"/><path class="cls-3" d="M137.42,40.13h8.11A7.33,7.33,0,0,1,150.79,42a5.5,5.5,0,0,1,1.51,3.93v.05A5.47,5.47,0,0,1,148,51.44l4.91,6.89h-3.8L144.63,52h-4v6.34h-3.2Zm7.88,9c2.29,0,3.74-1.2,3.74-3v-.05c0-2-1.4-3-3.77-3h-4.65v6.11Z"/><path class="cls-3" d="M159.42,40.13h13.49V43h-10.3v4.73h9.13v2.89h-9.13v4.86H173v2.86H159.42Z"/><path class="cls-3" d="M179.62,44.6h3.46v3.56h-3.46Zm0,10.14h3.46v3.59h-3.46Z"/></g></g></svg>