<svg xmlns="http://www.w3.org/2000/svg" viewBox="0 0 429.52 584.65"><defs><style>.cls-1{isolation:isolate;}.cls-2{fill:#19191e;}</style></defs><title>4-quote</title><g id="Layer_2" data-name="Layer 2"><g id="_49-text.svg" data-name=" 49-text.svg"><g class="cls-1"><path class="cls-2" d="M8.75,224.6c-3.4,0-7.4-2.5-7.4-8.75,0-5.35,4.7-15,14-15,3.4,0,7.4,2.55,7.4,8.8C22.75,215,18.15,224.6,8.75,224.6Zm5.85-22.9c-5.25,0-8.55,9.2-8.55,15.1,0,4.6,1.5,6.85,3.45,6.85,5.6,0,8.55-9.15,8.55-15.1C18.05,203.95,16.4,201.7,14.6,201.7Z"/><path class="cls-2" d="M47.47,193.5c-1,0-2.8-.55-2.8-2.2,0-.7.6-1.65.75-2.7-.25-.75-.55-.85-1.1-.85-3.2,0-5.6,3.35-7.55,10.4l-1,3.5h6.3l-.55,1.65h-6.2c-1.6,6.15-3.5,14-5.2,19.4-1.2,3.85-3,7.6-6.05,10.1-2.6,2.2-4.55,2.9-7,2.9-4,0-5-2-5-4a2.63,2.63,0,0,1,2.6-2.6,2.5,2.5,0,0,1,2.7,2.4,3.63,3.63,0,0,1-1,2.35,1,1,0,0,0,1,.9c3.7,0,5.9-3.3,8.15-10.65,2.45-8.05,4.15-15.55,5.5-20.8h-5.3l.5-1.65h5.3l.55-2a19.51,19.51,0,0,1,5.85-10.15,10,10,0,0,1,7.1-2.75c3.45,0,5.1,2.2,5.1,4.25A2.67,2.67,0,0,1,47.47,193.5Z"/><path class="cls-2" d="M70.67,217.5a20.84,20.84,0,0,0-.8,3.7c0,1.65.7,2,1.65,2,2.35,0,3.8-2.35,5.45-6.6l1,.3c-1.8,4.45-3.6,7.55-7.15,7.55-3,0-4.55-1.25-4.55-4.55l-.2,0c-2,2.75-4.55,4.75-7.4,4.75-3.35,0-7-1.65-7-7.9,0-5.15,5-15.85,14.05-15.85a4.83,4.83,0,0,1,4.7,3.2h.15l3.2-10.6a12.92,12.92,0,0,0,.75-3.35c0-1.1-.9-1.45-2-1.6s-2.25-.15-3.5-.2v-1l11.35-.5Zm-5.1-15.6c-5.2,0-9.2,9.9-9.2,15.85,0,4.6,1.75,5.15,3,5.15,2.85,0,5.3-2.2,6.85-4.8L70,205.8C69.17,203,67.92,201.9,65.57,201.9Z"/><path class="cls-2" d="M86.71,224.45c-2.15,0-5.2-.85-5.2-3.9a12,12,0,0,1,1-4.15l3.35-8.5a18.08,18.08,0,0,0,1.15-4c0-1.45-.7-1.9-1.65-1.9-2.35,0-3.75,2.5-5.4,6.75l-1-.35c1.8-4.4,3.5-7.6,7.1-7.6,2.15,0,5,1.3,5,4.25a19.19,19.19,0,0,1-1.55,5l-2.85,7.35a13.81,13.81,0,0,0-1.15,4c0,1.6.9,1.75,1.8,1.75,2.4,0,3.9-2.35,5.55-6.6l.9.3C92,221.35,90.21,224.45,86.71,224.45Zm4.5-29.65a2.5,2.5,0,0,1-2.5-2.8,3.34,3.34,0,0,1,3.4-3.5,2.54,2.54,0,0,1,2.3,2.75A3.25,3.25,0,0,1,91.21,194.8Z"/><path class="cls-2" d="M118.09,205.55c-1.6,0-1.85-1-1.85-3.1a4.89,4.89,0,0,0-3.1.85v.3a6.6,6.6,0,0,1,1,3.4c0,5-4.6,8.4-9.35,8.4h-3.15c-1,.5-2.1,1.1-2.1,2.45,0,1.85,1.65,2.05,5.35,2.45,1.5.15,4.55.5,5.55.65a5.57,5.57,0,0,1,4.9,5.6c0,4.9-4.9,9.05-14.25,9.05-6.1,0-9.15-2.3-9.15-5.5s3-5.75,8.45-6.5v-.35C98.13,222.8,96,222,96,219.8c0-3,3.45-4.3,5.05-4.8v-.25c-2.4-1.1-3.8-3-3.8-5.2,0-5,4.4-8.7,9.75-8.7,3.35,0,5.75,1.45,6.4,1.45,1.75-.85,2.6-1.45,4.7-1.45a2.37,2.37,0,0,1,2.3,2.35A2.25,2.25,0,0,1,118.09,205.55Zm-8.6,19.25a44.38,44.38,0,0,0-8.05-.8c-3.4.85-5.2,2.9-5.2,5.9,0,2,1.55,4.7,6.1,4.7,5.55,0,9-2.6,9-7C111.34,226.7,110.73,225.1,109.48,224.8Zm-2.8-23.15c-3.9,0-5.05,5.65-5.05,8.3,0,2.35,1.2,4.65,3.05,4.65,3.75,0,5.25-5.85,5.25-8.9C109.94,203.6,108.84,201.65,106.69,201.65Z"/><path class="cls-2" d="M127.84,224.45c-2.15,0-5.2-.85-5.2-3.9a12,12,0,0,1,1-4.15l3.35-8.5a18.08,18.08,0,0,0,1.15-4c0-1.45-.7-1.9-1.65-1.9-2.35,0-3.75,2.5-5.4,6.75l-1-.35c1.8-4.4,3.5-7.6,7.1-7.6,2.15,0,5,1.3,5,4.25a19.19,19.19,0,0,1-1.55,5l-2.85,7.35a13.81,13.81,0,0,0-1.15,4c0,1.6.9,1.75,1.8,1.75,2.4,0,3.9-2.35,5.55-6.6l.9.3C133.15,221.35,131.34,224.45,127.84,224.45Zm4.5-29.65a2.5,2.5,0,0,1-2.5-2.8,3.34,3.34,0,0,1,3.4-3.5,2.54,2.54,0,0,1,2.3,2.75A3.25,3.25,0,0,1,132.34,194.8Z"/><path class="cls-2" d="M152.94,203.3h-6.35c-1.35,4.55-3.75,12.55-4.2,14.3a24.2,24.2,0,0,0-1,3.8c0,1.6,1,1.8,1.85,1.8,2.4,0,4.2-2.45,5.85-6.7l1,.3c-1.8,4.45-4,7.65-7.45,7.65-2.15,0-5.2-.8-5.2-3.85a11.35,11.35,0,0,1,.5-2.9c.6-2.25,4-13.25,4.3-14.4h-4.8l.55-1.65h4.85l2.2-7.75h4.35l-2.3,7.75h6.4Z"/><path class="cls-2" d="M171.36,224.45c-3,0-4.7-1.3-4.7-4.65l-.2,0c-1.9,2.75-4.15,4.85-7,4.85-3.35,0-6.85-1.65-6.85-7.9,0-5.15,4.9-15.85,13.9-15.85a4.28,4.28,0,0,1,4.5,3.65h.15l1.15-3.35h4.5l-5.65,16.35a14.55,14.55,0,0,0-.8,3.7c0,1.65.75,2,1.7,2,2.35,0,3.8-2.35,5.45-6.6l1,.3C176.72,221.35,174.91,224.45,171.36,224.45Zm-5-22.55c-5.15,0-9.05,9.9-9.05,15.85,0,4.6,1.6,5.15,2.9,5.15,2.85,0,5-2.3,6.55-4.9l3.8-11.65C170,203.3,168.76,201.9,166.36,201.9Z"/><path class="cls-2" d="M185.41,217.6a16.49,16.49,0,0,0-1,3.8c0,1.6.85,1.8,1.75,1.8,2.4,0,4-2.35,5.6-6.6l.9.3c-1.8,4.45-3.6,7.55-7.15,7.55-2.15,0-5.1-.8-5.1-3.85a16.3,16.3,0,0,1,.9-4.2l7.25-23a11.39,11.39,0,0,0,.7-3.35c0-1.1-.9-1.45-2-1.6-1.25-.15-1.8-.15-3-.2v-1l11-.5Z"/><path class="cls-2" d="M212.06,217.6a16.49,16.49,0,0,0-1,3.8c0,1.6.85,1.8,1.75,1.8,2.4,0,4-2.35,5.6-6.6l.9.3c-1.8,4.45-3.6,7.55-7.15,7.55-2.15,0-5.1-.8-5.1-3.85a16.3,16.3,0,0,1,.9-4.2l7.25-23a11.39,11.39,0,0,0,.7-3.35c0-1.1-.9-1.45-2-1.6-1.25-.15-1.8-.15-3-.2v-1l11-.5Z"/><path class="cls-2" d="M226.8,213.2a24.6,24.6,0,0,0-.75,4.7c0,3.4,1.1,5,3.7,5,3.65,0,6-2.9,8.1-6.7l.9.45c-3.1,5.9-6.5,7.9-9.75,7.9-3.55,0-7.65-1.65-7.65-8,0-5.15,5-15.75,14.3-15.75,2.25,0,4.25,1.1,4.25,3.35C239.9,209.6,231.7,212.45,226.8,213.2Zm7.45-11.35c-2.9,0-5.85,5.3-7.2,10.3,7-1.25,9.4-5.35,9.4-7.65C236.45,202.9,235.85,201.85,234.25,201.85Z"/><path class="cls-2" d="M260.13,224.45c-3,0-4.7-1.3-4.7-4.65l-.2,0c-1.9,2.75-4.15,4.85-7,4.85-3.35,0-6.85-1.65-6.85-7.9,0-5.15,4.9-15.85,13.9-15.85a4.28,4.28,0,0,1,4.5,3.65h.15l1.15-3.35h4.5l-5.65,16.35a14.55,14.55,0,0,0-.8,3.7c0,1.65.75,2,1.7,2,2.35,0,3.8-2.35,5.45-6.6l1,.3C265.48,221.35,263.68,224.45,260.13,224.45Zm-5-22.55c-5.15,0-9.05,9.9-9.05,15.85,0,4.6,1.6,5.15,2.9,5.15,2.85,0,5-2.3,6.55-4.9l3.8-11.65C258.73,203.3,257.53,201.9,255.13,201.9Z"/><path class="cls-2" d="M288.18,217.5a20.84,20.84,0,0,0-.8,3.7c0,1.65.7,2,1.65,2,2.35,0,3.8-2.35,5.45-6.6l1,.3c-1.8,4.45-3.6,7.55-7.15,7.55-3,0-4.55-1.25-4.55-4.55l-.2,0c-2,2.75-4.55,4.75-7.4,4.75-3.35,0-7-1.65-7-7.9,0-5.15,5-15.85,14.05-15.85a4.83,4.83,0,0,1,4.7,3.2h.15l3.2-10.6a12.93,12.93,0,0,0,.75-3.35c0-1.1-.9-1.45-2.05-1.6s-2.25-.15-3.5-.2v-1l11.35-.5Zm-5.1-15.6c-5.2,0-9.2,9.9-9.2,15.85,0,4.6,1.75,5.15,3,5.15,2.85,0,5.3-2.2,6.85-4.8l3.75-12.3C286.68,203,285.43,201.9,283.08,201.9Z"/><path class="cls-2" d="M302.9,213.2a24.6,24.6,0,0,0-.75,4.7c0,3.4,1.1,5,3.7,5,3.65,0,6-2.9,8.1-6.7l.9.45c-3.1,5.9-6.5,7.9-9.75,7.9-3.55,0-7.65-1.65-7.65-8,0-5.15,5-15.75,14.3-15.75,2.25,0,4.25,1.1,4.25,3.35C316,209.6,307.8,212.45,302.9,213.2Zm7.45-11.35c-2.9,0-5.85,5.3-7.2,10.3,7-1.25,9.4-5.35,9.4-7.65C312.55,202.9,312,201.85,310.35,201.85Z"/><path class="cls-2" d="M336,207c-1.75,0-2.45-1-2.45-2.1s1.15-1.7,1.15-2.15,0-.65-.75-.65c-1.75,0-4.05,3.8-5.5,6.45l-4.7,15.3h-4.45l5-16a24,24,0,0,0,1-4c0-1.45-.45-1.8-1.4-1.8-2.35,0-3.8,2.65-5.4,6.75l-1-.35c1.8-4.4,3.55-7.6,7.1-7.6,2.15,0,4.25,1.4,4.25,5.05l.2,0c1.65-2.55,3.15-5.1,6.35-5.1a3.05,3.05,0,0,1,3.25,3.05C338.63,205.45,337.78,207,336,207Z"/><path class="cls-2" d="M352.63,209.25c-1.25,0-2.45-.6-2.45-2,0-2,2.6-2.6,2.8-3.15-.1-.65-.9-2.2-4.25-2.2a4.08,4.08,0,0,0-4,4.15c0,4.85,8.25,5.15,8.25,11.55,0,3.6-4.15,7.05-8.6,7.05-5.5,0-7.45-3.4-7.45-5.8,0-1.85,1.35-3.45,2.75-3.45,2.2,0,2.65,1.4,2.65,2.2a2.08,2.08,0,0,1-2.2,2.2c-.9,0-1.35,0-1.35.7,0,1.55,2.5,3.1,5,3.1,2.9,0,5.55-1.25,5.55-4,0-5.7-8.35-5.7-8.35-12,0-3.2,3.7-6.8,7.75-6.8,5.45,0,6.2,4,6.2,5.25C355,207.95,354.08,209.25,352.63,209.25Z"/><path class="cls-2" d="M16,281.25c-1.25,0-2.45-.6-2.45-2,0-2,2.6-2.6,2.8-3.15-.1-.65-.9-2.2-4.25-2.2a4.08,4.08,0,0,0-4,4.15c0,4.85,8.25,5.15,8.25,11.55,0,3.6-4.15,7.05-8.6,7.05-5.5,0-7.45-3.4-7.45-5.8,0-1.85,1.35-3.45,2.75-3.45,2.2,0,2.65,1.4,2.65,2.2a2.08,2.08,0,0,1-2.2,2.2c-.9,0-1.35,0-1.35.7,0,1.55,2.5,3.1,5,3.1,2.9,0,5.55-1.25,5.55-4,0-5.7-8.35-5.7-8.35-12,0-3.2,3.7-6.8,7.75-6.8,5.45,0,6.2,4,6.2,5.25C18.3,279.95,17.4,281.25,16,281.25Z"/><path class="cls-2" d="M39,296.45c-3,0-4.7-1.3-4.7-4.65l-.2,0c-1.9,2.75-4.15,4.85-7,4.85-3.35,0-6.85-1.65-6.85-7.9,0-5.15,4.9-15.85,13.9-15.85a4.28,4.28,0,0,1,4.5,3.65h.15L40,273.15h4.5L38.84,289.5a14.55,14.55,0,0,0-.8,3.7c0,1.65.75,2,1.7,2,2.35,0,3.8-2.35,5.45-6.6l1,.3C44.39,293.35,42.59,296.45,39,296.45ZM34,273.9c-5.15,0-9.05,9.9-9.05,15.85,0,4.6,1.6,5.15,2.9,5.15,2.85,0,5-2.3,6.55-4.9l3.8-11.65C37.64,275.3,36.44,273.9,34,273.9Z"/><path class="cls-2" d="M68,290.6c-3.8,12.25-10.35,17.25-17.35,17.25-5.8,0-6.6-3.3-6.6-4.7a3.1,3.1,0,0,1,3.3-3.45,2.29,2.29,0,0,1,2.3,2.1c0,3.9-2.8,1.6-3.15,3.35.15,1.9,2.7,1.75,3.85,1.75,4.75,0,9.55-4.35,12.9-14.65l-.2,0c-1.75,2.25-4.25,4.3-7.1,4.3a5.7,5.7,0,0,1-5.8-5.6,13.15,13.15,0,0,1,1-3.75L54,279.9a13.75,13.75,0,0,0,1.1-4.15c0-1.45-.5-1.7-1.45-1.7-2.35,0-3.8,2.5-5.45,6.75l-.9-.35c1.75-4.4,3.5-7.6,7.05-7.6,2.15,0,5,1.1,5,3.9a13,13,0,0,1-1.1,4.25l-3.1,7.7a12.32,12.32,0,0,0-1,3.65c0,2.15,1.2,2.5,2.5,2.5,2.75,0,5.4-2.35,7-4.65l5.15-16.6h4.45Z"/><path class="cls-2" d="M102.76,275.3H96.41c-1.35,4.55-3.75,12.55-4.2,14.3a24.2,24.2,0,0,0-1,3.8c0,1.6,1,1.8,1.85,1.8,2.4,0,4.2-2.45,5.85-6.7l1,.3c-1.8,4.45-4,7.65-7.45,7.65-2.15,0-5.2-.8-5.2-3.85a11.35,11.35,0,0,1,.5-2.9c.6-2.25,4-13.25,4.3-14.4h-4.8l.55-1.65h4.85l2.2-7.75h4.35l-2.3,7.75h6.4Z"/><path class="cls-2" d="M120.74,296.45c-2.15,0-5.35-.85-5.35-3.9a12.38,12.38,0,0,1,1-4.15l3-7.8a12.22,12.22,0,0,0,1-3.65c0-2.1-1.15-2.5-2.5-2.5-2.7,0-5.25,2-7.55,6.2l-4.75,15.25h-4.4l9.6-30.45a11.09,11.09,0,0,0,.7-3.35c0-1.1-.85-1.45-1.95-1.6-1.3-.15-1.8-.15-3-.2v-1l10.9-.5-6,18.1.2,0c1.9-2.4,4.15-4.1,7-4.1a5.63,5.63,0,0,1,5.75,5.6,14.81,14.81,0,0,1-1,3.7l-2.75,7.35a15.26,15.26,0,0,0-1.1,4c0,1.6,1,1.7,1.85,1.7,2.4,0,3.85-2.35,5.5-6.6l.9.3C126,293.35,124.24,296.45,120.74,296.45Z"/><path class="cls-2" d="M148.56,296.45c-3,0-4.7-1.3-4.7-4.65l-.2,0c-1.9,2.75-4.15,4.85-7,4.85-3.35,0-6.85-1.65-6.85-7.9,0-5.15,4.9-15.85,13.9-15.85a4.28,4.28,0,0,1,4.5,3.65h.15l1.15-3.35H154l-5.65,16.35a14.55,14.55,0,0,0-.8,3.7c0,1.65.75,2,1.7,2,2.35,0,3.8-2.35,5.45-6.6l1,.3C153.91,293.35,152.11,296.45,148.56,296.45Zm-5-22.55c-5.15,0-9.05,9.9-9.05,15.85,0,4.6,1.6,5.15,2.9,5.15,2.85,0,5-2.3,6.55-4.9l3.8-11.65C147.16,275.3,146,273.9,143.56,273.9Z"/><path class="cls-2" d="M173.6,275.3h-6.35c-1.35,4.55-3.75,12.55-4.2,14.3a24.2,24.2,0,0,0-1,3.8c0,1.6,1,1.8,1.85,1.8,2.4,0,4.2-2.45,5.85-6.7l1,.3c-1.8,4.45-4,7.65-7.45,7.65-2.15,0-5.2-.8-5.2-3.85a11.35,11.35,0,0,1,.5-2.9c.6-2.25,4-13.25,4.3-14.4h-4.8l.55-1.65h4.85l2.2-7.75h4.35l-2.3,7.75h6.4Z"/><path class="cls-2" d="M204.65,289.5a20.84,20.84,0,0,0-.8,3.7c0,1.65.7,2,1.65,2,2.35,0,3.8-2.35,5.45-6.6l1,.3c-1.8,4.45-3.6,7.55-7.15,7.55-3,0-4.55-1.25-4.55-4.55l-.2,0c-2,2.75-4.55,4.75-7.4,4.75-3.35,0-7-1.65-7-7.9,0-5.15,5-15.85,14.05-15.85a4.83,4.83,0,0,1,4.7,3.2h.15l3.2-10.6a12.92,12.92,0,0,0,.75-3.35c0-1.1-.9-1.45-2-1.6s-2.25-.15-3.5-.2v-1l11.35-.5Zm-5.1-15.6c-5.2,0-9.2,9.9-9.2,15.85,0,4.6,1.75,5.15,3,5.15,2.85,0,5.3-2.2,6.85-4.8L204,277.8C203.15,275,201.9,273.9,199.55,273.9Z"/><path class="cls-2" d="M220.7,296.45c-2.15,0-5.2-.85-5.2-3.9a12,12,0,0,1,1-4.15l3.35-8.5a18.08,18.08,0,0,0,1.15-4c0-1.45-.7-1.9-1.65-1.9-2.35,0-3.75,2.5-5.4,6.75l-1-.35c1.8-4.4,3.5-7.6,7.1-7.6,2.15,0,5,1.3,5,4.25a19.19,19.19,0,0,1-1.55,5l-2.85,7.35a13.81,13.81,0,0,0-1.15,4c0,1.6.9,1.75,1.8,1.75,2.4,0,3.9-2.35,5.55-6.6l.9.3C226,293.35,224.2,296.45,220.7,296.45Zm4.5-29.65a2.5,2.5,0,0,1-2.5-2.8,3.34,3.34,0,0,1,3.4-3.5,2.54,2.54,0,0,1,2.3,2.75A3.25,3.25,0,0,1,225.2,266.8Z"/><path class="cls-2" d="M252.07,277.55c-1.6,0-1.85-1-1.85-3.1a4.89,4.89,0,0,0-3.1.85v.3a6.6,6.6,0,0,1,1,3.4c0,5-4.6,8.4-9.35,8.4h-3.15c-1,.5-2.1,1.1-2.1,2.45,0,1.85,1.65,2.05,5.35,2.45,1.5.15,4.55.5,5.55.65a5.57,5.57,0,0,1,4.9,5.6c0,4.9-4.9,9.05-14.25,9.05-6.1,0-9.15-2.3-9.15-5.5s3-5.75,8.45-6.5v-.35c-2.25-.45-4.4-1.25-4.4-3.45,0-3,3.45-4.3,5.05-4.8v-.25c-2.4-1.1-3.8-3-3.8-5.2,0-5,4.4-8.7,9.75-8.7,3.35,0,5.75,1.45,6.4,1.45,1.75-.85,2.6-1.45,4.7-1.45a2.37,2.37,0,0,1,2.3,2.35A2.25,2.25,0,0,1,252.07,277.55Zm-8.6,19.25a44.38,44.38,0,0,0-8.05-.8c-3.4.85-5.2,2.9-5.2,5.9,0,2,1.55,4.7,6.1,4.7,5.55,0,9-2.6,9-7C245.32,298.7,244.72,297.1,243.47,296.8Zm-2.8-23.15c-3.9,0-5.05,5.65-5.05,8.3,0,2.35,1.2,4.65,3.05,4.65,3.75,0,5.25-5.85,5.25-8.9C243.92,275.6,242.82,273.65,240.67,273.65Z"/><path class="cls-2" d="M261.83,296.45c-2.15,0-5.2-.85-5.2-3.9a12,12,0,0,1,1-4.15l3.35-8.5a18.08,18.08,0,0,0,1.15-4c0-1.45-.7-1.9-1.65-1.9-2.35,0-3.75,2.5-5.4,6.75l-1-.35c1.8-4.4,3.5-7.6,7.1-7.6,2.15,0,5,1.3,5,4.25a19.19,19.19,0,0,1-1.55,5l-2.85,7.35a13.81,13.81,0,0,0-1.15,4c0,1.6.9,1.75,1.8,1.75,2.4,0,3.9-2.35,5.55-6.6l.9.3C267.13,293.35,265.33,296.45,261.83,296.45Zm4.5-29.65a2.5,2.5,0,0,1-2.5-2.8,3.34,3.34,0,0,1,3.4-3.5,2.54,2.54,0,0,1,2.3,2.75A3.25,3.25,0,0,1,266.33,266.8Z"/><path class="cls-2" d="M286.92,275.3h-6.35c-1.35,4.55-3.75,12.55-4.2,14.3a24.2,24.2,0,0,0-1,3.8c0,1.6,1,1.8,1.85,1.8,2.4,0,4.2-2.45,5.85-6.7l1,.3c-1.8,4.45-4,7.65-7.45,7.65-2.15,0-5.2-.8-5.2-3.85a11.35,11.35,0,0,1,.5-2.9c.6-2.25,4-13.25,4.3-14.4h-4.8l.55-1.65h4.85l2.2-7.75h4.35l-2.3,7.75h6.4Z"/><path class="cls-2" d="M305.35,296.45c-3,0-4.7-1.3-4.7-4.65l-.2,0c-1.9,2.75-4.15,4.85-7,4.85-3.35,0-6.85-1.65-6.85-7.9,0-5.15,4.9-15.85,13.9-15.85a4.28,4.28,0,0,1,4.5,3.65h.15l1.15-3.35h4.5l-5.65,16.35a14.55,14.55,0,0,0-.8,3.7c0,1.65.75,2,1.7,2,2.35,0,3.8-2.35,5.45-6.6l1,.3C310.7,293.35,308.9,296.45,305.35,296.45Zm-5-22.55c-5.15,0-9.05,9.9-9.05,15.85,0,4.6,1.6,5.15,2.9,5.15,2.85,0,5-2.3,6.55-4.9l3.8-11.65C303.95,275.3,302.75,273.9,300.35,273.9Z"/><path class="cls-2" d="M319.39,289.6a16.49,16.49,0,0,0-1,3.8c0,1.6.85,1.8,1.75,1.8,2.4,0,4-2.35,5.6-6.6l.9.3c-1.8,4.45-3.6,7.55-7.15,7.55-2.15,0-5.1-.8-5.1-3.85a16.3,16.3,0,0,1,.9-4.2l7.25-23a11.39,11.39,0,0,0,.7-3.35c0-1.1-.9-1.45-2-1.6-1.25-.15-1.8-.15-3-.2v-1l11-.5Z"/><path class="cls-2" d="M17.7,347.3H11.35c-1.35,4.55-3.75,12.55-4.2,14.3a24.2,24.2,0,0,0-1,3.8c0,1.6,1,1.8,1.85,1.8,2.4,0,4.2-2.45,5.85-6.7l1,.3c-1.8,4.45-4,7.65-7.45,7.65-2.15,0-5.2-.8-5.2-3.85a11.35,11.35,0,0,1,.5-2.9c.6-2.25,4-13.25,4.3-14.4H2.2l.55-1.65H7.6l2.2-7.75h4.35l-2.3,7.75h6.4Z"/><path class="cls-2" d="M36.36,351c-1.75,0-2.45-1-2.45-2.1s1.15-1.7,1.15-2.15,0-.65-.75-.65c-1.75,0-4.05,3.8-5.5,6.45l-4.7,15.3H19.66l5-16a24.1,24.1,0,0,0,.95-4c0-1.45-.45-1.8-1.4-1.8-2.35,0-3.8,2.65-5.4,6.75l-1-.35c1.8-4.4,3.55-7.6,7.1-7.6,2.15,0,4.25,1.4,4.25,5.05l.2,0c1.65-2.55,3.15-5.1,6.35-5.1A3.05,3.05,0,0,1,39,347.9C39,349.45,38.11,351,36.36,351Z"/><path class="cls-2" d="M57,368.45c-3,0-4.7-1.3-4.7-4.65l-.2,0c-1.9,2.75-4.15,4.85-7,4.85-3.35,0-6.85-1.65-6.85-7.9,0-5.15,4.9-15.85,13.9-15.85a4.28,4.28,0,0,1,4.5,3.65h.15L58,345.15h4.5L56.84,361.5a14.55,14.55,0,0,0-.8,3.7c0,1.65.75,2,1.7,2,2.35,0,3.8-2.35,5.45-6.6l1,.3C62.39,365.35,60.59,368.45,57,368.45ZM52,345.9c-5.15,0-9.05,9.9-9.05,15.85,0,4.6,1.6,5.15,2.9,5.15,2.85,0,5-2.3,6.55-4.9l3.8-11.65C55.64,347.3,54.44,345.9,52,345.9Z"/><path class="cls-2" d="M86.52,368.45c-2.1,0-5.35-.85-5.35-3.9a12.21,12.21,0,0,1,1.1-4.15l3-7.8a13.32,13.32,0,0,0,1-3.75c0-2.1-1.15-2.4-2.45-2.4-2.7,0-5.55,2.85-7.25,6.2l-5,15.25h-4.5l5.4-16a22.61,22.61,0,0,0,.95-4c0-1.4-.45-1.8-1.4-1.8-2.35,0-3.75,2.5-5.4,6.75l-1-.35c1.8-4.4,3.55-7.6,7.1-7.6,2.15,0,4.6.8,4.6,4.55l.2,0c1.75-2.4,4.2-4.6,7.1-4.6a5.63,5.63,0,0,1,5.75,5.6,15.45,15.45,0,0,1-1,3.7l-2.8,7.35a14.82,14.82,0,0,0-1.1,3.9c0,1.6.9,1.8,1.85,1.8,2.35,0,3.85-2.35,5.5-6.6l1,.3C91.87,365.35,90.07,368.45,86.52,368.45Z"/><path class="cls-2" d="M110.89,353.25c-1.25,0-2.45-.6-2.45-2,0-2,2.6-2.6,2.8-3.15-.1-.65-.9-2.2-4.25-2.2a4.08,4.08,0,0,0-4,4.15c0,4.85,8.25,5.15,8.25,11.55,0,3.6-4.15,7.05-8.6,7.05-5.5,0-7.45-3.4-7.45-5.8,0-1.85,1.35-3.45,2.75-3.45,2.2,0,2.65,1.4,2.65,2.2a2.08,2.08,0,0,1-2.2,2.2c-.9,0-1.35,0-1.35.7,0,1.55,2.5,3.1,5,3.1,2.9,0,5.55-1.25,5.55-4,0-5.7-8.35-5.7-8.35-12,0-3.2,3.7-6.8,7.75-6.8,5.45,0,6.2,4,6.2,5.25C113.24,351.95,112.34,353.25,110.89,353.25Z"/><path class="cls-2" d="M137.77,337.5c-1,0-2.8-.55-2.8-2.2,0-.7.6-1.65.75-2.7-.25-.75-.55-.85-1.1-.85-3.2,0-5.6,3.35-7.55,10.4l-1,3.5h6.3l-.55,1.65h-6.2c-1.6,6.15-3.5,14-5.2,19.4-1.2,3.85-3,7.6-6.05,10.1-2.6,2.2-4.55,2.9-7,2.9-4,0-5-2-5-4a2.63,2.63,0,0,1,2.6-2.6,2.5,2.5,0,0,1,2.7,2.4,3.63,3.63,0,0,1-1,2.35,1,1,0,0,0,1,.9c3.7,0,5.9-3.3,8.15-10.65,2.45-8.05,4.15-15.55,5.5-20.8h-5.3l.5-1.65h5.3l.55-2a19.51,19.51,0,0,1,5.85-10.15,10,10,0,0,1,7.1-2.75c3.45,0,5.1,2.2,5.1,4.25A2.67,2.67,0,0,1,137.77,337.5Z"/><path class="cls-2" d="M136.67,368.6c-3.4,0-7.4-2.5-7.4-8.75,0-5.35,4.7-15,14-15,3.4,0,7.4,2.55,7.4,8.8C150.67,359,146.07,368.6,136.67,368.6Zm5.85-22.9c-5.25,0-8.55,9.2-8.55,15.1,0,4.6,1.5,6.85,3.45,6.85,5.6,0,8.55-9.15,8.55-15.1C146,347.95,144.32,345.7,142.52,345.7Z"/><path class="cls-2" d="M171.54,351c-1.75,0-2.45-1-2.45-2.1s1.15-1.7,1.15-2.15,0-.65-.75-.65c-1.75,0-4.05,3.8-5.5,6.45l-4.7,15.3h-4.45l5-16a24.1,24.1,0,0,0,.95-4c0-1.45-.45-1.8-1.4-1.8-2.35,0-3.8,2.65-5.4,6.75l-1-.35c1.8-4.4,3.55-7.6,7.1-7.6,2.15,0,4.25,1.4,4.25,5.05l.2,0c1.65-2.55,3.15-5.1,6.35-5.1a3.05,3.05,0,0,1,3.25,3.05C174.15,349.45,173.29,351,171.54,351Z"/><path class="cls-2" d="M208.62,368.45c-2.1,0-5.35-.85-5.35-3.9a13.16,13.16,0,0,1,1.1-4.15l3-7.8a13.32,13.32,0,0,0,1-3.75c0-2.1-1.3-2.4-2.6-2.4-2.7,0-4.75,2.4-6.35,4.75l-5.45,16.7h-4.55l5.3-16a10.38,10.38,0,0,0,.65-3c0-2.1-1.35-2.4-2.65-2.4-2.7,0-5.65,3.35-7.05,6.2l-5,15.25H176l5.4-16a22.61,22.61,0,0,0,.95-4c0-1.45-.45-1.8-1.4-1.8-2.35,0-3.75,2.5-5.4,6.75l-1-.35c1.8-4.4,3.55-7.6,7.1-7.6,2.15,0,4.6.75,4.6,4.55l.2,0c1.85-2.55,4.25-4.6,7.1-4.6,3.6,0,5.5,2.4,5.65,4.6h.2c1.7-2.25,4.1-4.6,7-4.6a5.76,5.76,0,0,1,5.9,5.6,15.45,15.45,0,0,1-1,3.7l-2.8,7.35a14.35,14.35,0,0,0-1.1,3.9c0,1.6.9,1.8,1.85,1.8,2.35,0,3.85-2.35,5.5-6.6l1,.3C214,365.35,212.17,368.45,208.62,368.45Z"/><path class="cls-2" d="M236.57,368.45c-3,0-4.7-1.3-4.7-4.65l-.2,0c-1.9,2.75-4.15,4.85-7,4.85-3.35,0-6.85-1.65-6.85-7.9,0-5.15,4.9-15.85,13.9-15.85a4.28,4.28,0,0,1,4.5,3.65h.15l1.15-3.35H242l-5.65,16.35a14.55,14.55,0,0,0-.8,3.7c0,1.65.75,2,1.7,2,2.35,0,3.8-2.35,5.45-6.6l1,.3C241.92,365.35,240.12,368.45,236.57,368.45Zm-5-22.55c-5.15,0-9.05,9.9-9.05,15.85,0,4.6,1.6,5.15,2.9,5.15,2.85,0,5-2.3,6.55-4.9l3.8-11.65C235.17,347.3,234,345.9,231.57,345.9Z"/><path class="cls-2" d="M261.61,347.3h-6.35c-1.35,4.55-3.75,12.55-4.2,14.3a24.2,24.2,0,0,0-1,3.8c0,1.6,1,1.8,1.85,1.8,2.4,0,4.2-2.45,5.85-6.7l1,.3c-1.8,4.45-4,7.65-7.45,7.65-2.15,0-5.2-.8-5.2-3.85a11.35,11.35,0,0,1,.5-2.9c.6-2.25,4-13.25,4.3-14.4h-4.8l.55-1.65h4.85l2.2-7.75h4.35l-2.3,7.75h6.4Z"/><path class="cls-2" d="M269.33,368.45c-2.15,0-5.2-.85-5.2-3.9a12,12,0,0,1,1-4.15l3.35-8.5a18.08,18.08,0,0,0,1.15-4c0-1.45-.7-1.9-1.65-1.9-2.35,0-3.75,2.5-5.4,6.75l-1-.35c1.8-4.4,3.5-7.6,7.1-7.6,2.15,0,5,1.3,5,4.25a19.19,19.19,0,0,1-1.55,5l-2.85,7.35a13.81,13.81,0,0,0-1.15,4c0,1.6.9,1.75,1.8,1.75,2.4,0,3.9-2.35,5.55-6.6l.9.3C274.63,365.35,272.83,368.45,269.33,368.45Zm4.5-29.65a2.5,2.5,0,0,1-2.5-2.8,3.34,3.34,0,0,1,3.4-3.5,2.54,2.54,0,0,1,2.3,2.75A3.25,3.25,0,0,1,273.83,338.8Z"/><path class="cls-2" d="M286.05,368.6c-3.4,0-7.4-2.5-7.4-8.75,0-5.35,4.7-15,14-15,3.4,0,7.4,2.55,7.4,8.8C300.05,359,295.45,368.6,286.05,368.6Zm5.85-22.9c-5.25,0-8.55,9.2-8.55,15.1,0,4.6,1.5,6.85,3.45,6.85,5.6,0,8.55-9.15,8.55-15.1C295.35,347.95,293.7,345.7,291.9,345.7Z"/><path class="cls-2" d="M323.43,368.45c-2.1,0-5.35-.85-5.35-3.9a12.21,12.21,0,0,1,1.1-4.15l3-7.8a13.32,13.32,0,0,0,1-3.75c0-2.1-1.15-2.4-2.45-2.4-2.7,0-5.55,2.85-7.25,6.2l-5,15.25h-4.5l5.4-16a22.61,22.61,0,0,0,.95-4c0-1.4-.45-1.8-1.4-1.8-2.35,0-3.75,2.5-5.4,6.75l-1-.35c1.8-4.4,3.55-7.6,7.1-7.6,2.15,0,4.6.8,4.6,4.55l.2,0c1.75-2.4,4.2-4.6,7.1-4.6a5.63,5.63,0,0,1,5.75,5.6,15.45,15.45,0,0,1-1,3.7l-2.8,7.35a14.82,14.82,0,0,0-1.1,3.9c0,1.6.9,1.8,1.85,1.8,2.35,0,3.85-2.35,5.5-6.6l1,.3C328.78,365.35,327,368.45,323.43,368.45Z"/><path class="cls-2" d="M351.88,368.6c-3.4,0-7.4-2.5-7.4-8.75,0-5.35,4.7-15,14-15,3.4,0,7.4,2.55,7.4,8.8C365.88,359,361.28,368.6,351.88,368.6Zm5.85-22.9c-5.25,0-8.55,9.2-8.55,15.1,0,4.6,1.5,6.85,3.45,6.85,5.6,0,8.55-9.15,8.55-15.1C361.18,347.95,359.53,345.7,357.73,345.7Z"/><path class="cls-2" d="M390.6,337.5c-1,0-2.8-.55-2.8-2.2,0-.7.6-1.65.75-2.7-.25-.75-.55-.85-1.1-.85-3.2,0-5.6,3.35-7.55,10.4l-1,3.5h6.3l-.55,1.65h-6.2c-1.6,6.15-3.5,14-5.2,19.4-1.2,3.85-3,7.6-6.05,10.1-2.6,2.2-4.55,2.9-7,2.9-4,0-5-2-5-4a2.63,2.63,0,0,1,2.6-2.6,2.5,2.5,0,0,1,2.7,2.4,3.63,3.63,0,0,1-1,2.35,1,1,0,0,0,1,.9c3.7,0,5.9-3.3,8.15-10.65,2.45-8.05,4.15-15.55,5.5-20.8h-5.3l.5-1.65h5.3l.55-2a19.51,19.51,0,0,1,5.85-10.15,10,10,0,0,1,7.1-2.75c3.45,0,5.1,2.2,5.1,4.25A2.67,2.67,0,0,1,390.6,337.5Z"/><path class="cls-2" d="M17.15,424.7a2.42,2.42,0,0,1-2.65-2.25c0-1,1-2.15,2.55-3-.25-1.3-1.1-1.8-2.9-1.8-4.35,0-8.3,10.05-8.3,16.05,0,3.35,1,5.2,3.6,5.2,3.65,0,6.15-2.9,8.2-6.7l1,.45c-3.2,5.9-6.7,7.9-10,7.9-3.5,0-7.5-1.55-7.5-7.9,0-5.15,5-15.85,13.45-15.85a4.77,4.77,0,0,1,5.1,4.5C19.7,423,18.85,424.7,17.15,424.7Z"/><path class="cls-2" d="M42.1,440.45c-2.8,0-4.75-1.1-4.75-4.65l-.2,0c-1.75,2.5-4.45,4.8-7.3,4.8a5.7,5.7,0,0,1-5.8-5.6,13.32,13.32,0,0,1,1-3.7l2.85-7.35a12.86,12.86,0,0,0,1.05-4c0-1.45-.55-1.8-1.5-1.8-2.35,0-3.75,2.5-5.4,6.75l-.9-.35c1.75-4.4,3.45-7.5,7-7.5,2.15,0,5,1.1,5,3.9a12.26,12.26,0,0,1-1,4.15l-3.05,7.8a12.06,12.06,0,0,0-1,3.6c0,2.15,1.15,2.55,2.45,2.55,2.75,0,5.45-2.6,7-5.35l5-16h4.6L42,433.5a21.77,21.77,0,0,0-.8,3.6c0,1.65.7,2.1,1.65,2.1,2.35,0,3.8-2.35,5.45-6.6l1,.3C47.45,437.35,45.65,440.45,42.1,440.45Z"/><path class="cls-2" d="M66.45,425.25c-1.25,0-2.45-.6-2.45-2,0-2,2.6-2.6,2.8-3.15-.1-.65-.9-2.2-4.25-2.2a4.08,4.08,0,0,0-4,4.15c0,4.85,8.25,5.15,8.25,11.55,0,3.6-4.15,7.05-8.6,7.05-5.5,0-7.45-3.4-7.45-5.8,0-1.85,1.35-3.45,2.75-3.45,2.2,0,2.65,1.4,2.65,2.2a2.08,2.08,0,0,1-2.2,2.2c-.9,0-1.35,0-1.35.7,0,1.55,2.5,3.1,5,3.1,2.9,0,5.55-1.25,5.55-4,0-5.7-8.35-5.7-8.35-12,0-3.2,3.7-6.8,7.75-6.8,5.45,0,6.2,4,6.2,5.25C68.8,423.95,67.9,425.25,66.45,425.25Z"/><path class="cls-2" d="M87.06,419.3H80.71c-1.35,4.55-3.75,12.55-4.2,14.3a24.2,24.2,0,0,0-1,3.8c0,1.6,1,1.8,1.85,1.8,2.4,0,4.2-2.45,5.85-6.7l1,.3c-1.8,4.45-4,7.65-7.45,7.65-2.15,0-5.2-.8-5.2-3.85a11.35,11.35,0,0,1,.5-2.9c.6-2.25,4-13.25,4.3-14.4h-4.8l.55-1.65H77l2.2-7.75h4.35l-2.3,7.75h6.4Z"/><path class="cls-2" d="M94.23,440.6c-3.4,0-7.4-2.5-7.4-8.75,0-5.35,4.7-15,14-15,3.4,0,7.4,2.55,7.4,8.8C108.23,431,103.63,440.6,94.23,440.6Zm5.85-22.9c-5.25,0-8.55,9.2-8.55,15.1,0,4.6,1.5,6.85,3.45,6.85,5.6,0,8.55-9.15,8.55-15.1C103.53,419.95,101.88,417.7,100.08,417.7Z"/><path class="cls-2" d="M144.6,440.45c-2.1,0-5.35-.85-5.35-3.9a13.16,13.16,0,0,1,1.1-4.15l3-7.8a13.32,13.32,0,0,0,1-3.75c0-2.1-1.3-2.4-2.6-2.4-2.7,0-4.75,2.4-6.35,4.75l-5.45,16.7H125.3l5.3-16a10.38,10.38,0,0,0,.65-3c0-2.1-1.35-2.4-2.65-2.4-2.7,0-5.65,3.35-7.05,6.2l-5,15.25H112l5.4-16a22.54,22.54,0,0,0,1-4c0-1.45-.45-1.8-1.4-1.8-2.35,0-3.75,2.5-5.4,6.75l-1-.35c1.8-4.4,3.55-7.6,7.1-7.6,2.15,0,4.6.75,4.6,4.55l.2,0c1.85-2.55,4.25-4.6,7.1-4.6,3.6,0,5.5,2.4,5.65,4.6h.2c1.7-2.25,4.1-4.6,7-4.6a5.76,5.76,0,0,1,5.9,5.6,15.45,15.45,0,0,1-1,3.7l-2.8,7.35a14.35,14.35,0,0,0-1.1,3.9c0,1.6.9,1.8,1.85,1.8,2.35,0,3.85-2.35,5.5-6.6l1,.3C150,437.35,148.15,440.45,144.6,440.45Z"/><path class="cls-2" d="M159.25,429.2a24.6,24.6,0,0,0-.75,4.7c0,3.4,1.1,5,3.7,5,3.65,0,6-2.9,8.1-6.7l.9.45c-3.1,5.9-6.5,7.9-9.75,7.9-3.55,0-7.65-1.65-7.65-8,0-5.15,5-15.75,14.3-15.75,2.25,0,4.25,1.1,4.25,3.35C172.35,425.6,164.15,428.45,159.25,429.2Zm7.45-11.35c-2.9,0-5.85,5.3-7.2,10.3,7-1.25,9.4-5.35,9.4-7.65C168.9,418.9,168.3,417.85,166.7,417.85Z"/><path class="cls-2" d="M192.38,423c-1.75,0-2.45-1-2.45-2.1s1.15-1.7,1.15-2.15,0-.65-.75-.65c-1.75,0-4.05,3.8-5.5,6.45l-4.7,15.3h-4.45l5-16a24,24,0,0,0,1-4c0-1.45-.45-1.8-1.4-1.8-2.35,0-3.8,2.65-5.4,6.75l-1-.35c1.8-4.4,3.55-7.6,7.1-7.6,2.15,0,4.25,1.4,4.25,5.05l.2,0c1.65-2.55,3.15-5.1,6.35-5.1A3.05,3.05,0,0,1,195,419.9C195,421.45,194.13,423,192.38,423Z"/><path class="cls-2" d="M212.08,429.2a24.6,24.6,0,0,0-.75,4.7c0,3.4,1.1,5,3.7,5,3.65,0,6-2.9,8.1-6.7l.9.45c-3.1,5.9-6.5,7.9-9.75,7.9-3.55,0-7.65-1.65-7.65-8,0-5.15,5-15.75,14.3-15.75,2.25,0,4.25,1.1,4.25,3.35C225.18,425.6,217,428.45,212.08,429.2Zm7.45-11.35c-2.9,0-5.85,5.3-7.2,10.3,7-1.25,9.4-5.35,9.4-7.65C221.73,418.9,221.13,417.85,219.53,417.85Z"/><path class="cls-2" d="M249.74,426.65l-.55-.55a16.51,16.51,0,0,0,1.5-6.4c0-1.25-.1-1.8-1.2-1.8-4.65,0-7.4,9.55-7.9,11.4a29.73,29.73,0,0,0-1.15,5.85c0,4.15,2.2,4,3,4,2.5,0,4.6-2.3,6.25-6.55l.9.3c-1.75,4.45-4.25,7.65-7.8,7.65-2.25,0-6.25-.15-6.25-6.65h-.3c-1.15,2.85-3.35,6.65-7.35,6.65-3,0-4-1.4-4-3.4,0-3.05,2.65-5.7,4.25-7.05l.65.6a10.76,10.76,0,0,0-1.4,5.4c0,2,0,3.15,1,3.15,4.4,0,6.9-7.7,8-11a25.52,25.52,0,0,0,1.45-6.65c0-3.3-1.6-3.5-2.5-3.5-2.4,0-4.55,2.5-6.2,6.75l-1-.35c1.8-4.4,4.15-7.6,7.7-7.6,2.15,0,5.7.35,5.7,6.1h.25c1.05-2.75,3.65-6.1,6.85-6.1,2,0,3.65.9,3.65,3.65S251.34,425.2,249.74,426.65Z"/><path class="cls-2" d="M266.16,440.55a4.91,4.91,0,0,1-4.75-3.2h-.2l-2.5,8.1a14.58,14.58,0,0,0-.7,3.35c0,1.1.9,1.45,2,1.6a26.51,26.51,0,0,0,2.75.2v1h-14.1v-1c2.3,0,3.15-.4,3.75-1.1a12.69,12.69,0,0,0,1.9-4.2l6.75-21.45a21.81,21.81,0,0,0,.85-3.7c0-1.65-.4-2.15-1.35-2.15-2.2,0-3.75,2.5-5.4,6.75l-1-.35c1.8-4.4,3.55-7.6,7.1-7.6,2.3,0,4.35,1.3,4.35,4.6l.2,0c2-2.55,4.35-4.65,7.25-4.65,3.35,0,7.1,1.6,7.1,7.85C280.21,429.9,275.16,440.55,266.16,440.55Zm6.15-22c-2.8,0-5.1,2.3-6.65,4.75l-3.85,12.35c.7,2.75,2.15,3.8,4.55,3.8,5.2,0,9.15-9.85,9.15-15.75C275.51,419.1,273.61,418.55,272.31,418.55Z"/><path class="cls-2" d="M287.72,429.2a24.6,24.6,0,0,0-.75,4.7c0,3.4,1.1,5,3.7,5,3.65,0,6-2.9,8.1-6.7l.9.45c-3.1,5.9-6.5,7.9-9.75,7.9-3.55,0-7.65-1.65-7.65-8,0-5.15,5-15.75,14.3-15.75,2.25,0,4.25,1.1,4.25,3.35C300.82,425.6,292.62,428.45,287.72,429.2Zm7.45-11.35c-2.9,0-5.85,5.3-7.2,10.3,7-1.25,9.4-5.35,9.4-7.65C297.37,418.9,296.77,417.85,295.17,417.85Z"/><path class="cls-2" d="M320.85,423c-1.75,0-2.45-1-2.45-2.1s1.15-1.7,1.15-2.15,0-.65-.75-.65c-1.75,0-4.05,3.8-5.5,6.45l-4.7,15.3h-4.45l5-16a24.1,24.1,0,0,0,.95-4c0-1.45-.45-1.8-1.4-1.8-2.35,0-3.8,2.65-5.4,6.75l-1-.35c1.8-4.4,3.55-7.6,7.1-7.6,2.15,0,4.25,1.4,4.25,5.05l.2,0c1.65-2.55,3.15-5.1,6.35-5.1a3.05,3.05,0,0,1,3.25,3.05C323.45,421.45,322.6,423,320.85,423Z"/><path class="cls-2" d="M331.48,440.45c-2.15,0-5.2-.85-5.2-3.9a12,12,0,0,1,1-4.15l3.35-8.5a18.08,18.08,0,0,0,1.15-4c0-1.45-.7-1.9-1.65-1.9-2.35,0-3.75,2.5-5.4,6.75l-1-.35c1.8-4.4,3.5-7.6,7.1-7.6,2.15,0,5,1.3,5,4.25a19.19,19.19,0,0,1-1.55,5l-2.85,7.35a13.81,13.81,0,0,0-1.15,4c0,1.6.9,1.75,1.8,1.75,2.4,0,3.9-2.35,5.55-6.6l.9.3C336.78,437.35,335,440.45,331.48,440.45ZM336,410.8a2.5,2.5,0,0,1-2.5-2.8,3.34,3.34,0,0,1,3.4-3.5,2.54,2.54,0,0,1,2.3,2.75A3.25,3.25,0,0,1,336,410.8Z"/><path class="cls-2" d="M346.16,429.2a24.6,24.6,0,0,0-.75,4.7c0,3.4,1.1,5,3.7,5,3.65,0,6-2.9,8.1-6.7l.9.45c-3.1,5.9-6.5,7.9-9.75,7.9-3.55,0-7.65-1.65-7.65-8,0-5.15,5-15.75,14.3-15.75,2.25,0,4.25,1.1,4.25,3.35C359.26,425.6,351.06,428.45,346.16,429.2Zm7.45-11.35c-2.9,0-5.85,5.3-7.2,10.3,7-1.25,9.4-5.35,9.4-7.65C355.81,418.9,355.21,417.85,353.61,417.85Z"/><path class="cls-2" d="M381.79,440.45c-2.1,0-5.35-.85-5.35-3.9a12.21,12.21,0,0,1,1.1-4.15l3-7.8a13.32,13.32,0,0,0,1-3.75c0-2.1-1.15-2.4-2.45-2.4-2.7,0-5.55,2.85-7.25,6.2l-5,15.25h-4.5l5.4-16a22.54,22.54,0,0,0,1-4c0-1.4-.45-1.8-1.4-1.8-2.35,0-3.75,2.5-5.4,6.75l-1-.35c1.8-4.4,3.55-7.6,7.1-7.6,2.15,0,4.6.8,4.6,4.55l.2,0c1.75-2.4,4.2-4.6,7.1-4.6a5.63,5.63,0,0,1,5.75,5.6,15.45,15.45,0,0,1-1,3.7l-2.8,7.35a14.82,14.82,0,0,0-1.1,3.9c0,1.6.9,1.8,1.85,1.8,2.35,0,3.85-2.35,5.5-6.6l1,.3C387.14,437.35,385.34,440.45,381.79,440.45Z"/><path class="cls-2" d="M407,424.7a2.42,2.42,0,0,1-2.65-2.25c0-1,1-2.15,2.55-3-.25-1.3-1.1-1.8-2.9-1.8-4.35,0-8.3,10.05-8.3,16.05,0,3.35,1,5.2,3.6,5.2,3.65,0,6.15-2.9,8.2-6.7l1,.45c-3.2,5.9-6.7,7.9-10,7.9-3.5,0-7.5-1.55-7.5-7.9,0-5.15,5-15.85,13.45-15.85a4.77,4.77,0,0,1,5.1,4.5C409.51,423,408.66,424.7,407,424.7Z"/><path class="cls-2" d="M416.41,429.2a24.6,24.6,0,0,0-.75,4.7c0,3.4,1.1,5,3.7,5,3.65,0,6-2.9,8.1-6.7l.9.45c-3.1,5.9-6.5,7.9-9.75,7.9-3.55,0-7.65-1.65-7.65-8,0-5.15,5-15.75,14.3-15.75,2.25,0,4.25,1.1,4.25,3.35C429.52,425.6,421.31,428.45,416.41,429.2Zm7.45-11.35c-2.9,0-5.85,5.3-7.2,10.3,7-1.25,9.4-5.35,9.4-7.65C426.06,418.9,425.47,417.85,423.86,417.85Z"/><path class="cls-2" d="M8.65,512.45c-2.15,0-5.2-.85-5.2-3.9a12,12,0,0,1,1-4.15l3.35-8.5a18.08,18.08,0,0,0,1.15-4c0-1.45-.7-1.9-1.65-1.9-2.35,0-3.75,2.5-5.4,6.75l-1-.35c1.8-4.4,3.5-7.6,7.1-7.6,2.15,0,5,1.3,5,4.25a19.19,19.19,0,0,1-1.55,5L8.65,505.5a13.81,13.81,0,0,0-1.15,4c0,1.6.9,1.75,1.8,1.75,2.4,0,3.9-2.35,5.55-6.6l.9.3C14,509.35,12.15,512.45,8.65,512.45Zm4.5-29.65a2.5,2.5,0,0,1-2.5-2.8,3.34,3.34,0,0,1,3.4-3.5,2.54,2.54,0,0,1,2.3,2.75A3.25,3.25,0,0,1,13.15,482.8Z"/><path class="cls-2" d="M33.08,497.25c-1.25,0-2.45-.6-2.45-2,0-2,2.6-2.6,2.8-3.15-.1-.65-.9-2.2-4.25-2.2a4.08,4.08,0,0,0-4,4.15c0,4.85,8.25,5.15,8.25,11.55,0,3.6-4.15,7.05-8.6,7.05-5.5,0-7.45-3.4-7.45-5.8,0-1.85,1.35-3.45,2.75-3.45,2.2,0,2.65,1.4,2.65,2.2a2.08,2.08,0,0,1-2.2,2.2c-.9,0-1.35,0-1.35.7,0,1.55,2.5,3.1,5,3.1,2.9,0,5.55-1.25,5.55-4,0-5.7-8.35-5.7-8.35-12,0-3.2,3.7-6.8,7.75-6.8,5.45,0,6.2,4,6.2,5.25C35.43,495.95,34.53,497.25,33.08,497.25Z"/><path class="cls-2" d="M68.23,512.45c-3,0-4.7-1.3-4.7-4.65l-.2,0c-1.9,2.75-4.15,4.85-7,4.85-3.35,0-6.85-1.65-6.85-7.9,0-5.15,4.9-15.85,13.9-15.85a4.28,4.28,0,0,1,4.5,3.65H68l1.15-3.35h4.5L68,505.5a14.55,14.55,0,0,0-.8,3.7c0,1.65.75,2,1.7,2,2.35,0,3.8-2.35,5.45-6.6l1,.3C73.58,509.35,71.78,512.45,68.23,512.45Zm-5-22.55c-5.15,0-9.05,9.9-9.05,15.85,0,4.6,1.6,5.15,2.9,5.15,2.85,0,5-2.3,6.55-4.9l3.8-11.65C66.83,491.3,65.63,489.9,63.23,489.9Z"/><path class="cls-2" d="M96.28,505.5a20.84,20.84,0,0,0-.8,3.7c0,1.65.7,2,1.65,2,2.35,0,3.8-2.35,5.45-6.6l1,.3c-1.8,4.45-3.6,7.55-7.15,7.55-3,0-4.55-1.25-4.55-4.55l-.2,0c-2,2.75-4.55,4.75-7.4,4.75-3.35,0-7-1.65-7-7.9,0-5.15,5-15.85,14.05-15.85A4.83,4.83,0,0,1,96,492h.15l3.2-10.6a12.93,12.93,0,0,0,.75-3.35c0-1.1-.9-1.45-2.05-1.6s-2.25-.15-3.5-.2v-1l11.35-.5Zm-5.1-15.6c-5.2,0-9.2,9.9-9.2,15.85,0,4.6,1.75,5.15,3,5.15,2.85,0,5.3-2.2,6.85-4.8l3.75-12.3C94.78,491,93.53,489.9,91.18,489.9Z"/><path class="cls-2" d="M124.56,505.5a20.84,20.84,0,0,0-.8,3.7c0,1.65.7,2,1.65,2,2.35,0,3.8-2.35,5.45-6.6l1,.3c-1.8,4.45-3.6,7.55-7.15,7.55-3,0-4.55-1.25-4.55-4.55l-.2,0c-2,2.75-4.55,4.75-7.4,4.75-3.35,0-7-1.65-7-7.9,0-5.15,5-15.85,14.05-15.85a4.83,4.83,0,0,1,4.7,3.2h.15l3.2-10.6a12.93,12.93,0,0,0,.75-3.35c0-1.1-.9-1.45-2.05-1.6s-2.25-.15-3.5-.2v-1l11.35-.5Zm-5.1-15.6c-5.2,0-9.2,9.9-9.2,15.85,0,4.6,1.75,5.15,3,5.15,2.85,0,5.3-2.2,6.85-4.8l3.75-12.3C123.06,491,121.81,489.9,119.46,489.9Z"/><path class="cls-2" d="M140.6,512.45c-2.15,0-5.2-.85-5.2-3.9a12,12,0,0,1,1-4.15l3.35-8.5a18.08,18.08,0,0,0,1.15-4c0-1.45-.7-1.9-1.65-1.9-2.35,0-3.75,2.5-5.4,6.75l-1-.35c1.8-4.4,3.5-7.6,7.1-7.6,2.15,0,5,1.3,5,4.25a19.19,19.19,0,0,1-1.55,5l-2.85,7.35a13.81,13.81,0,0,0-1.15,4c0,1.6.9,1.75,1.8,1.75,2.4,0,3.9-2.35,5.55-6.6l.9.3C145.9,509.35,144.1,512.45,140.6,512.45Zm4.5-29.65a2.5,2.5,0,0,1-2.5-2.8,3.34,3.34,0,0,1,3.4-3.5,2.54,2.54,0,0,1,2.3,2.75A3.25,3.25,0,0,1,145.1,482.8Z"/><path class="cls-2" d="M170.24,512.45c-2.1,0-5.35-.85-5.35-3.9a12.21,12.21,0,0,1,1.1-4.15l3-7.8a13.32,13.32,0,0,0,1-3.75c0-2.1-1.15-2.4-2.45-2.4-2.7,0-5.55,2.85-7.25,6.2l-5,15.25h-4.5l5.4-16a22.54,22.54,0,0,0,1-4c0-1.4-.45-1.8-1.4-1.8-2.35,0-3.75,2.5-5.4,6.75l-1-.35c1.8-4.4,3.55-7.6,7.1-7.6,2.15,0,4.6.8,4.6,4.55l.2,0c1.75-2.4,4.2-4.6,7.1-4.6a5.63,5.63,0,0,1,5.75,5.6,15.45,15.45,0,0,1-1,3.7l-2.8,7.35a14.82,14.82,0,0,0-1.1,3.9c0,1.6.9,1.8,1.85,1.8,2.35,0,3.85-2.35,5.5-6.6l1,.3C175.59,509.35,173.79,512.45,170.24,512.45Z"/><path class="cls-2" d="M201.55,493.55c-1.6,0-1.85-1-1.85-3.1a4.89,4.89,0,0,0-3.1.85v.3a6.6,6.6,0,0,1,1,3.4c0,5-4.6,8.4-9.35,8.4H185.1c-1,.5-2.1,1.1-2.1,2.45,0,1.85,1.65,2.05,5.35,2.45,1.5.15,4.55.5,5.55.65a5.57,5.57,0,0,1,4.9,5.6c0,4.9-4.9,9.05-14.25,9.05-6.1,0-9.15-2.3-9.15-5.5s3-5.75,8.45-6.5v-.35c-2.25-.45-4.4-1.25-4.4-3.45,0-3,3.45-4.3,5.05-4.8v-.25c-2.4-1.1-3.8-3-3.8-5.2,0-5,4.4-8.7,9.75-8.7,3.35,0,5.75,1.45,6.4,1.45,1.75-.85,2.6-1.45,4.7-1.45a2.37,2.37,0,0,1,2.3,2.35A2.25,2.25,0,0,1,201.55,493.55Zm-8.6,19.25a44.38,44.38,0,0,0-8.05-.8c-3.4.85-5.2,2.9-5.2,5.9,0,2,1.55,4.7,6.1,4.7,5.55,0,9-2.6,9-7C194.8,514.7,194.2,513.1,192.95,512.8Zm-2.8-23.15c-3.9,0-5.05,5.65-5.05,8.3,0,2.35,1.2,4.65,3.05,4.65,3.75,0,5.25-5.85,5.25-8.9C193.4,491.6,192.3,489.65,190.15,489.65Z"/><path class="cls-2" d="M224.45,512.6a6.36,6.36,0,0,1-6.6-6.65c0-5,3.55-9.3,9-14.1l-.3-.25c-2.45,1.5-4.5,2.4-6.35,2.4a5.32,5.32,0,0,1-2.85-.55l-1.7,4.7-1-.3,3-8.9h.7c.9,1.8,3.15,2.45,4.55,2.45a9.29,9.29,0,0,0,6.6-2.7l.8.75c-3.6,3.5-7.9,9.85-7.9,16.55,0,3.6,2.2,4.6,4,4.6,3.7,0,10-4.6,10-12.6,0-4-2.6-3.65-2.6-6.8a2.51,2.51,0,0,1,2.6-2.35c2.35,0,2.65,2.1,2.65,4C239.05,502.75,232.85,512.6,224.45,512.6Z"/><path class="cls-2" d="M259.56,512.45c-3,0-4.7-1.3-4.7-4.65l-.2,0c-1.9,2.75-4.15,4.85-7,4.85-3.35,0-6.85-1.65-6.85-7.9,0-5.15,4.9-15.85,13.9-15.85a4.28,4.28,0,0,1,4.5,3.65h.15l1.15-3.35H265l-5.65,16.35a14.55,14.55,0,0,0-.8,3.7c0,1.65.75,2,1.7,2,2.35,0,3.8-2.35,5.45-6.6l1,.3C264.91,509.35,263.11,512.45,259.56,512.45Zm-5-22.55c-5.15,0-9.05,9.9-9.05,15.85,0,4.6,1.6,5.15,2.9,5.15,2.85,0,5-2.3,6.55-4.9l3.8-11.65C258.16,491.3,257,489.9,254.56,489.9Z"/><path class="cls-2" d="M273.61,505.6a16.49,16.49,0,0,0-1,3.8c0,1.6.85,1.8,1.75,1.8,2.4,0,4-2.35,5.6-6.6l.9.3c-1.8,4.45-3.6,7.55-7.15,7.55-2.15,0-5.1-.8-5.1-3.85a16.3,16.3,0,0,1,.9-4.2l7.25-23a11.39,11.39,0,0,0,.7-3.35c0-1.1-.9-1.45-2-1.6-1.25-.15-1.8-.15-3-.2v-1l11-.5Z"/><path class="cls-2" d="M303,512.45c-2.8,0-4.75-1.1-4.75-4.65l-.2,0c-1.75,2.5-4.45,4.8-7.3,4.8a5.7,5.7,0,0,1-5.8-5.6,13.32,13.32,0,0,1,1-3.7l2.85-7.35a12.86,12.86,0,0,0,1.05-4c0-1.45-.55-1.8-1.5-1.8-2.35,0-3.75,2.5-5.4,6.75l-.9-.35c1.75-4.4,3.45-7.5,7-7.5,2.15,0,5,1.1,5,3.9a12.26,12.26,0,0,1-1,4.15L290,504.8a12.06,12.06,0,0,0-1,3.6c0,2.15,1.15,2.55,2.45,2.55,2.75,0,5.45-2.6,7-5.35l5-16h4.6l-5.25,15.9a21.77,21.77,0,0,0-.8,3.6c0,1.65.7,2.1,1.65,2.1,2.35,0,3.8-2.35,5.45-6.6l1,.3C308.4,509.35,306.6,512.45,303,512.45Z"/><path class="cls-2" d="M317.65,501.2a24.6,24.6,0,0,0-.75,4.7c0,3.4,1.1,5,3.7,5,3.65,0,6-2.9,8.1-6.7l.9.45c-3.1,5.9-6.5,7.9-9.75,7.9-3.55,0-7.65-1.65-7.65-8,0-5.15,5-15.75,14.3-15.75,2.25,0,4.25,1.1,4.25,3.35C330.75,497.6,322.55,500.45,317.65,501.2Zm7.45-11.35c-2.9,0-5.85,5.3-7.2,10.3,7-1.25,9.4-5.35,9.4-7.65C327.3,490.9,326.7,489.85,325.1,489.85Z"/><path class="cls-2" d="M360.6,491.3h-6.35c-1.35,4.55-3.75,12.55-4.2,14.3a24.2,24.2,0,0,0-1,3.8c0,1.6,1,1.8,1.85,1.8,2.4,0,4.2-2.45,5.85-6.7l1,.3c-1.8,4.45-4,7.65-7.45,7.65-2.15,0-5.2-.8-5.2-3.85a11.35,11.35,0,0,1,.5-2.9c.6-2.25,4-13.25,4.3-14.4h-4.8l.55-1.65h4.85l2.2-7.75H357l-2.3,7.75h6.4Z"/><path class="cls-2" d="M367.77,512.6c-3.4,0-7.4-2.5-7.4-8.75,0-5.35,4.7-15,14-15,3.4,0,7.4,2.55,7.4,8.8C381.77,503,377.17,512.6,367.77,512.6Zm5.85-22.9c-5.25,0-8.55,9.2-8.55,15.1,0,4.6,1.5,6.85,3.45,6.85,5.6,0,8.55-9.15,8.55-15.1C377.07,491.95,375.42,489.7,373.62,489.7Z"/><path class="cls-2" d="M17.7,563.3H11.35c-1.35,4.55-3.75,12.55-4.2,14.3a24.2,24.2,0,0,0-1,3.8c0,1.6,1,1.8,1.85,1.8,2.4,0,4.2-2.45,5.85-6.7l1,.3c-1.8,4.45-4,7.65-7.45,7.65-2.15,0-5.2-.8-5.2-3.85a11.35,11.35,0,0,1,.5-2.9c.6-2.25,4-13.25,4.3-14.4H2.2l.55-1.65H7.6l2.2-7.75h4.35l-2.3,7.75h6.4Z"/><path class="cls-2" d="M35.68,584.45c-2.15,0-5.35-.85-5.35-3.9a12.38,12.38,0,0,1,1-4.15l3-7.8a12.22,12.22,0,0,0,1-3.65c0-2.1-1.15-2.5-2.5-2.5-2.7,0-5.25,2-7.55,6.2L20.48,583.9h-4.4l9.6-30.45a11.09,11.09,0,0,0,.7-3.35c0-1.1-.85-1.45-1.95-1.6-1.3-.15-1.8-.15-3-.2v-1l10.9-.5-6,18.1.2,0c1.9-2.4,4.15-4.1,7-4.1a5.63,5.63,0,0,1,5.75,5.6,14.81,14.81,0,0,1-1,3.7l-2.75,7.35a15.26,15.26,0,0,0-1.1,4c0,1.6,1,1.7,1.85,1.7,2.4,0,3.85-2.35,5.5-6.6l.9.3C40.93,581.35,39.18,584.45,35.68,584.45Z"/><path class="cls-2" d="M50.2,573.2a24.6,24.6,0,0,0-.75,4.7c0,3.4,1.1,5,3.7,5,3.65,0,6-2.9,8.1-6.7l.9.45c-3.1,5.9-6.5,7.9-9.75,7.9-3.55,0-7.65-1.65-7.65-8,0-5.15,5-15.75,14.3-15.75,2.25,0,4.25,1.1,4.25,3.35C63.3,569.6,55.1,572.45,50.2,573.2Zm7.45-11.35c-2.9,0-5.85,5.3-7.2,10.3,7-1.25,9.4-5.35,9.4-7.65C59.85,562.9,59.25,561.85,57.65,561.85Z"/><path class="cls-2" d="M72.39,584.45c-2.15,0-5.2-.85-5.2-3.9a12,12,0,0,1,1-4.15l3.35-8.5a18.08,18.08,0,0,0,1.15-4c0-1.45-.7-1.9-1.65-1.9-2.35,0-3.75,2.5-5.4,6.75l-1-.35c1.8-4.4,3.5-7.6,7.1-7.6,2.15,0,5,1.3,5,4.25a19.19,19.19,0,0,1-1.55,5l-2.85,7.35a13.81,13.81,0,0,0-1.15,4c0,1.6.9,1.75,1.8,1.75,2.4,0,3.9-2.35,5.55-6.6l.9.3C77.69,581.35,75.89,584.45,72.39,584.45Zm4.5-29.65a2.5,2.5,0,0,1-2.5-2.8,3.34,3.34,0,0,1,3.4-3.5,2.54,2.54,0,0,1,2.3,2.75A3.25,3.25,0,0,1,76.89,554.8Z"/><path class="cls-2" d="M99.35,567c-1.75,0-2.45-1-2.45-2.1s1.15-1.7,1.15-2.15,0-.65-.75-.65c-1.75,0-4.05,3.8-5.5,6.45l-4.7,15.3H82.65l5-16a24,24,0,0,0,1-4c0-1.45-.45-1.8-1.4-1.8-2.35,0-3.8,2.65-5.4,6.75l-1-.35c1.8-4.4,3.55-7.6,7.1-7.6,2.15,0,4.25,1.4,4.25,5.05l.2,0c1.65-2.55,3.15-5.1,6.35-5.1A3.05,3.05,0,0,1,102,563.9C102,565.45,101.1,567,99.35,567Z"/><path class="cls-2" d="M122.55,584.65c-3.8,0-7.8-1.75-7.8-6.35a12.4,12.4,0,0,1,.75-4.35l6.55-20.5a11.71,11.71,0,0,0,.75-3.35c0-1.1-.9-1.45-2-1.6-1.25-.15-1.8-.15-3-.2v-1l10.9-.5-5.9,18,.15,0c1.45-1.7,3.85-4,6.7-4,3.35,0,7.25,1.6,7.25,7.85C136.9,573.9,131.55,584.65,122.55,584.65Zm6.35-22.1c-3,0-5.2,2.25-6.8,4.6l-3.55,11.1c0,4.6,2.45,5.3,4.15,5.3,5.2,0,9.5-10,9.5-15.85C132.2,563.1,130.2,562.55,128.9,562.55Z"/><path class="cls-2" d="M160,584.45c-2.8,0-4.75-1.1-4.75-4.65l-.2,0c-1.75,2.5-4.45,4.8-7.3,4.8a5.7,5.7,0,0,1-5.8-5.6,13.32,13.32,0,0,1,1-3.7l2.85-7.35a12.86,12.86,0,0,0,1.05-4c0-1.45-.55-1.8-1.5-1.8-2.35,0-3.75,2.5-5.4,6.75l-.9-.35c1.75-4.4,3.45-7.5,7-7.5,2.15,0,5,1.1,5,3.9a12.26,12.26,0,0,1-1,4.15l-3.05,7.8a12.06,12.06,0,0,0-1,3.6c0,2.15,1.15,2.55,2.45,2.55,2.75,0,5.45-2.6,7-5.35l5-16h4.6l-5.25,15.9a21.77,21.77,0,0,0-.8,3.6c0,1.65.7,2.1,1.65,2.1,2.35,0,3.8-2.35,5.45-6.6l1,.3C165.33,581.35,163.53,584.45,160,584.45Z"/><path class="cls-2" d="M184.33,569.25c-1.25,0-2.45-.6-2.45-2,0-2,2.6-2.6,2.8-3.15-.1-.65-.9-2.2-4.25-2.2a4.08,4.08,0,0,0-4,4.15c0,4.85,8.25,5.15,8.25,11.55,0,3.6-4.15,7.05-8.6,7.05-5.5,0-7.45-3.4-7.45-5.8,0-1.85,1.35-3.45,2.75-3.45,2.2,0,2.65,1.4,2.65,2.2a2.08,2.08,0,0,1-2.2,2.2c-.9,0-1.35,0-1.35.7,0,1.55,2.5,3.1,5,3.1,2.9,0,5.55-1.25,5.55-4,0-5.7-8.35-5.7-8.35-12,0-3.2,3.7-6.8,7.75-6.8,5.45,0,6.2,4,6.2,5.25C186.68,567.95,185.78,569.25,184.33,569.25Z"/><path class="cls-2" d="M196.31,584.45c-2.15,0-5.2-.85-5.2-3.9a12,12,0,0,1,1-4.15l3.35-8.5a18.08,18.08,0,0,0,1.15-4c0-1.45-.7-1.9-1.65-1.9-2.35,0-3.75,2.5-5.4,6.75l-1-.35c1.8-4.4,3.5-7.6,7.1-7.6,2.15,0,5,1.3,5,4.25a19.19,19.19,0,0,1-1.55,5l-2.85,7.35a13.81,13.81,0,0,0-1.15,4c0,1.6.9,1.75,1.8,1.75,2.4,0,3.9-2.35,5.55-6.6l.9.3C201.61,581.35,199.81,584.45,196.31,584.45Zm4.5-29.65a2.5,2.5,0,0,1-2.5-2.8,3.34,3.34,0,0,1,3.4-3.5,2.54,2.54,0,0,1,2.3,2.75A3.25,3.25,0,0,1,200.81,554.8Z"/><path class="cls-2" d="M226,584.45c-2.1,0-5.35-.85-5.35-3.9a12.21,12.21,0,0,1,1.1-4.15l3-7.8a13.32,13.32,0,0,0,1-3.75c0-2.1-1.15-2.4-2.45-2.4-2.7,0-5.55,2.85-7.25,6.2l-5,15.25h-4.5l5.4-16a22.54,22.54,0,0,0,1-4c0-1.4-.45-1.8-1.4-1.8-2.35,0-3.75,2.5-5.4,6.75l-1-.35c1.8-4.4,3.55-7.6,7.1-7.6,2.15,0,4.6.8,4.6,4.55l.2,0c1.75-2.4,4.2-4.6,7.1-4.6a5.63,5.63,0,0,1,5.75,5.6,15.45,15.45,0,0,1-1,3.7l-2.8,7.35a14.82,14.82,0,0,0-1.1,3.9c0,1.6.9,1.8,1.85,1.8,2.35,0,3.85-2.35,5.5-6.6l1,.3C231.3,581.35,229.5,584.45,226,584.45Z"/><path class="cls-2" d="M240.57,573.2a24.6,24.6,0,0,0-.75,4.7c0,3.4,1.1,5,3.7,5,3.65,0,6-2.9,8.1-6.7l.9.45c-3.1,5.9-6.5,7.9-9.75,7.9-3.55,0-7.65-1.65-7.65-8,0-5.15,5-15.75,14.3-15.75,2.25,0,4.25,1.1,4.25,3.35C253.67,569.6,245.47,572.45,240.57,573.2ZM248,561.85c-2.9,0-5.85,5.3-7.2,10.3,7-1.25,9.4-5.35,9.4-7.65C250.22,562.9,249.62,561.85,248,561.85Z"/><path class="cls-2" d="M270,569.25c-1.25,0-2.45-.6-2.45-2,0-2,2.6-2.6,2.8-3.15-.1-.65-.9-2.2-4.25-2.2a4.08,4.08,0,0,0-4,4.15c0,4.85,8.25,5.15,8.25,11.55,0,3.6-4.15,7.05-8.6,7.05-5.5,0-7.45-3.4-7.45-5.8,0-1.85,1.35-3.45,2.75-3.45,2.2,0,2.65,1.4,2.65,2.2a2.08,2.08,0,0,1-2.2,2.2c-.9,0-1.35,0-1.35.7,0,1.55,2.5,3.1,5,3.1,2.9,0,5.55-1.25,5.55-4,0-5.7-8.35-5.7-8.35-12,0-3.2,3.7-6.8,7.75-6.8,5.45,0,6.2,4,6.2,5.25C272.36,567.95,271.46,569.25,270,569.25Z"/><path class="cls-2" d="M289,569.25c-1.25,0-2.45-.6-2.45-2,0-2,2.6-2.6,2.8-3.15-.1-.65-.9-2.2-4.25-2.2a4.08,4.08,0,0,0-4,4.15c0,4.85,8.25,5.15,8.25,11.55,0,3.6-4.15,7.05-8.6,7.05-5.5,0-7.45-3.4-7.45-5.8,0-1.85,1.35-3.45,2.75-3.45,2.2,0,2.65,1.4,2.65,2.2a2.08,2.08,0,0,1-2.2,2.2c-.9,0-1.35,0-1.35.7,0,1.55,2.5,3.1,5,3.1,2.9,0,5.55-1.25,5.55-4,0-5.7-8.35-5.7-8.35-12,0-3.2,3.7-6.8,7.75-6.8,5.45,0,6.2,4,6.2,5.25C291.34,567.95,290.44,569.25,289,569.25Z"/><path class="cls-2" d="M296,584.35a3.2,3.2,0,0,1-3.25-3.2,3.25,3.25,0,0,1,6.5,0A3.2,3.2,0,0,1,296,584.35Z"/></g><g class="cls-1"><path class="cls-2" d="M76.32,122.22,64.44,156.05H48.78l11.34-33.12c-9.54-1.62-20-7.2-33.66-7.2-1.8,0-3.42.18-5.4.36-3.78,3.24-10.8,7.92-13.5,7.92C4,124,0,122.4,0,118.44c0-4.68,5.76-6.12,9.72-6.12,2.88,0,6.66,0,10.26.18C36.9,97.38,52.74,58.32,66.06,12.6H86C72.72,53.64,51.3,94.32,23.94,113A108.77,108.77,0,0,1,36.36,112c11.34,0,19.08,2.34,26.46,3.06L78.66,71.1h16.2l-16,43.56c8.28-1.08,15.66-4,22-11.52l2.16,2C96.48,114.66,85.86,120.06,76.32,122.22Z"/><path class="cls-2" d="M177.65,64.62v.72c9.72,5.4,18.54,12.78,18.54,23.94,0,24.66-24.12,37.8-45.9,37.8-21.24,0-37.08-11.52-37.08-27,0-15.12,16-28.44,31.5-31.86V67.5c-8.64-5.58-14.94-11.34-14.94-22.14,0-17.82,19.44-34,41.76-34,17.82,0,32.58,10.08,32.58,23.94C204.11,48.42,192.05,60.48,177.65,64.62ZM149.94,70.2c-14.4,5.76-23.4,18.36-23.4,31.86,0,10.44,7.92,20.34,24.12,20.34,14.22,0,28.44-9.9,28.44-25.38C179.09,83.88,166,76.14,149.94,70.2ZM171.17,16C156.6,16,146.7,27.36,146.7,38.34c0,11.52,8.28,17.64,26.46,24.3,13.86-5.22,19.44-18,19.44-28.8C192.59,22.32,183.23,16,171.17,16Z"/><path class="cls-2" d="M225,141.83l-4.5-3.24L340,0l4.86,3.24ZM245.15,70.2c-13.14,0-23.94-8.64-23.94-22.14,0-18.36,17.46-35.28,35.64-35.28,13.86,0,24.3,8.82,24.3,22.5C281.15,55.62,261.89,70.2,245.15,70.2Zm11.7-53.1c-12.24,0-22,19.26-22,34.74,0,7.92,2.88,13.86,10.8,13.86,11,0,21.78-15.84,21.78-34.38C267.47,22.32,264.05,17.1,256.85,17.1Zm52.74,109.44c-13.14,0-23.94-8.64-23.94-22.14,0-18.36,17.46-35.28,35.64-35.28,13.86,0,24.3,8.82,24.3,22.5C345.59,112,326.33,126.53,309.59,126.53Zm11.7-53.1c-12.24,0-22,19.26-22,34.74,0,7.92,2.88,13.86,10.8,13.86,11,0,21.78-15.84,21.78-34.38C331.91,78.66,328.49,73.44,321.29,73.44Z"/></g></g></g></svg>