<svg xmlns="http://www.w3.org/2000/svg" viewBox="0 0 392.33 667.6"><defs><style>.cls-1{isolation:isolate;}.cls-2{fill:#19191e;}</style></defs><title>5-quote</title><g id="Layer_2" data-name="Layer 2"><g id="_49-text.svg" data-name=" 49-text.svg"><g class="cls-1"><path class="cls-2" d="M8.75,224.6c-3.4,0-7.4-2.5-7.4-8.75,0-5.35,4.7-15,14-15,3.4,0,7.4,2.55,7.4,8.8C22.75,215,18.15,224.6,8.75,224.6Zm5.85-22.9c-5.25,0-8.55,9.2-8.55,15.1,0,4.6,1.5,6.85,3.45,6.85,5.6,0,8.55-9.15,8.55-15.1C18.05,203.95,16.4,201.7,14.6,201.7Z"/><path class="cls-2" d="M47.47,193.5c-1,0-2.8-.55-2.8-2.2,0-.7.6-1.65.75-2.7-.25-.75-.55-.85-1.1-.85-3.2,0-5.6,3.35-7.55,10.4l-1,3.5h6.3l-.55,1.65h-6.2c-1.6,6.15-3.5,14-5.2,19.4-1.2,3.85-3,7.6-6.05,10.1-2.6,2.2-4.55,2.9-7,2.9-4,0-5-2-5-4a2.63,2.63,0,0,1,2.6-2.6,2.5,2.5,0,0,1,2.7,2.4,3.63,3.63,0,0,1-1,2.35,1,1,0,0,0,1,.9c3.7,0,5.9-3.3,8.15-10.65,2.45-8.05,4.15-15.55,5.5-20.8h-5.3l.5-1.65h5.3l.55-2a19.51,19.51,0,0,1,5.85-10.15,10,10,0,0,1,7.1-2.75c3.45,0,5.1,2.2,5.1,4.25A2.67,2.67,0,0,1,47.47,193.5Z"/><path class="cls-2" d="M68.22,203.3H61.87c-1.35,4.55-3.75,12.55-4.2,14.3a24.2,24.2,0,0,0-1,3.8c0,1.6,1,1.8,1.85,1.8,2.4,0,4.2-2.45,5.85-6.7l1,.3c-1.8,4.45-4,7.65-7.45,7.65-2.15,0-5.2-.8-5.2-3.85a11.35,11.35,0,0,1,.5-2.9c.6-2.25,4-13.25,4.3-14.4h-4.8l.55-1.65h4.85l2.2-7.75h4.35l-2.3,7.75h6.4Z"/><path class="cls-2" d="M86.2,224.45c-2.15,0-5.35-.85-5.35-3.9a12.38,12.38,0,0,1,1-4.15l3-7.8a12.22,12.22,0,0,0,1-3.65c0-2.1-1.15-2.5-2.5-2.5-2.7,0-5.25,2-7.55,6.2L71,223.9H66.6l9.6-30.45a11.09,11.09,0,0,0,.7-3.35c0-1.1-.85-1.45-1.95-1.6-1.3-.15-1.8-.15-3-.2v-1l10.9-.5-6,18.1.2,0c1.9-2.4,4.15-4.1,7-4.1a5.63,5.63,0,0,1,5.75,5.6,14.81,14.81,0,0,1-1,3.7L86.1,217.5a15.26,15.26,0,0,0-1.1,4c0,1.6,1,1.7,1.85,1.7,2.4,0,3.85-2.35,5.5-6.6l.9.3C91.45,221.35,89.7,224.45,86.2,224.45Z"/><path class="cls-2" d="M100.72,213.2a24.6,24.6,0,0,0-.75,4.7c0,3.4,1.1,5,3.7,5,3.65,0,6-2.9,8.1-6.7l.9.45c-3.1,5.9-6.5,7.9-9.75,7.9-3.55,0-7.65-1.65-7.65-8,0-5.15,5-15.75,14.3-15.75,2.25,0,4.25,1.1,4.25,3.35C113.82,209.6,105.62,212.45,100.72,213.2Zm7.45-11.35c-2.9,0-5.85,5.3-7.2,10.3,7-1.25,9.4-5.35,9.4-7.65C110.37,202.9,109.77,201.85,108.17,201.85Z"/><path class="cls-2" d="M146.12,217.5a20.84,20.84,0,0,0-.8,3.7c0,1.65.7,2,1.65,2,2.35,0,3.8-2.35,5.45-6.6l1,.3c-1.8,4.45-3.6,7.55-7.15,7.55-3,0-4.55-1.25-4.55-4.55l-.2,0c-2,2.75-4.55,4.75-7.4,4.75-3.35,0-7-1.65-7-7.9,0-5.15,5-15.85,14.05-15.85a4.83,4.83,0,0,1,4.7,3.2H146l3.2-10.6a12.93,12.93,0,0,0,.75-3.35c0-1.1-.9-1.45-2.05-1.6s-2.25-.15-3.5-.2v-1l11.35-.5ZM141,201.9c-5.2,0-9.2,9.9-9.2,15.85,0,4.6,1.75,5.15,3,5.15,2.85,0,5.3-2.2,6.85-4.8l3.75-12.3C144.62,203,143.37,201.9,141,201.9Z"/><path class="cls-2" d="M174.14,224.45c-3,0-4.7-1.3-4.7-4.65l-.2,0c-1.9,2.75-4.15,4.85-7,4.85-3.35,0-6.85-1.65-6.85-7.9,0-5.15,4.9-15.85,13.9-15.85a4.28,4.28,0,0,1,4.5,3.65h.15l1.15-3.35h4.5l-5.65,16.35a14.55,14.55,0,0,0-.8,3.7c0,1.65.75,2,1.7,2,2.35,0,3.8-2.35,5.45-6.6l1,.3C179.5,221.35,177.69,224.45,174.14,224.45Zm-5-22.55c-5.15,0-9.05,9.9-9.05,15.85,0,4.6,1.6,5.15,2.9,5.15,2.85,0,5-2.3,6.55-4.9l3.8-11.65C172.74,203.3,171.54,201.9,169.14,201.9Z"/><path class="cls-2" d="M199.19,203.3h-6.35c-1.35,4.55-3.75,12.55-4.2,14.3a24.2,24.2,0,0,0-1,3.8c0,1.6,1,1.8,1.85,1.8,2.4,0,4.2-2.45,5.85-6.7l1,.3c-1.8,4.45-4,7.65-7.45,7.65-2.15,0-5.2-.8-5.2-3.85a11.35,11.35,0,0,1,.5-2.9c.6-2.25,4-13.25,4.3-14.4h-4.8l.55-1.65h4.85l2.2-7.75h4.35l-2.3,7.75h6.4Z"/><path class="cls-2" d="M217.62,224.45c-3,0-4.7-1.3-4.7-4.65l-.2,0c-1.9,2.75-4.15,4.85-7,4.85-3.35,0-6.85-1.65-6.85-7.9,0-5.15,4.9-15.85,13.9-15.85a4.28,4.28,0,0,1,4.5,3.65h.15l1.15-3.35h4.5l-5.65,16.35a14.55,14.55,0,0,0-.8,3.7c0,1.65.75,2,1.7,2,2.35,0,3.8-2.35,5.45-6.6l1,.3C223,221.35,221.17,224.45,217.62,224.45Zm-5-22.55c-5.15,0-9.05,9.9-9.05,15.85,0,4.6,1.6,5.15,2.9,5.15,2.85,0,5-2.3,6.55-4.9l3.8-11.65C216.22,203.3,215,201.9,212.62,201.9Z"/><path class="cls-2" d="M245.77,224.45c-2.15,0-5.2-.85-5.2-3.9a12,12,0,0,1,1-4.15l3.35-8.5a18.08,18.08,0,0,0,1.15-4c0-1.45-.7-1.9-1.65-1.9-2.35,0-3.75,2.5-5.4,6.75l-1-.35c1.8-4.4,3.5-7.6,7.1-7.6,2.15,0,5,1.3,5,4.25a19.19,19.19,0,0,1-1.55,5l-2.85,7.35a13.81,13.81,0,0,0-1.15,4c0,1.6.9,1.75,1.8,1.75,2.4,0,3.9-2.35,5.55-6.6l.9.3C251.07,221.35,249.27,224.45,245.77,224.45Zm4.5-29.65a2.5,2.5,0,0,1-2.5-2.8,3.34,3.34,0,0,1,3.4-3.5,2.54,2.54,0,0,1,2.3,2.75A3.25,3.25,0,0,1,250.27,194.8Z"/><path class="cls-2" d="M275.41,224.45c-2.1,0-5.35-.85-5.35-3.9a12.21,12.21,0,0,1,1.1-4.15l3-7.8a13.32,13.32,0,0,0,1-3.75c0-2.1-1.15-2.4-2.45-2.4-2.7,0-5.55,2.85-7.25,6.2l-5,15.25h-4.5l5.4-16a22.54,22.54,0,0,0,1-4c0-1.4-.45-1.8-1.4-1.8-2.35,0-3.75,2.5-5.4,6.75l-1-.35c1.8-4.4,3.55-7.6,7.1-7.6,2.15,0,4.6.8,4.6,4.55l.2,0c1.75-2.4,4.2-4.6,7.1-4.6a5.63,5.63,0,0,1,5.75,5.6,15.45,15.45,0,0,1-1,3.7l-2.8,7.35a14.82,14.82,0,0,0-1.1,3.9c0,1.6.9,1.8,1.85,1.8,2.35,0,3.85-2.35,5.5-6.6l1,.3C280.76,221.35,279,224.45,275.41,224.45Z"/><path class="cls-2" d="M312.81,203.3h-6.35c-1.35,4.55-3.75,12.55-4.2,14.3a24.2,24.2,0,0,0-1,3.8c0,1.6,1,1.8,1.85,1.8,2.4,0,4.2-2.45,5.85-6.7l1,.3c-1.8,4.45-4,7.65-7.45,7.65-2.15,0-5.2-.8-5.2-3.85a11.35,11.35,0,0,1,.5-2.9c.6-2.25,4-13.25,4.3-14.4h-4.8l.55-1.65h4.85l2.2-7.75h4.35l-2.3,7.75h6.4Z"/><path class="cls-2" d="M330.79,224.45c-2.15,0-5.35-.85-5.35-3.9a12.38,12.38,0,0,1,1-4.15l3-7.8a12.22,12.22,0,0,0,1-3.65c0-2.1-1.15-2.5-2.5-2.5-2.7,0-5.25,2-7.55,6.2l-4.75,15.25h-4.4l9.6-30.45a11.09,11.09,0,0,0,.7-3.35c0-1.1-.85-1.45-1.95-1.6-1.3-.15-1.8-.15-3-.2v-1l10.9-.5-6,18.1.2,0c1.9-2.4,4.15-4.1,7-4.1a5.63,5.63,0,0,1,5.75,5.6,14.81,14.81,0,0,1-1,3.7l-2.75,7.35a15.26,15.26,0,0,0-1.1,4c0,1.6,1,1.7,1.85,1.7,2.4,0,3.85-2.35,5.5-6.6l.9.3C336,221.35,334.29,224.45,330.79,224.45Z"/><path class="cls-2" d="M345.31,213.2a24.6,24.6,0,0,0-.75,4.7c0,3.4,1.1,5,3.7,5,3.65,0,6-2.9,8.1-6.7l.9.45c-3.1,5.9-6.5,7.9-9.75,7.9-3.55,0-7.65-1.65-7.65-8,0-5.15,5-15.75,14.3-15.75,2.25,0,4.25,1.1,4.25,3.35C358.41,209.6,350.21,212.45,345.31,213.2Zm7.45-11.35c-2.9,0-5.85,5.3-7.2,10.3,7-1.25,9.4-5.35,9.4-7.65C355,202.9,354.36,201.85,352.76,201.85Z"/><path class="cls-2" d="M21.8,296.6a6.08,6.08,0,0,1-5.3-3.85c-2.3,2.35-4.85,3.8-6.55,3.8-3.35,0-5.85-2.2-5.85-6.75,0-5,3.35-9.15,8.65-14l-.25-.25C10,277.1,8.25,278,6.4,278a5.45,5.45,0,0,1-2.85-.55L2,281.9l-1-.3,3-8.65h.7c.9,1.8,3.2,2.45,4.6,2.45,2.35,0,3.9-.7,6.15-2.7l.75.75c-3.55,3.5-7.55,9.15-7.55,16.6,0,3.5,1.3,4.7,2.85,4.7,1.2,0,3.2-1.25,4.55-3a20.69,20.69,0,0,1-.45-4c0-5,5.45-14.85,8.8-14.85,1.65,0,2.1,1.8,2.1,4,0,3.3-3.2,8.7-6.7,13,.75,3.75,3.2,4.35,4.3,4.35,4.5,0,8.9-5.9,8.9-12.1,0-3.8-2.65-3.4-2.65-6.9a2.3,2.3,0,0,1,2.4-2.35c2.35,0,2.65,2.05,2.65,4.3C35.4,287,29.2,296.6,21.8,296.6Zm1.55-20.85a2.8,2.8,0,0,0-2.25.85c-1.35,1.8-1.65,5.25-1.65,9.8,0,.6,0,2,.1,2.3,3-3.65,5.65-8.6,5.65-11.2A1.73,1.73,0,0,0,23.35,275.75Z"/><path class="cls-2" d="M44.91,296.6c-3.4,0-7.4-2.5-7.4-8.75,0-5.35,4.7-15,14-15,3.4,0,7.4,2.55,7.4,8.8C58.91,287,54.31,296.6,44.91,296.6Zm5.85-22.9c-5.25,0-8.55,9.2-8.55,15.1,0,4.6,1.5,6.85,3.45,6.85,5.6,0,8.55-9.15,8.55-15.1C54.21,275.95,52.56,273.7,50.76,273.7Z"/><path class="cls-2" d="M79.79,279c-1.75,0-2.45-1-2.45-2.1s1.15-1.7,1.15-2.15,0-.65-.75-.65c-1.75,0-4.05,3.8-5.5,6.45l-4.7,15.3H63.09l5-16a24,24,0,0,0,1-4c0-1.45-.45-1.8-1.4-1.8-2.35,0-3.8,2.65-5.4,6.75l-1-.35c1.8-4.4,3.55-7.6,7.1-7.6,2.15,0,4.25,1.4,4.25,5.05l.2,0c1.65-2.55,3.15-5.1,6.35-5.1a3.05,3.05,0,0,1,3.25,3.05C82.39,277.45,81.54,279,79.79,279Z"/><path class="cls-2" d="M86.95,289.6a16.49,16.49,0,0,0-1,3.8c0,1.6.85,1.8,1.75,1.8,2.4,0,4-2.35,5.6-6.6l.9.3c-1.8,4.45-3.6,7.55-7.15,7.55-2.15,0-5.1-.8-5.1-3.85a16.3,16.3,0,0,1,.9-4.2l7.25-23a11.39,11.39,0,0,0,.7-3.35c0-1.1-.9-1.45-2-1.6-1.25-.15-1.8-.15-3-.2v-1l11-.5Z"/><path class="cls-2" d="M115.24,289.5a20.84,20.84,0,0,0-.8,3.7c0,1.65.7,2,1.65,2,2.35,0,3.8-2.35,5.45-6.6l1,.3c-1.8,4.45-3.6,7.55-7.15,7.55-3,0-4.55-1.25-4.55-4.55l-.2,0c-2,2.75-4.55,4.75-7.4,4.75-3.35,0-7-1.65-7-7.9,0-5.15,5-15.85,14.05-15.85A4.83,4.83,0,0,1,115,276h.15l3.2-10.6a12.92,12.92,0,0,0,.75-3.35c0-1.1-.9-1.45-2-1.6s-2.25-.15-3.5-.2v-1l11.35-.5Zm-5.1-15.6c-5.2,0-9.2,9.9-9.2,15.85,0,4.6,1.75,5.15,3,5.15,2.85,0,5.3-2.2,6.85-4.8l3.75-12.3C113.74,275,112.49,273.9,110.14,273.9Z"/><path class="cls-2" d="M152.74,275.3h-6.35c-1.35,4.55-3.75,12.55-4.2,14.3a24.2,24.2,0,0,0-1,3.8c0,1.6,1,1.8,1.85,1.8,2.4,0,4.2-2.45,5.85-6.7l1,.3c-1.8,4.45-4,7.65-7.45,7.65-2.15,0-5.2-.8-5.2-3.85a11.35,11.35,0,0,1,.5-2.9c.6-2.25,4-13.25,4.3-14.4h-4.8l.55-1.65h4.85l2.2-7.75h4.35l-2.3,7.75h6.4Z"/><path class="cls-2" d="M159.91,296.6c-3.4,0-7.4-2.5-7.4-8.75,0-5.35,4.7-15,14-15,3.4,0,7.4,2.55,7.4,8.8C173.91,287,169.31,296.6,159.91,296.6Zm5.85-22.9c-5.25,0-8.55,9.2-8.55,15.1,0,4.6,1.5,6.85,3.45,6.85,5.6,0,8.55-9.15,8.55-15.1C169.21,275.95,167.56,273.7,165.75,273.7Z"/><path class="cls-2" d="M195.23,289.5a20.84,20.84,0,0,0-.8,3.7c0,1.65.7,2,1.65,2,2.35,0,3.8-2.35,5.45-6.6l1,.3c-1.8,4.45-3.6,7.55-7.15,7.55-3,0-4.55-1.25-4.55-4.55l-.2,0c-2,2.75-4.55,4.75-7.4,4.75-3.35,0-7-1.65-7-7.9,0-5.15,5-15.85,14.05-15.85A4.83,4.83,0,0,1,195,276h.15l3.2-10.6a12.93,12.93,0,0,0,.75-3.35c0-1.1-.9-1.45-2.05-1.6s-2.25-.15-3.5-.2v-1l11.35-.5Zm-5.1-15.6c-5.2,0-9.2,9.9-9.2,15.85,0,4.6,1.75,5.15,3,5.15,2.85,0,5.3-2.2,6.85-4.8l3.75-12.3C193.73,275,192.48,273.9,190.13,273.9Z"/><path class="cls-2" d="M223.25,296.45c-3,0-4.7-1.3-4.7-4.65l-.2,0c-1.9,2.75-4.15,4.85-7,4.85-3.35,0-6.85-1.65-6.85-7.9,0-5.15,4.9-15.85,13.9-15.85a4.28,4.28,0,0,1,4.5,3.65h.15l1.15-3.35h4.5l-5.65,16.35a14.55,14.55,0,0,0-.8,3.7c0,1.65.75,2,1.7,2,2.35,0,3.8-2.35,5.45-6.6l1,.3C228.61,293.35,226.8,296.45,223.25,296.45Zm-5-22.55c-5.15,0-9.05,9.9-9.05,15.85,0,4.6,1.6,5.15,2.9,5.15,2.85,0,5-2.3,6.55-4.9l3.8-11.65C221.85,275.3,220.65,273.9,218.25,273.9Z"/><path class="cls-2" d="M252.18,290.6c-3.8,12.25-10.35,17.25-17.35,17.25-5.8,0-6.6-3.3-6.6-4.7a3.1,3.1,0,0,1,3.3-3.45,2.29,2.29,0,0,1,2.3,2.1c0,3.9-2.8,1.6-3.15,3.35.15,1.9,2.7,1.75,3.85,1.75,4.75,0,9.55-4.35,12.9-14.65l-.2,0c-1.75,2.25-4.25,4.3-7.1,4.3a5.7,5.7,0,0,1-5.8-5.6,13.15,13.15,0,0,1,1-3.75l2.85-7.25a13.75,13.75,0,0,0,1.1-4.15c0-1.45-.5-1.7-1.45-1.7-2.35,0-3.8,2.5-5.45,6.75l-.9-.35c1.75-4.4,3.5-7.6,7.05-7.6,2.15,0,5,1.1,5,3.9a13,13,0,0,1-1.1,4.25l-3.1,7.7a12.32,12.32,0,0,0-1,3.65c0,2.15,1.2,2.5,2.5,2.5,2.75,0,5.4-2.35,7-4.65L253,273.6h4.45Z"/><path class="cls-2" d="M289.28,296.45c-2.15,0-5.35-.85-5.35-3.9a12.38,12.38,0,0,1,1-4.15l3-7.8a12.22,12.22,0,0,0,1-3.65c0-2.1-1.15-2.5-2.5-2.5-2.7,0-5.25,2-7.55,6.2l-4.75,15.25h-4.4l9.6-30.45a11.09,11.09,0,0,0,.7-3.35c0-1.1-.85-1.45-1.95-1.6-1.3-.15-1.8-.15-3-.2v-1l10.9-.5-6,18.1.2,0c1.9-2.4,4.15-4.1,7-4.1a5.63,5.63,0,0,1,5.75,5.6,14.81,14.81,0,0,1-1,3.7l-2.75,7.35a15.26,15.26,0,0,0-1.1,4c0,1.6,1,1.7,1.85,1.7,2.4,0,3.85-2.35,5.5-6.6l.9.3C294.53,293.35,292.78,296.45,289.28,296.45Z"/><path class="cls-2" d="M317.1,296.45c-3,0-4.7-1.3-4.7-4.65l-.2,0c-1.9,2.75-4.15,4.85-7,4.85-3.35,0-6.85-1.65-6.85-7.9,0-5.15,4.9-15.85,13.9-15.85a4.28,4.28,0,0,1,4.5,3.65h.15l1.15-3.35h4.5L316.9,289.5a14.55,14.55,0,0,0-.8,3.7c0,1.65.75,2,1.7,2,2.35,0,3.8-2.35,5.45-6.6l1,.3C322.45,293.35,320.65,296.45,317.1,296.45Zm-5-22.55c-5.15,0-9.05,9.9-9.05,15.85,0,4.6,1.6,5.15,2.9,5.15,2.85,0,5-2.3,6.55-4.9l3.8-11.65C315.7,275.3,314.5,273.9,312.1,273.9Z"/><path class="cls-2" d="M341.37,281.25c-1.25,0-2.45-.6-2.45-2,0-2,2.6-2.6,2.8-3.15-.1-.65-.9-2.2-4.25-2.2a4.08,4.08,0,0,0-4,4.15c0,4.85,8.25,5.15,8.25,11.55,0,3.6-4.15,7.05-8.6,7.05-5.5,0-7.45-3.4-7.45-5.8,0-1.85,1.35-3.45,2.75-3.45,2.2,0,2.65,1.4,2.65,2.2a2.08,2.08,0,0,1-2.2,2.2c-.9,0-1.35,0-1.35.7,0,1.55,2.5,3.1,5,3.1,2.9,0,5.55-1.25,5.55-4,0-5.7-8.35-5.7-8.35-12,0-3.2,3.7-6.8,7.75-6.8,5.45,0,6.2,4,6.2,5.25C343.72,279.95,342.82,281.25,341.37,281.25Z"/><path class="cls-2" d="M10.1,368.65c-3.8,0-7.8-1.75-7.8-6.35a12.4,12.4,0,0,1,.75-4.35l6.55-20.5a11.71,11.71,0,0,0,.75-3.35c0-1.1-.9-1.45-2-1.6-1.25-.15-1.8-.15-3-.2v-1l10.9-.5-5.9,18,.15,0c1.45-1.7,3.85-4,6.7-4,3.35,0,7.25,1.6,7.25,7.85C24.45,357.9,19.1,368.65,10.1,368.65Zm6.35-22.1c-3,0-5.2,2.25-6.8,4.6L6.1,362.25c0,4.6,2.45,5.3,4.15,5.3,5.2,0,9.5-10,9.5-15.85C19.75,347.1,17.75,346.55,16.45,346.55Z"/><path class="cls-2" d="M32,357.2a24.6,24.6,0,0,0-.75,4.7c0,3.4,1.1,5,3.7,5,3.65,0,6-2.9,8.1-6.7l.9.45c-3.1,5.9-6.5,7.9-9.75,7.9-3.55,0-7.65-1.65-7.65-8,0-5.15,5-15.75,14.3-15.75,2.25,0,4.25,1.1,4.25,3.35C45.06,353.6,36.86,356.45,32,357.2Zm7.45-11.35c-2.9,0-5.85,5.3-7.2,10.3,7-1.25,9.4-5.35,9.4-7.65C41.61,346.9,41,345.85,39.41,345.85Z"/><path class="cls-2" d="M51.83,357.2a24.6,24.6,0,0,0-.75,4.7c0,3.4,1.1,5,3.7,5,3.65,0,6-2.9,8.1-6.7l.9.45c-3.1,5.9-6.5,7.9-9.75,7.9-3.55,0-7.65-1.65-7.65-8,0-5.15,5-15.75,14.3-15.75,2.25,0,4.25,1.1,4.25,3.35C64.93,353.6,56.73,356.45,51.83,357.2Zm7.45-11.35c-2.9,0-5.85,5.3-7.2,10.3,7-1.25,9.4-5.35,9.4-7.65C61.48,346.9,60.88,345.85,59.28,345.85Z"/><path class="cls-2" d="M87.46,368.45c-2.1,0-5.35-.85-5.35-3.9a12.21,12.21,0,0,1,1.1-4.15l3-7.8a13.32,13.32,0,0,0,1-3.75c0-2.1-1.15-2.4-2.45-2.4-2.7,0-5.55,2.85-7.25,6.2l-5,15.25h-4.5l5.4-16a22.61,22.61,0,0,0,.95-4c0-1.4-.45-1.8-1.4-1.8-2.35,0-3.75,2.5-5.4,6.75l-1-.35c1.8-4.4,3.55-7.6,7.1-7.6,2.15,0,4.6.8,4.6,4.55l.2,0c1.75-2.4,4.2-4.6,7.1-4.6a5.63,5.63,0,0,1,5.75,5.6,15.45,15.45,0,0,1-1,3.7l-2.8,7.35a14.82,14.82,0,0,0-1.1,3.9c0,1.6.9,1.8,1.85,1.8,2.35,0,3.85-2.35,5.5-6.6l1,.3C92.81,365.35,91,368.45,87.46,368.45Z"/><path class="cls-2" d="M124.31,352.7a2.42,2.42,0,0,1-2.65-2.25c0-1,1-2.15,2.55-3-.25-1.3-1.1-1.8-2.9-1.8-4.35,0-8.3,10.05-8.3,16.05,0,3.35,1,5.2,3.6,5.2,3.65,0,6.15-2.9,8.2-6.7l1,.45c-3.2,5.9-6.7,7.9-10,7.9-3.5,0-7.5-1.55-7.5-7.9,0-5.15,5-15.85,13.45-15.85a4.77,4.77,0,0,1,5.1,4.5C126.86,351,126,352.7,124.31,352.7Z"/><path class="cls-2" d="M146.93,351c-1.75,0-2.45-1-2.45-2.1s1.15-1.7,1.15-2.15,0-.65-.75-.65c-1.75,0-4.05,3.8-5.5,6.45l-4.7,15.3h-4.45l5-16a24.1,24.1,0,0,0,.95-4c0-1.45-.45-1.8-1.4-1.8-2.35,0-3.8,2.65-5.4,6.75l-1-.35c1.8-4.4,3.55-7.6,7.1-7.6,2.15,0,4.25,1.4,4.25,5.05l.2,0c1.65-2.55,3.15-5.1,6.35-5.1a3.05,3.05,0,0,1,3.25,3.05C149.53,349.45,148.68,351,146.93,351Z"/><path class="cls-2" d="M154.31,357.2a24.6,24.6,0,0,0-.75,4.7c0,3.4,1.1,5,3.7,5,3.65,0,6-2.9,8.1-6.7l.9.45c-3.1,5.9-6.5,7.9-9.75,7.9-3.55,0-7.65-1.65-7.65-8,0-5.15,5-15.75,14.3-15.75,2.25,0,4.25,1.1,4.25,3.35C167.41,353.6,159.21,356.45,154.31,357.2Zm7.45-11.35c-2.9,0-5.85,5.3-7.2,10.3,7-1.25,9.4-5.35,9.4-7.65C164,346.9,163.36,345.85,161.76,345.85Z"/><path class="cls-2" d="M187.64,368.45c-3,0-4.7-1.3-4.7-4.65l-.2,0c-1.9,2.75-4.15,4.85-7,4.85-3.35,0-6.85-1.65-6.85-7.9,0-5.15,4.9-15.85,13.9-15.85a4.28,4.28,0,0,1,4.5,3.65h.15l1.15-3.35h4.5l-5.65,16.35a14.55,14.55,0,0,0-.8,3.7c0,1.65.75,2,1.7,2,2.35,0,3.8-2.35,5.45-6.6l1,.3C193,365.35,191.19,368.45,187.64,368.45Zm-5-22.55c-5.15,0-9.05,9.9-9.05,15.85,0,4.6,1.6,5.15,2.9,5.15,2.85,0,5-2.3,6.55-4.9l3.8-11.65C186.24,347.3,185,345.9,182.64,345.9Z"/><path class="cls-2" d="M212.69,347.3h-6.35c-1.35,4.55-3.75,12.55-4.2,14.3a24.2,24.2,0,0,0-1,3.8c0,1.6,1,1.8,1.85,1.8,2.4,0,4.2-2.45,5.85-6.7l1,.3c-1.8,4.45-4,7.65-7.45,7.65-2.15,0-5.2-.8-5.2-3.85a11.35,11.35,0,0,1,.5-2.9c.6-2.25,4-13.25,4.3-14.4h-4.8l.55-1.65h4.85l2.2-7.75h4.35l-2.3,7.75h6.4Z"/><path class="cls-2" d="M217.81,357.2a24.6,24.6,0,0,0-.75,4.7c0,3.4,1.1,5,3.7,5,3.65,0,6-2.9,8.1-6.7l.9.45c-3.1,5.9-6.5,7.9-9.75,7.9-3.55,0-7.65-1.65-7.65-8,0-5.15,5-15.75,14.3-15.75,2.25,0,4.25,1.1,4.25,3.35C230.92,353.6,222.71,356.45,217.81,357.2Zm7.45-11.35c-2.9,0-5.85,5.3-7.2,10.3,7-1.25,9.4-5.35,9.4-7.65C227.46,346.9,226.87,345.85,225.26,345.85Z"/><path class="cls-2" d="M251.24,361.5a20.84,20.84,0,0,0-.8,3.7c0,1.65.7,2,1.65,2,2.35,0,3.8-2.35,5.45-6.6l1,.3c-1.8,4.45-3.6,7.55-7.15,7.55-3,0-4.55-1.25-4.55-4.55l-.2,0c-2,2.75-4.55,4.75-7.4,4.75-3.35,0-7-1.65-7-7.9,0-5.15,5-15.85,14.05-15.85A4.83,4.83,0,0,1,251,348h.15l3.2-10.6a12.92,12.92,0,0,0,.75-3.35c0-1.1-.9-1.45-2-1.6s-2.25-.15-3.5-.2v-1l11.35-.5Zm-5.1-15.6c-5.2,0-9.2,9.9-9.2,15.85,0,4.6,1.75,5.15,3,5.15,2.85,0,5.3-2.2,6.85-4.8l3.75-12.3C249.74,347,248.49,345.9,246.14,345.9Z"/><path class="cls-2" d="M279.69,368.45c-2.15,0-5.2-.85-5.2-3.9a12,12,0,0,1,1-4.15l3.35-8.5a18.08,18.08,0,0,0,1.15-4c0-1.45-.7-1.9-1.65-1.9-2.35,0-3.75,2.5-5.4,6.75l-1-.35c1.8-4.4,3.5-7.6,7.1-7.6,2.15,0,5,1.3,5,4.25a19.19,19.19,0,0,1-1.55,5l-2.85,7.35a13.81,13.81,0,0,0-1.15,4c0,1.6.9,1.75,1.8,1.75,2.4,0,3.9-2.35,5.55-6.6l.9.3C285,365.35,283.19,368.45,279.69,368.45Zm4.5-29.65a2.5,2.5,0,0,1-2.5-2.8,3.34,3.34,0,0,1,3.4-3.5,2.54,2.54,0,0,1,2.3,2.75A3.25,3.25,0,0,1,284.19,338.8Z"/><path class="cls-2" d="M309.33,368.45c-2.1,0-5.35-.85-5.35-3.9a12.21,12.21,0,0,1,1.1-4.15l3-7.8a13.32,13.32,0,0,0,1-3.75c0-2.1-1.15-2.4-2.45-2.4-2.7,0-5.55,2.85-7.25,6.2l-5,15.25h-4.5l5.4-16a22.61,22.61,0,0,0,.95-4c0-1.4-.45-1.8-1.4-1.8-2.35,0-3.75,2.5-5.4,6.75l-1-.35c1.8-4.4,3.55-7.6,7.1-7.6,2.15,0,4.6.8,4.6,4.55l.2,0c1.75-2.4,4.2-4.6,7.1-4.6a5.63,5.63,0,0,1,5.75,5.6,15.45,15.45,0,0,1-1,3.7l-2.8,7.35a14.82,14.82,0,0,0-1.1,3.9c0,1.6.9,1.8,1.85,1.8,2.35,0,3.85-2.35,5.5-6.6l1,.3C314.68,365.35,312.88,368.45,309.33,368.45Z"/><path class="cls-2" d="M346.73,347.3h-6.35c-1.35,4.55-3.75,12.55-4.2,14.3a24.2,24.2,0,0,0-1,3.8c0,1.6,1,1.8,1.85,1.8,2.4,0,4.2-2.45,5.85-6.7l1,.3c-1.8,4.45-4,7.65-7.45,7.65-2.15,0-5.2-.8-5.2-3.85a11.35,11.35,0,0,1,.5-2.9c.6-2.25,4-13.25,4.3-14.4h-4.8l.55-1.65h4.85l2.2-7.75h4.35l-2.3,7.75h6.4Z"/><path class="cls-2" d="M364.71,368.45c-2.15,0-5.35-.85-5.35-3.9a12.38,12.38,0,0,1,1-4.15l3-7.8a12.22,12.22,0,0,0,1-3.65c0-2.1-1.15-2.5-2.5-2.5-2.7,0-5.25,2-7.55,6.2l-4.75,15.25h-4.4l9.6-30.45a11.09,11.09,0,0,0,.7-3.35c0-1.1-.85-1.45-1.95-1.6-1.3-.15-1.8-.15-3-.2v-1l10.9-.5-6,18.1.2,0c1.9-2.4,4.15-4.1,7-4.1a5.63,5.63,0,0,1,5.75,5.6,14.81,14.81,0,0,1-1,3.7l-2.75,7.35a15.26,15.26,0,0,0-1.1,4c0,1.6,1,1.7,1.85,1.7,2.4,0,3.85-2.35,5.5-6.6l.9.3C370,365.35,368.21,368.45,364.71,368.45Z"/><path class="cls-2" d="M379.23,357.2a24.6,24.6,0,0,0-.75,4.7c0,3.4,1.1,5,3.7,5,3.65,0,6-2.9,8.1-6.7l.9.45c-3.1,5.9-6.5,7.9-9.75,7.9-3.55,0-7.65-1.65-7.65-8,0-5.15,5-15.75,14.3-15.75,2.25,0,4.25,1.1,4.25,3.35C392.33,353.6,384.13,356.45,379.23,357.2Zm7.45-11.35c-2.9,0-5.85,5.3-7.2,10.3,7-1.25,9.4-5.35,9.4-7.65C388.88,346.9,388.28,345.85,386.68,345.85Z"/><path class="cls-2" d="M6.7,433.6a16.49,16.49,0,0,0-1,3.8c0,1.6.85,1.8,1.75,1.8,2.4,0,4-2.35,5.6-6.6l.9.3c-1.8,4.45-3.6,7.55-7.15,7.55-2.15,0-5.1-.8-5.1-3.85a16.3,16.3,0,0,1,.9-4.2l7.25-23a11.39,11.39,0,0,0,.7-3.35c0-1.1-.9-1.45-2-1.6-1.25-.15-1.8-.15-3-.2v-1l11-.5Z"/><path class="cls-2" d="M34.74,440.45c-3,0-4.7-1.3-4.7-4.65l-.2,0c-1.9,2.75-4.15,4.85-7,4.85-3.35,0-6.85-1.65-6.85-7.9,0-5.15,4.9-15.85,13.9-15.85a4.28,4.28,0,0,1,4.5,3.65h.15l1.15-3.35h4.5L34.54,433.5a14.55,14.55,0,0,0-.8,3.7c0,1.65.75,2,1.7,2,2.35,0,3.8-2.35,5.45-6.6l1,.3C40.09,437.35,38.29,440.45,34.74,440.45Zm-5-22.55c-5.15,0-9.05,9.9-9.05,15.85,0,4.6,1.6,5.15,2.9,5.15,2.85,0,5-2.3,6.55-4.9l3.8-11.65C33.34,419.3,32.14,417.9,29.74,417.9Z"/><path class="cls-2" d="M59,425.25c-1.25,0-2.45-.6-2.45-2,0-2,2.6-2.6,2.8-3.15-.1-.65-.9-2.2-4.25-2.2a4.08,4.08,0,0,0-4,4.15c0,4.85,8.25,5.15,8.25,11.55,0,3.6-4.15,7.05-8.6,7.05-5.5,0-7.45-3.4-7.45-5.8,0-1.85,1.35-3.45,2.75-3.45,2.2,0,2.65,1.4,2.65,2.2a2.08,2.08,0,0,1-2.2,2.2c-.9,0-1.35,0-1.35.7,0,1.55,2.5,3.1,5,3.1,2.9,0,5.55-1.25,5.55-4,0-5.7-8.35-5.7-8.35-12,0-3.2,3.7-6.8,7.75-6.8,5.45,0,6.2,4,6.2,5.25C61.37,423.95,60.47,425.25,59,425.25Z"/><path class="cls-2" d="M79.63,419.3H73.28c-1.35,4.55-3.75,12.55-4.2,14.3a24.2,24.2,0,0,0-1,3.8c0,1.6,1,1.8,1.85,1.8,2.4,0,4.2-2.45,5.85-6.7l1,.3c-1.8,4.45-4,7.65-7.45,7.65-2.15,0-5.2-.8-5.2-3.85a11.35,11.35,0,0,1,.5-2.9c.6-2.25,4-13.25,4.3-14.4h-4.8l.55-1.65h4.85l2.2-7.75h4.35l-2.3,7.75h6.4Z"/><path class="cls-2" d="M108.23,419.3h-6.35c-1.35,4.55-3.75,12.55-4.2,14.3a24.2,24.2,0,0,0-1,3.8c0,1.6,1,1.8,1.85,1.8,2.4,0,4.2-2.45,5.85-6.7l1,.3c-1.8,4.45-4,7.65-7.45,7.65-2.15,0-5.2-.8-5.2-3.85a11.35,11.35,0,0,1,.5-2.9c.6-2.25,4-13.25,4.3-14.4h-4.8l.55-1.65h4.85l2.2-7.75h4.35l-2.3,7.75h6.4Z"/><path class="cls-2" d="M129.17,440.6a6.08,6.08,0,0,1-5.3-3.85c-2.3,2.35-4.85,3.8-6.55,3.8-3.35,0-5.85-2.2-5.85-6.75,0-5,3.35-9.15,8.65-14l-.25-.25c-2.5,1.5-4.25,2.4-6.1,2.4a5.45,5.45,0,0,1-2.85-.55l-1.55,4.45-1-.3,3-8.65h.7c.9,1.8,3.2,2.45,4.6,2.45,2.35,0,3.9-.7,6.15-2.7l.75.75C120,420.95,116,426.6,116,434c0,3.5,1.3,4.7,2.85,4.7,1.2,0,3.2-1.25,4.55-3a20.69,20.69,0,0,1-.45-4c0-5,5.45-14.85,8.8-14.85,1.65,0,2.1,1.8,2.1,4,0,3.3-3.2,8.7-6.7,13,.75,3.75,3.2,4.35,4.3,4.35,4.5,0,8.9-5.9,8.9-12.1,0-3.8-2.65-3.4-2.65-6.9a2.3,2.3,0,0,1,2.4-2.35c2.35,0,2.65,2.05,2.65,4.3C142.77,431,136.57,440.6,129.17,440.6Zm1.55-20.85a2.8,2.8,0,0,0-2.25.85c-1.35,1.8-1.65,5.25-1.65,9.8,0,.6,0,2,.1,2.3,3-3.65,5.65-8.6,5.65-11.2A1.73,1.73,0,0,0,130.72,419.75Z"/><path class="cls-2" d="M152.28,440.6c-3.4,0-7.4-2.5-7.4-8.75,0-5.35,4.7-15,14-15,3.4,0,7.4,2.55,7.4,8.8C166.28,431,161.68,440.6,152.28,440.6Zm5.85-22.9c-5.25,0-8.55,9.2-8.55,15.1,0,4.6,1.5,6.85,3.45,6.85,5.6,0,8.55-9.15,8.55-15.1C161.58,419.95,159.93,417.7,158.13,417.7Z"/><path class="cls-2" d="M201.28,434.6c-3.8,12.25-10.35,17.25-17.35,17.25-5.8,0-6.6-3.3-6.6-4.7a3.1,3.1,0,0,1,3.3-3.45,2.29,2.29,0,0,1,2.3,2.1c0,3.9-2.8,1.6-3.15,3.35.15,1.9,2.7,1.75,3.85,1.75,4.75,0,9.55-4.35,12.9-14.65l-.2,0c-1.75,2.25-4.25,4.3-7.1,4.3a5.7,5.7,0,0,1-5.8-5.6,13.15,13.15,0,0,1,1-3.75l2.85-7.25a13.75,13.75,0,0,0,1.1-4.15c0-1.45-.5-1.7-1.45-1.7-2.35,0-3.8,2.5-5.45,6.75l-.9-.35c1.75-4.4,3.5-7.6,7.05-7.6,2.15,0,5,1.1,5,3.9a13,13,0,0,1-1.1,4.25l-3.1,7.7a12.32,12.32,0,0,0-1,3.65c0,2.15,1.2,2.5,2.5,2.5,2.75,0,5.4-2.35,7-4.65l5.15-16.6h4.45Z"/><path class="cls-2" d="M212.68,429.2a24.6,24.6,0,0,0-.75,4.7c0,3.4,1.1,5,3.7,5,3.65,0,6-2.9,8.1-6.7l.9.45c-3.1,5.9-6.5,7.9-9.75,7.9-3.55,0-7.65-1.65-7.65-8,0-5.15,5-15.75,14.3-15.75,2.25,0,4.25,1.1,4.25,3.35C225.78,425.6,217.58,428.45,212.68,429.2Zm7.45-11.35c-2.9,0-5.85,5.3-7.2,10.3,7-1.25,9.4-5.35,9.4-7.65C222.33,418.9,221.73,417.85,220.13,417.85Z"/><path class="cls-2" d="M246,440.45c-3,0-4.7-1.3-4.7-4.65l-.2,0c-1.9,2.75-4.15,4.85-7,4.85-3.35,0-6.85-1.65-6.85-7.9,0-5.15,4.9-15.85,13.9-15.85a4.28,4.28,0,0,1,4.5,3.65h.15l1.15-3.35h4.5l-5.65,16.35a14.55,14.55,0,0,0-.8,3.7c0,1.65.75,2,1.7,2,2.35,0,3.8-2.35,5.45-6.6l1,.3C251.36,437.35,249.56,440.45,246,440.45Zm-5-22.55c-5.15,0-9.05,9.9-9.05,15.85,0,4.6,1.6,5.15,2.9,5.15,2.85,0,5-2.3,6.55-4.9l3.8-11.65C244.61,419.3,243.41,417.9,241,417.9Z"/><path class="cls-2" d="M273,423c-1.75,0-2.45-1-2.45-2.1s1.15-1.7,1.15-2.15,0-.65-.75-.65c-1.75,0-4.05,3.8-5.5,6.45l-4.7,15.3h-4.45l5-16a24.1,24.1,0,0,0,.95-4c0-1.45-.45-1.8-1.4-1.8-2.35,0-3.8,2.65-5.4,6.75l-1-.35c1.8-4.4,3.55-7.6,7.1-7.6,2.15,0,4.25,1.4,4.25,5.05l.2,0c1.65-2.55,3.15-5.1,6.35-5.1a3.05,3.05,0,0,1,3.25,3.05C275.59,421.45,274.74,423,273,423Z"/><path class="cls-2" d="M289.59,425.25c-1.25,0-2.45-.6-2.45-2,0-2,2.6-2.6,2.8-3.15-.1-.65-.9-2.2-4.25-2.2a4.08,4.08,0,0,0-4,4.15c0,4.85,8.25,5.15,8.25,11.55,0,3.6-4.15,7.05-8.6,7.05-5.5,0-7.45-3.4-7.45-5.8,0-1.85,1.35-3.45,2.75-3.45,2.2,0,2.65,1.4,2.65,2.2a2.08,2.08,0,0,1-2.2,2.2c-.9,0-1.35,0-1.35.7,0,1.55,2.5,3.1,5,3.1,2.9,0,5.55-1.25,5.55-4,0-5.7-8.35-5.7-8.35-12,0-3.2,3.7-6.8,7.75-6.8,5.45,0,6.2,4,6.2,5.25C291.94,423.95,291,425.25,289.59,425.25Z"/><path class="cls-2" d="M19.9,512.45c-3,0-4.7-1.3-4.7-4.65l-.2,0c-1.9,2.75-4.15,4.85-7,4.85-3.35,0-6.85-1.65-6.85-7.9,0-5.15,4.9-15.85,13.9-15.85a4.28,4.28,0,0,1,4.5,3.65h.15l1.15-3.35h4.5L19.7,505.5a14.55,14.55,0,0,0-.8,3.7c0,1.65.75,2,1.7,2,2.35,0,3.8-2.35,5.45-6.6l1,.3C25.25,509.35,23.45,512.45,19.9,512.45Zm-5-22.55c-5.15,0-9.05,9.9-9.05,15.85,0,4.6,1.6,5.15,2.9,5.15,2.85,0,5-2.3,6.55-4.9l3.8-11.65C18.5,491.3,17.3,489.9,14.9,489.9Z"/><path class="cls-2" d="M33.95,505.6a16.49,16.49,0,0,0-1,3.8c0,1.6.85,1.8,1.75,1.8,2.4,0,4-2.35,5.6-6.6l.9.3c-1.8,4.45-3.6,7.55-7.15,7.55-2.15,0-5.1-.8-5.1-3.85a16.3,16.3,0,0,1,.9-4.2l7.25-23a11.39,11.39,0,0,0,.7-3.35c0-1.1-.9-1.45-2-1.6-1.25-.15-1.8-.15-3-.2v-1l11-.5Z"/><path class="cls-2" d="M50.73,512.6c-3.4,0-7.4-2.5-7.4-8.75,0-5.35,4.7-15,14-15,3.4,0,7.4,2.55,7.4,8.8C64.73,503,60.13,512.6,50.73,512.6Zm5.85-22.9c-5.25,0-8.55,9.2-8.55,15.1,0,4.6,1.5,6.85,3.45,6.85,5.6,0,8.55-9.15,8.55-15.1C60,491.95,58.38,489.7,56.58,489.7Z"/><path class="cls-2" d="M88.11,512.45c-2.1,0-5.35-.85-5.35-3.9a12.21,12.21,0,0,1,1.1-4.15l3-7.8a13.32,13.32,0,0,0,1-3.75c0-2.1-1.15-2.4-2.45-2.4-2.7,0-5.55,2.85-7.25,6.2L73,511.9h-4.5l5.4-16a22.61,22.61,0,0,0,.95-4c0-1.4-.45-1.8-1.4-1.8-2.35,0-3.75,2.5-5.4,6.75l-1-.35c1.8-4.4,3.55-7.6,7.1-7.6,2.15,0,4.6.8,4.6,4.55l.2,0c1.75-2.4,4.2-4.6,7.1-4.6a5.63,5.63,0,0,1,5.75,5.6,15.45,15.45,0,0,1-1,3.7l-2.8,7.35a14.82,14.82,0,0,0-1.1,3.9c0,1.6.9,1.8,1.85,1.8,2.35,0,3.85-2.35,5.5-6.6l1,.3C93.46,509.35,91.66,512.45,88.11,512.45Z"/><path class="cls-2" d="M102.73,501.2a24.6,24.6,0,0,0-.75,4.7c0,3.4,1.1,5,3.7,5,3.65,0,6-2.9,8.1-6.7l.9.45c-3.1,5.9-6.5,7.9-9.75,7.9-3.55,0-7.65-1.65-7.65-8,0-5.15,5-15.75,14.3-15.75,2.25,0,4.25,1.1,4.25,3.35C115.83,497.6,107.63,500.45,102.73,501.2Zm7.45-11.35c-2.9,0-5.85,5.3-7.2,10.3,7-1.25,9.4-5.35,9.4-7.65C112.38,490.9,111.78,489.85,110.18,489.85Z"/><path class="cls-2" d="M156.87,500.55h-37.6l.8-2.8h37.6Z"/><path class="cls-2" d="M170.22,512.65c-3.8,0-7.8-1.75-7.8-6.35a12.4,12.4,0,0,1,.75-4.35l6.55-20.5a11.71,11.71,0,0,0,.75-3.35c0-1.1-.9-1.45-2-1.6-1.25-.15-1.8-.15-3-.2v-1l10.9-.5-5.9,18,.15,0c1.45-1.7,3.85-4,6.7-4,3.35,0,7.25,1.6,7.25,7.85C184.57,501.9,179.22,512.65,170.22,512.65Zm6.35-22.1c-3,0-5.2,2.25-6.8,4.6l-3.55,11.1c0,4.6,2.45,5.3,4.15,5.3,5.2,0,9.5-10,9.5-15.85C179.87,491.1,177.87,490.55,176.57,490.55Z"/><path class="cls-2" d="M207.66,512.45c-2.8,0-4.75-1.1-4.75-4.65l-.2,0c-1.75,2.5-4.45,4.8-7.3,4.8a5.7,5.7,0,0,1-5.8-5.6,13.32,13.32,0,0,1,1-3.7l2.85-7.35a12.86,12.86,0,0,0,1.05-4c0-1.45-.55-1.8-1.5-1.8-2.35,0-3.75,2.5-5.4,6.75l-.9-.35c1.75-4.4,3.45-7.5,7-7.5,2.15,0,5,1.1,5,3.9a12.26,12.26,0,0,1-1,4.15l-3.05,7.8a12.06,12.06,0,0,0-1,3.6c0,2.15,1.15,2.55,2.45,2.55,2.75,0,5.45-2.6,7-5.35l5-16h4.6l-5.25,15.9a21.77,21.77,0,0,0-.8,3.6c0,1.65.7,2.1,1.65,2.1,2.35,0,3.8-2.35,5.45-6.6l1,.3C213,509.35,211.21,512.45,207.66,512.45Z"/><path class="cls-2" d="M232.65,491.3h-6.35c-1.35,4.55-3.75,12.55-4.2,14.3a24.2,24.2,0,0,0-1,3.8c0,1.6,1,1.8,1.85,1.8,2.4,0,4.2-2.45,5.85-6.7l1,.3c-1.8,4.45-4,7.65-7.45,7.65-2.15,0-5.2-.8-5.2-3.85a11.35,11.35,0,0,1,.5-2.9c.6-2.25,4-13.25,4.3-14.4h-4.8l.55-1.65h4.85l2.2-7.75h4.35l-2.3,7.75h6.4Z"/><path class="cls-2" d="M263.54,512.45c-2.15,0-5.35-.85-5.35-3.9a12.38,12.38,0,0,1,1-4.15l3-7.8a12.22,12.22,0,0,0,1-3.65c0-2.1-1.15-2.5-2.5-2.5-2.7,0-5.25,2-7.55,6.2l-4.75,15.25h-4.4l9.6-30.45a11.09,11.09,0,0,0,.7-3.35c0-1.1-.85-1.45-1.95-1.6-1.3-.15-1.8-.15-3-.2v-1l10.9-.5-6,18.1.2,0c1.9-2.4,4.15-4.1,7-4.1a5.63,5.63,0,0,1,5.75,5.6,14.81,14.81,0,0,1-1,3.7l-2.75,7.35a15.26,15.26,0,0,0-1.1,4c0,1.6,1,1.7,1.85,1.7,2.4,0,3.85-2.35,5.5-6.6l.9.3C268.79,509.35,267,512.45,263.54,512.45Z"/><path class="cls-2" d="M291.36,512.45c-3,0-4.7-1.3-4.7-4.65l-.2,0c-1.9,2.75-4.15,4.85-7,4.85-3.35,0-6.85-1.65-6.85-7.9,0-5.15,4.9-15.85,13.9-15.85a4.28,4.28,0,0,1,4.5,3.65h.15l1.15-3.35h4.5l-5.65,16.35a14.55,14.55,0,0,0-.8,3.7c0,1.65.75,2,1.7,2,2.35,0,3.8-2.35,5.45-6.6l1,.3C296.71,509.35,294.91,512.45,291.36,512.45Zm-5-22.55c-5.15,0-9.05,9.9-9.05,15.85,0,4.6,1.6,5.15,2.9,5.15,2.85,0,5-2.3,6.55-4.9l3.8-11.65C290,491.3,288.76,489.9,286.36,489.9Z"/><path class="cls-2" d="M318.34,495c-1.75,0-2.45-1-2.45-2.1s1.15-1.7,1.15-2.15,0-.65-.75-.65c-1.75,0-4.05,3.8-5.5,6.45l-4.7,15.3h-4.45l5-16a24,24,0,0,0,1-4c0-1.45-.45-1.8-1.4-1.8-2.35,0-3.8,2.65-5.4,6.75l-1-.35c1.8-4.4,3.55-7.6,7.1-7.6,2.15,0,4.25,1.4,4.25,5.05l.2,0c1.65-2.55,3.15-5.1,6.35-5.1a3.05,3.05,0,0,1,3.25,3.05C320.94,493.45,320.09,495,318.34,495Z"/><path class="cls-2" d="M339.27,505.5a20.84,20.84,0,0,0-.8,3.7c0,1.65.7,2,1.65,2,2.35,0,3.8-2.35,5.45-6.6l1,.3c-1.8,4.45-3.6,7.55-7.15,7.55-3,0-4.55-1.25-4.55-4.55l-.2,0c-2,2.75-4.55,4.75-7.4,4.75-3.35,0-7-1.65-7-7.9,0-5.15,5-15.85,14.05-15.85A4.83,4.83,0,0,1,339,492h.15l3.2-10.6a12.92,12.92,0,0,0,.75-3.35c0-1.1-.9-1.45-2-1.6s-2.25-.15-3.5-.2v-1l11.35-.5Zm-5.1-15.6c-5.2,0-9.2,9.9-9.2,15.85,0,4.6,1.75,5.15,3,5.15,2.85,0,5.3-2.2,6.85-4.8l3.75-12.3C337.77,491,336.52,489.9,334.17,489.9Z"/><path class="cls-2" d="M353.54,505.6a16.49,16.49,0,0,0-1,3.8c0,1.6.85,1.8,1.75,1.8,2.4,0,4-2.35,5.6-6.6l.9.3c-1.8,4.45-3.6,7.55-7.15,7.55-2.15,0-5.1-.8-5.1-3.85a16.3,16.3,0,0,1,.9-4.2l7.25-23a11.39,11.39,0,0,0,.7-3.35c0-1.1-.9-1.45-2-1.6-1.25-.15-1.8-.15-3-.2v-1l11-.5Z"/><path class="cls-2" d="M382.68,506.6c-3.8,12.25-10.35,17.25-17.35,17.25-5.8,0-6.6-3.3-6.6-4.7a3.1,3.1,0,0,1,3.3-3.45,2.29,2.29,0,0,1,2.3,2.1c0,3.9-2.8,1.6-3.15,3.35.15,1.9,2.7,1.75,3.85,1.75,4.75,0,9.55-4.35,12.9-14.65l-.2,0c-1.75,2.25-4.25,4.3-7.1,4.3a5.7,5.7,0,0,1-5.8-5.6,13.15,13.15,0,0,1,1-3.75l2.85-7.25a13.75,13.75,0,0,0,1.1-4.15c0-1.45-.5-1.7-1.45-1.7-2.35,0-3.8,2.5-5.45,6.75l-.9-.35c1.75-4.4,3.5-7.6,7.05-7.6,2.15,0,5,1.1,5,3.9a13,13,0,0,1-1.1,4.25l-3.1,7.7a12.32,12.32,0,0,0-1,3.65c0,2.15,1.2,2.5,2.5,2.5,2.75,0,5.4-2.35,7-4.65l5.15-16.6h4.45Z"/><path class="cls-2" d="M19.9,584.45c-3,0-4.7-1.3-4.7-4.65l-.2,0c-1.9,2.75-4.15,4.85-7,4.85-3.35,0-6.85-1.65-6.85-7.9,0-5.15,4.9-15.85,13.9-15.85a4.28,4.28,0,0,1,4.5,3.65h.15l1.15-3.35h4.5L19.7,577.5a14.55,14.55,0,0,0-.8,3.7c0,1.65.75,2,1.7,2,2.35,0,3.8-2.35,5.45-6.6l1,.3C25.25,581.35,23.45,584.45,19.9,584.45Zm-5-22.55c-5.15,0-9.05,9.9-9.05,15.85,0,4.6,1.6,5.15,2.9,5.15,2.85,0,5-2.3,6.55-4.9l3.8-11.65C18.5,563.3,17.3,561.9,14.9,561.9Z"/><path class="cls-2" d="M49.38,584.45c-2.1,0-5.35-.85-5.35-3.9a12.21,12.21,0,0,1,1.1-4.15l3-7.8a13.32,13.32,0,0,0,1-3.75c0-2.1-1.15-2.4-2.45-2.4-2.7,0-5.55,2.85-7.25,6.2l-5,15.25h-4.5l5.4-16a22.54,22.54,0,0,0,1-4c0-1.4-.45-1.8-1.4-1.8-2.35,0-3.75,2.5-5.4,6.75l-1-.35c1.8-4.4,3.55-7.6,7.1-7.6,2.15,0,4.6.8,4.6,4.55l.2,0c1.75-2.4,4.2-4.6,7.1-4.6a5.63,5.63,0,0,1,5.75,5.6,15.45,15.45,0,0,1-1,3.7l-2.8,7.35a14.82,14.82,0,0,0-1.1,3.9c0,1.6.9,1.8,1.85,1.8,2.35,0,3.85-2.35,5.5-6.6l1,.3C54.73,581.35,52.93,584.45,49.38,584.45Z"/><path class="cls-2" d="M78.21,578.6c-3.8,12.25-10.35,17.25-17.35,17.25-5.8,0-6.6-3.3-6.6-4.7a3.1,3.1,0,0,1,3.3-3.45,2.29,2.29,0,0,1,2.3,2.1c0,3.9-2.8,1.6-3.15,3.35.15,1.9,2.7,1.75,3.85,1.75,4.75,0,9.55-4.35,12.9-14.65l-.2,0c-1.75,2.25-4.25,4.3-7.1,4.3a5.7,5.7,0,0,1-5.8-5.6,13.15,13.15,0,0,1,1-3.75l2.85-7.25a13.75,13.75,0,0,0,1.1-4.15c0-1.45-.5-1.7-1.45-1.7-2.35,0-3.8,2.5-5.45,6.75l-.9-.35c1.75-4.4,3.5-7.6,7.05-7.6,2.15,0,5,1.1,5,3.9a13,13,0,0,1-1.1,4.25l-3.1,7.7a12.32,12.32,0,0,0-1,3.65c0,2.15,1.2,2.5,2.5,2.5,2.75,0,5.4-2.35,7-4.65L79,561.6h4.45Z"/><path class="cls-2" d="M104.06,584.6c-3.4,0-7.4-2.5-7.4-8.75,0-5.35,4.7-15,14-15,3.4,0,7.4,2.55,7.4,8.8C118.06,575,113.46,584.6,104.06,584.6Zm5.85-22.9c-5.25,0-8.55,9.2-8.55,15.1,0,4.6,1.5,6.85,3.45,6.85,5.6,0,8.55-9.15,8.55-15.1C113.36,563.95,111.71,561.7,109.91,561.7Z"/><path class="cls-2" d="M142.78,553.5c-1,0-2.8-.55-2.8-2.2,0-.7.6-1.65.75-2.7-.25-.75-.55-.85-1.1-.85-3.2,0-5.6,3.35-7.55,10.4l-1,3.5h6.3l-.55,1.65h-6.2c-1.6,6.15-3.5,14-5.2,19.4-1.2,3.85-3,7.6-6.05,10.1-2.6,2.2-4.55,2.9-7,2.9-4,0-5.05-2-5.05-4a2.64,2.64,0,0,1,2.6-2.6,2.5,2.5,0,0,1,2.7,2.4,3.63,3.63,0,0,1-1,2.35,1,1,0,0,0,1,.9c3.7,0,5.9-3.3,8.15-10.65,2.45-8.05,4.15-15.55,5.5-20.8h-5.3l.5-1.65h5.3l.55-2a19.51,19.51,0,0,1,5.85-10.15,10,10,0,0,1,7.1-2.75c3.45,0,5.1,2.2,5.1,4.25A2.67,2.67,0,0,1,142.78,553.5Z"/><path class="cls-2" d="M154.47,584.45c-2.15,0-5.2-.85-5.2-3.9a12,12,0,0,1,1-4.15l3.35-8.5a18.08,18.08,0,0,0,1.15-4c0-1.45-.7-1.9-1.65-1.9-2.35,0-3.75,2.5-5.4,6.75l-1-.35c1.8-4.4,3.5-7.6,7.1-7.6,2.15,0,5,1.3,5,4.25a19.19,19.19,0,0,1-1.55,5l-2.85,7.35a13.81,13.81,0,0,0-1.15,4c0,1.6.9,1.75,1.8,1.75,2.4,0,3.9-2.35,5.55-6.6l.9.3C159.78,581.35,158,584.45,154.47,584.45ZM159,554.8a2.5,2.5,0,0,1-2.5-2.8,3.34,3.34,0,0,1,3.4-3.5,2.54,2.54,0,0,1,2.3,2.75A3.25,3.25,0,0,1,159,554.8Z"/><path class="cls-2" d="M179.57,563.3h-6.35c-1.35,4.55-3.75,12.55-4.2,14.3a24.2,24.2,0,0,0-1,3.8c0,1.6,1,1.8,1.85,1.8,2.4,0,4.2-2.45,5.85-6.7l1,.3c-1.8,4.45-4,7.65-7.45,7.65-2.15,0-5.2-.8-5.2-3.85a11.35,11.35,0,0,1,.5-2.9c.6-2.25,4-13.25,4.3-14.4h-4.8l.55-1.65h4.85l2.2-7.75H176l-2.3,7.75h6.4Z"/><path class="cls-2" d="M199.11,584.45c-2.15,0-5.2-.85-5.2-3.9a12,12,0,0,1,1-4.15l3.35-8.5a18.08,18.08,0,0,0,1.15-4c0-1.45-.7-1.9-1.65-1.9-2.35,0-3.75,2.5-5.4,6.75l-1-.35c1.8-4.4,3.5-7.6,7.1-7.6,2.15,0,5,1.3,5,4.25a19.19,19.19,0,0,1-1.55,5l-2.85,7.35a13.81,13.81,0,0,0-1.15,4c0,1.6.9,1.75,1.8,1.75,2.4,0,3.9-2.35,5.55-6.6l.9.3C204.41,581.35,202.61,584.45,199.11,584.45Zm4.5-29.65a2.5,2.5,0,0,1-2.5-2.8,3.34,3.34,0,0,1,3.4-3.5,2.54,2.54,0,0,1,2.3,2.75A3.25,3.25,0,0,1,203.61,554.8Z"/><path class="cls-2" d="M223.54,569.25c-1.25,0-2.45-.6-2.45-2,0-2,2.6-2.6,2.8-3.15-.1-.65-.9-2.2-4.25-2.2a4.08,4.08,0,0,0-4,4.15c0,4.85,8.25,5.15,8.25,11.55,0,3.6-4.15,7.05-8.6,7.05-5.5,0-7.45-3.4-7.45-5.8,0-1.85,1.35-3.45,2.75-3.45,2.2,0,2.65,1.4,2.65,2.2a2.08,2.08,0,0,1-2.2,2.2c-.9,0-1.35,0-1.35.7,0,1.55,2.5,3.1,5,3.1,2.9,0,5.55-1.25,5.55-4,0-5.7-8.35-5.7-8.35-12,0-3.2,3.7-6.8,7.75-6.8,5.45,0,6.2,4,6.2,5.25C225.89,567.95,225,569.25,223.54,569.25Z"/><path class="cls-2" d="M248.89,584.65c-3.8,0-7.8-1.75-7.8-6.35a12.4,12.4,0,0,1,.75-4.35l6.55-20.5a11.71,11.71,0,0,0,.75-3.35c0-1.1-.9-1.45-2-1.6-1.25-.15-1.8-.15-3-.2v-1l10.9-.5-5.9,18,.15,0c1.45-1.7,3.85-4,6.7-4,3.35,0,7.25,1.6,7.25,7.85C263.24,573.9,257.89,584.65,248.89,584.65Zm6.35-22.1c-3,0-5.2,2.25-6.8,4.6l-3.55,11.1c0,4.6,2.45,5.3,4.15,5.3,5.2,0,9.5-10,9.5-15.85C258.54,563.1,256.54,562.55,255.24,562.55Z"/><path class="cls-2" d="M270.75,573.2a24.6,24.6,0,0,0-.75,4.7c0,3.4,1.1,5,3.7,5,3.65,0,6-2.9,8.1-6.7l.9.45c-3.1,5.9-6.5,7.9-9.75,7.9-3.55,0-7.65-1.65-7.65-8,0-5.15,5-15.75,14.3-15.75,2.25,0,4.25,1.1,4.25,3.35C283.85,569.6,275.65,572.45,270.75,573.2Zm7.45-11.35c-2.9,0-5.85,5.3-7.2,10.3,7-1.25,9.4-5.35,9.4-7.65C280.4,562.9,279.8,561.85,278.2,561.85Z"/><path class="cls-2" d="M292.94,584.45c-2.15,0-5.2-.85-5.2-3.9a12,12,0,0,1,1-4.15l3.35-8.5a18.08,18.08,0,0,0,1.15-4c0-1.45-.7-1.9-1.65-1.9-2.35,0-3.75,2.5-5.4,6.75l-1-.35c1.8-4.4,3.5-7.6,7.1-7.6,2.15,0,5,1.3,5,4.25a19.19,19.19,0,0,1-1.55,5l-2.85,7.35a13.81,13.81,0,0,0-1.15,4c0,1.6.9,1.75,1.8,1.75,2.4,0,3.9-2.35,5.55-6.6l.9.3C298.24,581.35,296.44,584.45,292.94,584.45Zm4.5-29.65a2.5,2.5,0,0,1-2.5-2.8,3.34,3.34,0,0,1,3.4-3.5,2.54,2.54,0,0,1,2.3,2.75A3.25,3.25,0,0,1,297.44,554.8Z"/><path class="cls-2" d="M322.58,584.45c-2.1,0-5.35-.85-5.35-3.9a12.21,12.21,0,0,1,1.1-4.15l3-7.8a13.32,13.32,0,0,0,1-3.75c0-2.1-1.15-2.4-2.45-2.4-2.7,0-5.55,2.85-7.25,6.2l-5,15.25H303l5.4-16a22.54,22.54,0,0,0,1-4c0-1.4-.45-1.8-1.4-1.8-2.35,0-3.75,2.5-5.4,6.75l-1-.35c1.8-4.4,3.55-7.6,7.1-7.6,2.15,0,4.6.8,4.6,4.55l.2,0c1.75-2.4,4.2-4.6,7.1-4.6a5.63,5.63,0,0,1,5.75,5.6,15.45,15.45,0,0,1-1,3.7l-2.8,7.35a14.82,14.82,0,0,0-1.1,3.9c0,1.6.9,1.8,1.85,1.8,2.35,0,3.85-2.35,5.5-6.6l1,.3C327.93,581.35,326.13,584.45,322.58,584.45Z"/><path class="cls-2" d="M353.89,565.55c-1.6,0-1.85-1-1.85-3.1a4.89,4.89,0,0,0-3.1.85v.3a6.6,6.6,0,0,1,1,3.4c0,5-4.6,8.4-9.35,8.4h-3.15c-1,.5-2.1,1.1-2.1,2.45,0,1.85,1.65,2.05,5.35,2.45,1.5.15,4.55.5,5.55.65a5.57,5.57,0,0,1,4.9,5.6c0,4.9-4.9,9.05-14.25,9.05-6.1,0-9.15-2.3-9.15-5.5s3-5.75,8.45-6.5v-.35c-2.25-.45-4.4-1.25-4.4-3.45,0-3,3.45-4.3,5.05-4.8v-.25c-2.4-1.1-3.8-3-3.8-5.2,0-5,4.4-8.7,9.75-8.7,3.35,0,5.75,1.45,6.4,1.45,1.75-.85,2.6-1.45,4.7-1.45a2.37,2.37,0,0,1,2.3,2.35A2.25,2.25,0,0,1,353.89,565.55Zm-8.6,19.25a44.38,44.38,0,0,0-8.05-.8c-3.4.85-5.2,2.9-5.2,5.9,0,2,1.55,4.7,6.1,4.7,5.55,0,9-2.6,9-7C347.14,586.7,346.54,585.1,345.29,584.8Zm-2.8-23.15c-3.9,0-5.05,5.65-5.05,8.3,0,2.35,1.2,4.65,3.05,4.65,3.75,0,5.25-5.85,5.25-8.9C345.74,563.6,344.64,561.65,342.49,561.65Z"/><path class="cls-2" d="M6.7,649.6a16.49,16.49,0,0,0-1,3.8c0,1.6.85,1.8,1.75,1.8,2.4,0,4-2.35,5.6-6.6l.9.3c-1.8,4.45-3.6,7.55-7.15,7.55-2.15,0-5.1-.8-5.1-3.85a16.3,16.3,0,0,1,.9-4.2l7.25-23a11.39,11.39,0,0,0,.7-3.35c0-1.1-.9-1.45-2-1.6-1.25-.15-1.8-.15-3-.2v-1l11-.5Z"/><path class="cls-2" d="M21.44,645.2a24.6,24.6,0,0,0-.75,4.7c0,3.4,1.1,5,3.7,5,3.65,0,6-2.9,8.1-6.7l.9.45c-3.1,5.9-6.5,7.9-9.75,7.9-3.55,0-7.65-1.65-7.65-8,0-5.15,5-15.75,14.3-15.75,2.25,0,4.25,1.1,4.25,3.35C34.54,641.6,26.34,644.45,21.44,645.2Zm7.45-11.35c-2.9,0-5.85,5.3-7.2,10.3,7-1.25,9.4-5.35,9.4-7.65C31.09,634.9,30.49,633.85,28.89,633.85Z"/><path class="cls-2" d="M45.73,656.6a6.36,6.36,0,0,1-6.6-6.65c0-5,3.55-9.3,9-14.1l-.3-.25c-2.45,1.5-4.5,2.4-6.35,2.4a5.32,5.32,0,0,1-2.85-.55l-1.7,4.7-1-.3,3-8.9h.7c.9,1.8,3.15,2.45,4.55,2.45a9.29,9.29,0,0,0,6.6-2.7l.8.75c-3.6,3.5-7.9,9.85-7.9,16.55,0,3.6,2.2,4.6,4,4.6,3.7,0,10-4.6,10-12.6,0-4-2.6-3.65-2.6-6.8a2.51,2.51,0,0,1,2.6-2.35c2.35,0,2.65,2.1,2.65,4C60.33,646.75,54.13,656.6,45.73,656.6Z"/><path class="cls-2" d="M67.55,645.2a24.6,24.6,0,0,0-.75,4.7c0,3.4,1.1,5,3.7,5,3.65,0,6-2.9,8.1-6.7l.9.45c-3.1,5.9-6.5,7.9-9.75,7.9-3.55,0-7.65-1.65-7.65-8,0-5.15,5-15.75,14.3-15.75,2.25,0,4.25,1.1,4.25,3.35C80.65,641.6,72.45,644.45,67.55,645.2ZM75,633.85c-2.9,0-5.85,5.3-7.2,10.3,7-1.25,9.4-5.35,9.4-7.65C77.2,634.9,76.6,633.85,75,633.85Z"/><path class="cls-2" d="M100.68,639c-1.75,0-2.45-1-2.45-2.1s1.15-1.7,1.15-2.15,0-.65-.75-.65c-1.75,0-4.05,3.8-5.5,6.45l-4.7,15.3H84l5-16a24.1,24.1,0,0,0,.95-4c0-1.45-.45-1.8-1.4-1.8-2.35,0-3.8,2.65-5.4,6.75l-1-.35c1.8-4.4,3.55-7.6,7.1-7.6,2.15,0,4.25,1.4,4.25,5.05l.2,0c1.65-2.55,3.15-5.1,6.35-5.1a3.05,3.05,0,0,1,3.25,3.05C103.28,637.45,102.43,639,100.68,639Z"/><path class="cls-2" d="M121.36,656.45c-3,0-4.7-1.3-4.7-4.65l-.2,0c-1.9,2.75-4.15,4.85-7,4.85-3.35,0-6.85-1.65-6.85-7.9,0-5.15,4.9-15.85,13.9-15.85a4.28,4.28,0,0,1,4.5,3.65h.15l1.15-3.35h4.5l-5.65,16.35a14.55,14.55,0,0,0-.8,3.7c0,1.65.75,2,1.7,2,2.35,0,3.8-2.35,5.45-6.6l1,.3C126.71,653.35,124.91,656.45,121.36,656.45Zm-5-22.55c-5.15,0-9.05,9.9-9.05,15.85,0,4.6,1.6,5.15,2.9,5.15,2.85,0,5-2.3,6.55-4.9l3.8-11.65C120,635.3,118.76,633.9,116.36,633.9Z"/><path class="cls-2" d="M152.57,637.55c-1.6,0-1.85-1-1.85-3.1a4.89,4.89,0,0,0-3.1.85v.3a6.6,6.6,0,0,1,1,3.4c0,5-4.6,8.4-9.35,8.4h-3.15c-1,.5-2.1,1.1-2.1,2.45,0,1.85,1.65,2.05,5.35,2.45,1.5.15,4.55.5,5.55.65a5.57,5.57,0,0,1,4.9,5.6c0,4.9-4.9,9.05-14.25,9.05-6.1,0-9.15-2.3-9.15-5.5s3-5.75,8.45-6.5v-.35c-2.25-.45-4.4-1.25-4.4-3.45,0-3,3.45-4.3,5.05-4.8v-.25c-2.4-1.1-3.8-3-3.8-5.2,0-5,4.4-8.7,9.75-8.7,3.35,0,5.75,1.45,6.4,1.45,1.75-.85,2.6-1.45,4.7-1.45a2.37,2.37,0,0,1,2.3,2.35A2.25,2.25,0,0,1,152.57,637.55ZM144,656.8a44.38,44.38,0,0,0-8.05-.8c-3.4.85-5.2,2.9-5.2,5.9,0,2,1.55,4.7,6.1,4.7,5.55,0,9-2.6,9-7C145.82,658.7,145.22,657.1,144,656.8Zm-2.8-23.15c-3.9,0-5.05,5.65-5.05,8.3,0,2.35,1.2,4.65,3.05,4.65,3.75,0,5.25-5.85,5.25-8.9C144.42,635.6,143.32,633.65,141.17,633.65Z"/><path class="cls-2" d="M158.39,645.2a24.6,24.6,0,0,0-.75,4.7c0,3.4,1.1,5,3.7,5,3.65,0,6-2.9,8.1-6.7l.9.45c-3.1,5.9-6.5,7.9-9.75,7.9-3.55,0-7.65-1.65-7.65-8,0-5.15,5-15.75,14.3-15.75,2.25,0,4.25,1.1,4.25,3.35C171.49,641.6,163.29,644.45,158.39,645.2Zm7.45-11.35c-2.9,0-5.85,5.3-7.2,10.3,7-1.25,9.4-5.35,9.4-7.65C168,634.9,167.44,633.85,165.84,633.85Z"/><path class="cls-2" d="M191.82,649.5a20.84,20.84,0,0,0-.8,3.7c0,1.65.7,2,1.65,2,2.35,0,3.8-2.35,5.45-6.6l1,.3c-1.8,4.45-3.6,7.55-7.15,7.55-3,0-4.55-1.25-4.55-4.55l-.2,0c-2,2.75-4.55,4.75-7.4,4.75-3.35,0-7-1.65-7-7.9,0-5.15,5-15.85,14.05-15.85a4.83,4.83,0,0,1,4.7,3.2h.15l3.2-10.6a12.93,12.93,0,0,0,.75-3.35c0-1.1-.9-1.45-2.05-1.6s-2.25-.15-3.5-.2v-1l11.35-.5Zm-5.1-15.6c-5.2,0-9.2,9.9-9.2,15.85,0,4.6,1.75,5.15,3,5.15,2.85,0,5.3-2.2,6.85-4.8l3.75-12.3C190.32,635,189.07,633.9,186.71,633.9Z"/><path class="cls-2" d="M204.45,656.35a3.2,3.2,0,0,1-3.25-3.2,3.25,3.25,0,0,1,6.5,0A3.2,3.2,0,0,1,204.45,656.35Z"/></g><g class="cls-1"><path class="cls-2" d="M26.28,142.55C8.64,142.55,0,134.81,0,124.19c0-6.84,3.6-11.34,9.54-11.34s9.18,2.88,9.54,13.14c.18,7.38,2.88,11.52,12.24,11.52,19.26,0,39.42-28.8,49.68-59.58l-.72-.54c-7,6.66-15.12,14-29.7,14C34,91.44,21.06,79.92,21.06,61c0-25.74,22-48.42,48.42-48.42,19.8,0,34.2,12.24,34.2,37.08C103.68,90.72,69.66,142.55,26.28,142.55ZM70,16.74C52.2,16.74,40,40.32,40,61.56c0,15.66,5.76,23.22,18,23.22,14.94,0,30.78-16.92,30.78-42.3C88.74,27,82.08,16.74,70,16.74Z"/><path class="cls-2" d="M155.34,126.71c-25.2,0-38.52-17.64-38.52-41,0-38.52,28.26-73.08,59.22-73.08,22,0,38.34,14,38.34,41.76C214.37,92.34,186.65,126.71,155.34,126.71ZM177.47,16.92c-22.32,0-42.84,40.5-42.84,78.12,0,16.2,6.84,27.36,18.72,27.36,23.22,0,43.2-43.2,43.2-77.4C196.55,29.34,190.43,16.92,177.47,16.92Z"/><path class="cls-2" d="M236.16,141.83l-4.5-3.24L351.17,0,356,3.24ZM256.32,70.2c-13.14,0-23.94-8.64-23.94-22.14,0-18.36,17.46-35.28,35.64-35.28,13.86,0,24.3,8.82,24.3,22.5C292.31,55.62,273.06,70.2,256.32,70.2ZM268,17.1c-12.24,0-22,19.26-22,34.74,0,7.92,2.88,13.86,10.8,13.86,11,0,21.78-15.84,21.78-34.38C278.64,22.32,275.22,17.1,268,17.1Zm52.74,109.44c-13.14,0-23.94-8.64-23.94-22.14,0-18.36,17.46-35.28,35.64-35.28,13.86,0,24.3,8.82,24.3,22.5C356.75,112,337.49,126.53,320.75,126.53Zm11.7-53.1c-12.24,0-22,19.26-22,34.74,0,7.92,2.88,13.86,10.8,13.86,11,0,21.78-15.84,21.78-34.38C343.07,78.66,339.65,73.44,332.45,73.44Z"/></g></g></g></svg>