<svg xmlns="http://www.w3.org/2000/svg" viewBox="0 0 612.79 451.7"><defs><style>.cls-1{isolation:isolate;}.cls-2{fill:#19191e;}</style></defs><title>49-text</title><g id="Layer_2" data-name="Layer 2"><g id="_49-text.svg" data-name=" 49-text.svg"><g class="cls-1"><path class="cls-2" d="M8.75,224.6c-3.4,0-7.4-2.5-7.4-8.75,0-5.35,4.7-15,14-15,3.4,0,7.4,2.55,7.4,8.8C22.75,215,18.15,224.6,8.75,224.6Zm5.85-22.9c-5.25,0-8.55,9.2-8.55,15.1,0,4.6,1.5,6.85,3.45,6.85,5.6,0,8.55-9.15,8.55-15.1C18.05,203.95,16.4,201.7,14.6,201.7Z"/><path class="cls-2" d="M47.47,193.5c-1,0-2.8-.55-2.8-2.2,0-.7.6-1.65.75-2.7-.25-.75-.55-.85-1.1-.85-3.2,0-5.6,3.35-7.55,10.4l-1,3.5h6.3l-.55,1.65h-6.2c-1.6,6.15-3.5,14-5.2,19.4-1.2,3.85-3,7.6-6.05,10.1-2.6,2.2-4.55,2.9-7,2.9-4,0-5-2-5-4a2.63,2.63,0,0,1,2.6-2.6,2.5,2.5,0,0,1,2.7,2.4,3.63,3.63,0,0,1-1,2.35,1,1,0,0,0,1,.9c3.7,0,5.9-3.3,8.15-10.65,2.45-8.05,4.15-15.55,5.5-20.8h-5.3l.5-1.65h5.3l.55-2a19.51,19.51,0,0,1,5.85-10.15,10,10,0,0,1,7.1-2.75c3.45,0,5.1,2.2,5.1,4.25A2.67,2.67,0,0,1,47.47,193.5Z"/><path class="cls-2" d="M85.72,224.45c-2.1,0-5.35-.85-5.35-3.9a13.16,13.16,0,0,1,1.1-4.15l3-7.8a13.32,13.32,0,0,0,1-3.75c0-2.1-1.3-2.4-2.6-2.4-2.7,0-4.75,2.4-6.35,4.75L71,223.9H66.42l5.3-16a10.38,10.38,0,0,0,.65-3c0-2.1-1.35-2.4-2.65-2.4-2.7,0-5.65,3.35-7.05,6.2l-5,15.25h-4.5l5.4-16a22.61,22.61,0,0,0,.95-4c0-1.45-.45-1.8-1.4-1.8-2.35,0-3.75,2.5-5.4,6.75l-1-.35c1.8-4.4,3.55-7.6,7.1-7.6,2.15,0,4.6.75,4.6,4.55l.2,0c1.85-2.55,4.25-4.6,7.1-4.6,3.6,0,5.5,2.4,5.65,4.6h.2c1.7-2.25,4.1-4.6,7-4.6a5.76,5.76,0,0,1,5.9,5.6,15.45,15.45,0,0,1-1,3.7l-2.8,7.35a14.35,14.35,0,0,0-1.1,3.9c0,1.6.9,1.8,1.85,1.8,2.35,0,3.85-2.35,5.5-6.6l1,.3C91.07,221.35,89.27,224.45,85.72,224.45Z"/><path class="cls-2" d="M113.67,224.45c-3,0-4.7-1.3-4.7-4.65l-.2,0c-1.9,2.75-4.15,4.85-7,4.85-3.35,0-6.85-1.65-6.85-7.9,0-5.15,4.9-15.85,13.9-15.85a4.28,4.28,0,0,1,4.5,3.65h.15l1.15-3.35h4.5l-5.65,16.35a14.55,14.55,0,0,0-.8,3.7c0,1.65.75,2,1.7,2,2.35,0,3.8-2.35,5.45-6.6l1,.3C119,221.35,117.22,224.45,113.67,224.45Zm-5-22.55c-5.15,0-9.05,9.9-9.05,15.85,0,4.6,1.6,5.15,2.9,5.15,2.85,0,5-2.3,6.55-4.9l3.8-11.65C112.27,203.3,111.07,201.9,108.67,201.9Z"/><path class="cls-2" d="M138.71,203.3h-6.35c-1.35,4.55-3.75,12.55-4.2,14.3a24.2,24.2,0,0,0-1,3.8c0,1.6,1,1.8,1.85,1.8,2.4,0,4.2-2.45,5.85-6.7l1,.3c-1.8,4.45-4,7.65-7.45,7.65-2.15,0-5.2-.8-5.2-3.85a11.35,11.35,0,0,1,.5-2.9c.6-2.25,4-13.25,4.3-14.4h-4.8l.55-1.65h4.85l2.2-7.75h4.35l-2.3,7.75h6.4Z"/><path class="cls-2" d="M159.73,224.45c-2.8,0-4.75-1.1-4.75-4.65l-.2,0c-1.75,2.5-4.45,4.8-7.3,4.8a5.7,5.7,0,0,1-5.8-5.6,13.32,13.32,0,0,1,1-3.7l2.85-7.35a12.86,12.86,0,0,0,1.05-4c0-1.45-.55-1.8-1.5-1.8-2.35,0-3.75,2.5-5.4,6.75l-.9-.35c1.75-4.4,3.45-7.5,7-7.5,2.15,0,5,1.1,5,3.9a12.26,12.26,0,0,1-1,4.15l-3.05,7.8a12.06,12.06,0,0,0-1,3.6c0,2.15,1.15,2.55,2.45,2.55,2.75,0,5.45-2.6,7-5.35l5-16h4.6l-5.25,15.9a21.77,21.77,0,0,0-.8,3.6c0,1.65.7,2.1,1.65,2.1,2.35,0,3.8-2.35,5.45-6.6l1,.3C165.08,221.35,163.28,224.45,159.73,224.45Z"/><path class="cls-2" d="M186.64,207c-1.75,0-2.45-1-2.45-2.1s1.15-1.7,1.15-2.15,0-.65-.75-.65c-1.75,0-4.05,3.8-5.5,6.45l-4.7,15.3h-4.45l5-16a24,24,0,0,0,1-4c0-1.45-.45-1.8-1.4-1.8-2.35,0-3.8,2.65-5.4,6.75l-1-.35c1.8-4.4,3.55-7.6,7.1-7.6,2.15,0,4.25,1.4,4.25,5.05l.2,0c1.65-2.55,3.15-5.1,6.35-5.1a3.05,3.05,0,0,1,3.25,3.05C189.24,205.45,188.39,207,186.64,207Z"/><path class="cls-2" d="M194,213.2a24.6,24.6,0,0,0-.75,4.7c0,3.4,1.1,5,3.7,5,3.65,0,6-2.9,8.1-6.7l.9.45c-3.1,5.9-6.5,7.9-9.75,7.9-3.55,0-7.65-1.65-7.65-8,0-5.15,5-15.75,14.3-15.75,2.25,0,4.25,1.1,4.25,3.35C207.12,209.6,198.92,212.45,194,213.2Zm7.45-11.35c-2.9,0-5.85,5.3-7.2,10.3,7-1.25,9.4-5.35,9.4-7.65C203.67,202.9,203.07,201.85,201.47,201.85Z"/><path class="cls-2" d="M228,224.6c-3.4,0-7.4-2.5-7.4-8.75,0-5.35,4.7-15,14-15,3.4,0,7.4,2.55,7.4,8.8C242,215,237.42,224.6,228,224.6Zm5.85-22.9c-5.25,0-8.55,9.2-8.55,15.1,0,4.6,1.5,6.85,3.45,6.85,5.6,0,8.55-9.15,8.55-15.1C237.32,203.95,235.67,201.7,233.87,201.7Z"/><path class="cls-2" d="M262.9,207c-1.75,0-2.45-1-2.45-2.1s1.15-1.7,1.15-2.15,0-.65-.75-.65c-1.75,0-4.05,3.8-5.5,6.45l-4.7,15.3H246.2l5-16a24,24,0,0,0,1-4c0-1.45-.45-1.8-1.4-1.8-2.35,0-3.8,2.65-5.4,6.75l-1-.35c1.8-4.4,3.55-7.6,7.1-7.6,2.15,0,4.25,1.4,4.25,5.05l.2,0c1.65-2.55,3.15-5.1,6.35-5.1a3.05,3.05,0,0,1,3.25,3.05C265.5,205.45,264.65,207,262.9,207Z"/><path class="cls-2" d="M287.77,205.55c-1.6,0-1.85-1-1.85-3.1a4.89,4.89,0,0,0-3.1.85v.3a6.6,6.6,0,0,1,1,3.4c0,5-4.6,8.4-9.35,8.4h-3.15c-1,.5-2.1,1.1-2.1,2.45,0,1.85,1.65,2.05,5.35,2.45,1.5.15,4.55.5,5.55.65a5.57,5.57,0,0,1,4.9,5.6c0,4.9-4.9,9.05-14.25,9.05-6.1,0-9.15-2.3-9.15-5.5s3-5.75,8.45-6.5v-.35c-2.25-.45-4.4-1.25-4.4-3.45,0-3,3.45-4.3,5.05-4.8v-.25c-2.4-1.1-3.8-3-3.8-5.2,0-5,4.4-8.7,9.75-8.7,3.35,0,5.75,1.45,6.4,1.45,1.75-.85,2.6-1.45,4.7-1.45a2.37,2.37,0,0,1,2.3,2.35A2.25,2.25,0,0,1,287.77,205.55Zm-8.6,19.25a44.38,44.38,0,0,0-8.05-.8c-3.4.85-5.2,2.9-5.2,5.9,0,2,1.55,4.7,6.1,4.7,5.55,0,9-2.6,9-7C281,226.7,280.42,225.1,279.17,224.8Zm-2.8-23.15c-3.9,0-5.05,5.65-5.05,8.3,0,2.35,1.2,4.65,3.05,4.65,3.75,0,5.25-5.85,5.25-8.9C279.62,203.6,278.52,201.65,276.37,201.65Z"/><path class="cls-2" d="M306.92,224.45c-3,0-4.7-1.3-4.7-4.65l-.2,0c-1.9,2.75-4.15,4.85-7,4.85-3.35,0-6.85-1.65-6.85-7.9,0-5.15,4.9-15.85,13.9-15.85a4.28,4.28,0,0,1,4.5,3.65h.15l1.15-3.35h4.5l-5.65,16.35a14.55,14.55,0,0,0-.8,3.7c0,1.65.75,2,1.7,2,2.35,0,3.8-2.35,5.45-6.6l1,.3C312.27,221.35,310.47,224.45,306.92,224.45Zm-5-22.55c-5.15,0-9.05,9.9-9.05,15.85,0,4.6,1.6,5.15,2.9,5.15,2.85,0,5-2.3,6.55-4.9l3.8-11.65C305.52,203.3,304.31,201.9,301.92,201.9Z"/><path class="cls-2" d="M336.4,224.45c-2.1,0-5.35-.85-5.35-3.9a12.21,12.21,0,0,1,1.1-4.15l3-7.8a13.32,13.32,0,0,0,1-3.75c0-2.1-1.15-2.4-2.45-2.4-2.7,0-5.55,2.85-7.25,6.2l-5,15.25h-4.5l5.4-16a22.61,22.61,0,0,0,.95-4c0-1.4-.45-1.8-1.4-1.8-2.35,0-3.75,2.5-5.4,6.75l-1-.35c1.8-4.4,3.55-7.6,7.1-7.6,2.15,0,4.6.8,4.6,4.55l.2,0c1.75-2.4,4.2-4.6,7.1-4.6a5.63,5.63,0,0,1,5.75,5.6,15.45,15.45,0,0,1-1,3.7l-2.8,7.35a14.82,14.82,0,0,0-1.1,3.9c0,1.6.9,1.8,1.85,1.8,2.35,0,3.85-2.35,5.5-6.6l1,.3C341.75,221.35,339.95,224.45,336.4,224.45Z"/><path class="cls-2" d="M352.22,224.45c-2.15,0-5.2-.85-5.2-3.9a12,12,0,0,1,1-4.15l3.35-8.5a18.08,18.08,0,0,0,1.15-4c0-1.45-.7-1.9-1.65-1.9-2.35,0-3.75,2.5-5.4,6.75l-1-.35c1.8-4.4,3.5-7.6,7.1-7.6,2.15,0,5,1.3,5,4.25a19.19,19.19,0,0,1-1.55,5l-2.85,7.35a13.81,13.81,0,0,0-1.15,4c0,1.6.9,1.75,1.8,1.75,2.4,0,3.9-2.35,5.55-6.6l.9.3C357.52,221.35,355.72,224.45,352.22,224.45Zm4.5-29.65a2.5,2.5,0,0,1-2.5-2.8,3.34,3.34,0,0,1,3.4-3.5,2.54,2.54,0,0,1,2.3,2.75A3.25,3.25,0,0,1,356.72,194.8Z"/><path class="cls-2" d="M380,206.45c-2.4,2-9.85,7.85-15.6,12.35l0,.3c3,.4,5.25,1.65,7.85,1.65s4.6-.45,4.6-2.15-.7-2.2-2-2.45l.3-.9a4.54,4.54,0,0,1,4,4.9c0,2.2-2.55,4.35-5,4.35-2.8,0-7.55-4.4-10.55-4.45-1.3.35-1,1.25-1,2.55s-.75,2-2.1,2a1.58,1.58,0,0,1-1.45-1.7c0-1.15,1.2-2.35,2.8-3.65,3.1-2.55,9.35-7.9,16-12.6l-.1-.25c-3.7-.15-6.5-1.5-8.55-1.5s-3.3.35-3.3,2,1.35,2.35,2.8,2.8l-.45.8c-2-.65-5-2-5-4.75a4.83,4.83,0,0,1,4.65-4.75c4.1,0,6.3,4.45,9.65,4.45,2,0,1.8-1,1.8-2.25s.5-2.25,1.6-2.25,1.85.3,1.85,1.5S382.48,204.45,380,206.45Z"/><path class="cls-2" d="M401.35,224.45c-3,0-4.7-1.3-4.7-4.65l-.2,0c-1.9,2.75-4.15,4.85-7,4.85-3.35,0-6.85-1.65-6.85-7.9,0-5.15,4.9-15.85,13.9-15.85a4.28,4.28,0,0,1,4.5,3.65h.15l1.15-3.35h4.5l-5.65,16.35a14.55,14.55,0,0,0-.8,3.7c0,1.65.75,2,1.7,2,2.35,0,3.8-2.35,5.45-6.6l1,.3C406.7,221.35,404.9,224.45,401.35,224.45Zm-5-22.55c-5.15,0-9.05,9.9-9.05,15.85,0,4.6,1.6,5.15,2.9,5.15,2.85,0,5-2.3,6.55-4.9l3.8-11.65C400,203.3,398.75,201.9,396.35,201.9Z"/><path class="cls-2" d="M426.4,203.3H420c-1.35,4.55-3.75,12.55-4.2,14.3a24.2,24.2,0,0,0-1,3.8c0,1.6,1,1.8,1.85,1.8,2.4,0,4.2-2.45,5.85-6.7l1,.3c-1.8,4.45-4,7.65-7.45,7.65-2.15,0-5.2-.8-5.2-3.85a11.35,11.35,0,0,1,.5-2.9c.6-2.25,4-13.25,4.3-14.4h-4.8l.55-1.65h4.85l2.2-7.75h4.35l-2.3,7.75h6.4Z"/><path class="cls-2" d="M434.11,224.45c-2.15,0-5.2-.85-5.2-3.9a12,12,0,0,1,1-4.15l3.35-8.5a18.08,18.08,0,0,0,1.15-4c0-1.45-.7-1.9-1.65-1.9-2.35,0-3.75,2.5-5.4,6.75l-1-.35c1.8-4.4,3.5-7.6,7.1-7.6,2.15,0,5,1.3,5,4.25a19.19,19.19,0,0,1-1.55,5l-2.85,7.35a13.81,13.81,0,0,0-1.15,4c0,1.6.9,1.75,1.8,1.75,2.4,0,3.9-2.35,5.55-6.6l.9.3C439.41,221.35,437.61,224.45,434.11,224.45Zm4.5-29.65a2.5,2.5,0,0,1-2.5-2.8,3.34,3.34,0,0,1,3.4-3.5,2.54,2.54,0,0,1,2.3,2.75A3.25,3.25,0,0,1,438.61,194.8Z"/><path class="cls-2" d="M450.84,224.6c-3.4,0-7.4-2.5-7.4-8.75,0-5.35,4.7-15,14-15,3.4,0,7.4,2.55,7.4,8.8C464.84,215,460.24,224.6,450.84,224.6Zm5.85-22.9c-5.25,0-8.55,9.2-8.55,15.1,0,4.6,1.5,6.85,3.45,6.85,5.6,0,8.55-9.15,8.55-15.1C460.14,203.95,458.49,201.7,456.69,201.7Z"/><path class="cls-2" d="M488.21,224.45c-2.1,0-5.35-.85-5.35-3.9a12.21,12.21,0,0,1,1.1-4.15l3-7.8a13.32,13.32,0,0,0,1-3.75c0-2.1-1.15-2.4-2.45-2.4-2.7,0-5.55,2.85-7.25,6.2l-5,15.25h-4.5l5.4-16a22.54,22.54,0,0,0,1-4c0-1.4-.45-1.8-1.4-1.8-2.35,0-3.75,2.5-5.4,6.75l-1-.35c1.8-4.4,3.55-7.6,7.1-7.6,2.15,0,4.6.8,4.6,4.55l.2,0c1.75-2.4,4.2-4.6,7.1-4.6a5.63,5.63,0,0,1,5.75,5.6,15.45,15.45,0,0,1-1,3.7l-2.8,7.35a14.82,14.82,0,0,0-1.1,3.9c0,1.6.9,1.8,1.85,1.8,2.35,0,3.85-2.35,5.5-6.6l1,.3C493.56,221.35,491.76,224.45,488.21,224.45Z"/><path class="cls-2" d="M512.58,209.25c-1.25,0-2.45-.6-2.45-2,0-2,2.6-2.6,2.8-3.15-.1-.65-.9-2.2-4.25-2.2a4.08,4.08,0,0,0-4,4.15c0,4.85,8.25,5.15,8.25,11.55,0,3.6-4.15,7.05-8.6,7.05-5.5,0-7.45-3.4-7.45-5.8,0-1.85,1.35-3.45,2.75-3.45,2.2,0,2.65,1.4,2.65,2.2a2.08,2.08,0,0,1-2.2,2.2c-.9,0-1.35,0-1.35.7,0,1.55,2.5,3.1,5,3.1,2.9,0,5.55-1.25,5.55-4,0-5.7-8.35-5.7-8.35-12,0-3.2,3.7-6.8,7.75-6.8,5.45,0,6.2,4,6.2,5.25C514.93,207.95,514,209.25,512.58,209.25Z"/><path class="cls-2" d="M20,296.45c-2.15,0-5.35-.85-5.35-3.9a12.38,12.38,0,0,1,1-4.15l3-7.8a12.22,12.22,0,0,0,1-3.65c0-2.1-1.15-2.5-2.5-2.5-2.7,0-5.25,2-7.55,6.2L4.8,295.9H.4L10,265.45a11.09,11.09,0,0,0,.7-3.35c0-1.1-.85-1.45-1.95-1.6-1.3-.15-1.8-.15-3-.2v-1l10.9-.5-6,18.1.2,0c1.9-2.4,4.15-4.1,7-4.1a5.63,5.63,0,0,1,5.75,5.6,14.81,14.81,0,0,1-1,3.7L19.9,289.5a15.26,15.26,0,0,0-1.1,4c0,1.6,1,1.7,1.85,1.7,2.4,0,3.85-2.35,5.5-6.6l.9.3C25.25,293.35,23.5,296.45,20,296.45Z"/><path class="cls-2" d="M47.82,296.45c-3,0-4.7-1.3-4.7-4.65l-.2,0c-1.9,2.75-4.15,4.85-7,4.85-3.35,0-6.85-1.65-6.85-7.9,0-5.15,4.9-15.85,13.9-15.85a4.28,4.28,0,0,1,4.5,3.65h.15l1.15-3.35h4.5L47.62,289.5a14.55,14.55,0,0,0-.8,3.7c0,1.65.75,2,1.7,2,2.35,0,3.8-2.35,5.45-6.6l1,.3C53.17,293.35,51.37,296.45,47.82,296.45Zm-5-22.55c-5.15,0-9.05,9.9-9.05,15.85,0,4.6,1.6,5.15,2.9,5.15,2.85,0,5-2.3,6.55-4.9L47,278.35C46.42,275.3,45.22,273.9,42.82,273.9Z"/><path class="cls-2" d="M66,296.6a6.36,6.36,0,0,1-6.6-6.65c0-5,3.55-9.3,9-14.1l-.3-.25c-2.45,1.5-4.5,2.4-6.35,2.4a5.32,5.32,0,0,1-2.85-.55l-1.7,4.7-1-.3,3-8.9h.7c.9,1.8,3.15,2.45,4.55,2.45a9.29,9.29,0,0,0,6.6-2.7l.8.75c-3.6,3.5-7.9,9.85-7.9,16.55,0,3.6,2.2,4.6,4,4.6,3.7,0,10-4.6,10-12.6,0-4-2.6-3.65-2.6-6.8a2.51,2.51,0,0,1,2.6-2.35c2.35,0,2.65,2.1,2.65,4C80.56,286.75,74.36,296.6,66,296.6Z"/><path class="cls-2" d="M87.77,285.2a24.6,24.6,0,0,0-.75,4.7c0,3.4,1.1,5,3.7,5,3.65,0,6-2.9,8.1-6.7l.9.45c-3.1,5.9-6.5,7.9-9.75,7.9-3.55,0-7.65-1.65-7.65-8,0-5.15,5-15.75,14.3-15.75,2.25,0,4.25,1.1,4.25,3.35C100.88,281.6,92.68,284.45,87.77,285.2Zm7.45-11.35c-2.9,0-5.85,5.3-7.2,10.3,7-1.25,9.4-5.35,9.4-7.65C97.43,274.9,96.83,273.85,95.23,273.85Z"/><path class="cls-2" d="M129,281.25c-1.25,0-2.45-.6-2.45-2,0-2,2.6-2.6,2.8-3.15-.1-.65-.9-2.2-4.25-2.2a4.08,4.08,0,0,0-4,4.15c0,4.85,8.25,5.15,8.25,11.55,0,3.6-4.15,7.05-8.6,7.05-5.5,0-7.45-3.4-7.45-5.8,0-1.85,1.35-3.45,2.75-3.45,2.2,0,2.65,1.4,2.65,2.2a2.08,2.08,0,0,1-2.2,2.2c-.9,0-1.35,0-1.35.7,0,1.55,2.5,3.1,5,3.1,2.9,0,5.55-1.25,5.55-4,0-5.7-8.35-5.7-8.35-12,0-3.2,3.7-6.8,7.75-6.8,5.45,0,6.2,4,6.2,5.25C131.32,279.95,130.42,281.25,129,281.25Z"/><path class="cls-2" d="M138.61,285.2a24.6,24.6,0,0,0-.75,4.7c0,3.4,1.1,5,3.7,5,3.65,0,6-2.9,8.1-6.7l.9.45c-3.1,5.9-6.5,7.9-9.75,7.9-3.55,0-7.65-1.65-7.65-8,0-5.15,5-15.75,14.3-15.75,2.25,0,4.25,1.1,4.25,3.35C151.71,281.6,143.51,284.45,138.61,285.2Zm7.45-11.35c-2.9,0-5.85,5.3-7.2,10.3,7-1.25,9.4-5.35,9.4-7.65C148.26,274.9,147.66,273.85,146.06,273.85Z"/><path class="cls-2" d="M158.48,285.2a24.6,24.6,0,0,0-.75,4.7c0,3.4,1.1,5,3.7,5,3.65,0,6-2.9,8.1-6.7l.9.45c-3.1,5.9-6.5,7.9-9.75,7.9-3.55,0-7.65-1.65-7.65-8,0-5.15,5-15.75,14.3-15.75,2.25,0,4.25,1.1,4.25,3.35C171.58,281.6,163.38,284.45,158.48,285.2Zm7.45-11.35c-2.9,0-5.85,5.3-7.2,10.3,7-1.25,9.4-5.35,9.4-7.65C168.13,274.9,167.53,273.85,165.93,273.85Z"/><path class="cls-2" d="M194.11,296.45c-2.1,0-5.35-.85-5.35-3.9a12.21,12.21,0,0,1,1.1-4.15l3-7.8a13.32,13.32,0,0,0,1-3.75c0-2.1-1.15-2.4-2.45-2.4-2.7,0-5.55,2.85-7.25,6.2l-5,15.25h-4.5l5.4-16a22.61,22.61,0,0,0,.95-4c0-1.4-.45-1.8-1.4-1.8-2.35,0-3.75,2.5-5.4,6.75l-1-.35c1.8-4.4,3.55-7.6,7.1-7.6,2.15,0,4.6.8,4.6,4.55l.2,0c1.75-2.4,4.2-4.6,7.1-4.6a5.63,5.63,0,0,1,5.75,5.6,15.45,15.45,0,0,1-1,3.7l-2.8,7.35a14.82,14.82,0,0,0-1.1,3.9c0,1.6.9,1.8,1.85,1.8,2.35,0,3.85-2.35,5.5-6.6l1,.3C199.46,293.35,197.66,296.45,194.11,296.45Z"/><path class="cls-2" d="M229.76,281.25c-1.25,0-2.45-.6-2.45-2,0-2,2.6-2.6,2.8-3.15-.1-.65-.9-2.2-4.25-2.2a4.08,4.08,0,0,0-4,4.15c0,4.85,8.25,5.15,8.25,11.55,0,3.6-4.15,7.05-8.6,7.05-5.5,0-7.45-3.4-7.45-5.8,0-1.85,1.35-3.45,2.75-3.45,2.2,0,2.65,1.4,2.65,2.2a2.08,2.08,0,0,1-2.2,2.2c-.9,0-1.35,0-1.35.7,0,1.55,2.5,3.1,5,3.1,2.9,0,5.55-1.25,5.55-4,0-5.7-8.35-5.7-8.35-12,0-3.2,3.7-6.8,7.75-6.8,5.45,0,6.2,4,6.2,5.25C232.11,279.95,231.21,281.25,229.76,281.25Z"/><path class="cls-2" d="M241.75,296.45c-2.15,0-5.2-.85-5.2-3.9a12,12,0,0,1,1-4.15l3.35-8.5a18.08,18.08,0,0,0,1.15-4c0-1.45-.7-1.9-1.65-1.9-2.35,0-3.75,2.5-5.4,6.75l-1-.35c1.8-4.4,3.5-7.6,7.1-7.6,2.15,0,5,1.3,5,4.25a19.19,19.19,0,0,1-1.55,5l-2.85,7.35a13.81,13.81,0,0,0-1.15,4c0,1.6.9,1.75,1.8,1.75,2.4,0,3.9-2.35,5.55-6.6l.9.3C247,293.35,245.25,296.45,241.75,296.45Zm4.5-29.65a2.5,2.5,0,0,1-2.5-2.8,3.34,3.34,0,0,1,3.4-3.5,2.54,2.54,0,0,1,2.3,2.75A3.25,3.25,0,0,1,246.25,266.8Z"/><path class="cls-2" d="M273.12,277.55c-1.6,0-1.85-1-1.85-3.1a4.89,4.89,0,0,0-3.1.85v.3a6.6,6.6,0,0,1,1,3.4c0,5-4.6,8.4-9.35,8.4h-3.15c-1,.5-2.1,1.1-2.1,2.45,0,1.85,1.65,2.05,5.35,2.45,1.5.15,4.55.5,5.55.65a5.57,5.57,0,0,1,4.9,5.6c0,4.9-4.9,9.05-14.25,9.05-6.1,0-9.15-2.3-9.15-5.5s3-5.75,8.45-6.5v-.35c-2.25-.45-4.4-1.25-4.4-3.45,0-3,3.45-4.3,5.05-4.8v-.25c-2.4-1.1-3.8-3-3.8-5.2,0-5,4.4-8.7,9.75-8.7,3.35,0,5.75,1.45,6.4,1.45,1.75-.85,2.6-1.45,4.7-1.45a2.37,2.37,0,0,1,2.3,2.35A2.25,2.25,0,0,1,273.12,277.55Zm-8.6,19.25a44.38,44.38,0,0,0-8.05-.8c-3.4.85-5.2,2.9-5.2,5.9,0,2,1.55,4.7,6.1,4.7,5.55,0,9-2.6,9-7C266.37,298.7,265.77,297.1,264.52,296.8Zm-2.8-23.15c-3.9,0-5.05,5.65-5.05,8.3,0,2.35,1.2,4.65,3.05,4.65,3.75,0,5.25-5.85,5.25-8.9C265,275.6,263.87,273.65,261.72,273.65Z"/><path class="cls-2" d="M296.32,296.45c-2.1,0-5.35-.85-5.35-3.9a12.21,12.21,0,0,1,1.1-4.15l3-7.8a13.32,13.32,0,0,0,1-3.75c0-2.1-1.15-2.4-2.45-2.4-2.7,0-5.55,2.85-7.25,6.2l-5,15.25h-4.5l5.4-16a22.54,22.54,0,0,0,1-4c0-1.4-.45-1.8-1.4-1.8-2.35,0-3.75,2.5-5.4,6.75l-1-.35c1.8-4.4,3.55-7.6,7.1-7.6,2.15,0,4.6.8,4.6,4.55l.2,0c1.75-2.4,4.2-4.6,7.1-4.6a5.63,5.63,0,0,1,5.75,5.6,15.45,15.45,0,0,1-1,3.7l-2.8,7.35a14.82,14.82,0,0,0-1.1,3.9c0,1.6.9,1.8,1.85,1.8,2.35,0,3.85-2.35,5.5-6.6l1,.3C301.67,293.35,299.87,296.45,296.32,296.45Z"/><path class="cls-2" d="M312.14,296.45c-2.15,0-5.2-.85-5.2-3.9a12,12,0,0,1,1-4.15l3.35-8.5a18.08,18.08,0,0,0,1.15-4c0-1.45-.7-1.9-1.65-1.9-2.35,0-3.75,2.5-5.4,6.75l-1-.35c1.8-4.4,3.5-7.6,7.1-7.6,2.15,0,5,1.3,5,4.25a19.19,19.19,0,0,1-1.55,5l-2.85,7.35a13.81,13.81,0,0,0-1.15,4c0,1.6.9,1.75,1.8,1.75,2.4,0,3.9-2.35,5.55-6.6l.9.3C317.44,293.35,315.64,296.45,312.14,296.45Zm4.5-29.65a2.5,2.5,0,0,1-2.5-2.8,3.34,3.34,0,0,1,3.4-3.5,2.54,2.54,0,0,1,2.3,2.75A3.25,3.25,0,0,1,316.64,266.8Z"/><path class="cls-2" d="M343.13,265.5c-1,0-2.8-.55-2.8-2.2,0-.7.6-1.65.75-2.7-.25-.75-.55-.85-1.1-.85-3.2,0-5.6,3.35-7.55,10.4l-1,3.5h6.3l-.55,1.65H331c-1.6,6.15-3.5,14-5.2,19.4-1.2,3.85-3,7.6-6.05,10.1-2.6,2.2-4.55,2.9-7,2.9-4,0-5-2-5-4a2.63,2.63,0,0,1,2.6-2.6,2.5,2.5,0,0,1,2.7,2.4,3.63,3.63,0,0,1-1,2.35,1,1,0,0,0,1,.9c3.7,0,5.9-3.3,8.15-10.65,2.45-8.05,4.15-15.55,5.5-20.8h-5.3l.5-1.65h5.3l.55-2a19.51,19.51,0,0,1,5.85-10.15,10,10,0,0,1,7.1-2.75c3.45,0,5.1,2.2,5.1,4.25A2.67,2.67,0,0,1,343.13,265.5Z"/><path class="cls-2" d="M344.45,296.45c-2.15,0-5.2-.85-5.2-3.9a12,12,0,0,1,1-4.15l3.35-8.5a18.08,18.08,0,0,0,1.15-4c0-1.45-.7-1.9-1.65-1.9-2.35,0-3.75,2.5-5.4,6.75l-1-.35c1.8-4.4,3.5-7.6,7.1-7.6,2.15,0,5,1.3,5,4.25a19.19,19.19,0,0,1-1.55,5l-2.85,7.35a13.81,13.81,0,0,0-1.15,4c0,1.6.9,1.75,1.8,1.75,2.4,0,3.9-2.35,5.55-6.6l.9.3C349.75,293.35,348,296.45,344.45,296.45ZM349,266.8a2.5,2.5,0,0,1-2.5-2.8,3.34,3.34,0,0,1,3.4-3.5,2.54,2.54,0,0,1,2.3,2.75A3.25,3.25,0,0,1,349,266.8Z"/><path class="cls-2" d="M369.68,280.7a2.42,2.42,0,0,1-2.65-2.25c0-1,1-2.15,2.55-3-.25-1.3-1.1-1.8-2.9-1.8-4.35,0-8.3,10.05-8.3,16.05,0,3.35,1,5.2,3.6,5.2,3.65,0,6.15-2.9,8.2-6.7l1,.45c-3.2,5.9-6.7,7.9-10,7.9-3.5,0-7.5-1.55-7.5-7.9,0-5.15,5-15.85,13.45-15.85a4.77,4.77,0,0,1,5.1,4.5C372.23,279,371.38,280.7,369.68,280.7Z"/><path class="cls-2" d="M392.44,296.45c-3,0-4.7-1.3-4.7-4.65l-.2,0c-1.9,2.75-4.15,4.85-7,4.85-3.35,0-6.85-1.65-6.85-7.9,0-5.15,4.9-15.85,13.9-15.85a4.28,4.28,0,0,1,4.5,3.65h.15l1.15-3.35h4.5l-5.65,16.35a14.55,14.55,0,0,0-.8,3.7c0,1.65.75,2,1.7,2,2.35,0,3.8-2.35,5.45-6.6l1,.3C397.79,293.35,396,296.45,392.44,296.45Zm-5-22.55c-5.15,0-9.05,9.9-9.05,15.85,0,4.6,1.6,5.15,2.9,5.15,2.85,0,5-2.3,6.55-4.9l3.8-11.65C391,275.3,389.84,273.9,387.44,273.9Z"/><path class="cls-2" d="M421.92,296.45c-2.1,0-5.35-.85-5.35-3.9a12.21,12.21,0,0,1,1.1-4.15l3-7.8a13.32,13.32,0,0,0,1-3.75c0-2.1-1.15-2.4-2.45-2.4-2.7,0-5.55,2.85-7.25,6.2l-5,15.25h-4.5l5.4-16a22.54,22.54,0,0,0,1-4c0-1.4-.45-1.8-1.4-1.8-2.35,0-3.75,2.5-5.4,6.75l-1-.35c1.8-4.4,3.55-7.6,7.1-7.6,2.15,0,4.6.8,4.6,4.55l.2,0c1.75-2.4,4.2-4.6,7.1-4.6a5.63,5.63,0,0,1,5.75,5.6,15.45,15.45,0,0,1-1,3.7l-2.8,7.35a14.82,14.82,0,0,0-1.1,3.9c0,1.6.9,1.8,1.85,1.8,2.35,0,3.85-2.35,5.5-6.6l1,.3C427.27,293.35,425.47,296.45,421.92,296.45Z"/><path class="cls-2" d="M446.82,275.3h-6.35c-1.35,4.55-3.75,12.55-4.2,14.3a24.2,24.2,0,0,0-1,3.8c0,1.6,1,1.8,1.85,1.8,2.4,0,4.2-2.45,5.85-6.7l1,.3c-1.8,4.45-4,7.65-7.45,7.65-2.15,0-5.2-.8-5.2-3.85a11.35,11.35,0,0,1,.5-2.9c.6-2.25,4-13.25,4.3-14.4h-4.8l.55-1.65h4.85l2.2-7.75h4.35l-2.3,7.75h6.4Z"/><path class="cls-2" d="M481.62,277.55c-1.6,0-1.85-1-1.85-3.1a4.89,4.89,0,0,0-3.1.85v.3a6.6,6.6,0,0,1,1,3.4c0,5-4.6,8.4-9.35,8.4h-3.15c-1,.5-2.1,1.1-2.1,2.45,0,1.85,1.65,2.05,5.35,2.45,1.5.15,4.55.5,5.55.65a5.57,5.57,0,0,1,4.9,5.6c0,4.9-4.9,9.05-14.25,9.05-6.1,0-9.15-2.3-9.15-5.5s3-5.75,8.45-6.5v-.35c-2.25-.45-4.4-1.25-4.4-3.45,0-3,3.45-4.3,5.05-4.8v-.25c-2.4-1.1-3.8-3-3.8-5.2,0-5,4.4-8.7,9.75-8.7,3.35,0,5.75,1.45,6.4,1.45,1.75-.85,2.6-1.45,4.7-1.45a2.37,2.37,0,0,1,2.3,2.35A2.25,2.25,0,0,1,481.62,277.55ZM473,296.8A44.38,44.38,0,0,0,465,296c-3.4.85-5.2,2.9-5.2,5.9,0,2,1.55,4.7,6.1,4.7,5.55,0,9-2.6,9-7C474.87,298.7,474.27,297.1,473,296.8Zm-2.8-23.15c-3.9,0-5.05,5.65-5.05,8.3,0,2.35,1.2,4.65,3.05,4.65,3.75,0,5.25-5.85,5.25-8.9C473.47,275.6,472.37,273.65,470.22,273.65Z"/><path class="cls-2" d="M500.77,296.45c-3,0-4.7-1.3-4.7-4.65l-.2,0c-1.9,2.75-4.15,4.85-7,4.85-3.35,0-6.85-1.65-6.85-7.9,0-5.15,4.9-15.85,13.9-15.85a4.28,4.28,0,0,1,4.5,3.65h.15l1.15-3.35h4.5l-5.65,16.35a14.55,14.55,0,0,0-.8,3.7c0,1.65.75,2,1.7,2,2.35,0,3.8-2.35,5.45-6.6l1,.3C506.12,293.35,504.32,296.45,500.77,296.45Zm-5-22.55c-5.15,0-9.05,9.9-9.05,15.85,0,4.6,1.6,5.15,2.9,5.15,2.85,0,5-2.3,6.55-4.9l3.8-11.65C499.37,275.3,498.17,273.9,495.77,273.9Z"/><path class="cls-2" d="M516.81,296.45c-2.15,0-5.2-.85-5.2-3.9a12,12,0,0,1,1-4.15l3.35-8.5a18.08,18.08,0,0,0,1.15-4c0-1.45-.7-1.9-1.65-1.9-2.35,0-3.75,2.5-5.4,6.75l-1-.35c1.8-4.4,3.5-7.6,7.1-7.6,2.15,0,5,1.3,5,4.25a19.19,19.19,0,0,1-1.55,5l-2.85,7.35a13.81,13.81,0,0,0-1.15,4c0,1.6.9,1.75,1.8,1.75,2.4,0,3.9-2.35,5.55-6.6l.9.3C522.11,293.35,520.31,296.45,516.81,296.45Zm4.5-29.65a2.5,2.5,0,0,1-2.5-2.8,3.34,3.34,0,0,1,3.4-3.5,2.54,2.54,0,0,1,2.3,2.75A3.25,3.25,0,0,1,521.31,266.8Z"/><path class="cls-2" d="M546.45,296.45c-2.1,0-5.35-.85-5.35-3.9a12.21,12.21,0,0,1,1.1-4.15l3-7.8a13.32,13.32,0,0,0,1-3.75c0-2.1-1.15-2.4-2.45-2.4-2.7,0-5.55,2.85-7.25,6.2l-5,15.25h-4.5l5.4-16a22.54,22.54,0,0,0,1-4c0-1.4-.45-1.8-1.4-1.8-2.35,0-3.75,2.5-5.4,6.75l-1-.35c1.8-4.4,3.55-7.6,7.1-7.6,2.15,0,4.6.8,4.6,4.55l.2,0c1.75-2.4,4.2-4.6,7.1-4.6a5.63,5.63,0,0,1,5.75,5.6,15.45,15.45,0,0,1-1,3.7l-2.8,7.35a14.82,14.82,0,0,0-1.1,3.9c0,1.6.9,1.8,1.85,1.8,2.35,0,3.85-2.35,5.5-6.6l1,.3C551.8,293.35,550,296.45,546.45,296.45Z"/><path class="cls-2" d="M570.82,281.25c-1.25,0-2.45-.6-2.45-2,0-2,2.6-2.6,2.8-3.15-.1-.65-.9-2.2-4.25-2.2a4.08,4.08,0,0,0-4,4.15c0,4.85,8.25,5.15,8.25,11.55,0,3.6-4.15,7.05-8.6,7.05-5.5,0-7.45-3.4-7.45-5.8,0-1.85,1.35-3.45,2.75-3.45,2.2,0,2.65,1.4,2.65,2.2a2.08,2.08,0,0,1-2.2,2.2c-.9,0-1.35,0-1.35.7,0,1.55,2.5,3.1,5,3.1,2.9,0,5.55-1.25,5.55-4,0-5.7-8.35-5.7-8.35-12,0-3.2,3.7-6.8,7.75-6.8,5.45,0,6.2,4,6.2,5.25C573.17,279.95,572.27,281.25,570.82,281.25Z"/><path class="cls-2" d="M8.65,368.45c-2.15,0-5.2-.85-5.2-3.9a12,12,0,0,1,1-4.15l3.35-8.5a18.08,18.08,0,0,0,1.15-4c0-1.45-.7-1.9-1.65-1.9-2.35,0-3.75,2.5-5.4,6.75l-1-.35c1.8-4.4,3.5-7.6,7.1-7.6,2.15,0,5,1.3,5,4.25a19.19,19.19,0,0,1-1.55,5L8.65,361.5a13.81,13.81,0,0,0-1.15,4c0,1.6.9,1.75,1.8,1.75,2.4,0,3.9-2.35,5.55-6.6l.9.3C14,365.35,12.15,368.45,8.65,368.45Zm4.5-29.65a2.5,2.5,0,0,1-2.5-2.8,3.34,3.34,0,0,1,3.4-3.5,2.54,2.54,0,0,1,2.3,2.75A3.25,3.25,0,0,1,13.15,338.8Z"/><path class="cls-2" d="M38.29,368.45c-2.1,0-5.35-.85-5.35-3.9A12.21,12.21,0,0,1,34,360.4l3-7.8a13.32,13.32,0,0,0,1-3.75c0-2.1-1.15-2.4-2.45-2.4-2.7,0-5.55,2.85-7.25,6.2l-5,15.25h-4.5l5.4-16a22.54,22.54,0,0,0,1-4c0-1.4-.45-1.8-1.4-1.8-2.35,0-3.75,2.5-5.4,6.75l-1-.35c1.8-4.4,3.55-7.6,7.1-7.6,2.15,0,4.6.8,4.6,4.55l.2,0c1.75-2.4,4.2-4.6,7.1-4.6a5.63,5.63,0,0,1,5.75,5.6,15.45,15.45,0,0,1-1,3.7l-2.8,7.35a14.82,14.82,0,0,0-1.1,3.9c0,1.6.9,1.8,1.85,1.8,2.35,0,3.85-2.35,5.5-6.6l1,.3C43.64,365.35,41.84,368.45,38.29,368.45Z"/><path class="cls-2" d="M66.74,368.6c-3.4,0-7.4-2.5-7.4-8.75,0-5.35,4.7-15,14-15,3.4,0,7.4,2.55,7.4,8.8C80.74,359,76.14,368.6,66.74,368.6Zm5.85-22.9c-5.25,0-8.55,9.2-8.55,15.1,0,4.6,1.5,6.85,3.45,6.85,5.6,0,8.55-9.15,8.55-15.1C76,347.95,74.39,345.7,72.59,345.7Z"/><path class="cls-2" d="M95,368.55a4.91,4.91,0,0,1-4.75-3.2H90l-2.5,8.1a14.58,14.58,0,0,0-.7,3.35c0,1.1.9,1.45,2,1.6a26.51,26.51,0,0,0,2.75.2v1H77.54v-1c2.3,0,3.15-.4,3.75-1.1a12.69,12.69,0,0,0,1.9-4.2l6.75-21.45a21.81,21.81,0,0,0,.85-3.7c0-1.65-.4-2.15-1.35-2.15-2.2,0-3.75,2.5-5.4,6.75l-1-.35c1.8-4.4,3.55-7.6,7.1-7.6,2.3,0,4.35,1.3,4.35,4.6l.2,0c2-2.55,4.35-4.65,7.25-4.65,3.35,0,7.1,1.6,7.1,7.85C109,357.9,104,368.55,95,368.55Zm6.15-22c-2.8,0-5.1,2.3-6.65,4.75l-3.85,12.35c.7,2.75,2.15,3.8,4.55,3.8,5.2,0,9.15-9.85,9.15-15.75C104.34,347.1,102.44,346.55,101.14,346.55Z"/><path class="cls-2" d="M116.54,357.2a24.6,24.6,0,0,0-.75,4.7c0,3.4,1.1,5,3.7,5,3.65,0,6-2.9,8.1-6.7l.9.45c-3.1,5.9-6.5,7.9-9.75,7.9-3.55,0-7.65-1.65-7.65-8,0-5.15,5-15.75,14.3-15.75,2.25,0,4.25,1.1,4.25,3.35C129.64,353.6,121.44,356.45,116.54,357.2ZM124,345.85c-2.9,0-5.85,5.3-7.2,10.3,7-1.25,9.4-5.35,9.4-7.65C126.19,346.9,125.59,345.85,124,345.85Z"/><path class="cls-2" d="M149.67,351c-1.75,0-2.45-1-2.45-2.1s1.15-1.7,1.15-2.15,0-.65-.75-.65c-1.75,0-4.05,3.8-5.5,6.45l-4.7,15.3H133l5-16a24,24,0,0,0,1-4c0-1.45-.45-1.8-1.4-1.8-2.35,0-3.8,2.65-5.4,6.75l-1-.35c1.8-4.4,3.55-7.6,7.1-7.6,2.15,0,4.25,1.4,4.25,5.05l.2,0c1.65-2.55,3.15-5.1,6.35-5.1a3.05,3.05,0,0,1,3.25,3.05C152.27,349.45,151.42,351,149.67,351Z"/><path class="cls-2" d="M170.35,368.45c-3,0-4.7-1.3-4.7-4.65l-.2,0c-1.9,2.75-4.15,4.85-7,4.85-3.35,0-6.85-1.65-6.85-7.9,0-5.15,4.9-15.85,13.9-15.85a4.28,4.28,0,0,1,4.5,3.65h.15l1.15-3.35h4.5l-5.65,16.35a14.55,14.55,0,0,0-.8,3.7c0,1.65.75,2,1.7,2,2.35,0,3.8-2.35,5.45-6.6l1,.3C175.7,365.35,173.9,368.45,170.35,368.45Zm-5-22.55c-5.15,0-9.05,9.9-9.05,15.85,0,4.6,1.6,5.15,2.9,5.15,2.85,0,5-2.3,6.55-4.9l3.8-11.65C168.95,347.3,167.75,345.9,165.35,345.9Z"/><path class="cls-2" d="M195.4,347.3H189c-1.35,4.55-3.75,12.55-4.2,14.3a24.2,24.2,0,0,0-1,3.8c0,1.6,1,1.8,1.85,1.8,2.4,0,4.2-2.45,5.85-6.7l1,.3c-1.8,4.45-4,7.65-7.45,7.65-2.15,0-5.2-.8-5.2-3.85a11.35,11.35,0,0,1,.5-2.9c.6-2.25,4-13.25,4.3-14.4h-4.8l.55-1.65h4.85l2.2-7.75h4.35l-2.3,7.75h6.4Z"/><path class="cls-2" d="M203.11,368.45c-2.15,0-5.2-.85-5.2-3.9a12,12,0,0,1,1-4.15l3.35-8.5a18.08,18.08,0,0,0,1.15-4c0-1.45-.7-1.9-1.65-1.9-2.35,0-3.75,2.5-5.4,6.75l-1-.35c1.8-4.4,3.5-7.6,7.1-7.6,2.15,0,5,1.3,5,4.25a19.19,19.19,0,0,1-1.55,5l-2.85,7.35a13.81,13.81,0,0,0-1.15,4c0,1.6.9,1.75,1.8,1.75,2.4,0,3.9-2.35,5.55-6.6l.9.3C208.41,365.35,206.61,368.45,203.11,368.45Zm4.5-29.65a2.5,2.5,0,0,1-2.5-2.8,3.34,3.34,0,0,1,3.4-3.5,2.54,2.54,0,0,1,2.3,2.75A3.25,3.25,0,0,1,207.61,338.8Z"/><path class="cls-2" d="M219.83,368.6c-3.4,0-7.4-2.5-7.4-8.75,0-5.35,4.7-15,14-15,3.4,0,7.4,2.55,7.4,8.8C233.83,359,229.23,368.6,219.83,368.6Zm5.85-22.9c-5.25,0-8.55,9.2-8.55,15.1,0,4.6,1.5,6.85,3.45,6.85,5.6,0,8.55-9.15,8.55-15.1C229.13,347.95,227.48,345.7,225.68,345.7Z"/><path class="cls-2" d="M257.21,368.45c-2.1,0-5.35-.85-5.35-3.9a12.21,12.21,0,0,1,1.1-4.15l3-7.8a13.32,13.32,0,0,0,1-3.75c0-2.1-1.15-2.4-2.45-2.4-2.7,0-5.55,2.85-7.25,6.2l-5,15.25h-4.5l5.4-16a22.54,22.54,0,0,0,1-4c0-1.4-.45-1.8-1.4-1.8-2.35,0-3.75,2.5-5.4,6.75l-1-.35c1.8-4.4,3.55-7.6,7.1-7.6,2.15,0,4.6.8,4.6,4.55l.2,0c1.75-2.4,4.2-4.6,7.1-4.6a5.63,5.63,0,0,1,5.75,5.6,15.45,15.45,0,0,1-1,3.7l-2.8,7.35a14.82,14.82,0,0,0-1.1,3.9c0,1.6.9,1.8,1.85,1.8,2.35,0,3.85-2.35,5.5-6.6l1,.3C262.56,365.35,260.76,368.45,257.21,368.45Z"/><path class="cls-2" d="M285.13,368.45c-3,0-4.7-1.3-4.7-4.65l-.2,0c-1.9,2.75-4.15,4.85-7,4.85-3.35,0-6.85-1.65-6.85-7.9,0-5.15,4.9-15.85,13.9-15.85a4.28,4.28,0,0,1,4.5,3.65h.15l1.15-3.35h4.5l-5.65,16.35a14.55,14.55,0,0,0-.8,3.7c0,1.65.75,2,1.7,2,2.35,0,3.8-2.35,5.45-6.6l1,.3C290.48,365.35,288.68,368.45,285.13,368.45Zm-5-22.55c-5.15,0-9.05,9.9-9.05,15.85,0,4.6,1.6,5.15,2.9,5.15,2.85,0,5-2.3,6.55-4.9l3.8-11.65C283.73,347.3,282.53,345.9,280.13,345.9Z"/><path class="cls-2" d="M299.17,361.6a16.49,16.49,0,0,0-1,3.8c0,1.6.85,1.8,1.75,1.8,2.4,0,4-2.35,5.6-6.6l.9.3c-1.8,4.45-3.6,7.55-7.15,7.55-2.15,0-5.1-.8-5.1-3.85a16.3,16.3,0,0,1,.9-4.2l7.25-23a11.39,11.39,0,0,0,.7-3.35c0-1.1-.9-1.45-2-1.6-1.25-.15-1.8-.15-3-.2v-1l11-.5Z"/><path class="cls-2" d="M325.72,357.2a24.6,24.6,0,0,0-.75,4.7c0,3.4,1.1,5,3.7,5,3.65,0,6-2.9,8.1-6.7l.9.45c-3.1,5.9-6.5,7.9-9.75,7.9-3.55,0-7.65-1.65-7.65-8,0-5.15,5-15.75,14.3-15.75,2.25,0,4.25,1.1,4.25,3.35C338.82,353.6,330.62,356.45,325.72,357.2Zm7.45-11.35c-2.9,0-5.85,5.3-7.2,10.3,7-1.25,9.4-5.35,9.4-7.65C335.37,346.9,334.77,345.85,333.17,345.85Z"/><path class="cls-2" d="M363,337.5c-1,0-2.8-.55-2.8-2.2,0-.7.6-1.65.75-2.7-.25-.75-.55-.85-1.1-.85-3.2,0-5.6,3.35-7.55,10.4l-1,3.5h6.3l-.55,1.65h-6.2c-1.6,6.15-3.5,14-5.2,19.4-1.2,3.85-3,7.6-6.05,10.1-2.6,2.2-4.55,2.9-7,2.9-4,0-5-2-5-4a2.63,2.63,0,0,1,2.6-2.6,2.5,2.5,0,0,1,2.7,2.4,3.63,3.63,0,0,1-1,2.35,1,1,0,0,0,1,.9c3.7,0,5.9-3.3,8.15-10.65,2.45-8.05,4.15-15.55,5.5-20.8h-5.3l.5-1.65H347l.55-2a19.51,19.51,0,0,1,5.85-10.15,10,10,0,0,1,7.1-2.75c3.45,0,5.1,2.2,5.1,4.25A2.67,2.67,0,0,1,363,337.5Z"/><path class="cls-2" d="M380,337.5c-1,0-2.8-.55-2.8-2.2,0-.7.6-1.65.75-2.7-.25-.75-.55-.85-1.1-.85-3.2,0-5.6,3.35-7.55,10.4l-1,3.5h6.3l-.55,1.65h-6.2c-1.6,6.15-3.5,14-5.2,19.4-1.2,3.85-3,7.6-6.05,10.1-2.6,2.2-4.55,2.9-7,2.9-4,0-5-2-5-4a2.63,2.63,0,0,1,2.6-2.6,2.5,2.5,0,0,1,2.7,2.4,3.63,3.63,0,0,1-1,2.35,1,1,0,0,0,1,.9c3.7,0,5.9-3.3,8.15-10.65,2.45-8.05,4.15-15.55,5.5-20.8h-5.3l.5-1.65H364l.55-2a19.51,19.51,0,0,1,5.85-10.15,10,10,0,0,1,7.1-2.75c3.45,0,5.1,2.2,5.1,4.25A2.67,2.67,0,0,1,380,337.5Z"/><path class="cls-2" d="M381.34,368.45c-2.15,0-5.2-.85-5.2-3.9a12,12,0,0,1,1-4.15l3.35-8.5a18.08,18.08,0,0,0,1.15-4c0-1.45-.7-1.9-1.65-1.9-2.35,0-3.75,2.5-5.4,6.75l-1-.35c1.8-4.4,3.5-7.6,7.1-7.6,2.15,0,5,1.3,5,4.25a19.19,19.19,0,0,1-1.55,5l-2.85,7.35a13.81,13.81,0,0,0-1.15,4c0,1.6.9,1.75,1.8,1.75,2.4,0,3.9-2.35,5.55-6.6l.9.3C386.64,365.35,384.84,368.45,381.34,368.45Zm4.5-29.65a2.5,2.5,0,0,1-2.5-2.8,3.34,3.34,0,0,1,3.4-3.5,2.54,2.54,0,0,1,2.3,2.75A3.25,3.25,0,0,1,385.84,338.8Z"/><path class="cls-2" d="M406.57,352.7a2.42,2.42,0,0,1-2.65-2.25c0-1,1-2.15,2.55-3-.25-1.3-1.1-1.8-2.9-1.8-4.35,0-8.3,10.05-8.3,16.05,0,3.35,1,5.2,3.6,5.2,3.65,0,6.15-2.9,8.2-6.7l1,.45c-3.2,5.9-6.7,7.9-10,7.9-3.5,0-7.5-1.55-7.5-7.9,0-5.15,5-15.85,13.45-15.85a4.77,4.77,0,0,1,5.1,4.5C409.12,351,408.27,352.7,406.57,352.7Z"/><path class="cls-2" d="M418.33,368.45c-2.15,0-5.2-.85-5.2-3.9a12,12,0,0,1,1-4.15l3.35-8.5a18.08,18.08,0,0,0,1.15-4c0-1.45-.7-1.9-1.65-1.9-2.35,0-3.75,2.5-5.4,6.75l-1-.35c1.8-4.4,3.5-7.6,7.1-7.6,2.15,0,5,1.3,5,4.25a19.19,19.19,0,0,1-1.55,5l-2.85,7.35a13.81,13.81,0,0,0-1.15,4c0,1.6.9,1.75,1.8,1.75,2.4,0,3.9-2.35,5.55-6.6l.9.3C423.63,365.35,421.83,368.45,418.33,368.45Zm4.5-29.65a2.5,2.5,0,0,1-2.5-2.8,3.34,3.34,0,0,1,3.4-3.5,2.54,2.54,0,0,1,2.3,2.75A3.25,3.25,0,0,1,422.83,338.8Z"/><path class="cls-2" d="M433,357.2a24.6,24.6,0,0,0-.75,4.7c0,3.4,1.1,5,3.7,5,3.65,0,6-2.9,8.1-6.7l.9.45c-3.1,5.9-6.5,7.9-9.75,7.9-3.55,0-7.65-1.65-7.65-8,0-5.15,5-15.75,14.3-15.75,2.25,0,4.25,1.1,4.25,3.35C446.11,353.6,437.91,356.45,433,357.2Zm7.45-11.35c-2.9,0-5.85,5.3-7.2,10.3,7-1.25,9.4-5.35,9.4-7.65C442.66,346.9,442.06,345.85,440.46,345.85Z"/><path class="cls-2" d="M468.64,368.45c-2.1,0-5.35-.85-5.35-3.9a12.21,12.21,0,0,1,1.1-4.15l3-7.8a13.32,13.32,0,0,0,1-3.75c0-2.1-1.15-2.4-2.45-2.4-2.7,0-5.55,2.85-7.25,6.2l-5,15.25H449l5.4-16a22.61,22.61,0,0,0,.95-4c0-1.4-.45-1.8-1.4-1.8-2.35,0-3.75,2.5-5.4,6.75l-1-.35c1.8-4.4,3.55-7.6,7.1-7.6,2.15,0,4.6.8,4.6,4.55l.2,0c1.75-2.4,4.2-4.6,7.1-4.6a5.63,5.63,0,0,1,5.75,5.6,15.45,15.45,0,0,1-1,3.7l-2.8,7.35a14.82,14.82,0,0,0-1.1,3.9c0,1.6.9,1.8,1.85,1.8,2.35,0,3.85-2.35,5.5-6.6l1,.3C474,365.35,472.19,368.45,468.64,368.45Z"/><path class="cls-2" d="M493.81,352.7a2.42,2.42,0,0,1-2.65-2.25c0-1,1-2.15,2.55-3-.25-1.3-1.1-1.8-2.9-1.8-4.35,0-8.3,10.05-8.3,16.05,0,3.35,1,5.2,3.6,5.2,3.65,0,6.15-2.9,8.2-6.7l1,.45c-3.2,5.9-6.7,7.9-10,7.9-3.5,0-7.5-1.55-7.5-7.9,0-5.15,5-15.85,13.45-15.85a4.77,4.77,0,0,1,5.1,4.5C496.36,351,495.51,352.7,493.81,352.7Z"/><path class="cls-2" d="M518.53,362.6c-3.8,12.25-10.35,17.25-17.35,17.25-5.8,0-6.6-3.3-6.6-4.7a3.1,3.1,0,0,1,3.3-3.45,2.29,2.29,0,0,1,2.3,2.1c0,3.9-2.8,1.6-3.15,3.35.15,1.9,2.7,1.75,3.85,1.75,4.75,0,9.55-4.35,12.9-14.65l-.2,0c-1.75,2.25-4.25,4.3-7.1,4.3a5.7,5.7,0,0,1-5.8-5.6,13.15,13.15,0,0,1,1-3.75l2.85-7.25a13.75,13.75,0,0,0,1.1-4.15c0-1.45-.5-1.7-1.45-1.7-2.35,0-3.8,2.5-5.45,6.75l-.9-.35c1.75-4.4,3.5-7.6,7.05-7.6,2.15,0,5,1.1,5,3.9a13,13,0,0,1-1.1,4.25l-3.1,7.7a12.32,12.32,0,0,0-1,3.65c0,2.15,1.2,2.5,2.5,2.5,2.75,0,5.4-2.35,7-4.65l5.15-16.6h4.45Z"/><path class="cls-2" d="M555.78,361.5a20.84,20.84,0,0,0-.8,3.7c0,1.65.7,2,1.65,2,2.35,0,3.8-2.35,5.45-6.6l1,.3c-1.8,4.45-3.6,7.55-7.15,7.55-3,0-4.55-1.25-4.55-4.55l-.2,0c-2,2.75-4.55,4.75-7.4,4.75-3.35,0-7-1.65-7-7.9,0-5.15,5-15.85,14.05-15.85a4.83,4.83,0,0,1,4.7,3.2h.15l3.2-10.6a12.93,12.93,0,0,0,.75-3.35c0-1.1-.9-1.45-2.05-1.6s-2.25-.15-3.5-.2v-1l11.35-.5Zm-5.1-15.6c-5.2,0-9.2,9.9-9.2,15.85,0,4.6,1.75,5.15,3,5.15,2.85,0,5.3-2.2,6.85-4.8l3.75-12.3C554.28,347,553,345.9,550.68,345.9Z"/><path class="cls-2" d="M585.1,368.45c-2.8,0-4.75-1.1-4.75-4.65l-.2,0c-1.75,2.5-4.45,4.8-7.3,4.8a5.7,5.7,0,0,1-5.8-5.6,13.32,13.32,0,0,1,1-3.7l2.85-7.35a12.86,12.86,0,0,0,1.05-4c0-1.45-.55-1.8-1.5-1.8-2.35,0-3.75,2.5-5.4,6.75l-.9-.35c1.75-4.4,3.45-7.5,7-7.5,2.15,0,5,1.1,5,3.9a12.26,12.26,0,0,1-1,4.15L572,360.8a12.06,12.06,0,0,0-1,3.6c0,2.15,1.15,2.55,2.45,2.55,2.75,0,5.45-2.6,7-5.35l5-16h4.6l-5.25,15.9a21.77,21.77,0,0,0-.8,3.6c0,1.65.7,2.1,1.65,2.1,2.35,0,3.8-2.35,5.45-6.6l1,.3C590.45,365.35,588.65,368.45,585.1,368.45Z"/><path class="cls-2" d="M599.69,357.2a24.6,24.6,0,0,0-.75,4.7c0,3.4,1.1,5,3.7,5,3.65,0,6-2.9,8.1-6.7l.9.45c-3.1,5.9-6.5,7.9-9.75,7.9-3.55,0-7.65-1.65-7.65-8,0-5.15,5-15.75,14.3-15.75,2.25,0,4.25,1.1,4.25,3.35C612.79,353.6,604.59,356.45,599.69,357.2Zm7.45-11.35c-2.9,0-5.85,5.3-7.2,10.3,7-1.25,9.4-5.35,9.4-7.65C609.34,346.9,608.74,345.85,607.14,345.85Z"/><path class="cls-2" d="M17.7,419.3H11.35c-1.35,4.55-3.75,12.55-4.2,14.3a24.2,24.2,0,0,0-1,3.8c0,1.6,1,1.8,1.85,1.8,2.4,0,4.2-2.45,5.85-6.7l1,.3c-1.8,4.45-4,7.65-7.45,7.65-2.15,0-5.2-.8-5.2-3.85a11.35,11.35,0,0,1,.5-2.9c.6-2.25,4-13.25,4.3-14.4H2.2l.55-1.65H7.6l2.2-7.75h4.35l-2.3,7.75h6.4Z"/><path class="cls-2" d="M24.87,440.6c-3.4,0-7.4-2.5-7.4-8.75,0-5.35,4.7-15,14-15,3.4,0,7.4,2.55,7.4,8.8C38.87,431,34.27,440.6,24.87,440.6Zm5.85-22.9c-5.25,0-8.55,9.2-8.55,15.1,0,4.6,1.5,6.85,3.45,6.85,5.6,0,8.55-9.15,8.55-15.1C34.17,419.95,32.52,417.7,30.72,417.7Z"/><path class="cls-2" d="M72.27,433.5a20.84,20.84,0,0,0-.8,3.7c0,1.65.7,2,1.65,2,2.35,0,3.8-2.35,5.45-6.6l1,.3c-1.8,4.45-3.6,7.55-7.15,7.55-3,0-4.55-1.25-4.55-4.55l-.2,0c-2,2.75-4.55,4.75-7.4,4.75-3.35,0-7-1.65-7-7.9,0-5.15,5-15.85,14.05-15.85A4.83,4.83,0,0,1,72,420h.15l3.2-10.6a12.92,12.92,0,0,0,.75-3.35c0-1.1-.9-1.45-2-1.6s-2.25-.15-3.5-.2v-1l11.35-.5Zm-5.1-15.6c-5.2,0-9.2,9.9-9.2,15.85,0,4.6,1.75,5.15,3,5.15,2.85,0,5.3-2.2,6.85-4.8l3.75-12.3C70.77,419,69.52,417.9,67.17,417.9Z"/><path class="cls-2" d="M88.31,440.45c-2.15,0-5.2-.85-5.2-3.9a12,12,0,0,1,1-4.15l3.35-8.5a18.08,18.08,0,0,0,1.15-4c0-1.45-.7-1.9-1.65-1.9-2.35,0-3.75,2.5-5.4,6.75l-1-.35c1.8-4.4,3.5-7.6,7.1-7.6,2.15,0,5,1.3,5,4.25a19.19,19.19,0,0,1-1.55,5l-2.85,7.35a13.81,13.81,0,0,0-1.15,4c0,1.6.9,1.75,1.8,1.75,2.4,0,3.9-2.35,5.55-6.6l.9.3C93.61,437.35,91.81,440.45,88.31,440.45Zm4.5-29.65a2.5,2.5,0,0,1-2.5-2.8,3.34,3.34,0,0,1,3.4-3.5,2.54,2.54,0,0,1,2.3,2.75A3.25,3.25,0,0,1,92.81,410.8Z"/><path class="cls-2" d="M119.69,421.55c-1.6,0-1.85-1-1.85-3.1a4.89,4.89,0,0,0-3.1.85v.3a6.6,6.6,0,0,1,1,3.4c0,5-4.6,8.4-9.35,8.4h-3.15c-1,.5-2.1,1.1-2.1,2.45,0,1.85,1.65,2.05,5.35,2.45,1.5.15,4.55.5,5.55.65a5.57,5.57,0,0,1,4.9,5.6c0,4.9-4.9,9.05-14.25,9.05-6.1,0-9.15-2.3-9.15-5.5s3-5.75,8.45-6.5v-.35c-2.25-.45-4.4-1.25-4.4-3.45,0-3,3.45-4.3,5.05-4.8v-.25c-2.4-1.1-3.8-3-3.8-5.2,0-5,4.4-8.7,9.75-8.7,3.35,0,5.75,1.45,6.4,1.45,1.75-.85,2.6-1.45,4.7-1.45a2.37,2.37,0,0,1,2.3,2.35A2.25,2.25,0,0,1,119.69,421.55Zm-8.6,19.25A44.38,44.38,0,0,0,103,440c-3.4.85-5.2,2.9-5.2,5.9,0,2,1.55,4.7,6.1,4.7,5.55,0,9-2.6,9-7C112.94,442.7,112.33,441.1,111.08,440.8Zm-2.8-23.15c-3.9,0-5.05,5.65-5.05,8.3,0,2.35,1.2,4.65,3.05,4.65,3.75,0,5.25-5.85,5.25-8.9C111.53,419.6,110.44,417.65,108.28,417.65Z"/><path class="cls-2" d="M129.44,440.45c-2.15,0-5.2-.85-5.2-3.9a12,12,0,0,1,1-4.15l3.35-8.5a18.08,18.08,0,0,0,1.15-4c0-1.45-.7-1.9-1.65-1.9-2.35,0-3.75,2.5-5.4,6.75l-1-.35c1.8-4.4,3.5-7.6,7.1-7.6,2.15,0,5,1.3,5,4.25a19.19,19.19,0,0,1-1.55,5l-2.85,7.35a13.81,13.81,0,0,0-1.15,4c0,1.6.9,1.75,1.8,1.75,2.4,0,3.9-2.35,5.55-6.6l.9.3C134.74,437.35,132.94,440.45,129.44,440.45Zm4.5-29.65a2.5,2.5,0,0,1-2.5-2.8,3.34,3.34,0,0,1,3.4-3.5,2.54,2.54,0,0,1,2.3,2.75A3.25,3.25,0,0,1,133.94,410.8Z"/><path class="cls-2" d="M154.53,419.3h-6.35c-1.35,4.55-3.75,12.55-4.2,14.3a24.2,24.2,0,0,0-1,3.8c0,1.6,1,1.8,1.85,1.8,2.4,0,4.2-2.45,5.85-6.7l1,.3c-1.8,4.45-4,7.65-7.45,7.65-2.15,0-5.2-.8-5.2-3.85a11.35,11.35,0,0,1,.5-2.9c.6-2.25,4-13.25,4.3-14.4H139l.55-1.65h4.85l2.2-7.75H151l-2.3,7.75h6.4Z"/><path class="cls-2" d="M173,440.45c-3,0-4.7-1.3-4.7-4.65l-.2,0c-1.9,2.75-4.15,4.85-7,4.85-3.35,0-6.85-1.65-6.85-7.9,0-5.15,4.9-15.85,13.9-15.85a4.28,4.28,0,0,1,4.5,3.65h.15l1.15-3.35h4.5l-5.65,16.35a14.55,14.55,0,0,0-.8,3.7c0,1.65.75,2,1.7,2,2.35,0,3.8-2.35,5.45-6.6l1,.3C178.31,437.35,176.51,440.45,173,440.45Zm-5-22.55c-5.15,0-9.05,9.9-9.05,15.85,0,4.6,1.6,5.15,2.9,5.15,2.85,0,5-2.3,6.55-4.9l3.8-11.65C171.56,419.3,170.36,417.9,168,417.9Z"/><path class="cls-2" d="M187,433.6a16.49,16.49,0,0,0-1,3.8c0,1.6.85,1.8,1.75,1.8,2.4,0,4-2.35,5.6-6.6l.9.3c-1.8,4.45-3.6,7.55-7.15,7.55-2.15,0-5.1-.8-5.1-3.85a16.3,16.3,0,0,1,.9-4.2l7.25-23a11.39,11.39,0,0,0,.7-3.35c0-1.1-.9-1.45-2-1.6-1.25-.15-1.8-.15-3-.2v-1l11-.5Z"/><path class="cls-2" d="M224.66,419.3h-6.35c-1.35,4.55-3.75,12.55-4.2,14.3a24.2,24.2,0,0,0-1,3.8c0,1.6,1,1.8,1.85,1.8,2.4,0,4.2-2.45,5.85-6.7l1,.3c-1.8,4.45-4,7.65-7.45,7.65-2.15,0-5.2-.8-5.2-3.85a11.35,11.35,0,0,1,.5-2.9c.6-2.25,4-13.25,4.3-14.4h-4.8l.55-1.65h4.85l2.2-7.75h4.35l-2.3,7.75h6.4Z"/><path class="cls-2" d="M243.32,423c-1.75,0-2.45-1-2.45-2.1s1.15-1.7,1.15-2.15,0-.65-.75-.65c-1.75,0-4.05,3.8-5.5,6.45l-4.7,15.3h-4.45l5-16a24.1,24.1,0,0,0,.95-4c0-1.45-.45-1.8-1.4-1.8-2.35,0-3.8,2.65-5.4,6.75l-1-.35c1.8-4.4,3.55-7.6,7.1-7.6,2.15,0,4.25,1.4,4.25,5.05l.2,0c1.65-2.55,3.15-5.1,6.35-5.1a3.05,3.05,0,0,1,3.25,3.05C245.92,421.45,245.07,423,243.32,423Z"/><path class="cls-2" d="M264,440.45c-3,0-4.7-1.3-4.7-4.65l-.2,0c-1.9,2.75-4.15,4.85-7,4.85-3.35,0-6.85-1.65-6.85-7.9,0-5.15,4.9-15.85,13.9-15.85a4.28,4.28,0,0,1,4.5,3.65h.15l1.15-3.35h4.5L263.8,433.5a14.55,14.55,0,0,0-.8,3.7c0,1.65.75,2,1.7,2,2.35,0,3.8-2.35,5.45-6.6l1,.3C269.35,437.35,267.55,440.45,264,440.45Zm-5-22.55c-5.15,0-9.05,9.9-9.05,15.85,0,4.6,1.6,5.15,2.9,5.15,2.85,0,5-2.3,6.55-4.9l3.8-11.65C262.6,419.3,261.4,417.9,259,417.9Z"/><path class="cls-2" d="M293.48,440.45c-2.1,0-5.35-.85-5.35-3.9a12.21,12.21,0,0,1,1.1-4.15l3-7.8a13.32,13.32,0,0,0,1-3.75c0-2.1-1.15-2.4-2.45-2.4-2.7,0-5.55,2.85-7.25,6.2l-5,15.25h-4.5l5.4-16a22.54,22.54,0,0,0,1-4c0-1.4-.45-1.8-1.4-1.8-2.35,0-3.75,2.5-5.4,6.75l-1-.35c1.8-4.4,3.55-7.6,7.1-7.6,2.15,0,4.6.8,4.6,4.55l.2,0c1.75-2.4,4.2-4.6,7.1-4.6a5.63,5.63,0,0,1,5.75,5.6,15.45,15.45,0,0,1-1,3.7l-2.8,7.35a14.82,14.82,0,0,0-1.1,3.9c0,1.6.9,1.8,1.85,1.8,2.35,0,3.85-2.35,5.5-6.6l1,.3C298.83,437.35,297,440.45,293.48,440.45Z"/><path class="cls-2" d="M317.85,425.25c-1.25,0-2.45-.6-2.45-2,0-2,2.6-2.6,2.8-3.15-.1-.65-.9-2.2-4.25-2.2a4.08,4.08,0,0,0-4,4.15c0,4.85,8.25,5.15,8.25,11.55,0,3.6-4.15,7.05-8.6,7.05-5.5,0-7.45-3.4-7.45-5.8,0-1.85,1.35-3.45,2.75-3.45,2.2,0,2.65,1.4,2.65,2.2a2.08,2.08,0,0,1-2.2,2.2c-.9,0-1.35,0-1.35.7,0,1.55,2.5,3.1,5,3.1,2.9,0,5.55-1.25,5.55-4,0-5.7-8.35-5.7-8.35-12,0-3.2,3.7-6.8,7.75-6.8,5.45,0,6.2,4,6.2,5.25C320.2,423.95,319.3,425.25,317.85,425.25Z"/><path class="cls-2" d="M344.73,409.5c-1,0-2.8-.55-2.8-2.2,0-.7.6-1.65.75-2.7-.25-.75-.55-.85-1.1-.85-3.2,0-5.6,3.35-7.55,10.4l-1,3.5h6.3l-.55,1.65h-6.2c-1.6,6.15-3.5,14-5.2,19.4-1.2,3.85-3,7.6-6.05,10.1-2.6,2.2-4.55,2.9-7,2.9-4,0-5-2-5-4a2.63,2.63,0,0,1,2.6-2.6,2.5,2.5,0,0,1,2.7,2.4,3.63,3.63,0,0,1-1,2.35,1,1,0,0,0,1,.9c3.7,0,5.9-3.3,8.15-10.65,2.45-8.05,4.15-15.55,5.5-20.8h-5.3l.5-1.65h5.3l.55-2a19.51,19.51,0,0,1,5.85-10.15,10,10,0,0,1,7.1-2.75c3.45,0,5.1,2.2,5.1,4.25A2.67,2.67,0,0,1,344.73,409.5Z"/><path class="cls-2" d="M343.63,440.6c-3.4,0-7.4-2.5-7.4-8.75,0-5.35,4.7-15,14-15,3.4,0,7.4,2.55,7.4,8.8C357.63,431,353,440.6,343.63,440.6Zm5.85-22.9c-5.25,0-8.55,9.2-8.55,15.1,0,4.6,1.5,6.85,3.45,6.85,5.6,0,8.55-9.15,8.55-15.1C352.93,419.95,351.28,417.7,349.48,417.7Z"/><path class="cls-2" d="M378.5,423c-1.75,0-2.45-1-2.45-2.1s1.15-1.7,1.15-2.15,0-.65-.75-.65c-1.75,0-4.05,3.8-5.5,6.45l-4.7,15.3H361.8l5-16a24,24,0,0,0,1-4c0-1.45-.45-1.8-1.4-1.8-2.35,0-3.8,2.65-5.4,6.75l-1-.35c1.8-4.4,3.55-7.6,7.1-7.6,2.15,0,4.25,1.4,4.25,5.05l.2,0c1.65-2.55,3.15-5.1,6.35-5.1a3.05,3.05,0,0,1,3.25,3.05C381.1,421.45,380.25,423,378.5,423Z"/><path class="cls-2" d="M415.58,440.45c-2.1,0-5.35-.85-5.35-3.9a13.16,13.16,0,0,1,1.1-4.15l3-7.8a13.32,13.32,0,0,0,1-3.75c0-2.1-1.3-2.4-2.6-2.4-2.7,0-4.75,2.4-6.35,4.75l-5.45,16.7h-4.55l5.3-16a10.38,10.38,0,0,0,.65-3c0-2.1-1.35-2.4-2.65-2.4-2.7,0-5.65,3.35-7.05,6.2l-5,15.25H383l5.4-16a22.54,22.54,0,0,0,1-4c0-1.45-.45-1.8-1.4-1.8-2.35,0-3.75,2.5-5.4,6.75l-1-.35c1.8-4.4,3.55-7.6,7.1-7.6,2.15,0,4.6.75,4.6,4.55l.2,0c1.85-2.55,4.25-4.6,7.1-4.6,3.6,0,5.5,2.4,5.65,4.6h.2c1.7-2.25,4.1-4.6,7-4.6a5.76,5.76,0,0,1,5.9,5.6,15.45,15.45,0,0,1-1,3.7l-2.8,7.35a14.35,14.35,0,0,0-1.1,3.9c0,1.6.9,1.8,1.85,1.8,2.35,0,3.85-2.35,5.5-6.6l1,.3C420.93,437.35,419.13,440.45,415.58,440.45Z"/><path class="cls-2" d="M443.53,440.45c-3,0-4.7-1.3-4.7-4.65l-.2,0c-1.9,2.75-4.15,4.85-7,4.85-3.35,0-6.85-1.65-6.85-7.9,0-5.15,4.9-15.85,13.9-15.85a4.28,4.28,0,0,1,4.5,3.65h.15l1.15-3.35H449l-5.65,16.35a14.55,14.55,0,0,0-.8,3.7c0,1.65.75,2,1.7,2,2.35,0,3.8-2.35,5.45-6.6l1,.3C448.88,437.35,447.08,440.45,443.53,440.45Zm-5-22.55c-5.15,0-9.05,9.9-9.05,15.85,0,4.6,1.6,5.15,2.9,5.15,2.85,0,5-2.3,6.55-4.9l3.8-11.65C442.13,419.3,440.93,417.9,438.53,417.9Z"/><path class="cls-2" d="M468.57,419.3h-6.35c-1.35,4.55-3.75,12.55-4.2,14.3a24.2,24.2,0,0,0-1,3.8c0,1.6,1,1.8,1.85,1.8,2.4,0,4.2-2.45,5.85-6.7l1,.3c-1.8,4.45-4,7.65-7.45,7.65-2.15,0-5.2-.8-5.2-3.85a11.35,11.35,0,0,1,.5-2.9c.6-2.25,4-13.25,4.3-14.4h-4.8l.55-1.65h4.85l2.2-7.75H465l-2.3,7.75h6.4Z"/><path class="cls-2" d="M476.28,440.45c-2.15,0-5.2-.85-5.2-3.9a12,12,0,0,1,1-4.15l3.35-8.5a18.08,18.08,0,0,0,1.15-4c0-1.45-.7-1.9-1.65-1.9-2.35,0-3.75,2.5-5.4,6.75l-1-.35c1.8-4.4,3.5-7.6,7.1-7.6,2.15,0,5,1.3,5,4.25a19.19,19.19,0,0,1-1.55,5l-2.85,7.35a13.81,13.81,0,0,0-1.15,4c0,1.6.9,1.75,1.8,1.75,2.4,0,3.9-2.35,5.55-6.6l.9.3C481.59,437.35,479.78,440.45,476.28,440.45Zm4.5-29.65a2.5,2.5,0,0,1-2.5-2.8,3.34,3.34,0,0,1,3.4-3.5,2.54,2.54,0,0,1,2.3,2.75A3.25,3.25,0,0,1,480.78,410.8Z"/><path class="cls-2" d="M493,440.6c-3.4,0-7.4-2.5-7.4-8.75,0-5.35,4.7-15,14-15,3.4,0,7.4,2.55,7.4,8.8C507,431,502.41,440.6,493,440.6Zm5.85-22.9c-5.25,0-8.55,9.2-8.55,15.1,0,4.6,1.5,6.85,3.45,6.85,5.6,0,8.55-9.15,8.55-15.1C502.31,419.95,500.66,417.7,498.86,417.7Z"/><path class="cls-2" d="M530.39,440.45c-2.1,0-5.35-.85-5.35-3.9a12.21,12.21,0,0,1,1.1-4.15l3-7.8a13.32,13.32,0,0,0,1-3.75c0-2.1-1.15-2.4-2.45-2.4-2.7,0-5.55,2.85-7.25,6.2l-5,15.25h-4.5l5.4-16a22.54,22.54,0,0,0,1-4c0-1.4-.45-1.8-1.4-1.8-2.35,0-3.75,2.5-5.4,6.75l-1-.35c1.8-4.4,3.55-7.6,7.1-7.6,2.15,0,4.6.8,4.6,4.55l.2,0c1.75-2.4,4.2-4.6,7.1-4.6a5.63,5.63,0,0,1,5.75,5.6,15.45,15.45,0,0,1-1,3.7l-2.8,7.35a14.82,14.82,0,0,0-1.1,3.9c0,1.6.9,1.8,1.85,1.8,2.35,0,3.85-2.35,5.5-6.6l1,.3C535.74,437.35,533.94,440.45,530.39,440.45Z"/></g><g class="cls-1"><path class="cls-2" d="M76.32,122.22,64.44,156.05H48.78l11.34-33.12c-9.54-1.62-20-7.2-33.66-7.2-1.8,0-3.42.18-5.4.36-3.78,3.24-10.8,7.92-13.5,7.92C4,124,0,122.4,0,118.44c0-4.68,5.76-6.12,9.72-6.12,2.88,0,6.66,0,10.26.18C36.9,97.38,52.74,58.32,66.06,12.6H86C72.72,53.64,51.3,94.32,23.94,113A108.77,108.77,0,0,1,36.36,112c11.34,0,19.08,2.34,26.46,3.06L78.66,71.1h16.2l-16,43.56c8.28-1.08,15.66-4,22-11.52l2.16,2C96.48,114.66,85.86,120.06,76.32,122.22Z"/><path class="cls-2" d="M128.69,142.55c-17.64,0-26.28-7.74-26.28-18.36,0-6.84,3.6-11.34,9.54-11.34s9.18,2.88,9.54,13.14c.18,7.38,2.88,11.52,12.24,11.52,19.26,0,39.42-28.8,49.68-59.58l-.72-.54c-7,6.66-15.12,14-29.7,14-16.56,0-29.52-11.52-29.52-30.42,0-25.74,22-48.42,48.42-48.42,19.8,0,34.2,12.24,34.2,37.08C206.09,90.72,172.07,142.55,128.69,142.55ZM172.43,16.74c-17.82,0-30.06,23.58-30.06,44.82,0,15.66,5.76,23.22,18,23.22,14.94,0,30.78-16.92,30.78-42.3C191.15,27,184.49,16.74,172.43,16.74Z"/><path class="cls-2" d="M228.05,141.83l-4.5-3.24L343.07,0l4.86,3.24ZM248.21,70.2c-13.14,0-23.94-8.64-23.94-22.14,0-18.36,17.46-35.28,35.64-35.28,13.86,0,24.3,8.82,24.3,22.5C284.21,55.62,265,70.2,248.21,70.2Zm11.7-53.1c-12.24,0-22,19.26-22,34.74,0,7.92,2.88,13.86,10.8,13.86,11,0,21.78-15.84,21.78-34.38C270.53,22.32,267.11,17.1,259.91,17.1Zm52.74,109.44c-13.14,0-23.94-8.64-23.94-22.14,0-18.36,17.46-35.28,35.64-35.28,13.86,0,24.3,8.82,24.3,22.5C348.65,112,329.39,126.53,312.65,126.53Zm11.7-53.1c-12.24,0-22,19.26-22,34.74,0,7.92,2.88,13.86,10.8,13.86,11,0,21.78-15.84,21.78-34.38C335,78.66,331.55,73.44,324.35,73.44Z"/></g></g></g></svg>