<?xml version="1.0" encoding="utf-8"?>
<!-- Generator: Adobe Illustrator 21.0.0, SVG Export Plug-In . SVG Version: 6.00 Build 0)  -->
<svg version="1.1" id="Layer_1" xmlns="http://www.w3.org/2000/svg" xmlns:xlink="http://www.w3.org/1999/xlink" x="0px" y="0px"
	 viewBox="0 0 550 50" style="enable-background:new 0 0 550 50;" xml:space="preserve">
<style type="text/css">
	.st0{enable-background:new    ;}
	.st1{fill:#FFFFFF;}
</style>
<g class="st0">
	<path class="st1" d="M36,12.4h-1.2c0-3.6-1.1-6.9-3.3-7.2c-1.2-0.1-2.7-0.2-4-0.2h-2.1l-7.8,28.4c-0.1,0.3-0.1,0.9-0.1,1.1
		c0,0.6,0.3,1,1,1.4c0.5,0.2,3.5,0.8,4.5,0.9l-0.3,1H5.5l0.3-1c0.9,0,3.8-0.4,4.5-0.6c1.3-0.5,1.9-1.4,2.2-2.5l7.9-28.7h-2.1
		c-1.1,0-2.9,0-4.1,0.2c-2.3,0.3-6.2,5-7.4,7.2H5.6l2.5-8.7h30.4L36,12.4z"/>
	<path class="st1" d="M51.8,38.4c-2.1,0-5.3-0.8-5.3-3.9c0-1.2,0.4-2.5,1-4.2l3-7.8c0.5-1.3,1-2.7,1-3.7c0-2.1-1.2-2.5-2.5-2.5
		c-2.7,0-5.2,2-7.5,6.2l-4.8,15.3h-4.4l9.6-30.5c0.5-1.7,0.7-2.7,0.7-3.4c0-1.1-0.8-1.4-1.9-1.6c-1.3-0.1-1.8-0.1-3-0.2v-1l10.9-0.5
		l-6,18.1l0.2,0c1.9-2.4,4.2-4.1,7-4.1c3.3,0,5.8,2.6,5.8,5.6c0,0.7-0.5,2.4-1,3.7l-2.8,7.4c-0.7,1.8-1.1,3.2-1.1,4
		c0,1.6,1,1.7,1.9,1.7c2.4,0,3.9-2.3,5.5-6.6l0.9,0.3C57,35.3,55.3,38.4,51.8,38.4z"/>
	<path class="st1" d="M79.9,38.4c-3,0-4.7-1.3-4.7-4.7l-0.2,0c-1.9,2.8-4.2,4.9-7,4.9c-3.4,0-6.9-1.7-6.9-7.9
		c0-5.2,4.9-15.9,13.9-15.9c2.2,0,4.1,1.1,4.5,3.6h0.2l1.2-3.4h4.5l-5.7,16.4c-0.5,1.4-0.8,3.1-0.8,3.7c0,1.7,0.8,2,1.7,2
		c2.3,0,3.8-2.3,5.5-6.6l1,0.3C85.2,35.3,83.4,38.4,79.9,38.4z M74.9,15.9c-5.2,0-9.1,9.9-9.1,15.9c0,4.6,1.6,5.2,2.9,5.2
		c2.8,0,5-2.3,6.5-4.9l3.8-11.7C78.5,17.3,77.3,15.9,74.9,15.9z"/>
	<path class="st1" d="M109.6,38.4c-2.1,0-5.4-0.8-5.4-3.9c0-1.2,0.5-2.5,1.1-4.2l3-7.8c0.5-1.2,1-2.8,1-3.8c0-2.1-1.2-2.4-2.5-2.4
		c-2.7,0-5.6,2.9-7.3,6.2l-5,15.3H90l5.4-16c0.4-1.2,0.9-3.5,0.9-4.1c0-1.4-0.4-1.8-1.4-1.8c-2.4,0-3.8,2.5-5.4,6.8l-1-0.4
		c1.8-4.4,3.5-7.6,7.1-7.6c2.1,0,4.6,0.8,4.6,4.6l0.2,0c1.8-2.4,4.2-4.6,7.1-4.6c3.3,0,5.8,2.6,5.8,5.6c0,0.7-0.5,2.5-1,3.7
		l-2.8,7.4c-0.7,1.8-1.1,3.2-1.1,3.9c0,1.6,0.9,1.8,1.8,1.8c2.4,0,3.9-2.3,5.5-6.6l1,0.3C114.9,35.3,113.1,38.4,109.6,38.4z"/>
	<path class="st1" d="M141.7,21.5c-1,0-2.2-0.7-2.2-1.6c0-2.7,1.7-2,1.9-3.4c-0.2-0.8-0.6-1-1.5-1c-2.8,0-2.6,7.2-8.8,9
		c1.8,0.7,4.2,1.6,4.2,4.7c0,2.7-0.9,4.5-0.9,6.2c0,1.6,0.8,1.8,1.7,1.8c2.4,0,4-2.3,5.6-6.6l1,0.3c-1.8,4.5-3.7,7.6-7.2,7.6
		c-2.7,0-5.4-0.8-5.4-3.9c0-2.2,1-5,1-6.5c0-2-1.5-3-3.6-3c-0.5,0-1,0-1.5,0.1l-4,12.7h-4.4l9.7-30.5c0.5-1.7,0.7-2.7,0.7-3.4
		c0-1.1-0.9-1.4-2-1.6c-1.3-0.1-1.8-0.1-3-0.2v-1l10.9-0.5l-7.6,23.4c0.8,0,1.3,0,2.2,0c6.4,0,5.5-9.4,11.9-9.4
		c3.2,0,4.2,1.4,4.2,3.6C144.6,19.9,143.4,21.5,141.7,21.5z"/>
	<path class="st1" d="M160.9,23.2c-1.2,0-2.5-0.6-2.5-2.1c0-2,2.6-2.6,2.8-3.1c-0.1-0.7-0.9-2.2-4.2-2.2c-1.5,0-4,1.2-4,4.2
		c0,4.9,8.2,5.2,8.2,11.6c0,3.6-4.2,7.1-8.6,7.1c-5.5,0-7.5-3.4-7.5-5.8c0-1.8,1.4-3.5,2.8-3.5c2.2,0,2.7,1.4,2.7,2.2
		c0,0.9-0.5,2.2-2.2,2.2c-0.9,0-1.3,0-1.3,0.7c0,1.5,2.5,3.1,5,3.1c2.9,0,5.6-1.2,5.6-4c0-5.7-8.4-5.7-8.4-12c0-3.2,3.7-6.8,7.8-6.8
		c5.5,0,6.2,4,6.2,5.2C163.2,21.9,162.3,23.2,160.9,23.2z"/>
	<path class="st1" d="M200.9,7.5c-1,0-2.8-0.5-2.8-2.2c0-0.7,0.6-1.6,0.8-2.7c-0.2-0.8-0.5-0.9-1.1-0.9c-3.2,0-5.6,3.4-7.6,10.4
		l-1,3.5h6.3l-0.6,1.7h-6.2c-1.6,6.2-3.5,14-5.2,19.4c-1.2,3.9-3,7.6-6.1,10.1c-2.6,2.2-4.5,2.9-7,2.9c-4,0-5-2-5-4
		c0-1.1,0.9-2.6,2.6-2.6c1,0,2.7,0.6,2.7,2.4c0,1-0.5,1.5-1,2.3c0.1,0.7,0.6,0.9,1,0.9c3.7,0,5.9-3.3,8.2-10.7
		c2.5-8.1,4.2-15.6,5.5-20.8H179l0.5-1.7h5.3l0.6-2c1-4.1,2.8-7.4,5.8-10.2c2.4-2.1,4.8-2.8,7.1-2.8c3.5,0,5.1,2.2,5.1,4.3
		C203.4,5.8,202.6,7.5,200.9,7.5z"/>
	<path class="st1" d="M200,38.6c-3.4,0-7.4-2.5-7.4-8.8c0-5.4,4.7-15,14-15c3.4,0,7.4,2.5,7.4,8.8C214,29,209.4,38.6,200,38.6z
		 M205.9,15.7c-5.2,0-8.5,9.2-8.5,15.1c0,4.6,1.5,6.9,3.5,6.9c5.6,0,8.5-9.2,8.5-15.1C209.3,17.9,207.7,15.7,205.9,15.7z"/>
	<path class="st1" d="M235.1,21c-1.8,0-2.5-1-2.5-2.1c0-1.2,1.2-1.7,1.2-2.1c0-0.5,0-0.7-0.8-0.7c-1.8,0-4.1,3.8-5.5,6.5l-4.7,15.3
		h-4.5l5-16c0.3-1.1,0.9-3.5,0.9-4.1c0-1.5-0.4-1.8-1.4-1.8c-2.4,0-3.8,2.7-5.4,6.8l-1-0.4c1.8-4.4,3.5-7.6,7.1-7.6
		c2.1,0,4.2,1.4,4.2,5.1l0.2,0c1.6-2.6,3.1-5.1,6.3-5.1c2.1,0,3.3,1.5,3.3,3.1C237.7,19.4,236.9,21,235.1,21z"/>
	<path class="st1" d="M261.8,38.5c-2,0-4.2-1.2-4.8-3.2h-0.2l-2.5,8.1c-0.5,1.5-0.7,2.7-0.7,3.3c0,1.1,0.9,1.5,2,1.6
		c1.3,0.1,1.6,0.1,2.8,0.2v1h-14.1v-1c2.3,0,3.2-0.4,3.8-1.1c0.9-1,1.5-3,1.9-4.2l6.8-21.5c0.3-1.1,0.8-3.1,0.8-3.7
		c0-1.6-0.4-2.2-1.3-2.2c-2.2,0-3.8,2.5-5.4,6.8l-1-0.4c1.8-4.4,3.5-7.6,7.1-7.6c2.3,0,4.3,1.3,4.3,4.6l0.2,0c2-2.5,4.4-4.6,7.2-4.6
		c3.4,0,7.1,1.6,7.1,7.9C275.9,27.9,270.8,38.5,261.8,38.5z M268,16.5c-2.8,0-5.1,2.3-6.7,4.8l-3.8,12.4c0.7,2.8,2.1,3.8,4.5,3.8
		c5.2,0,9.2-9.9,9.2-15.8C271.2,17.1,269.3,16.5,268,16.5z"/>
	<path class="st1" d="M296.9,38.4c-3,0-4.7-1.3-4.7-4.7l-0.2,0c-1.9,2.8-4.2,4.9-7,4.9c-3.4,0-6.9-1.7-6.9-7.9
		c0-5.2,4.9-15.9,13.9-15.9c2.2,0,4.1,1.1,4.5,3.6h0.2l1.2-3.4h4.5l-5.7,16.4c-0.5,1.4-0.8,3.1-0.8,3.7c0,1.7,0.8,2,1.7,2
		c2.3,0,3.8-2.3,5.5-6.6l1,0.3C302.3,35.3,300.5,38.4,296.9,38.4z M291.9,15.9c-5.2,0-9.1,9.9-9.1,15.9c0,4.6,1.6,5.2,2.9,5.2
		c2.8,0,5-2.3,6.5-4.9l3.8-11.7C295.5,17.3,294.3,15.9,291.9,15.9z"/>
	<path class="st1" d="M324.2,21c-1.8,0-2.5-1-2.5-2.1c0-1.2,1.2-1.7,1.2-2.1c0-0.5,0-0.7-0.8-0.7c-1.8,0-4.1,3.8-5.5,6.5l-4.7,15.3
		h-4.5l5-16c0.3-1.1,0.9-3.5,0.9-4.1c0-1.5-0.4-1.8-1.4-1.8c-2.4,0-3.8,2.7-5.4,6.8l-1-0.4c1.8-4.4,3.5-7.6,7.1-7.6
		c2.1,0,4.2,1.4,4.2,5.1l0.2,0c1.6-2.6,3.1-5.1,6.3-5.1c2.1,0,3.3,1.5,3.3,3.1C326.8,19.4,325.9,21,324.2,21z"/>
	<path class="st1" d="M344,17.3h-6.4c-1.3,4.6-3.8,12.6-4.2,14.3c-0.4,1.5-1,3.1-1,3.8c0,1.6,1,1.8,1.9,1.8c2.4,0,4.2-2.5,5.8-6.7
		l1,0.3c-1.8,4.5-4,7.7-7.5,7.7c-2.2,0-5.2-0.8-5.2-3.8c0-1.2,0.3-2.4,0.5-2.9c0.6-2.3,4-13.3,4.3-14.4h-4.8l0.5-1.7h4.9l2.2-7.8
		h4.3l-2.3,7.8h6.4L344,17.3z"/>
	<path class="st1" d="M352,38.4c-2.2,0-5.2-0.8-5.2-3.9c0-1.2,0.3-2.4,1-4.2l3.4-8.5c0.5-1.4,1.1-3.4,1.1-4c0-1.5-0.7-1.9-1.6-1.9
		c-2.4,0-3.8,2.5-5.4,6.8l-1-0.4c1.8-4.4,3.5-7.6,7.1-7.6c2.1,0,5,1.3,5,4.2c0,1.2-1,3.6-1.5,5.1l-2.9,7.4c-0.7,1.8-1.2,3.2-1.2,4
		c0,1.6,0.9,1.8,1.8,1.8c2.4,0,3.9-2.3,5.5-6.6l0.9,0.3C357.3,35.3,355.5,38.4,352,38.4z M356.5,8.8c-1.6,0-2.5-1.3-2.5-2.8
		c0-1.9,1.3-3.5,3.4-3.5c1.4,0,2.3,1.4,2.3,2.8C359.7,7.1,358.6,8.8,356.5,8.8z"/>
	<path class="st1" d="M377.5,22.7c-1.2,0-2.7-0.6-2.7-2.2c0-1,1-2.1,2.5-3c-0.2-1.3-1.1-1.8-2.9-1.8c-4.3,0-8.3,10.1-8.3,16.1
		c0,3.4,1,5.2,3.6,5.2c3.7,0,6.2-2.9,8.2-6.7l1,0.5c-3.2,5.9-6.7,7.9-10,7.9c-3.5,0-7.5-1.5-7.5-7.9c0-5.2,5-15.9,13.5-15.9
		c3.2,0,5.1,2.3,5.1,4.5C380,21,379.2,22.7,377.5,22.7z"/>
	<path class="st1" d="M389.5,38.4c-2.2,0-5.2-0.8-5.2-3.9c0-1.2,0.3-2.4,1-4.2l3.4-8.5c0.5-1.4,1.1-3.4,1.1-4c0-1.5-0.7-1.9-1.6-1.9
		c-2.4,0-3.8,2.5-5.4,6.8l-1-0.4c1.8-4.4,3.5-7.6,7.1-7.6c2.1,0,5,1.3,5,4.2c0,1.2-1,3.6-1.5,5.1l-2.9,7.4c-0.7,1.8-1.2,3.2-1.2,4
		c0,1.6,0.9,1.8,1.8,1.8c2.4,0,3.9-2.3,5.5-6.6l0.9,0.3C394.8,35.3,393,38.4,389.5,38.4z M394,8.8c-1.6,0-2.5-1.3-2.5-2.8
		c0-1.9,1.3-3.5,3.4-3.5c1.4,0,2.3,1.4,2.3,2.8C397.2,7.1,396,8.8,394,8.8z"/>
	<path class="st1" d="M410.3,38.5c-2,0-4.2-1.2-4.8-3.2h-0.2l-2.5,8.1c-0.5,1.5-0.7,2.7-0.7,3.3c0,1.1,0.9,1.5,2,1.6
		c1.3,0.1,1.6,0.1,2.8,0.2v1h-14.1v-1c2.3,0,3.2-0.4,3.8-1.1c0.9-1,1.5-3,1.9-4.2l6.8-21.5c0.3-1.1,0.8-3.1,0.8-3.7
		c0-1.6-0.4-2.2-1.3-2.2c-2.2,0-3.8,2.5-5.4,6.8l-1-0.4c1.8-4.4,3.5-7.6,7.1-7.6c2.3,0,4.3,1.3,4.3,4.6l0.2,0c2-2.5,4.4-4.6,7.2-4.6
		c3.4,0,7.1,1.6,7.1,7.9C424.3,27.9,419.3,38.5,410.3,38.5z M416.4,16.5c-2.8,0-5.1,2.3-6.7,4.8l-3.8,12.4c0.7,2.8,2.1,3.8,4.5,3.8
		c5.2,0,9.2-9.9,9.2-15.8C419.6,17.1,417.7,16.5,416.4,16.5z"/>
	<path class="st1" d="M445.4,38.4c-3,0-4.7-1.3-4.7-4.7l-0.2,0c-1.9,2.8-4.2,4.9-7,4.9c-3.4,0-6.9-1.7-6.9-7.9
		c0-5.2,4.9-15.9,13.9-15.9c2.2,0,4.1,1.1,4.5,3.6h0.2l1.2-3.4h4.5l-5.7,16.4c-0.5,1.4-0.8,3.1-0.8,3.7c0,1.7,0.8,2,1.7,2
		c2.3,0,3.8-2.3,5.5-6.6l1,0.3C450.7,35.3,448.9,38.4,445.4,38.4z M440.4,15.9c-5.2,0-9.1,9.9-9.1,15.9c0,4.6,1.6,5.2,2.9,5.2
		c2.8,0,5-2.3,6.5-4.9l3.8-11.7C444,17.3,442.8,15.9,440.4,15.9z"/>
	<path class="st1" d="M470.7,17.3h-6.4c-1.3,4.6-3.8,12.6-4.2,14.3c-0.4,1.5-1,3.1-1,3.8c0,1.6,1,1.8,1.9,1.8c2.4,0,4.2-2.5,5.8-6.7
		l1,0.3c-1.8,4.5-4,7.7-7.5,7.7c-2.2,0-5.2-0.8-5.2-3.8c0-1.2,0.3-2.4,0.5-2.9c0.6-2.3,4-13.3,4.3-14.4h-4.8l0.5-1.7h4.9l2.2-7.8
		h4.3l-2.3,7.8h6.4L470.7,17.3z"/>
	<path class="st1" d="M478.6,38.4c-2.2,0-5.2-0.8-5.2-3.9c0-1.2,0.3-2.4,1-4.2l3.4-8.5c0.5-1.4,1.1-3.4,1.1-4c0-1.5-0.7-1.9-1.6-1.9
		c-2.4,0-3.8,2.5-5.4,6.8l-1-0.4c1.8-4.4,3.5-7.6,7.1-7.6c2.1,0,5,1.3,5,4.2c0,1.2-1,3.6-1.5,5.1l-2.9,7.4c-0.7,1.8-1.2,3.2-1.2,4
		c0,1.6,0.9,1.8,1.8,1.8c2.4,0,3.9-2.3,5.5-6.6l0.9,0.3C483.9,35.3,482.1,38.4,478.6,38.4z M483.1,8.8c-1.6,0-2.5-1.3-2.5-2.8
		c0-1.9,1.3-3.5,3.4-3.5c1.4,0,2.3,1.4,2.3,2.8C486.3,7.1,485.2,8.8,483.1,8.8z"/>
	<path class="st1" d="M508.5,38.4c-2.1,0-5.4-0.8-5.4-3.9c0-1.2,0.5-2.5,1.1-4.2l3-7.8c0.5-1.2,1-2.8,1-3.8c0-2.1-1.2-2.4-2.5-2.4
		c-2.7,0-5.6,2.9-7.3,6.2l-5,15.3h-4.5l5.4-16c0.4-1.2,1-3.5,1-4.1c0-1.4-0.4-1.8-1.4-1.8c-2.4,0-3.8,2.5-5.4,6.8l-1-0.4
		c1.8-4.4,3.5-7.6,7.1-7.6c2.1,0,4.6,0.8,4.6,4.6l0.2,0c1.8-2.4,4.2-4.6,7.1-4.6c3.3,0,5.8,2.6,5.8,5.6c0,0.7-0.5,2.5-1,3.7
		l-2.8,7.4c-0.7,1.8-1.1,3.2-1.1,3.9c0,1.6,0.9,1.8,1.8,1.8c2.4,0,3.9-2.3,5.5-6.6l1,0.3C513.9,35.3,512.1,38.4,508.5,38.4z"/>
	<path class="st1" d="M540.1,19.5c-1.6,0-1.8-1.1-1.8-3.1c-1.6,0-2.4,0.4-3.1,0.9v0.3c0.6,0.9,1,2.2,1,3.4c0,5-4.6,8.4-9.4,8.4h-3.2
		c-1,0.5-2.1,1.1-2.1,2.5c0,1.9,1.6,2.1,5.3,2.5c1.5,0.2,4.6,0.5,5.6,0.7c2.5,0.4,4.9,2.3,4.9,5.6c0,4.9-4.9,9.1-14.3,9.1
		c-6.1,0-9.2-2.3-9.2-5.5c0-3.2,3-5.8,8.5-6.5v-0.4c-2.2-0.4-4.4-1.2-4.4-3.5c0-3,3.5-4.3,5.1-4.8v-0.2c-2.4-1.1-3.8-3-3.8-5.2
		c0-5,4.4-8.7,9.8-8.7c3.4,0,5.8,1.4,6.4,1.4c1.8-0.8,2.6-1.4,4.7-1.4c1.2,0,2.3,1,2.3,2.4C542.4,18.6,541.4,19.5,540.1,19.5z
		 M531.5,38.8c-2.7-0.6-5.5-0.7-8.1-0.8c-3.4,0.9-5.2,2.9-5.2,5.9c0,2,1.6,4.7,6.1,4.7c5.6,0,9-2.6,9-7
		C533.3,40.7,532.7,39.1,531.5,38.8z M528.7,15.6c-3.9,0-5.1,5.7-5.1,8.3c0,2.4,1.2,4.7,3.1,4.7c3.8,0,5.2-5.9,5.2-8.9
		C531.9,17.6,530.8,15.6,528.7,15.6z"/>
	<path class="st1" d="M544.7,38.3c-1.8,0-3.1-1.3-3.1-3.1c0-1.8,1.3-3.1,3.1-3.1s3.1,1.3,3.1,3.1C547.8,37,546.4,38.3,544.7,38.3z
		 M547.1,27.4l-1.2-0.2c1.8-9.5,2.6-18.6,3.2-20.8c0.5-1.9,1.8-3.4,3.7-3.4c1.6,0,2.5,1.1,2.5,2.8C555.3,7.9,551.5,15.2,547.1,27.4z
		"/>
</g>
</svg>
